<?xml version="1.0" encoding="UTF-8"?>
<svg id="Layer_2" data-name="Layer 2" xmlns="http://www.w3.org/2000/svg" viewBox="0 0 107.94 89.14">
  <defs>
    <style>
      .cls-1 {
        fill: #fff;
      }
    </style>
  </defs>
  <g id="Layer_1-2" data-name="Layer 1">
    <g>
      <path class="cls-1" d="M105.58,27.02v62.12h-17.7l-.46-53.98H20.52l-.5,53.98H2.36V27.02L48.88,8.93c3.27-1.27,6.9-1.27,10.18,0l46.52,18.09Z"/>
      <path class="cls-1" d="M105.58,24.31c-.29,0-.58-.05-.87-.17L57.04,5.32c-1.98-.78-4.15-.78-6.14,0L3.23,24.14c-1.21,.48-2.59-.11-3.07-1.33-.48-1.21,.12-2.59,1.33-3.07L49.17,.92c3.1-1.23,6.51-1.23,9.61,0l47.67,18.83c1.21,.48,1.81,1.85,1.33,3.07-.37,.93-1.26,1.5-2.2,1.5Z"/>
    </g>
    <path class="cls-1" d="M28.18,64.32v24.82h24.82v-24.82H28.18Zm5.55,5.84l1.74-3.01,1.73,3.01,1.74,3.02h-2.69v10.76h-1.57v-10.76h-2.69l1.74-3.02Zm12.77,16.13h-11.98v-1.41h11.98v1.41Zm0-13.12v10.76h-1.57v-10.76h-2.69l1.74-3.02,1.74-3.01,1.73,3.01,1.74,3.02h-2.69Z"/>
    <path class="cls-1" d="M54.94,64.32v24.82h24.82v-24.82h-24.82Zm5.55,5.84l1.74-3.01,1.73,3.01,1.74,3.02h-2.69v10.76h-1.57v-10.76h-2.69l1.74-3.02Zm12.77,16.13h-11.98v-1.41h11.98v1.41Zm0-13.12v10.76h-1.57v-10.76h-2.69l1.74-3.02,1.74-3.01,1.73,3.01,1.74,3.02h-2.69Z"/>
    <path class="cls-1" d="M42.54,35.13v24.82h24.82v-24.82h-24.82Zm5.55,5.84l1.74-3.01,1.73,3.01,1.74,3.02h-2.69v10.76h-1.57v-10.76h-2.69l1.74-3.02Zm12.77,16.13h-11.98v-1.41h11.98v1.41Zm0-13.12v10.76h-1.57v-10.76h-2.69l1.74-3.02,1.74-3.01,1.73,3.01,1.74,3.02h-2.69Z"/>
  </g>
</svg>