<?xml version="1.0" encoding="utf-8"?>
<!-- Generator: Adobe Illustrator 27.0.1, SVG Export Plug-In . SVG Version: 6.00 Build 0)  -->
<svg version="1.0" id="Layer_2_00000155124031996948243000000017166304989506080432_"
	 xmlns="http://www.w3.org/2000/svg" xmlns:xlink="http://www.w3.org/1999/xlink" x="0px" y="0px" viewBox="0 0 260.1 267.2"
	 style="enable-background:new 0 0 260.1 267.2;" xml:space="preserve">
<style type="text/css">
	.st0{fill:#D3D3D3;}
	.st1{opacity:0.3;fill:#66BC46;enable-background:new    ;}
	.st2{fill:#FFFFFF;}
	.st3{fill:#66BC46;}
	.st4{fill:none;}
	.st5{fill:#71CDE6;stroke:#7F7F7F;stroke-width:0.5;stroke-miterlimit:10;}
	.st6{fill:#71CDE6;}
	.st7{fill:none;stroke:#22356C;stroke-miterlimit:10;}
	.st8{fill:#22356C;stroke:#FFFFFF;stroke-miterlimit:10;}
</style>
<g id="Layer_1-2">
	<g>
		<path class="st0" d="M48.2,107.6c-11.8-5.2-17.8-5.7-21.9-6c-1.1-0.1-2.1-0.2-3-0.3c-3.8-0.7-21.2-2-23.1-2.1
			c-0.1,0-0.1,0-0.2,0.1s0,0.1,0,0.2l3.6,4.9l-1.5,2.3c0,0.1,0,0.1,0,0.2c0,0.1,0.1,0.1,0.2,0.1l4.3-0.7l2,0.2l1.6,2l0.6,1.9
			c0,0.1,0.1,0.1,0.2,0.1l3-0.1l3.6-0.1c0,0,0.1,0,0.1-0.1l2.7-3l2.3-1.6l0.6,0.6l-0.2,1.4l-0.4,0.5c0,0,0,0.1,0,0.1l0.2,2.5
			l0.7,4.1l0.2,1.7c0,0,0,0.1,0.1,0.1l0.9,0.8c0,0,0.1,0,0.1,0c0,0,0,0,0.1,0l1.4-0.4l1.3-0.5l1.5-0.2l0.7-0.2l0.9,0.3
			c0,0,0.1,0,0.1,0l4.5-0.4l2-0.1c0,0,0.1,0,0.1,0l1.9-1.3l1.1-0.1c0,0,0.1,0,0.1-0.1l1.4-1.3l1.7-0.1c0,0,0,0,0,0l2-0.8
			c0,0,0.1-0.1,0.1-0.1l0.9-3.2l1.4-1.1c0,0,0.1-0.1,0.1-0.2C48.3,107.7,48.2,107.7,48.2,107.6L48.2,107.6z"/>
		<g>
			<g>
				<path class="st1" d="M158.1,243.2c-2.1-0.2-3.6-2-3.4-4.1s2-3.6,4.1-3.4s3.6,2,3.4,4.1S160.1,243.4,158.1,243.2z"/>
				<path class="st2" d="M158.2,241.3c-1-0.1-1.7-0.9-1.6-1.9c0.1-1,0.9-1.7,1.9-1.6s1.7,0.9,1.6,1.9S159.2,241.3,158.2,241.3z"/>
				<path class="st3" d="M159.8,239.6c-0.1,0.8-0.7,1.3-1.5,1.2s-1.3-0.7-1.2-1.5s0.7-1.3,1.5-1.2S159.8,238.9,159.8,239.6z"/>
			</g>
			<path class="st0" d="M156.2,29.9c0,0.1,0.1,0.1,0.1,0.1l1,0.3c0,0,0,0,0,0s0,0,0,0l1.5-0.2c0.1,0,0.1,0,0.1-0.1l0.4-0.8
				c0-0.1,0-0.2-0.1-0.2l-0.8-0.5c0,0-0.1,0-0.1,0l-0.9,0.1c-0.1,0-0.1,0-0.1,0.1l-0.2,0.5l-0.9,0.5
				C156.2,29.8,156.2,29.9,156.2,29.9L156.2,29.9z"/>
			<path class="st0" d="M130.9,21c0.8,0.6,5,3.6,4.5,6.1c-0.2,1,0.3,1.2,1.1,1.4c0.6,0.2,1.3,0.4,1.4,1.3c0.1,1.5,2,4,2.4,4.5
				c0,0,0,0,0.1,0l3.1,1.7c0,0,0,0,0.1,0c0.1,0,0.1,0,0.1-0.1l1.4-2.1c0,0,0,0,0-0.1l0.4-2l0.7-1.2l1.2-0.8l1.3-1.1l1-0.5
				c0,0,0.1,0,0.1-0.1l1.1-2l2.8-3.4c0,0,0,0,0-0.1l0.1-0.7l0.5-0.5c0,0,0.1-0.1,0.1-0.1s0-0.1,0-0.1l-0.7-0.7l0.1-0.8l0.4-0.4
				c0,0,0.1-0.1,0.1-0.1l-0.1-1.3c0,0,0-0.1-0.1-0.1l-1.3-0.8c0,0-0.1,0-0.1,0l-1.4,0.2c0,0-0.1,0-0.1,0.1l-0.3,0.3l-0.6-0.8
				l-1.1-2.4l-1.8-3.6L145.9,9l-1.1-2.4l-0.1-1.3c0,0,0,0,0,0l-0.4-1.4c0,0,0-0.1-0.1-0.1l-0.6-0.4l-0.3-1.2c0,0,0,0,0,0l-0.9-1.5
				c0,0-0.1-0.1-0.1-0.1c0,0-0.1,0-0.1,0l-0.3,0.2c-0.1,0-0.1,0.1-0.1,0.2l0.2,1l-0.4,0.8l-1.4,1.1c0,0-0.1,0-0.1,0l-0.1,0.1
				l-0.4,0.8l-1.5,2.2l-1.5,2.4c0,0,0,0.1,0,0.1l0.1,1.2l-1,2.8l-0.9,1.9l-0.6,1.6l-1.1,0.3c0,0-0.1,0-0.1,0l-0.6,0.6
				c0,0-0.1,0.1-0.1,0.1l-0.2,1l-1,0.9l-0.6-0.1l-0.2-1.6c0-0.1-0.1-0.1-0.1-0.1l-0.4-0.1l-0.2-0.5c0-0.1-0.1-0.1-0.1-0.1h-0.8
				c0,0-0.1,0-0.1,0l-0.9,0.4c0,0,0,0-0.1,0l-0.6,0.8c0,0,0,0.1,0,0.1c0,0,0,0.1,0.1,0.1C128.2,19.3,129.9,20.3,130.9,21L130.9,21z"
				/>
			<path class="st0" d="M152.7,27.9c-0.1,0-0.1,0-0.1,0.1l-0.2,0.6c0,0.1,0,0.2,0.1,0.2l0.6,0.3c0,0,0,0,0.1,0h0l1.6-0.1l0.5,0.2
				c0.1,0,0.1,0,0.2,0l0.8-0.5c0,0,0.1-0.1,0.1-0.1l0.2-0.9c0-0.1,0-0.1-0.1-0.2l-0.8-0.5c0,0-0.1,0-0.1,0l-1.8,0.6L152.7,27.9
				L152.7,27.9z"/>
			<path class="st0" d="M150.1,15.6C150.1,15.6,150.1,15.6,150.1,15.6l0.8,1c0,0,0.1,0.1,0.1,0.1c0,0,0,0,0,0c0.1,0,0.4,0,0.7,0
				c0.1,0,0.2-0.1,0.2-0.1l0.1-0.9c0,0,0-0.1,0-0.1l-1.1-1.6c0,0,0,0-0.1-0.1l-1-0.5c0,0-0.1,0-0.1,0c-0.1,0-0.1,0.1-0.1,0.1
				l-0.1,0.5c0,0,0,0.1,0,0.1L150.1,15.6L150.1,15.6z"/>
			<path class="st0" d="M151.2,29.7C151.2,29.7,151.3,29.8,151.2,29.7l0.8,0.2c0,0,0,0,0,0c0,0,0.1,0,0.1,0c0,0,0.1-0.1,0.1-0.1
				v-0.6c0,0,0,0,0-0.1l-0.2-0.5c0,0-0.1-0.1-0.1-0.1l-0.9-0.3c0,0-0.1,0-0.1,0c0,0-0.1,0.1-0.1,0.1l-0.1,0.8c0,0,0,0.1,0,0.1
				L151.2,29.7L151.2,29.7z"/>
			<path class="st0" d="M153.6,24.5l-0.8,0.7l-0.6,0.4c0,0,0,0-0.1,0l-0.7,0.9c0,0,0,0.1,0,0.1l0.3,1.1c0,0.1,0.1,0.1,0.1,0.1
				c0,0,0,0,0,0c0.1,0,0.1,0,0.1-0.1l0.7-0.8l0.5-1l0.7-0.3c0,0,0.1,0,0.1-0.1l0.5-1c0,0,0-0.1,0-0.1c0,0-0.1-0.1-0.1-0.1l0,0
				l-0.6,0C153.7,24.4,153.6,24.5,153.6,24.5L153.6,24.5z"/>
			<path class="st0" d="M260,74.2C260,74.2,260,74.2,260,74.2l-1-1.2l0.2-1.2l0.7-0.8c0,0,0-0.1,0-0.1l-0.5-3.3c0-0.1,0-0.1-0.1-0.1
				l-0.7-0.4l-0.4-1.5c0,0,0,0,0,0l-2.2-3.9c0-0.1-0.1-0.1-0.2-0.1l-0.1,0.1c-0.3-0.3-1.2-1.2-3.8-2.6c-1-0.5-1.6-0.6-1.9-0.2
				c-0.4,0.6,0.4,2.3,0.7,2.5c0.3,0.2,0.1,0.9-0.2,1.4c-0.3,0.6-0.9,1.3-1.5,1.3c-0.1,0-0.1,0-0.2,0c-0.4-0.1-0.6-0.3-0.8-0.4
				c-0.4-0.2-0.5-0.3-1-0.1c-0.7,0.3-1.7-0.8-2.3-1.8l0,0v0c0.4-2.4,0.1-3-0.2-3.2c-0.6-0.2-1.8,1-2.1,1.5l-6.4,2.5
				c-0.1,0-0.1,0.1-0.1,0.2c0,0.8,0.1,1.8,0.3,2.8c0.1,0.9,0,2.2-0.3,3.6c0,0.1,0,0.1,0.1,0.2c0.6,0.3,2.5,1.4,3.9,1.5
				c0.9,0.1,1.6-0.6,2.5-1.3c0.8-0.7,1.7-1.5,2.9-1.9c0.5-0.2,0.9-0.1,1.2,0.1c0.6,0.5,0.6,1.9,0.6,3.2c0,0.8-0.1,1.5,0.1,1.9
				c0.1,0.2,0.2,0.4,0.4,0.4c0,0,0.1,0,0.1,0c1.1,0.1,3.3-1.7,4-2.6c0.6-0.8,1.8-0.9,3-1c0.8-0.1,1.6-0.2,1.9-0.4
				c0.7-0.6,1.5-1.4,1.8-1.7l0.1,0.1l0.1,0.1c-0.3,0.3-1.1,1.1-1.8,1.7c-0.4,0.3-1.1,0.4-2,0.5c-1.1,0.1-2.3,0.2-2.8,0.9
				c-0.7,1-3,2.8-4.2,2.7c0,0-0.1,0-0.1,0c-0.3-0.1-0.5-0.2-0.6-0.6c-0.1-0.5-0.1-1.2-0.1-2c0.1-1.2,0.1-2.6-0.5-3
				c-0.2-0.2-0.6-0.2-1,0c-1.1,0.4-2,1.2-2.8,1.8c-0.9,0.8-1.7,1.5-2.7,1.4c-1.4-0.1-3.2-1.1-3.9-1.4c0,0-0.1,0-0.1,0
				c-0.1,0-0.1,0.1-0.1,0.1c-0.2,0.8-0.4,1.5-0.7,2.1c-0.3,0.6-0.5,0.9-0.8,0.9c-0.4,0.1-0.7-0.3-1.2-0.9c-0.6-0.6-1.3-1.5-2.5-2.2
				c-2.6-1.6-6.5-0.9-7.3-0.7c-0.1,0-0.1,0.1-0.1,0.1c-0.2,0.7,0.3,1.6,0.8,2.4c0.5,0.9,1,1.8,0.8,2.6c-0.4,1.4-2,3.9-2.4,4.4
				c0,0.1,0,0.1,0,0.2c0.1,0.2,2.7,4.8,4,4.9c0,0,0.1,0,0.1,0c0.1,0,0.3,0,0.4-0.3c0.3-0.6,0.5-1.2,0.7-1.7c0.4-1.2,0.7-2,1.9-2.4
				c0.6-0.2,0.9-0.5,1.3-0.7c0.6-0.4,1.1-0.8,2.6-0.8c0.5,0,0.9,0,1.2,0c1.4-0.1,2.1-0.1,3.8,0.5c0.3,0.1,0.6,0.2,0.8,0.3
				c0.8,0.2,1,0.3,1.5,1.3c0,0.1,0.1,0.1,0.1,0.1s0.1,0,0.1-0.1c0.3-0.6,0.8-1.4,1.7-1.8c1-0.4,2.2-0.2,3.6,0.6
				c0.4,0.2,3.8,1.8,5.6,0.5l0.5-0.3c1.8-1.3,3.8-2.7,6.7-2l0,0.1l0,0l0,0l0,0.1c-2.8-0.7-4.7,0.6-6.5,1.9l0,0
				c-0.1,0.1-0.3,0.2-0.5,0.3c-2,1.4-5.8-0.5-5.8-0.5c-1.3-0.8-2.5-1-3.4-0.6c-1.2,0.5-1.7,1.7-1.8,2.1c0,0,0,0.1,0,0.1
				c0.1,0.2,0.1,0.3,0.2,0.5l0.3,0.7c0.4,1,0.9,1.9,1.3,2.5c0,0.1,0.1,0.1,0.2,0.1c0.8-0.2,5-0.8,10.4,3.9l-0.1,0.1c0,0,0,0.1,0,0.1
				c-5-4.3-9-4.1-10.1-3.9c-0.1,0-0.1,0-0.1,0.1c0,0.1,0,0.1,0,0.2l0.3,0.5c1,1.7,1.8,3.1,1.7,4c-0.1,0.8-0.7,1.4-1.3,2
				c-0.6,0.6-1.2,1.2-0.8,1.7c0.7,1,2.4,3.7,2.9,4.5c0,0.1,0.1,0.1,0.1,0.1c0,0,0,0,0,0c0.1,0,0.1-0.1,0.1-0.1l0.6-1.7l3.2-2.7
				c0,0,0-0.1,0.1-0.1l0.3-1.1l0.9-0.4c0,0,0.1,0,0.1-0.1l0.6-1.3l1.4-1.4c0,0,0.1-0.1,0-0.1c0,0,0,0,0,0c0,0,0,0,0,0
				c0.1,0,0.1,0,0.1-0.1l1.2-1.3l2.3-3.8l0.6-1l1.3-3.8l0.3-1.6l0.7-1.2c0,0,0-0.1,0-0.1L260,74.2L260,74.2z"/>
			<path class="st0" d="M255.5,61c-0.1,0-0.1,0-0.2,0c-0.5-0.5-1.5-1.2-3.3-2.1c-1.1-0.6-1.8-0.6-2.1-0.2c-0.5,0.7,0.4,2.5,0.7,2.8
				c0,0,0,0,0,0c0.2,0.2-0.1,1.1-0.6,1.7c-0.3,0.4-0.7,0.6-0.9,0.6c0,0-0.1,0-0.1,0c-0.3-0.1-0.6-0.3-0.8-0.4
				c-0.4-0.2-0.6-0.4-1.2-0.1c-0.7,0.3-2-1.5-2-1.6c0,0,0-0.1,0-0.1c0.3-2,0.2-3-0.3-3.3c-0.6-0.3-1.6,0.6-2.3,1.5c0,0,0,0-0.1,0
				l-6.1,2.3c-0.1,0-0.1,0-0.1,0s-0.1-0.1-0.1-0.1c0-0.5,0-0.9,0.1-1.1l0.2-0.5c0,0,0.1-0.1,0.1-0.1c0,0,0.1,0,0.1,0
				c0.2,0.1,0.5,0.2,0.9,0.2c0.4-0.1,0.7-0.4,0.9-1c0.6-1.6,2.9-5.4,3.2-6c0,0,0,0,0,0c0,0-0.1,0-0.1,0l0,0c0,0,0,0,0,0l0.1-0.3
				c0,0,0,0,0.1,0s0,0,0.1,0c0,0,0.1,0.1,0,0.2c0,0,0,0,0,0c0.1,0,0.1,0,0.1,0l1.3,1.3l1.4,0.2c0,0,0.1,0,0.1,0.1l1.3,1.5l1.6-0.9
				c0,0,0,0,0.1,0l2.5-0.3c0,0,0.1,0,0.1,0l4.5,1.5c0,0,0.1,0.1,0.1,0.1l0.6,2.1l0.1,1.7l0,0.1C255.6,60.8,255.6,60.9,255.5,61
				L255.5,61z"/>
			<path class="st0" d="M234,139.6c0,0-0.1-0.1-0.1-0.1c-0.8,0-5,0.4-5.4,5.1c-0.2,1.9-0.1,3.9,0,5.6c0.2,2.9,0.3,5.2-1.1,5.8
				c-2.3,0.9-3.3,2.1-3.5,4.1c-0.1,1.6,5.2,4.2,7.5,5.1l0,0.1l0,0.1c-0.7-0.3-2.7-1.1-4.5-2.2c-0.1,0-0.1,0-0.2,0
				c-0.5,0.4-2.3,1.8-3.3,3.5c-1.3,2.1-2.6,3.7-7.1,4.6c-3.8,0.8-5.9,3.7-6.5,4.6c0,0,0,0.1,0,0.1c0,0,0.1,0.1,0.1,0.1
				c1.4,0.7,2.5,1.9,3.3,3.8l-0.1,0c0,0-0.1,0.1-0.1,0.1c-1-2.2-2.4-3.7-4.1-4.1c-1.6-0.4-3.3,0.2-4.1,0.9c-1.7,1.5-5.4,0.9-7.4-0.7
				c-1.4-1-1.4-3.9-1.5-6.5c0-1.3-0.1-2.5-0.3-3.3c-0.1-0.4-0.2-0.6-0.4-0.8c-0.4-0.2-0.9,0.1-1.5,0.3c-0.8,0.4-1.8,0.8-2.5,0.1
				c-0.7-0.7-0.9-1.8-1.1-2.8c-0.2-1.1-0.4-2.1-1.1-2.9c-1.4-1.4-2.7-1.2-4.5-0.4c-0.2,0.1-0.4,0.2-0.7,0.4l-0.1,0
				c-1.5,0.8-3.6,1.9-6-0.4c-2.6-2.5-11.7,1.1-12.2,1.3c-1,0.6-2.9,2.1-2.6,3.1c0.4,1.2-1.9,11.9-4,14.7c0,0.1,0,0.1,0,0.2
				c0,0.1,0.1,0.1,0.1,0.1c1.7,0.3,7.4,1.3,11.3,1c5.1-0.4,8.8,2.1,9.6,6.5c0.8,4.2,4.2,4.8,5.2,4.9c0.6,0.1,2,1,3,8.9
				c0,0.1,0.1,0.1,0.1,0.1c0,0,0,0,0,0c0.1,0,0.1,0,0.1-0.1l0.6-0.7l1.2-0.9c0,0,0.1-0.1,0.1-0.2l-0.1-0.6l1.6-1.6l1.9-1.5
				c0,0,0,0,0,0l2.4-3.3l2.3-0.5c0,0,0.1,0,0.1-0.1l1.2-1.3l1.3-1.2l1.2-0.1l0.9,0.6c0,0,0.1,0,0.1,0l1,0.1c0,0,0.1,0,0.1,0
				c0,0,0.1-0.1,0.1-0.1l0-0.9l0.8-1.8l2.6-2l1.1-0.4c0.1,0,0.1-0.1,0.1-0.2l-0.1-0.5c0-0.1,0-0.1-0.1-0.1l-0.7-0.4c0,0,0,0-0.1,0
				l-0.9-0.1l-0.3-0.5l0.8-0.3c0,0,0,0,0,0l1.6-1.1l1,0.2c0,0,0,0,0.1,0l1.1-0.2c0,0,0.1,0,0.1,0l0.7-0.7l0.8,0c0,0,0.1,0,0.1-0.1
				l0,0.3l-1.4,1l-1.6,0.5c0,0-0.1,0-0.1,0.1l-0.3,0.4c0,0,0,0.1,0,0.1c0,0,0,0.1,0.1,0.1l0.6,0.4c0,0,0.1,0,0.1,0c0,0,0.1,0,0.1,0
				l2.5-1.2l3-1.5c0,0,0.1-0.1,0.1-0.1c0-0.1,0-0.1,0-0.1l-0.2-0.4l0.6-0.6l0.5,0l-0.1,0.6c0,0,0,0,0,0.1c0.2,1.2,0.3,1.2,0.4,1.3
				c0.1,0,1.4,0.1,2,0.1c0,0,0.1,0,0.1,0l1-0.7l1.8-0.1l2.2,0c0,0,0.1,0,0.1,0l1.3-1c0,0,0.1-0.1,0.1-0.1l0-0.7c0,0,0-0.1-0.1-0.1
				l-0.3-0.2l0.1-0.5l2.8-2.2l2.4-1.1l1.2-0.9c0,0,0.1-0.1,0.1-0.1l0.3-0.9c0-0.1,0-0.1,0-0.2l-0.4-0.4l-1.3-2.4l0.6-1.7l0.8-1.2
				c0,0,0-0.1,0-0.1l-0.1-1.2l0.5-0.5l1-0.9c0,0,0.1-0.1,0.1-0.1l0.1-1.4c0-0.1,0-0.1-0.1-0.2l-0.2-0.1l1.5-3l2.3-3.2
				c0,0,0-0.1,0-0.1l-0.1-1.4l-0.9-4.2c0,0,0,0,0-0.1l-0.5-0.7l0.6-2.5l0.6-1c0,0,0,0,0-0.1l0.1-0.8l1.6-1.5c0,0,0.1-0.1,0.1-0.1
				s0-0.1-0.1-0.1C237.9,143.3,235.9,141.8,234,139.6L234,139.6z"/>
			<g>
				<path class="st0" d="M187.4,219.2l0.2-0.8c0-0.1,0-0.1,0-0.1l-0.4-0.4l-0.5-0.3v-1.3c0,0,0-0.1-0.1-0.1l-1.4-1.7l-0.1-0.7
					l0.2-0.8c0,0,0-0.1,0-0.1l-0.3-0.8l-0.6-1.9l-0.8-1.9l0.4-0.4l1.6-0.5c0,0,0.1-0.1,0.1-0.1s0-0.1,0-0.1l-0.5-1.1
					c0,0,0-0.1-0.1-0.1l-0.5-0.2l1.2-0.4c0.1,0,0.1-0.1,0.1-0.2l-0.1-1.3c0-0.1-0.1-0.1-0.1-0.1l-1.3-0.4l0.9-0.3c0,0,0.1,0,0.1-0.1
					l0.6-1c0-0.1,0-0.1,0-0.2c0-0.1-0.1-0.1-0.2-0.1c-1.4,0.2-4.1,0.7-4.5,1.2c-0.3,0.4-1.2,0.1-2.3-0.2c-1.4-0.4-3.1-0.9-4.3-0.4
					c-1.7,0.7-3.6,1.3-4.3,1.6c-0.1,0-0.1,0.1-0.1,0.1s0,0.1,0,0.1c0.2,0.4,0.6,1.3,0.4,1.9c-0.1,0.4-0.4,0.7-0.9,0.8
					c-1.5,0.5-13.1,0.5-19.7,0.5h0c0,0,0-0.1,0-0.1v-0.1c6.2,0.1,18.1,0,19.6-0.5c0.4-0.1,0.7-0.4,0.8-0.7c0.3-0.8-0.6-2-0.6-2
					l-0.1-0.1l0.1,0c0,0,2.5-0.8,4.6-1.7c1.3-0.5,3,0,4.4,0.4c1.3,0.4,1.9,0.5,2.1,0.2c0.4-0.6,2.8-1,4.7-1.3v0.1
					c0,0.1,0.1,0.1,0.1,0.1l0.7,0.5c0.1,0,0.2,0,0.2,0l1-1.1c0.1-0.1,0.1-0.1,0-0.2c0-0.1-0.1-0.1-0.2-0.1h-0.1
					c-1-8.2-2.5-8.8-2.8-8.8c-1.1-0.1-4.6-0.6-5.4-5.1c-0.8-4.4-4.3-6.7-9.4-6.3c-4.1,0.3-10.4-0.8-11.6-1.1c-0.1,0-0.1,0-0.1,0
					c-0.4,0.3-0.9,0.7-1.6,1.3c-3.6,2.7-10.9,8.3-11,15.1c0,0.1,0.1,0.1,0.1,0.2h0.1l-0.2,0.5c0,0,0,0.1,0,0.1v0.1
					c0,0.1,0,0.1,0,0.2h-0.1c-0.1,0-0.1,0.1-0.1,0.2l0.4,6.2l-0.2,0.7l-0.1,0.2c0,0,0,0.1,0,0.1l0.1,0.8l-0.1,0.7v0.8
					c0,0.1,0,0.1,0.1,0.1c0.1,0,0.1,0,0.2,0l1-0.8l2.9,0.1l0.2,1.2c0,0.1,0.1,0.1,0.1,0.1c0,0,0,0,0,0c0,0,0,0,0,0c0,0,0,0,0,0
					c0,0.1,0,0.1,0,0.2l1.3,2.4l0.1,2.2l0.4,2.3c0,0.1,0.1,0.1,0.1,0.1c0,0,0,0,0,0c-0.1,0-0.1,0.1-0.1,0.2l0.4,2.3l-0.2,0.8
					l-1.2,0.1c0,0-0.1,0-0.1,0l-1.6,1c0,0-0.1,0.1-0.1,0.1l-0.2,0.5l-0.8,0.8l-0.4-0.1c-0.1,0-0.1,0-0.2,0l-2.6,2.1c0,0,0,0,0,0.1
					l-0.4,0.9l-1,0.4c0,0,0,0-0.1,0l-2.3,2.2l-0.8,0.4c-0.1,0-0.1,0.1-0.1,0.1l0,1.5l-0.7,0.3l-0.8-0.1c-0.1,0-0.1,0-0.1,0.1
					L137,231c0,0,0,0,0,0.1l-0.3,1c0,0,0,0,0,0.1l0.2,1.4l-0.8,0.3c0,0-0.1,0-0.1,0.1l-0.5,0.9l-1.1,2.5l-0.9,1.1l-0.9,1.9
					c0,0,0,0.1,0,0.1l0.1,0.5l-1.1,0.9c0,0-0.1,0.1-0.1,0.1l-0.1,0.6c0,0,0,0.1,0,0.1c0,0,0.1,0.1,0.1,0.1l1-0.1l0.7,0.3
					c0,0,0.1,0,0.1,0l3.2-1.3l1.4,0.7l1.7,1.9c0,0,0,0,0.1,0.1l1.3,0.4l0.9,1.7l1.8,2.4c0,0,0.1,0.1,0.1,0.1l0.8-0.1
					c0,0,0.1,0,0.1-0.1l1.1-1.4l0.5,0l1.7,2.3c0,0,0.1,0.1,0.1,0.1l1.9,0.7l1.6,0.2l1.6,1.3l0.2,1.7c0,0,0,0.1,0.1,0.1
					c0,0,0.1,0,0.1,0l1.2-0.4l2.6,0.9l1.7,1.7l1.8,2.3c0,0,0,0,0,0l1.5,0.9l-0.1,1.8l-1.1,1.8c0,0,0,0.1,0,0.1l0.8,2l0.3,0.5
					l0.2,0.3l0.9,1l0.4,0.3c0,0,0.1,0,0.1,0c0.1,0,0.1,0,0.1,0l2.3-2.3c0,0,0,0,0-0.1l0.7-2.1l0.7-4.7l0.7-3.2l0.4-0.6
					c0-0.1,0-0.1,0-0.2l-0.6-0.6l-1-1.4l0.3-1.2l0.9-0.5c0,0,0.1-0.1,0.1-0.1l0-0.8l1-1.3c0,0,0-0.1,0-0.1l-0.1-0.6l0.4,0.3
					c0,0,0.1,0,0.1,0l0.9,0.1c0.1,0,0.1,0,0.1-0.1l1-1.4c0,0,0-0.1,0-0.1l0-1.3l0.4-0.4c0,0,0-0.1,0-0.1l0-1.5l0.4-0.6l0.6-0.1
					c0.1,0,0.1-0.1,0.1-0.1l0.4-1.3c0,0,0-0.1,0-0.1l-0.4-0.9c0,0,0,0,0-0.1l-0.7-0.7l-0.1-1.8l0.7,1.1c0,0,0,0,0,0l1.7,1.6
					c0,0,0.1,0.1,0.1,0l0.6-0.1c0,0,0.1,0,0.1,0l0.5-0.4l0.3,0.3l0.2,0.9l-0.4,0.1c-0.1,0-0.1,0.1-0.1,0.1l-0.4,2.3l-1.2,2.7
					l-1.3,0.1c-0.1,0-0.1,0.1-0.1,0.2l-0.1,1.7l-0.3,0.8l-0.3-0.1c0,0-0.1,0-0.1,0l-1.4,0.9l-0.9,0.9c0,0,0,0.1-0.1,0.1l0,0.6
					l-1,0.2c0,0-0.1,0-0.1,0.1l-0.5,0.6c0,0,0,0.1,0,0.1l0.1,0.7c0,0.1,0.1,0.1,0.1,0.1l1.3,0.3c0.1,0,0.1,0,0.1,0l3.9-3.7l1.9-2.6
					l2.7-5.6l1-2.8l0.9-3.5l1.8-4.4c0-0.1,0-0.1,0-0.2h0c0.1,0,0.1-0.1,0.1-0.1l0.6-1.3l2.7-3.8c0,0,0,0,0,0l0.4-1.1
					c0-0.1,0-0.1,0-0.2l-0.3-0.3l0.1-0.8l0.5-0.2c0,0,0.1-0.1,0.1-0.1l0.3-1.5l0.8-0.6c0.1,0,0.1-0.1,0.1-0.2L187.4,219.2
					L187.4,219.2z"/>
				<path class="st0" d="M182.2,230.5L182.2,230.5l-2.7-2.9v0c0,0,0-4,0.5-5.8c0.4-1.6,0.1-3-0.9-4.4c-0.2-0.3-0.4-0.3-0.7-0.2
					c-0.9,0.2-2.7,0.8-9-3.1c-8.2-5.1-15.9,0-17.1,0.8l-0.1-0.1c0,0-0.1-0.1-0.1-0.1c0.9-0.6,8.9-6,17.3-0.8c6.2,3.9,8,3.3,8.8,3.1
					c0.4-0.1,0.6-0.2,0.9,0.3c1,1.5,1.3,2.9,0.9,4.6c-0.4,1.6-0.4,5-0.5,5.6c0,0,0,0.1,0,0.1L182.2,230.5
					C182.3,230.4,182.2,230.4,182.2,230.5L182.2,230.5z"/>
			</g>
			<path class="st0" d="M149.1,32.8l-0.9,0.7c0,0,0,0,0,0l-0.4,0.7c0,0,0,0.1,0,0.2c0,0,0.1,0.1,0.1,0.1l0.4,0.1c0,0,0,0,0,0
				c0,0,0,0,0.1,0l1-0.3c0.1,0,0.1,0,0.1-0.1l0.3-0.9c0-0.1,0-0.1-0.1-0.2l-0.3-0.3C149.3,32.8,149.2,32.8,149.1,32.8L149.1,32.8z"
				/>
			<path class="st0" d="M150.6,30.7l-0.3-0.5c0-0.1-0.1-0.1-0.2-0.1l-0.4,0.2l-0.6,0c0,0-0.1,0-0.1,0l-0.6,0.3c0,0,0,0-0.1,0
				l-1.1,1.4c0,0,0,0,0,0.1l-0.6,2.2c0,0.1,0,0.1,0.1,0.2c0,0,0.1,0,0.1,0c0,0,0,0,0.1,0l0.5-0.2c0,0,0.1,0,0.1-0.1l0.2-0.5l1.3-1.5
				l0.6-0.1c0,0,0.1,0,0.1-0.1l1-1.3C150.6,30.8,150.6,30.7,150.6,30.7L150.6,30.7z"/>
			<path class="st0" d="M101.6,117.7c-0.1-1.9-0.7-3-1.7-3.5c-0.8-0.4-0.6-1.1-0.2-2.1c0.2-0.6,0.5-1.4,0.5-2.1
				c-0.1-1-1.4-0.9-2.9-0.9c-1.1,0-2.1,0.1-2.8-0.3c-0.6-0.3-1.3-0.1-1.9,0.2c-0.9,0.3-1.9,0.7-2.6-0.6c-1.1-2-2.8-12.1-2.9-13.3
				c0-0.1,0-0.1-0.1-0.1s-0.1,0-0.1,0c-0.8,0.2-5.1,1.3-6.6-0.7c-0.9-1.2-3.1-1.9-5-1.6c-1,0.2-2.8,0.8-3.4,3.1
				c-1.2,4.4-3.3,5.3-3.4,5.3h-0.1c-1.1,0-4.4,0.3-4.5,1.1c-0.1,1.2-2.2,2.3-2.9,2.2c-0.3,0-1,0.1-2.2,0.4c-0.1,0-0.1,0.1-0.1,0.2
				l-0.1,1.4c0,0,0,0.1,0,0.1l1,2.3l-0.9,1.9c0,0,0,0.1,0,0.1l1.1,2.9l-0.4,1.3c0,0,0,0.1,0,0.1l1.4,2.4c0,0,0,0.1,0.1,0.1l1.5,0.5
				l0.6,1.9c0,0,0,0.1,0.1,0.1l1.6,0.6l2.2,1.1l1.6,1.2c0,0,0.1,0,0.1,0s0.1,0,0.1-0.1l0.5-0.7l2.6-0.9l2.4,2c0,0,0.1,0.1,0.2,0
				l1.6-0.6l2.5,2.3c0,0,0.1,0.1,0.1,0l1-0.2l2.9,0.7l1.8,0.5l0.5,1.8c0,0.1,0.1,0.1,0.1,0.1l1.3,0.2l1.8,0.8c0,0,0,0,0.1,0
				c0,0,0,0,0,0l3.5-0.7c0.2-0.2,0.3-0.3,0.4-0.4v0c0.6-0.4,3-2,4.5-2.1c1.6-0.1,2.6-0.3,3.2-1.2
				C100.2,123.9,101.6,119.2,101.6,117.7L101.6,117.7z"/>
			<path class="st0" d="M63.6,102.1c0.1-0.8,2.6-1.2,4.6-1.2c0,0,0.1,0,0.1,0c0.4-0.2,2.2-1.2,3.3-5.2c0.5-1.8,1.8-2.9,3.6-3.3
				c2-0.4,4.2,0.3,5.2,1.7c1.6,2.1,6.5,0.7,6.7,0.6c0.1,0,15.8-2,18.5-2.3c2.1-0.2,2.3-7.5,2.2-10.2v0l0,0c0,0,0.5-0.5,0.5-1.3
				c0-0.5-0.4-1.1-1-1.5c-1.6-1.2,0.3-6.9,1.7-10c2.2-5.2,6.2-15.2,5.7-16.3c-0.3-0.5,0-1.8,0.4-3c0.5-1.6,0.8-2.8,0.2-2.9
				c-0.7-0.2-3.6-1.5-6.9-3.1c-2.6-1.2-5.4-2.5-7.8-3.5c-1.9-0.8-3.2-2.9-4.1-6.2c0-0.1-0.1-0.1-0.2-0.1c-1.3,0.2-4.6,0.8-6.3,1.7
				c-2.2,1.2-2.7,3.6-2.8,5.4c-0.1,0.5-0.2,0.8-0.6,1c-1.1,0.5-3.3-1.1-4-1.6c-0.3-0.2-0.6-0.3-0.8-0.2c-1.3,0.5-2.1,4.5-2.1,4.6
				l0,0.1l-3-0.3l0,0c0,0-2-3.9-2.8-6.9c-0.8-3-4.5-11.2-6.7-13c-1.8-1.5-3.8-1.8-4.4-1.8v-0.1c0,0,0-0.1-0.1-0.1c0,0-0.1,0-0.2,0
				l-3,0.9c0,0-0.1,0-0.1,0.1l-1,1.3c0,0,0,0,0,0.1l-0.5,1.7l-3.2,2c0,0,0,0,0,0l-1,1.4l-2.1,1.7c0,0,0,0,0,0l-1.3,2l-2.6,0.4
				L46,34.1l-2.8-1.8l-2.7-1.5c0,0-0.1,0-0.1,0l-1.5,0.3l-0.1-1.7L38.4,28c0,0,0,0,0-0.1l-1.2-1.2l-0.4-1c0-0.1-0.1-0.1-0.2-0.1
				l-1.8,0.6c0,0-0.1,0-0.1,0.1l-1.1,1.5L32.8,28l-0.7-0.6c0,0-0.1,0-0.1,0l-1.3,0.1c0,0-0.1,0-0.1,0.1l-0.7,0.9l-7.4,0.7
				c-0.1,0-0.1,0.1-0.1,0.1L22,31.5c0,0,0,0.1,0,0.1l0.8,1.5c0,0,0.1,0.1,0.1,0.1l2.5,0.4l1,1.5L25.9,36c0,0.1,0,0.2,0,0.2l0.8,0.7
				l-0.2,0.8L25,36.9c0,0-0.1,0-0.1,0l-4.3,1.9c-0.1,0-0.1,0.1-0.1,0.2l0.5,3.6c0,0,0,0.1,0,0.1l1.3,1.4c0,0,0,0,0,0l2.6,1.7
				l1.8,2.7l0.1,3.2l-2.5,14.2l-0.8,3.8c0,0,0,0.1,0,0.1l0.2,0.6L23.3,71l-1.2-0.2l0.1-0.3c0-0.1,0-0.2-0.1-0.2l-1.6-0.8
				c0,0-0.1,0-0.1,0L20,69.7l-1.2,0.1l-0.6-0.2c-0.1,0-0.2,0-0.2,0.1l-0.4,1l-4.3,1.8l-3.3,1c0,0-0.1,0-0.1,0.1l-0.8,0.9l-0.7,0.3
				c0,0-0.1,0-0.1,0.1l-1.2,1.5l-1.5,0.8l-1.1,0.9c0,0-0.1,0.1-0.1,0.2l0.3,1.7l-0.6,1c0,0,0,0.1,0,0.1L4.5,82l-1.6,1.9
				c0,0,0,0.1,0,0.2l0.8,2.3l0.7,1l-0.9,1l-0.9-0.1c0,0-0.1,0-0.1,0l-1.8,1.3c0,0-0.1,0.1-0.1,0.1l0,1.3l-0.6,0.7
				c0,0.1-0.1,0.1,0,0.2l0.5,0.8l-0.1,1.4l-0.4,1.3c0,0,0,0.1,0,0.1l0.5,1l-0.2,1c0,0.1,0,0.1,0.1,0.2l2,1.7c0,0,0.1,0.1,0.2,0
				c0.1,0,0.1-0.1,0.1-0.1v-0.1c2.4,0.2,18.2,1.3,21.9,2c0.8,0.2,1.8,0.2,2.8,0.3c3.9,0.3,9.6,0.8,20.9,5.8c0,0,0,0,0,0
				c0,0,0.1,0,0.1,0l1.1-0.8l2.1-0.6c0,0,0,0,0,0l2-1.2l1.3-0.1l1.4,0.8c0.1,0,0.1,0,0.2,0s0.1-0.1,0.1-0.2l0-0.1
				c0.1,0,0.3-0.1,0.5-0.1c0,0,0,0,0,0l0.8-0.6l0.3,0.2c0,0,0.1,0,0.1,0c1.7-0.4,2.3-0.5,2.5-0.5C61.7,104.2,63.6,103,63.6,102.1
				L63.6,102.1z"/>
			<path class="st0" d="M54.1,11.1C54.1,11.1,54.2,11.2,54.1,11.1l1.5,0.5l1.5,1.1l0.5,1.1L56,16.7c0,0,0,0.1,0,0.2l0.8,1.2
				l-0.2,2.1c0,0.1,0,0.1,0.1,0.2l3.1,0.7c0,0,0,0,0.1,0l2-0.4l2,0.2l0.2,1.1l-1,0.5c-0.1,0-0.1,0.1-0.1,0.2s0.1,0.1,0.1,0.1
				c0.7,0.1,2.5,0.5,4.2,1.8c2.2,1.8,5.8,9.8,6.6,12.8c0.7,2.6,2.3,5.9,2.7,6.6c0,0,0.1,0.1,0.1,0.1l2.4,0.2c0.1,0,0.2,0,0.2-0.1
				c0.4-1.9,1.1-4,2.1-4.4c0.2-0.1,0.6-0.1,1,0.2c1.6,1.2,3.1,1.8,3.7,1.5c0.3-0.1,0.4-0.4,0.5-0.8c0.2-1.8,0.6-4.2,2.9-5.4
				c1.7-0.9,4.9-1.5,6.2-1.7c0,0,0.1,0,0.1-0.1s0-0.1,0-0.1c-0.7-3.1-0.8-6.2-0.8-7.4c0-0.1-0.1-0.1-0.1-0.1c-0.1,0-0.1,0-0.2,0.1
				l-0.4,0.6l-0.9-0.3l-2.7-1.9l-1-1l-0.1-0.9c0,0,0-0.1-0.1-0.1l-1.5-1.3l-1.2-1.1l-0.2-1.2l0.2-0.9c0,0,0-0.1,0-0.1l-0.4-0.6
				l0.1-1.1l0.4-1c0,0,0-0.1,0-0.1l-0.2-1.4l1.1-2.3c0,0,0,0,0,0L88,9.5L89,8c0,0,0-0.1,0-0.1l-0.1-0.7c0,0,0-0.1-0.1-0.1
				c0,0-0.1,0-0.1,0l-1.1,0.2L87,6.4l-0.5-0.9c0-0.1-0.1-0.1-0.2-0.1L85,5.6l-1-0.4l0.4-0.7l0.7-1.3c0,0,0-0.1,0-0.1L85,1.4
				c0,0,0-0.1,0-0.1l-1.2-1.3c0,0-0.1-0.1-0.1-0.1l-1.5,0c0,0-0.1,0-0.1,0l-0.6,0.4l-0.5-0.4c0,0-0.1,0-0.1,0l-0.6,0
				c0,0-0.1,0-0.1,0.1c0,0-0.1,0.1,0,0.1l0.2,1.3L80,3l-3.1,2.6L74.8,6c0,0,0,0-0.1,0l-2.7,1.4L71,7c0,0-0.1,0-0.1,0l-1.8,0.3
				c0,0-0.1,0-0.1,0.1l-1.9,2l-1.9,0.8l-0.7-0.4c0,0-0.1,0-0.1,0l-2.9,0.6l-2.2,0.3l-2.1-0.9c0,0,0,0,0,0l-2-0.1l-1.9-0.4
				c-0.1,0-0.1,0-0.2,0.1c0,0.1,0,0.1,0,0.2L54.1,11.1L54.1,11.1z"/>
			<line class="st4" x1="241.4" y1="53.5" x2="241.3" y2="53.8"/>
			<path class="st5" d="M174.3,55.8c-1.4,0.9-2.6,1.8-3,2.3c-0.2,0.3-0.4,0.7-0.5,1.2c0,0.1,0,0.1,0,0.2s0.1,0.1,0.2,0
				c0.8-0.2,2.4-0.5,4,0.4c2.1,1.2,3.4,3.9,3.9,8l-0.4,4.1c0,0,0,0.1,0,0.1l3.1,4.3c0,0.1,0.1,0.1,0.2,0.1c0.6-0.1,2.8-0.4,3.8,0.5
				c0.4,0.3,0.5,0.8,0.5,1.3l-0.1,1.3l-0.3,0c0,0-0.1,0-0.1,0l-1.7,1.1c-0.1,0-0.1,0.1-0.1,0.2l0.2,3.3c0,0.3,0,1.7,1.3,3
				c0.7,0.7,0.8,1.4,0.9,2c0.1,0.7,0.2,1.2,1.1,1.6c0.9,0.3,2,0.5,3,0.6c0.6,0.1,1.1,0.1,1.4,0.1c0.1,0,0.2-0.1,0.2-0.2
				c0.1-0.5,0.1-0.9,0.1-1.2c0.2-1.5,0.3-2.4-0.1-5.1c-0.5-3.5-0.3-5.3,0.1-7.4c0.3-1.4,0.9-2.1,1.6-3c0.3-0.4,0.7-0.9,1.1-1.5
				c0.4-0.6,0.5-1.1,0.7-1.6c0.4-1.4,0.9-2.7,4.4-3.7c1.8-0.5,3.1-0.8,4.3-1.1c1.9-0.4,2.9-0.6,3.3-1.4c0.2-0.4,0.5-0.6,0.6-0.8
				c0.1-0.1,0.2-0.1,0.2-0.2c0-0.1,0-0.3-0.6-1.3c-1.2-2-1.3-5.8-1-6.5c0.2-0.5,0.8-2.3-0.1-5.2c-0.3-1.2-1.4-5.1,0.2-7.1
				c0.4-0.6,1-0.9,1.8-1.1c0.1,0,0.1,0,0.1-0.1s0-0.1,0-0.1l-0.2-0.6c0,0-0.1-0.1-0.1-0.1l-0.8-0.2c-0.1,0-0.1,0-0.2,0.1
				c0,0-0.1,0.1,0,0.2l0.2,0.5l-0.2,0.2l-1.9-0.6c0,0-0.1,0-0.1,0l-0.6,0.2l-1.6-0.2l-3.8-1.4c0,0-0.1,0-0.1,0l-1.4,0.2
				c-0.1,0-0.1,0.1-0.1,0.2l0,0.4c0,0,0,0.1,0,0.1l0.3,0.6l-0.1,0.2l-0.7-0.3c-0.1,0-0.1,0-0.2,0l-0.3,0.2c0,0-0.1,0-0.1,0.1
				l-0.1,0.5l-1.2,0.7c0,0-0.1,0-0.1,0.1l-0.4,0.7c0,0,0,0,0,0.1l0,1.1l-0.5-0.7l-0.5-1c0,0-0.1-0.1-0.1-0.1c0,0-0.1,0-0.1,0
				l-0.6,0.3c-0.1,0-0.1,0.1-0.1,0.2l0.2,1.2l-0.9,2.2c0,0,0,0,0,0.1l0,0.3l-0.1-0.2l0.3-1.7c0,0,0,0,0-0.1l-0.4-1.4l0.5-2.1
				l0.5-0.5c0,0,0.1-0.1,0-0.1c0,0,0-0.1-0.1-0.1l-0.5-0.4c0,0-0.1,0-0.1,0l-0.7,0l1.1-1.4c0.1-0.1,0-0.2,0-0.2l-2-1.8l-1.2-1.6
				c0,0-0.1-0.1-0.2-0.1l-1,0.2l-1.5-0.1c-0.1,0-0.1,0-0.1,0.1l-0.8,1.1l-0.6,0.4l-0.4-0.8c0,0,0,0-0.1-0.1l-0.6-0.3l-0.4-0.9
				c0,0,0-0.1-0.1-0.1l-0.6-0.4c0,0-0.1,0-0.1,0c-0.1,0-0.1,0.1-0.1,0.1c-2,7.7-4.9,17-6.1,18.1C176.3,54.4,175.3,55.1,174.3,55.8
				L174.3,55.8z"/>
			<path class="st5" d="M192,108.4C192,108.4,192,108.3,192,108.4c-0.1-0.1-0.2-0.1-0.2-0.1l-6.1,2.9c-0.9,0.3-3.4,1-4.1,1
				c-0.2,0-0.6-0.1-0.9-0.2c-0.9-0.2-2.1-0.5-2.7-0.2c-0.7,0.4-2.5,0-3.5-0.3h0l0,0c-0.3-0.5-0.7-0.8-1.1-0.9c0,0,0,0-0.1,0
				c-0.7-0.1-1.5,0.6-2.1,1.1c-0.2,0.2-0.5,0.4-0.7,0.5c-0.4,0.2-1.3,0.3-2.4,0.2s-2-0.3-2.4-0.6c-0.4-0.3-0.8-0.7-1-1.4
				c0-0.1-0.1-0.1-0.1-0.1c-0.1,0-0.1,0-0.2,0.1c-0.8,2.6-2.8,9.2-2.5,15.7v0l0,0c-0.3,0.3-1.6,2-2.4,2.4c-0.4,0.2-0.4,0.4-0.4,0.8
				c0,0.4,0,0.9-0.4,1.7c-0.5,0.9-1.1,1.4-1.7,1.9c-0.4,0.4-0.9,0.8-1.1,1.2c-0.3,0.4-0.7,0.9-1.2,1.4c-0.7,0.7-1.4,1.5-1.5,2.1
				c-0.1,0.5-0.5,0.8-1,1.1c-0.6,0.3-1.3,0.7-1.6,1.6c-0.6,1.6-0.6,3.2-0.6,5.5v0.7c0,2.3,1.4,3.9,1.6,4.3c0,0,0,0,0,0.1
				c0.6,0.6,1.1,1.4,1.6,2.2c0,0.1,0.1,0.1,0.2,0.1c0.8-0.2,3.4-0.9,4.9,0.5c0.6,0.6,1.6,0.8,2.7,1c1.8,0.4,3.6,0.7,3.9,2.9l0,0.2
				c0,0.1,0.1,0.1,0.1,0.1c0,0,0,0,0,0c0.1,0,0.1,0,0.2-0.1c0.8-1.7,3.2-5.6,7.6-6.7c3-0.7,4.4-2.1,5.4-3.1c0.8-0.8,1.4-1.3,2.3-1
				c1.8,0.6,5,0.5,5.6,0.5c0,0,0.1,0,0.1-0.1c0.4-0.4,2.4-2.5,2.3-4.7c0-1.1-0.6-2.1-1.6-2.9l0,0v0c0,0-0.2-1,0.3-3.1
				c0.3-1.6,0.4-2.7,0.3-3.3c0,0,0,0,0-0.1c0,0,0-0.1,0-0.1c0-0.2-0.1-0.3-0.2-0.4c-0.1-0.1-0.2-0.1-0.4-0.1c-0.1,0-0.1,0.1-0.1,0.1
				s0,0.1,0,0.2c0.1,0.1,0.1,0.1,0.2,0.2l0.1-0.1l0,0l-0.1,0.1l0,0c0,0,0.1,0.1,0.1,0.1c0,0,0,0,0,0c0,0,0,0,0,0s0,0,0,0.1
				c0,0,0,0.1,0,0.1c-0.1,0-0.6-0.2-1.4-0.6c-2.8-1.3-4.8-2-4.8-2l0,0l0,0c-0.2-0.6-0.5-1.9,0-2.5c0.7-0.8,2.7-2.2,4.5-1.8
				c1,0.2,1.2,0.9,1.4,1.5c0.2,0.5,0.3,1.1,1,1.4c1,0.4,1.9-0.1,2.3-0.6c0.2-0.4,0.1-0.6,0-0.6c-0.1-0.1-0.1-0.1-0.2-0.2l-0.1-0.1
				c-0.6-0.5-1.4-1.2-1.2-2.6c0.1-1.3,2.4-2.6,3.7-3.2l0.1,0l0,0.1c0.3,0.6,1.2,1.8,2.1,2c0.1,0,0.1,0,0.1-0.1s0.1-0.1,0-0.2
				c-0.8-3-1.1-4.9-0.9-5.4c0-0.1,0-0.2-0.1-0.2c-0.3-0.2-1.2-0.7-1.9-2.1c-0.6-1-0.1-1.8,0.3-2.5c0.5-0.8,1-1.6,0.1-2.9
				c-0.7-1.1-0.5-1.5-0.2-1.9C192,109.2,192.2,108.9,192,108.4L192,108.4z"/>
			<path class="st5" d="M241.5,53.2l-0.1,0.3c0,0,0,0,0-0.1c-0.3,0.6-2.6,4.3-3.3,6c-0.1,0.4-0.4,0.8-0.8,0.9
				c-0.4,0.1-0.8-0.2-0.9-0.3l-0.1-0.1l-0.4,0.9c-0.3,0.8,0,3.2,0.2,4.6c0.2,1.2-0.1,3.8-1.1,6.1c-0.3,0.7-0.5,0.8-0.6,0.8
				c0,0,0,0-0.1,0c-0.2,0-0.5-0.3-0.9-0.8c-0.6-0.6-1.3-1.5-2.6-2.2c-2.4-1.5-5.7-1.1-7-0.8c-0.1,0-0.1,0-0.2-0.1s0-0.1,0-0.2
				c0.1-0.1,0.2-0.3,0.3-0.4c0.6-0.8,1.1-1.3-1.1-3.8c-1.5-1.7-1.4-3.1-1.4-4.5c0.1-1.2,0.1-2.3-1-3.6c-0.8-0.9-1.5-1.5-2-1.9
				c-0.9-0.8-1.3-1.1-1.1-2.2c0.1-0.7,0.1-1.3,0.1-1.8c0-1,0.1-1.9,0.3-2.5c0.2-0.7-0.5-2.4-2-4.6c0-0.1,0-0.1,0-0.2
				c0.1-0.1,0.1-0.1,0.2,0l0.7,0.3l1.8-0.2l1.1-0.8c0,0,0.1,0,0.1,0l2.1,0.7l1.8-0.2c0,0,0.1,0,0.1,0l4.2,2.5l1.4-0.2
				c0,0,0.1,0,0.1,0l1.7,1.4l1.1,0.2c0,0,0.1,0,0.1,0.1l2.7,3.1l3.2,2.8l1.3,0.1c0,0,0,0,0.1,0l1.8,0.7c0,0,0.1,0.1,0.1,0.1
				c0,0,0,0,0,0C241.4,53.2,241.5,53.2,241.5,53.2L241.5,53.2z"/>
			<path class="st6" d="M189.1,94.4L189.1,94.4c0.9,0.1,1.4,0,1.9-0.3c0.5-0.4,0.8-1.1,0.9-2.1c0-0.1,0-0.1,0-0.1
				c0,0-0.1-0.1-0.1-0.1c-0.9,0-3-0.1-4.4-0.7c-1-0.4-1.1-1.1-1.2-1.8c-0.1-0.6-0.2-1.2-0.9-1.9c-1.5-1.5-1.3-3-1.3-3.1l-0.2-3.5
				l2.2-1.3c0,0,0.1-0.1,0.1-0.1l0.1-0.9c0.1-0.5-0.1-0.9-0.4-1.2c-1.1-1-3.8-0.4-3.8-0.4h-0.1l-3.3-4.6l0.4-4.2
				c-0.5-4.1-1.8-6.7-3.8-7.8c-1.8-1-3.7-0.5-4.2-0.3c-0.1,0-0.1,0.1-0.1,0.1c-0.2,0.7-0.3,1.8,0.3,2.2l1,0.6v0c0,0.1,0.3,2.5-0.6,4
				l-0.9,1.5h0c0,0-2.9,0.6-2.8,2.6c0,0.8-0.2,1.8-0.5,2.8c-0.4,1.5-0.7,3.1-0.2,4.2c0.9,2-1.6,8.7-2.4,9.4
				c-0.8,0.7-3.9,13.8-2.7,18.4c0.6,2.4,1.4,3.3,2,3.6c0.5,0.2,0.9,0.1,0.9,0.1l0.1-0.1v0.1c0,0,0.1,1.6,1.1,2.1
				c0.5,0.3,1.4,0.5,2.4,0.6s1.8,0,2.2-0.2c0.2-0.1,0.4-0.3,0.7-0.5c0.6-0.5,1.4-1.2,2.3-1.1c0.4,0.1,0.8,0.4,1.2,0.9
				c0,0,0.1,0.1,0.1,0.1c0.1,0,2.5,0.7,3.2,0.3c0.6-0.3,1.8-0.1,2.8,0.2c0.4,0.1,0.7,0.2,0.9,0.2c0.6,0.1,2.9-0.6,4-0.9l6-2.9
				c0,0,0.1-0.1,0.1-0.1c0-0.1,0-0.1,0-0.1c-0.2-0.3-0.6-0.7-1-1.2c-0.9-1-1.3-1.7-1.2-2.3c0.1-0.5,0.6-0.8,1-1
				c0.5-0.3,0.8-0.5,0.6-0.9c-0.3-0.6-0.2-1-0.2-1.3c0.1-0.5,0.1-0.8-0.9-1.5c-1.3-0.9-2.2-3.6-1.8-4.7
				C188.4,94.6,188.7,94.4,189.1,94.4L189.1,94.4z"/>
			<path class="st5" d="M207,44.3c-1.2,1.6-0.9,4.6-0.2,7c0.9,3,0.3,4.9,0,5.3c-0.3,0.7-0.1,4.4,1,6.3c0.8,1.3,0.7,1.4,0.4,1.8
				c-0.1,0.1-0.4,0.3-0.6,0.7c-0.4,0.8-1.5,1.1-3.4,1.5c-1.1,0.2-2.5,0.5-4.3,1c-3.4,1-3.8,2.2-4.3,3.6c-0.2,0.6-0.4,1.1-0.7,1.7
				c-0.4,0.7-0.8,1.1-1.2,1.6c-0.7,0.9-1.2,1.5-1.5,2.9c-0.5,2.1-0.6,3.9-0.1,7.3c0.4,2.7,0.3,3.6,0.1,5.1c-0.1,0.4-0.1,0.8-0.1,1.3
				c0,0.1,0,0.1,0.1,0.2l4.8,3.4c0,0,0.1,0,0.1,0c0,0,0,0,0,0c0.8,0,5,0.1,6.6-1.7c0.2-0.2,0.3-0.4,0.5-0.5c1.6-1.7,3-3.2,2.1-5.2
				c-0.1-0.2-0.2-0.5-0.3-0.7c-0.6-1.2-0.9-1.9-0.6-2.4c0.2-0.3,0.6-0.4,1.4-0.5c0.9,0,2,0.2,3.1,0.5c1.7,0.4,3.4,0.9,4.3,0.2
				c1.4-1.2,4.2-4.5,4.2-4.5l4.1-2.1c0,0,0.1,0,0.1-0.1c0.3-0.5,2-3.1,2.4-4.4c0.2-0.7-0.3-1.6-0.8-2.4c-0.5-0.9-1.1-1.9-0.8-2.7
				c0.2-0.4,0.4-0.7,0.6-1c0.6-0.8,0.9-1.3-1.1-3.6c-1.6-1.8-1.5-3.3-1.4-4.6c0.1-1.2,0.1-2.2-0.9-3.4c-0.8-0.9-1.4-1.5-1.9-1.9
				c-0.9-0.8-1.3-1.2-1.2-2.4c0.1-0.7,0.1-1.3,0.1-1.8c0-1,0.1-1.9,0.3-2.6c0.3-0.9-1.7-3.9-2.1-4.6l0.1-0.1c0.1,0,0.1-0.2,0-0.2
				s-0.1-0.1-0.2,0l-1.2,0.7c0,0-0.1,0-0.1,0.1l-0.4,0.7l-0.7-0.6l-1.9-1.2c0,0-0.1,0-0.1,0c-0.1,0-0.1,0-0.1,0.1l-0.2,0.4l-0.6-0.5
				c0,0-0.1,0-0.1,0c-0.1,0-0.1,0.1-0.1,0.1l-0.2,0.9l0,0c0,0,0,0,0,0l0,0.3l-0.3-0.2c0,0-0.1,0-0.1,0
				C208.2,43.3,207.5,43.7,207,44.3L207,44.3z"/>
			<path class="st5" d="M245.8,97.2L245.8,97.2c-0.6-0.8-2.2-3.5-2.9-4.5c-0.5-0.6,0-1.2,0.8-2c0.6-0.6,1.2-1.2,1.2-1.8
				c0.1-0.9-0.7-2.3-1.6-3.9c-0.6-1-1.3-2.2-1.9-3.5l-0.3-0.7c-0.9-2-0.9-2.1-1.9-2.4c-0.2-0.1-0.5-0.2-0.8-0.3
				c-1.6-0.6-2.3-0.5-3.7-0.5c-0.4,0-0.8,0-1.2,0c-1.5,0-1.9,0.4-2.5,0.8c-0.3,0.2-0.7,0.5-1.3,0.7c-1.1,0.4-1.4,1.2-1.8,2.3
				c-0.2,0.5-0.4,1.1-0.7,1.7c-0.1,0.3-0.3,0.4-0.6,0.4c0,0-0.1,0-0.1,0c-1-0.1-2.8-2.6-4.1-4.9c0-0.1-0.1-0.1-0.2-0.1l-3.9,1.9
				c0,0,0,0-0.1,0c-0.5,0.6-2.9,3.4-4.2,4.5c-0.9,0.8-2.7,0.3-4.5-0.1c-1.1-0.3-2.2-0.6-3-0.5c-0.7,0-1.1,0.1-1.2,0.4
				c-0.2,0.4,0.1,1,0.6,2.2l0.1,0.1c0.1,0.2,0.2,0.4,0.3,0.6c1,2.1-0.5,3.7-2.1,5.4c-0.2,0.2-0.3,0.4-0.5,0.5
				c-1.8,1.9-6.6,1.8-6.8,1.8h0l-4.6-3.3c-0.1,0-0.1,0-0.2,0c-0.1,0-0.1,0.1-0.1,0.1c-0.1,1-0.5,1.7-0.9,2.1c-0.5,0.4-1.1,0.5-2,0.4
				c-0.3,0-0.5,0.1-0.6,0.4c-0.4,1.1,0.5,3.7,1.7,4.5c1,0.7,1,1.1,1,1.7c0,0.3-0.1,0.7,0.2,1.2c0.3,0.6-0.1,0.8-0.7,1.1
				c-0.4,0.2-0.8,0.5-0.9,0.9c-0.1,0.5,0.3,1.2,1.1,2.1c0.5,0.5,0.8,0.9,1,1.3c0.1,0.1,0.1,0.1,0.2,0.1l0.2-0.1l0.1,0.2l-0.2,0.1
				c-0.1,0-0.1,0.1-0.1,0.2c0.3,0.6,0.1,0.9-0.1,1.2c-0.2,0.4-0.4,0.7,0.2,1.7c0.9,1.4,0.4,2.2-0.1,3.1c-0.4,0.7-0.8,1.4-0.3,2.3
				c0.7,1.3,1.6,1.8,2,2.1c0.2,0.1,0.2,0.2,0.2,0.2c0,0,0,0.1-0.1,0.1c-0.1,0-0.1,0.1-0.1,0.1c-0.1,0.6,0.5,3.5,1,5.3
				c0,0.1,0,0.1,0.1,0.1c0,0,0.1,0,0.1,0c0.6-0.2,1.4-1.1,2.2-1.9c1.1-1.1,2.3-2.3,3.4-2.8c0.6-0.2,1.1-0.6,1.6-0.9
				c1.4-1,2.9-2.1,5.7,0.1c1.9,1.5,2.6,1.4,3.4,1.3c0.8-0.1,1.7-0.2,3.8,0.9c1.8,0.9,2.6,0.6,3.3,0.4c1-0.4,1.9-0.7,5.2,2.2
				c2.5,2.3,3.6,1.8,4.6,1.4c1.3-0.6,2.6-1.1,6.4,2.8l0.1,0.1l-0.1,0.1c-0.1,0.1-4.6,5.4-2.4,8.9c2.1,3.4,5.6,6,6.1,6.3
				c0,0,0.1,0,0.1,0c0,0,0.1,0,0.1,0c0.1,0,0.1-0.1,0.1-0.1l0.1-0.5c0,0,0-0.1,0-0.1l-0.7-2.4l0.8-3c0,0,0-0.1,0-0.1l-0.5-2.2
				l0.2-1.7c0,0,0,0,0-0.1l-0.2-0.9l0.4-2.5c0,0,0,0,0-0.1l-1.4-8.9l-0.1-1.6l0.4-1.3c0,0,0,0,0-0.1l-0.1-1.2c0-0.1-0.1-0.1-0.1-0.1
				c-0.1,0-0.1,0-0.2,0.1l-0.4,0.6l-0.9-0.6l-0.1-0.6l0.8-1.5c0,0,0-0.1,0-0.1l-0.4-1.4l0.1-0.9l0.8-0.3c0.1,0,0.1-0.1,0.1-0.2
				l0.1-1.6c0,0,0-0.1,0-0.1l-1-1.4c0,0-0.1-0.1-0.1-0.1l-1.5-0.5l0.1-0.1c0,0,0.1-0.1,0.1-0.1l0.1-0.2l0.2,0.4c0,0,0,0.1,0.1,0.1
				l1.1,0.5l1,0.2c0,0,0.1,0,0.1,0c0,0,0.1-0.1,0.1-0.1l0.2-1.3l0.7,0l0.4,0.7c0,0,0.1,0.1,0.1,0.1l0.5,0.2l-0.5,0.9l-0.9,0.8
				c0,0,0,0.1-0.1,0.1l-0.2,0.8c0,0,0,0.1,0,0.1c0,0,0.1,0.1,0.1,0.1l0.7,0c0,0,0.1,0,0.1-0.1l1.2-1.3l1.7-1.1c0,0,0,0,0.1-0.1
				l2-3.7l0.8-2.7l0.2-1.5l0.8-0.8c0,0,0,0,0-0.1l0.7-2.4c0-0.1,0-0.1-0.1-0.2S245.9,97.2,245.8,97.2L245.8,97.2z"/>
			<path class="st5" d="M95.6,25.8L95.6,25.8L95.6,25.8c0.1,0.8,0.1,4.4,0.9,7.8c0,0.1,0.1,0.1,0.2,0.1h0l0,0.2c0,0-0.1,0-0.1,0.1
				c0,0,0,0.1,0,0.1c0.8,3.2,2.2,5.2,3.9,6c2.3,1,5.2,2.4,7.8,3.5c3.3,1.5,6.2,2.9,6.9,3.1c0.8,0.2,0.4,1.7-0.1,3.2
				c-0.4,1.4-0.7,2.5-0.4,2.9c0.4,0.7-1.8,7.2-5.7,16.5c0,0.1-3.6,8.3-1.7,9.8c0.7,0.5,1,1.1,1.1,1.7c0,0.6-0.2,1.1-0.4,1.3
				c0,0.1,0,0.1,0,0.2c0.8,1.5,5.2,9.1,8.9,10.4c0.5,0.2,1.3,0.3,2.4,0.4c7.5,0.7,26.4-0.3,27.4-0.3l15.9-0.7c0.1,0,0.1-0.1,0.1-0.1
				c0.7-2.9,1.3-4.5,1.5-4.7c0.8-0.7,3.3-7.2,2.4-9.2c-0.6-1.2-0.2-2.8,0.2-4.3c0.2-1,0.5-2,0.4-2.8c-0.1-2,2.4-2.6,2.9-2.7
				c0,0,0.1,0,0.1-0.1l0.9-1.4c0.8-1.2,0.7-3.2,0.6-3.7c0,0,0-0.1-0.1-0.1l-0.9-0.5c-0.6-0.4-0.6-1.4-0.5-2c0.1-0.9,0.5-1.8,0.8-2.3
				c0.4-0.6,1.7-1.5,3.1-2.4c0.9-0.6,1.9-1.3,2.6-1.9c1.7-1.4,6-17.8,6.1-17.9c0,0,0-0.1,0-0.2s-0.1-0.1-0.1,0l-0.7,0.1l-0.5-0.6
				c0,0-0.1,0-0.1,0l-0.9-0.3c-0.1,0-0.1,0-0.2,0.1l-0.2,0.3v-0.1c0-0.1-0.1-0.1-0.1-0.1l-0.7-0.3l-0.5-0.9c0-0.1-0.1-0.1-0.2-0.1
				l-0.7,0.4l-1.4-0.3l-2.1-1c0,0-0.1,0-0.1,0l-0.6,0c-0.1,0-0.1,0-0.2,0.1l-0.2,0.5l-1.1-0.6c0,0-0.1,0-0.1,0l-0.9,0.2
				c-0.1,0-0.1,0.1-0.1,0.1l-0.1,0.7l-0.3,0l-0.4-0.8c0-0.1-0.1-0.1-0.2-0.1l-1.5,0.1c0,0-0.1,0-0.1,0l-1.2,0.8c0,0-0.1,0-0.1,0.1
				l-0.6,1.3c0,0,0,0.1,0,0.1l0.1,0.7l-1.2,1.5l-1.8,1.2l-2.3,1.6c0,0,0,0,0,0l-1,1.5c0,0,0,0,0,0l-0.6,2l-0.1,1.8l-0.5,1l-1,1.2
				c0,0,0,0.1,0,0.1l0.1,0.8l0.3,1.3l0,1.6l-0.2-0.7c0,0,0,0,0,0l-1-1.4l0-1l0.8-1.2l1-1c0,0,0.1-0.1,0.1-0.2l-0.3-1.8l0.4-1.5
				c0,0,0,0,0-0.1l-0.2-0.8c0-0.1-0.1-0.1-0.2-0.1l-0.8,0c0,0,0,0-0.1,0l-1.5,0.7l-1.7-0.3c0,0,0,0-0.1,0l-1.5,0.2l-1.1,0.4
				l-0.4-0.3l0.4,0c0,0,0.1,0,0.1,0l1-0.9l1.1-0.3l2,0.2l0,0c0,0,0,0,0.1,0l1.1-0.4c0,0,0.1,0,0.1-0.1l0.9-1.3l0.3,0l0.6,0.4
				c0,0,0.1,0,0.1,0l0.7-0.3l1.1-0.8l1.9-0.8c0.1,0,0.1-0.1,0.1-0.2l-0.1-1.5l1.5-2.1c0,0,0-0.1,0-0.1l-0.1-1.4l0.6-1c0,0,0,0,0-0.1
				V31c0-0.1-0.1-0.1-0.1-0.2l-1.8-0.2l-1.5-1c0,0-0.1,0-0.1,0l-1.3,0.1c0,0-0.1,0-0.1,0l-1.8,1.3l-1.5,0.2l-2.4-0.8c0,0,0,0-0.1,0
				l-2.5,0c0,0-0.1,0-0.1,0.1l-1.6,2.1c0,0,0,0.1,0,0.1l0.2,0.8c0,0,0,0.1,0.1,0.1l0.6,0.4l0.3,0.4l-0.6,0.1c0,0,0,0-0.1,0l-0.5,0.3
				c0,0-0.1,0-0.1,0.1l-0.2,0.8l-0.2-0.6c0,0-0.1-0.1-0.1-0.1l-0.6-0.2c0,0-0.1,0-0.1,0l-1.4,0.7c0,0-0.1,0-0.1,0.1l-1.3,2.3
				l-0.2,0.3l-0.2-1.3l0.2-0.8c0,0,0,0,0,0l0.1-1c0,0,0-0.1-0.1-0.1c0,0-0.1,0-0.1,0l-0.7,0.1c0,0-0.1,0-0.1,0l-1.2,1.2
				c0,0,0,0,0,0.1l-0.5,1.6l-0.5,1.7l-0.5,0.4l0.6-1.5c0,0,0,0,0-0.1l0.1-1.5l0.4-0.6c0,0,0-0.1,0-0.1s0-0.1-0.1-0.1l-3.2-1.7
				c-0.2-0.3-2.4-2.9-2.5-4.6c0-0.7-0.6-0.9-1.2-1.1c-0.7-0.2-1.4-0.5-1.2-1.6c0.4-1.8-2.1-4.3-4.4-5.9c-1.1-0.8-3.2-2.1-4.8-3
				c0,0-0.1,0-0.1,0l0,0l-0.1-0.1c-0.4-0.2-0.7-0.4-0.9-0.5l0.1-0.1c0,0,0-0.1,0-0.1l0-0.6c0,0,0-0.1-0.1-0.1l-0.3-0.3l-0.8-1.6
				c0-0.1-0.1-0.1-0.1-0.1l-0.9-0.1l-1.4-1.1c0,0-0.1,0-0.1,0l-1.7,0.1c0,0-0.1,0-0.1,0l-1.2,0.7l-2.7,0.4l-1.5-0.2c0,0-0.1,0-0.1,0
				l-1.2,1c0,0-0.1,0.1-0.1,0.1l-0.1,1.2c0,0,0,0.1,0.1,0.1l1.3,1.1l1.1,2l-0.1,0.4l-1,0.1l-1.7-0.3l-0.4-0.3c0,0-0.1,0-0.1,0
				l-0.5,0l-0.1,0c0,0-0.1,0-0.1,0l-2.1,0.2l-1.1,0.3l-0.5-0.5c0,0-0.1,0-0.1,0l-1.9,0.3c0,0,0,0-0.1,0l-1.3,0.7
				c0,0-0.1,0.1-0.1,0.1l-0.6,2l-2.6,0.1c0,0,0,0-0.1,0l-1.3,0.5c-0.1,0-0.1,0.1-0.1,0.1l-0.1,0.6l-0.8,1.1l-1.3,0.2l-0.2-0.3
				c0-0.1-0.1-0.1-0.2-0.1l-0.9,0.3c-0.1,0-0.1,0.1-0.1,0.2C95.5,25.7,95.5,25.8,95.6,25.8L95.6,25.8z"/>
			<path class="st5" d="M164.7,157.8c-0.3-2.1-2-2.4-3.7-2.8c-1-0.2-2.1-0.4-2.8-1c-1.6-1.5-4.8-0.4-4.9-0.4l-0.1,0l0-0.1
				c-1.9-4.1-5.8-4.6-5.8-4.6h-0.1l-0.9-2.7c0-0.1-0.1-0.1-0.1-0.1c-0.1,0-0.1,0-0.1,0c-0.5,0.4-1.9,1.5-3.4,1.8
				c-1.9,0.4-4.2,0.2-10.8-1c-0.1,0-0.3,0-0.4-0.1c-6.1-0.6-12.2,9-13,10.3l-0.1-0.1c0,0-0.1,0-0.1,0c0.7-1.2,7.1-11.5,13.6-10.4
				l0,0c6.6,1.1,8.8,1.3,10.7,1c1.8-0.3,3.5-1.9,3.6-2l0.1-0.1l1,3c0,0.1,0.1,0.1,0.1,0.1c0.4,0.1,1.6,0.3,2.8,1.1
				c0.1,0,0.1,0,0.2,0c0.1-0.1,0.1-0.1,0-0.2c-0.5-1-0.7-2-0.8-3V146c0-2.3-0.1-4,0.6-5.6c0.4-1,1.1-1.4,1.7-1.7
				c0.5-0.3,0.9-0.5,0.9-0.9c0.1-0.7,0.8-1.4,1.6-2.2c0.5-0.5,0.9-0.9,1.2-1.4c0.3-0.5,0.7-0.9,1.2-1.3c0.6-0.5,1.2-1,1.6-1.8
				c0.4-0.7,0.4-1.2,0.4-1.6c0-0.4,0-0.7,0.5-1c0.8-0.4,2.2-2.2,2.2-2.3c0,0,0-0.1,0-0.1c-0.2-7,2-14.1,2.7-16.2c0-0.1,0-0.1,0-0.2
				c0-0.1-0.1-0.1-0.1-0.1c-0.2,0-0.4-0.1-0.6-0.2c-0.9-0.4-1.6-1.7-2.1-3.7c-0.7-2.9,0.1-9,1.1-13.4c0-0.1,0-0.1,0-0.1
				c0,0-0.1-0.1-0.1-0.1l-15.8,0.7c-2,0.1-20,1-27.4,0.3c-1.2-0.1-2-0.2-2.5-0.4c-3.3-1.2-7.1-7.2-8.6-9.7c0-0.1-0.1-0.1-0.2-0.1
				c-0.1,0-0.1,0.1-0.1,0.2c0,2.2-0.1,9.2-2.4,9.4c-2.3,0.2-14.5,1.8-18.2,2.2c-0.1,0-0.1,0-0.1,0.1c0,0,0,0.1,0,0.1
				c0.3,1.9,1.9,11.3,2.9,13.2c0.6,1.2,1.4,0.8,2.3,0.5c0.7-0.2,1.4-0.5,2.1-0.1c0.6,0.3,1.7,0.3,2.7,0.3c1.8-0.1,3,0,3.1,1.1
				c0,0.8-0.2,1.5-0.5,2.2c-0.3,0.9-0.6,1.5,0.1,1.9c1.4,0.7,1.7,2.3,1.8,3.7c0.1,1.7-1.4,6.2-2,7.3c-0.7,1.1-1.8,1.2-3.4,1.3
				c-1.2,0.1-3.4,1.4-4.2,1.9l-0.1,0.2l-0.1,0.2l2.5,1.1l0.6,1l-0.1,3c0,0,0,0,0,0.1l0.8,2.4l-0.6,1.5c0,0.1,0,0.1,0,0.2l2.8,3.9
				l0.1,3c0,0,0,0.1,0.1,0.1c0,0,0.1,0.1,0.1,0l11.6-0.8l0.9,4l0,2.7c0,0.1,0.1,0.1,0.1,0.2l3.4,0.5l3.8,5.5c0,0,0.1,0.1,0.1,0.1h0
				c0,0,0,0,0,0c0,0,0,0.1,0,0.1l0.5,3.2l-2.7,6.8c0,0,0,0.1,0,0.1l0.2,0.9l-0.8,1.2c0,0.1,0,0.1,0,0.2l0.6,0.6l-0.2,1.4
				c0,0.1,0,0.1,0.1,0.2l1.7,1.1l0.3,1.9c0,0,0,0.1,0,0.1l1.5,1.8l-0.3,4c0,0,0,0,0,0.1l0.5,1.6l-0.3,1.4c0,0,0,0.1,0,0.1l0.6,1.4
				c0,0.1,0.1,0.1,0.2,0.1l2.4-0.4l1.1,0.4c0,0,0.1,0,0.1,0l3-0.4l1.9,0.5c0,0,0.1,0,0.1,0l2.9-1.5l1.6,1c0,0,0,0,0.1,0l1.2,0.3
				l0.6,1.4l2.3,7.1l1.4,2.4c0,0,0.1,0.1,0.1,0.1l1.2,0.2h0c0,0,0.1,0,0.1,0l2.4-1.6l1.4,0.4l1.1,0.8c0,0,0.1,0,0.1,0h0.1
				c0,0,0.1,0,0.1,0s0.1-0.1,0.1-0.1c0.1-6.8,7.5-12.4,11.1-15.2c0.8-0.6,1.4-1.1,1.7-1.4c2-1.9,4.6-13.7,4.2-14.8
				c-0.3-1,1.1-2.3,2.6-3.2c0.1,0,0.1-0.1,0.1-0.2L164.7,157.8L164.7,157.8z"/>
			<path class="st5" d="M186.4,147.9c-0.1,0-3.7,0.2-5.8-0.5c-0.9-0.3-1.3,0.2-2.1,0.9c-0.9,0.9-2.4,2.3-5.4,3.1
				c-5.1,1.2-7.5,6.7-7.8,7.3c0,0,0,0.1,0,0.1l0.3,2c0,0,0,0.1,0.1,0.1c0,0,0.1,0,0.1,0c1.6-0.6,9.5-3.5,11.9-1.1
				c2.2,2.2,4.1,1.1,5.7,0.3c0.3-0.1,0.5-0.3,0.8-0.4c1.6-0.7,3.1-1.2,4.7,0.4c0.8,0.8,1,1.9,1.2,2.9c0.2,1,0.4,2,1,2.6
				c0.6,0.6,1.3,0.3,2.3-0.1c0.6-0.3,1.2-0.5,1.6-0.3c0.3,0.1,0.4,0.4,0.6,0.9c0.2,0.8,0.2,2,0.3,3.3c0.1,2.5,0.2,5.3,1.4,6.3
				c1,0.8,2.5,1.3,3.9,1.4c1.3,0.1,2.5-0.1,3.2-0.8c0.9-0.8,2.6-1.4,4.3-1c0.1,0,0.3,0.1,0.5,0.1c0.1,0,0.1,0,0.2-0.1
				c0.5-0.9,2.6-3.9,6.6-4.7c4.4-0.9,5.6-2.4,6.9-4.5c1-1.6,2.6-2.9,3.2-3.4c0,0,0.1-0.1,0.1-0.1c0-0.1,0-0.1-0.1-0.1
				c-1.8-1.1-2.7-2.1-2.6-2.8c0.2-2,1.3-3.3,3.6-4.2c1.3-0.5,1.2-2.7,1-5.5c-0.1-1.7-0.2-3.6,0-5.6c0.4-4.2,3.8-5,5.2-5.2
				c0.1,0,0.1-0.1,0.1-0.1c0-0.1,0-0.1,0-0.2c-0.6-0.7-1.1-1.3-1.4-2c-2.1-3.3,1.5-8,2.2-8.9c0.1-0.1,0.1-0.2,0-0.2
				c-3.6-3.6-4.7-3.1-5.9-2.6c-1.1,0.5-2.1,0.9-4.8-1.4c-3.2-2.8-4-2.5-5-2.2c-0.7,0.3-1.6,0.6-3.4-0.4c-2-1-2.9-0.9-3.6-0.8
				c-0.9,0.1-1.6,0.2-3.5-1.3c-2.6-2.1-4-1.1-5.4-0.1c-0.5,0.4-1,0.7-1.6,0.9c-1.1,0.4-2.3,1.6-3.4,2.7c-1,1-1.9,1.9-2.6,2
				c-1.1,0.1-2.2-1.4-2.5-1.9c0-0.1-0.1-0.1-0.2-0.1c-0.5,0.2-3.2,1.6-3.3,2.9s0.6,1.9,1.2,2.4c0.1,0.1,0.2,0.2,0.3,0.2
				c0.2,0.2,0.2,0.5,0,0.9c-0.4,0.6-1.4,1.1-2.5,0.6c-0.8-0.3-0.9-0.9-1.1-1.5c-0.2-0.6-0.4-1.2-1.2-1.4c-1.7-0.4-3.6,0.9-4.2,1.7
				c-0.5,0.6-0.1,1.9,0,2.1c0,0.1,0.1,0.1,0.1,0.1c0.4,0.1,2.3,0.8,4.7,2l0.4,0.2c0,0,0.1,0,0.1,0c0.1,0,0.1-0.1,0.1-0.1
				c0,0,0,0,0,0c0,0,0.1-0.2,0.3-0.2c0.2,0,0.4,0,0.6,0.2c0.4,0.5,0.4,1.8-0.1,4c-0.4,1.7-0.3,2.6-0.3,2.9c0,0,0,0.1,0.1,0.1
				c1,0.8,1.6,1.8,1.6,3C189,145.5,186.6,147.8,186.4,147.9L186.4,147.9L186.4,147.9z"/>
			<path class="st6" d="M193.9,43.6c-0.1,0.2-0.4,0-0.4-0.2c0-0.6,0.1-1.5,0.2-2c0.2-0.8,1.6-1.4,1.8-1.1s0.4,1.1,0.3,1.2
				C195.7,41.7,194.6,42.9,193.9,43.6L193.9,43.6z"/>
			<path class="st7" d="M195.4,42.1c-0.2-0.6-1.1-0.8-1.5-0.3l-4.6,4.8c-2.9,2.2-4.8,5.5-5.1,9.2l-0.2,2c-0.1,0.9,0,1.8,0.1,2.6l0,0
				c0.4,2,0.3,4.1-0.4,6.1l-0.8,2.4l-3,6c-0.5,1-1,2.1-1.4,3.2l-0.3,0.8c-0.8,2.3-1.1,4.8-0.7,7.2l0,0c0.3,2.2,0.1,4.4-0.7,6.4l0,0
				c-0.7,1.8-0.9,3.8-0.7,5.8l0.6,5.4"/>
			<circle class="st8" cx="176.7" cy="103.7" r="2.8"/>
			<circle class="st8" cx="183" cy="68.8" r="2.8"/>
			<circle class="st8" cx="177.4" cy="80.6" r="2.8"/>
			<circle class="st8" cx="185.9" cy="50.8" r="2.8"/>
			<circle class="st8" cx="194.7" cy="41.5" r="2.8"/>
		</g>
	</g>
</g>
</svg>
