<?xml version="1.0" encoding="utf-8"?>
<!-- Generator: Adobe Illustrator 27.0.1, SVG Export Plug-In . SVG Version: 6.00 Build 0)  -->
<svg version="1.1" xmlns="http://www.w3.org/2000/svg" xmlns:xlink="http://www.w3.org/1999/xlink" x="0px" y="0px"
	 viewBox="0 0 2500 2500" style="enable-background:new 0 0 2500 2500;" xml:space="preserve">
<style type="text/css">
	.st0{fill:#009CB4;}
	.st1{fill:#8B865C;}
	.st2{fill:#776E42;}
	.st3{fill:#363E44;}
	.st4{fill:#E6D0BE;}
	.st5{fill:#FFFFFF;}
	.st6{fill:#F2E6DC;}
	.st7{fill:#EFBC73;}
	.st8{fill:#84524D;}
	.st9{opacity:0.6;fill:#FFFFFF;}
	.st10{fill:#D87355;}
	.st11{clip-path:url(#SVGID_00000154412738775447613450000013464174955863037322_);fill:#363E44;}
	.st12{fill:#009CB4;stroke:#FFFFFF;stroke-width:4;stroke-miterlimit:10;}
	.st13{fill:#F7F1EB;}
</style>
<g id="Background">
</g>
<g id="Illustration">
	<circle class="st0" cx="1250" cy="1250" r="915"/>
	<g>
		<g>
			<path class="st1" d="M450.2,1490.1l163.2-29.6l-217-65.3c-40.3-90.6-53.7-176.2-53.7-176.2s38.8-2.2,94.4,3.4l98.9,166.3
				l-9.1-151.6c46,10.7,95,27.4,139.8,53.4c6.3,3.7,12.4,7.5,18.2,11.4l20.5,229.2l59.6-145.2c38.4,66.2,35.6,138.3,1.4,180
				c-52.5,64.1-187.3,68-289.7-43.4C467.3,1512.4,458.5,1501.5,450.2,1490.1z"/>
			<path class="st2" d="M437.1,1222.5c26.8,2.7,57.6,7.2,89.8,14.7l9.1,151.6L437.1,1222.5z"/>
			<path class="st2" d="M684.9,1302c36.1,24.4,62.5,53.6,80.1,84l-59.6,145.2L684.9,1302z"/>
			<path class="st2" d="M450.2,1490.1c-21.7-29.9-39.5-62.7-53.8-94.9l217,65.3L450.2,1490.1z"/>
			<path class="st2" d="M812,1784.4c-0.5,0-0.9-0.4-1-0.8c-13-84.6-45.2-166.3-93.1-236.2c-39.7-57.9-89.4-107.6-147.7-147.7
				c-0.5-0.3-0.6-0.9-0.3-1.4c0.3-0.5,0.9-0.6,1.4-0.3c58.5,40.2,108.3,90,148.2,148.2c48.1,70.2,80.4,152.2,93.5,237.1
				c0.1,0.5-0.3,1.1-0.8,1.1C812.1,1784.4,812,1784.4,812,1784.4z"/>
		</g>
		<g>
			<path class="st2" d="M739.1,1438.6l103.6,47.2l-101.6-134.6c8.2-78.9,30.1-143.2,30.1-143.2s22.9,14.5,52.8,41.4l-0.8,155.1
				l47.1-107.8c22.6,26.4,44.9,58.2,61.6,94.6c2.3,5.1,4.5,10.2,6.5,15.3L871,1572.5l84.3-75c-0.9,61.3-27.4,109.6-61.4,124.1
				c-52.2,22.3-130.7-30.9-150.8-149.7C741.2,1460.9,739.9,1449.8,739.1,1438.6z"/>
			<path class="st1" d="M824,1249.4c14.4,13,30.5,28.8,46.3,47.3l-47.1,107.8L824,1249.4z"/>
			<path class="st1" d="M938.4,1406.7c12.2,31.7,17.3,62.6,16.9,90.8l-84.3,75L938.4,1406.7z"/>
			<path class="st1" d="M739.1,1438.6c-2.1-29.5-1-59.4,2-87.4l101.6,134.6L739.1,1438.6z"/>
			<path class="st2" d="M844.9,1790.7c-0.1,0-0.2,0-0.3-0.1c-0.5-0.2-0.8-0.7-0.6-1.3c21.8-63.4,31.5-132.8,28.3-200.7
				c-2.7-56.2-14-110.9-33.5-162.5c-0.2-0.5,0.1-1.1,0.6-1.3c0.5-0.2,1.1,0.1,1.3,0.6c19.6,51.8,30.9,106.7,33.6,163.1
				c3.3,68.1-6.5,137.8-28.4,201.4C845.7,1790.5,845.3,1790.7,844.9,1790.7z"/>
		</g>
		
			<rect x="705.6" y="1699.3" transform="matrix(-1 -1.224647e-16 1.224647e-16 -1 1677.5405 3691.5188)" class="st3" width="266.2" height="293"/>
	</g>
	<g>
		<g>
			<rect x="868.7" y="1061.1" class="st4" width="1273.1" height="965"/>
			
				<rect x="1101.4" y="908.3" transform="matrix(-1.836970e-16 1 -1 -1.836970e-16 3010.1101 -0.3536)" class="st5" width="807.7" height="1193.2"/>
			
				<ellipse transform="matrix(0.1891 -0.982 0.982 0.1891 -706.6509 3069.5649)" class="st5" cx="1505.2" cy="1962.6" rx="24" ry="24"/>
		</g>
		<path class="st4" d="M2141.8,2052.2c0,55.2-44.8,100-100,100H707.3c-55.2,0-100-44.8-100-100H2141.8z"/>
		<path class="st6" d="M1806.7,2142.8c-0.6,0-1-0.4-1-1s0.4-1,1-1c43.2,0,78.3-35.1,78.3-78.3c0-0.6,0.4-1,1-1s1,0.4,1,1
			C1887,2106.8,1850.9,2142.8,1806.7,2142.8z"/>
		<path class="st6" d="M1340,2075.8c0,23.5-19,42.5-42.5,42.5h-149.6c-23.5,0-42.5-19-42.5-42.5H1340z"/>
	</g>
	<g>
		<g>
			<path class="st4" d="M2038.8,1589.8h-6c-0.6,0-1-0.4-1-1s0.4-1,1-1h5v-5c0-0.6,0.4-1,1-1s1,0.4,1,1v6
				C2039.8,1589.4,2039.4,1589.8,2038.8,1589.8z"/>
			<path class="st4" d="M2020.8,1589.8h-12c-0.6,0-1-0.4-1-1s0.4-1,1-1h12c0.6,0,1,0.4,1,1S2021.4,1589.8,2020.8,1589.8z
				 M1996.8,1589.8h-12c-0.6,0-1-0.4-1-1s0.4-1,1-1h12c0.6,0,1,0.4,1,1S1997.4,1589.8,1996.8,1589.8z M1972.9,1589.8h-12
				c-0.6,0-1-0.4-1-1s0.4-1,1-1h12c0.6,0,1,0.4,1,1S1973.4,1589.8,1972.9,1589.8z M1948.9,1589.8h-12c-0.6,0-1-0.4-1-1s0.4-1,1-1h12
				c0.6,0,1,0.4,1,1S1949.4,1589.8,1948.9,1589.8z M1924.9,1589.8h-12c-0.6,0-1-0.4-1-1s0.4-1,1-1h12c0.6,0,1,0.4,1,1
				S1925.5,1589.8,1924.9,1589.8z M1900.9,1589.8h-12c-0.6,0-1-0.4-1-1s0.4-1,1-1h12c0.6,0,1,0.4,1,1S1901.5,1589.8,1900.9,1589.8z
				 M1876.9,1589.8h-12c-0.6,0-1-0.4-1-1s0.4-1,1-1h12c0.6,0,1,0.4,1,1S1877.5,1589.8,1876.9,1589.8z M1853,1589.8h-12
				c-0.6,0-1-0.4-1-1s0.4-1,1-1h12c0.6,0,1,0.4,1,1S1853.5,1589.8,1853,1589.8z M1829,1589.8h-12c-0.6,0-1-0.4-1-1s0.4-1,1-1h12
				c0.6,0,1,0.4,1,1S1829.5,1589.8,1829,1589.8z M1805,1589.8h-12c-0.6,0-1-0.4-1-1s0.4-1,1-1h12c0.6,0,1,0.4,1,1
				S1805.5,1589.8,1805,1589.8z M1781,1589.8h-12c-0.6,0-1-0.4-1-1s0.4-1,1-1h12c0.6,0,1,0.4,1,1S1781.6,1589.8,1781,1589.8z
				 M1757,1589.8h-12c-0.6,0-1-0.4-1-1s0.4-1,1-1h12c0.6,0,1,0.4,1,1S1757.6,1589.8,1757,1589.8z M1733,1589.8h-12c-0.6,0-1-0.4-1-1
				s0.4-1,1-1h12c0.6,0,1,0.4,1,1S1733.6,1589.8,1733,1589.8z M1709.1,1589.8h-12c-0.6,0-1-0.4-1-1s0.4-1,1-1h12c0.6,0,1,0.4,1,1
				S1709.6,1589.8,1709.1,1589.8z M1685.1,1589.8h-12c-0.6,0-1-0.4-1-1s0.4-1,1-1h12c0.6,0,1,0.4,1,1S1685.6,1589.8,1685.1,1589.8z"
				/>
			<path class="st4" d="M1661.1,1589.8h-6c-0.6,0-1-0.4-1-1v-6c0-0.6,0.4-1,1-1s1,0.4,1,1v5h5c0.6,0,1,0.4,1,1
				S1661.7,1589.8,1661.1,1589.8z"/>
			<path class="st4" d="M1655.1,1571.8c-0.6,0-1-0.4-1-1v-12c0-0.6,0.4-1,1-1s1,0.4,1,1v12
				C1656.1,1571.4,1655.7,1571.8,1655.1,1571.8z M1655.1,1547.8c-0.6,0-1-0.4-1-1v-12c0-0.6,0.4-1,1-1s1,0.4,1,1v12
				C1656.1,1547.4,1655.7,1547.8,1655.1,1547.8z M1655.1,1523.9c-0.6,0-1-0.4-1-1v-12c0-0.6,0.4-1,1-1s1,0.4,1,1v12
				C1656.1,1523.4,1655.7,1523.9,1655.1,1523.9z M1655.1,1499.9c-0.6,0-1-0.4-1-1v-12c0-0.6,0.4-1,1-1s1,0.4,1,1v12
				C1656.1,1499.4,1655.7,1499.9,1655.1,1499.9z M1655.1,1475.9c-0.6,0-1-0.4-1-1v-12c0-0.6,0.4-1,1-1s1,0.4,1,1v12
				C1656.1,1475.4,1655.7,1475.9,1655.1,1475.9z M1655.1,1451.9c-0.6,0-1-0.4-1-1v-12c0-0.6,0.4-1,1-1s1,0.4,1,1v12
				C1656.1,1451.5,1655.7,1451.9,1655.1,1451.9z M1655.1,1427.9c-0.6,0-1-0.4-1-1v-12c0-0.6,0.4-1,1-1s1,0.4,1,1v12
				C1656.1,1427.5,1655.7,1427.9,1655.1,1427.9z M1655.1,1404c-0.6,0-1-0.4-1-1v-12c0-0.6,0.4-1,1-1s1,0.4,1,1v12
				C1656.1,1403.5,1655.7,1404,1655.1,1404z M1655.1,1380c-0.6,0-1-0.4-1-1v-12c0-0.6,0.4-1,1-1s1,0.4,1,1v12
				C1656.1,1379.5,1655.7,1380,1655.1,1380z M1655.1,1356c-0.6,0-1-0.4-1-1v-12c0-0.6,0.4-1,1-1s1,0.4,1,1v12
				C1656.1,1355.5,1655.7,1356,1655.1,1356z M1655.1,1332c-0.6,0-1-0.4-1-1v-12c0-0.6,0.4-1,1-1s1,0.4,1,1v12
				C1656.1,1331.6,1655.7,1332,1655.1,1332z M1655.1,1308c-0.6,0-1-0.4-1-1v-12c0-0.6,0.4-1,1-1s1,0.4,1,1v12
				C1656.1,1307.6,1655.7,1308,1655.1,1308z M1655.1,1284c-0.6,0-1-0.4-1-1v-12c0-0.6,0.4-1,1-1s1,0.4,1,1v12
				C1656.1,1283.6,1655.7,1284,1655.1,1284z M1655.1,1260.1c-0.6,0-1-0.4-1-1v-12c0-0.6,0.4-1,1-1s1,0.4,1,1v12
				C1656.1,1259.6,1655.7,1260.1,1655.1,1260.1z M1655.1,1236.1c-0.6,0-1-0.4-1-1v-12c0-0.6,0.4-1,1-1s1,0.4,1,1v12
				C1656.1,1235.6,1655.7,1236.1,1655.1,1236.1z"/>
			<path class="st4" d="M1655.1,1212.1c-0.6,0-1-0.4-1-1v-6c0-0.6,0.4-1,1-1h6c0.6,0,1,0.4,1,1s-0.4,1-1,1h-5v5
				C1656.1,1211.7,1655.7,1212.1,1655.1,1212.1z"/>
			<path class="st4" d="M2020.8,1206.1h-12c-0.6,0-1-0.4-1-1s0.4-1,1-1h12c0.6,0,1,0.4,1,1S2021.4,1206.1,2020.8,1206.1z
				 M1996.8,1206.1h-12c-0.6,0-1-0.4-1-1s0.4-1,1-1h12c0.6,0,1,0.4,1,1S1997.4,1206.1,1996.8,1206.1z M1972.9,1206.1h-12
				c-0.6,0-1-0.4-1-1s0.4-1,1-1h12c0.6,0,1,0.4,1,1S1973.4,1206.1,1972.9,1206.1z M1948.9,1206.1h-12c-0.6,0-1-0.4-1-1s0.4-1,1-1h12
				c0.6,0,1,0.4,1,1S1949.4,1206.1,1948.9,1206.1z M1924.9,1206.1h-12c-0.6,0-1-0.4-1-1s0.4-1,1-1h12c0.6,0,1,0.4,1,1
				S1925.4,1206.1,1924.9,1206.1z M1900.9,1206.1h-12c-0.6,0-1-0.4-1-1s0.4-1,1-1h12c0.6,0,1,0.4,1,1S1901.5,1206.1,1900.9,1206.1z
				 M1876.9,1206.1h-12c-0.6,0-1-0.4-1-1s0.4-1,1-1h12c0.6,0,1,0.4,1,1S1877.5,1206.1,1876.9,1206.1z M1853,1206.1h-12
				c-0.6,0-1-0.4-1-1s0.4-1,1-1h12c0.6,0,1,0.4,1,1S1853.5,1206.1,1853,1206.1z M1829,1206.1h-12c-0.6,0-1-0.4-1-1s0.4-1,1-1h12
				c0.6,0,1,0.4,1,1S1829.5,1206.1,1829,1206.1z M1805,1206.1h-12c-0.6,0-1-0.4-1-1s0.4-1,1-1h12c0.6,0,1,0.4,1,1
				S1805.5,1206.1,1805,1206.1z M1781,1206.1h-12c-0.6,0-1-0.4-1-1s0.4-1,1-1h12c0.6,0,1,0.4,1,1S1781.6,1206.1,1781,1206.1z
				 M1757,1206.1h-12c-0.6,0-1-0.4-1-1s0.4-1,1-1h12c0.6,0,1,0.4,1,1S1757.6,1206.1,1757,1206.1z M1733,1206.1h-12c-0.6,0-1-0.4-1-1
				s0.4-1,1-1h12c0.6,0,1,0.4,1,1S1733.6,1206.1,1733,1206.1z M1709.1,1206.1h-12c-0.6,0-1-0.4-1-1s0.4-1,1-1h12c0.6,0,1,0.4,1,1
				S1709.6,1206.1,1709.1,1206.1z M1685.1,1206.1h-12c-0.6,0-1-0.4-1-1s0.4-1,1-1h12c0.6,0,1,0.4,1,1S1685.6,1206.1,1685.1,1206.1z"
				/>
			<path class="st4" d="M2038.8,1212.1c-0.6,0-1-0.4-1-1v-5h-5c-0.6,0-1-0.4-1-1s0.4-1,1-1h6c0.6,0,1,0.4,1,1v6
				C2039.8,1211.7,2039.4,1212.1,2038.8,1212.1z"/>
			<path class="st4" d="M2038.8,1571.8c-0.6,0-1-0.4-1-1v-12c0-0.6,0.4-1,1-1s1,0.4,1,1v12
				C2039.8,1571.4,2039.4,1571.8,2038.8,1571.8z M2038.8,1547.8c-0.6,0-1-0.4-1-1v-12c0-0.6,0.4-1,1-1s1,0.4,1,1v12
				C2039.8,1547.4,2039.4,1547.8,2038.8,1547.8z M2038.8,1523.9c-0.6,0-1-0.4-1-1v-12c0-0.6,0.4-1,1-1s1,0.4,1,1v12
				C2039.8,1523.4,2039.4,1523.9,2038.8,1523.9z M2038.8,1499.9c-0.6,0-1-0.4-1-1v-12c0-0.6,0.4-1,1-1s1,0.4,1,1v12
				C2039.8,1499.4,2039.4,1499.9,2038.8,1499.9z M2038.8,1475.9c-0.6,0-1-0.4-1-1v-12c0-0.6,0.4-1,1-1s1,0.4,1,1v12
				C2039.8,1475.4,2039.4,1475.9,2038.8,1475.9z M2038.8,1451.9c-0.6,0-1-0.4-1-1v-12c0-0.6,0.4-1,1-1s1,0.4,1,1v12
				C2039.8,1451.5,2039.4,1451.9,2038.8,1451.9z M2038.8,1427.9c-0.6,0-1-0.4-1-1v-12c0-0.6,0.4-1,1-1s1,0.4,1,1v12
				C2039.8,1427.5,2039.4,1427.9,2038.8,1427.9z M2038.8,1404c-0.6,0-1-0.4-1-1v-12c0-0.6,0.4-1,1-1s1,0.4,1,1v12
				C2039.8,1403.5,2039.4,1404,2038.8,1404z M2038.8,1380c-0.6,0-1-0.4-1-1v-12c0-0.6,0.4-1,1-1s1,0.4,1,1v12
				C2039.8,1379.5,2039.4,1380,2038.8,1380z M2038.8,1356c-0.6,0-1-0.4-1-1v-12c0-0.6,0.4-1,1-1s1,0.4,1,1v12
				C2039.8,1355.5,2039.4,1356,2038.8,1356z M2038.8,1332c-0.6,0-1-0.4-1-1v-12c0-0.6,0.4-1,1-1s1,0.4,1,1v12
				C2039.8,1331.6,2039.4,1332,2038.8,1332z M2038.8,1308c-0.6,0-1-0.4-1-1v-12c0-0.6,0.4-1,1-1s1,0.4,1,1v12
				C2039.8,1307.6,2039.4,1308,2038.8,1308z M2038.8,1284c-0.6,0-1-0.4-1-1v-12c0-0.6,0.4-1,1-1s1,0.4,1,1v12
				C2039.8,1283.6,2039.4,1284,2038.8,1284z M2038.8,1260.1c-0.6,0-1-0.4-1-1v-12c0-0.6,0.4-1,1-1s1,0.4,1,1v12
				C2039.8,1259.6,2039.4,1260.1,2038.8,1260.1z M2038.8,1236.1c-0.6,0-1-0.4-1-1v-12c0-0.6,0.4-1,1-1s1,0.4,1,1v12
				C2039.8,1235.6,2039.4,1236.1,2038.8,1236.1z"/>
		</g>
		<g>
			<rect x="1581.8" y="1161.3" class="st4" width="412.2" height="387.5"/>
			<rect x="1610" y="1196.6" class="st6" width="351.4" height="138.6"/>
			<path class="st5" d="M1961.5,1378.1h-86.5c-0.6,0-1-0.4-1-1s0.4-1,1-1h86.5c0.6,0,1,0.4,1,1S1962,1378.1,1961.5,1378.1z"/>
			<path class="st5" d="M1830.8,1378.1H1610c-0.6,0-1-0.4-1-1s0.4-1,1-1h220.8c0.6,0,1,0.4,1,1S1831.4,1378.1,1830.8,1378.1z"/>
			<path class="st5" d="M1961.5,1422.2h-214.8c-0.6,0-1-0.4-1-1s0.4-1,1-1h214.8c0.6,0,1,0.4,1,1S1962,1422.2,1961.5,1422.2z"/>
			<path class="st5" d="M1702.5,1422.2H1610c-0.6,0-1-0.4-1-1s0.4-1,1-1h92.5c0.6,0,1,0.4,1,1S1703.1,1422.2,1702.5,1422.2z"/>
			<path class="st5" d="M1961.5,1466.3h-186.1c-0.6,0-1-0.4-1-1s0.4-1,1-1h186.1c0.6,0,1,0.4,1,1S1962,1466.3,1961.5,1466.3z"/>
			<path class="st5" d="M1731.3,1466.3H1610c-0.6,0-1-0.4-1-1s0.4-1,1-1h121.2c0.6,0,1,0.4,1,1S1731.8,1466.3,1731.3,1466.3z"/>
			<path class="st5" d="M1961.5,1510.4h-115.3c-0.6,0-1-0.4-1-1s0.4-1,1-1h115.3c0.6,0,1,0.4,1,1S1962,1510.4,1961.5,1510.4z"/>
			<path class="st5" d="M1802.1,1510.4H1610c-0.6,0-1-0.4-1-1s0.4-1,1-1h192.1c0.6,0,1,0.4,1,1S1802.7,1510.4,1802.1,1510.4z"/>
		</g>
	</g>
	<g>
		<g>
			<path class="st4" d="M1394.7,1830.6h-6c-0.6,0-1-0.4-1-1s0.4-1,1-1h5v-5c0-0.6,0.4-1,1-1s1,0.4,1,1v6
				C1395.7,1830.2,1395.2,1830.6,1394.7,1830.6z"/>
			<path class="st4" d="M1376.7,1830.6h-12c-0.6,0-1-0.4-1-1s0.4-1,1-1h12c0.6,0,1,0.4,1,1S1377.2,1830.6,1376.7,1830.6z
				 M1352.7,1830.6h-12c-0.6,0-1-0.4-1-1s0.4-1,1-1h12c0.6,0,1,0.4,1,1S1353.2,1830.6,1352.7,1830.6z M1328.7,1830.6h-12
				c-0.6,0-1-0.4-1-1s0.4-1,1-1h12c0.6,0,1,0.4,1,1S1329.3,1830.6,1328.7,1830.6z M1304.7,1830.6h-12c-0.6,0-1-0.4-1-1s0.4-1,1-1h12
				c0.6,0,1,0.4,1,1S1305.3,1830.6,1304.7,1830.6z M1280.7,1830.6h-12c-0.6,0-1-0.4-1-1s0.4-1,1-1h12c0.6,0,1,0.4,1,1
				S1281.3,1830.6,1280.7,1830.6z M1256.8,1830.6h-12c-0.6,0-1-0.4-1-1s0.4-1,1-1h12c0.6,0,1,0.4,1,1S1257.3,1830.6,1256.8,1830.6z
				 M1232.8,1830.6h-12c-0.6,0-1-0.4-1-1s0.4-1,1-1h12c0.6,0,1,0.4,1,1S1233.3,1830.6,1232.8,1830.6z M1208.8,1830.6h-12
				c-0.6,0-1-0.4-1-1s0.4-1,1-1h12c0.6,0,1,0.4,1,1S1209.4,1830.6,1208.8,1830.6z M1184.8,1830.6h-12c-0.6,0-1-0.4-1-1s0.4-1,1-1h12
				c0.6,0,1,0.4,1,1S1185.4,1830.6,1184.8,1830.6z M1160.8,1830.6h-12c-0.6,0-1-0.4-1-1s0.4-1,1-1h12c0.6,0,1,0.4,1,1
				S1161.4,1830.6,1160.8,1830.6z M1136.9,1830.6h-12c-0.6,0-1-0.4-1-1s0.4-1,1-1h12c0.6,0,1,0.4,1,1S1137.4,1830.6,1136.9,1830.6z
				 M1112.9,1830.6h-12c-0.6,0-1-0.4-1-1s0.4-1,1-1h12c0.6,0,1,0.4,1,1S1113.4,1830.6,1112.9,1830.6z M1088.9,1830.6h-12
				c-0.6,0-1-0.4-1-1s0.4-1,1-1h12c0.6,0,1,0.4,1,1S1089.5,1830.6,1088.9,1830.6z M1064.9,1830.6h-12c-0.6,0-1-0.4-1-1s0.4-1,1-1h12
				c0.6,0,1,0.4,1,1S1065.5,1830.6,1064.9,1830.6z M1040.9,1830.6h-12c-0.6,0-1-0.4-1-1s0.4-1,1-1h12c0.6,0,1,0.4,1,1
				S1041.5,1830.6,1040.9,1830.6z"/>
			<path class="st4" d="M1017,1830.6h-6c-0.6,0-1-0.4-1-1v-6c0-0.6,0.4-1,1-1s1,0.4,1,1v5h5c0.6,0,1,0.4,1,1
				S1017.5,1830.6,1017,1830.6z"/>
			<path class="st4" d="M1011,1812.6c-0.6,0-1-0.4-1-1v-12c0-0.6,0.4-1,1-1s1,0.4,1,1v12C1012,1812.2,1011.5,1812.6,1011,1812.6z
				 M1011,1788.7c-0.6,0-1-0.4-1-1v-12c0-0.6,0.4-1,1-1s1,0.4,1,1v12C1012,1788.2,1011.5,1788.7,1011,1788.7z M1011,1764.7
				c-0.6,0-1-0.4-1-1v-12c0-0.6,0.4-1,1-1s1,0.4,1,1v12C1012,1764.2,1011.5,1764.7,1011,1764.7z M1011,1740.7c-0.6,0-1-0.4-1-1v-12
				c0-0.6,0.4-1,1-1s1,0.4,1,1v12C1012,1740.2,1011.5,1740.7,1011,1740.7z M1011,1716.7c-0.6,0-1-0.4-1-1v-12c0-0.6,0.4-1,1-1
				s1,0.4,1,1v12C1012,1716.3,1011.5,1716.7,1011,1716.7z M1011,1692.7c-0.6,0-1-0.4-1-1v-12c0-0.6,0.4-1,1-1s1,0.4,1,1v12
				C1012,1692.3,1011.5,1692.7,1011,1692.7z M1011,1668.7c-0.6,0-1-0.4-1-1v-12c0-0.6,0.4-1,1-1s1,0.4,1,1v12
				C1012,1668.3,1011.5,1668.7,1011,1668.7z M1011,1644.8c-0.6,0-1-0.4-1-1v-12c0-0.6,0.4-1,1-1s1,0.4,1,1v12
				C1012,1644.3,1011.5,1644.8,1011,1644.8z M1011,1620.8c-0.6,0-1-0.4-1-1v-12c0-0.6,0.4-1,1-1s1,0.4,1,1v12
				C1012,1620.3,1011.5,1620.8,1011,1620.8z M1011,1596.8c-0.6,0-1-0.4-1-1v-12c0-0.6,0.4-1,1-1s1,0.4,1,1v12
				C1012,1596.4,1011.5,1596.8,1011,1596.8z M1011,1572.8c-0.6,0-1-0.4-1-1v-12c0-0.6,0.4-1,1-1s1,0.4,1,1v12
				C1012,1572.4,1011.5,1572.8,1011,1572.8z M1011,1548.8c-0.6,0-1-0.4-1-1v-12c0-0.6,0.4-1,1-1s1,0.4,1,1v12
				C1012,1548.4,1011.5,1548.8,1011,1548.8z M1011,1524.9c-0.6,0-1-0.4-1-1v-12c0-0.6,0.4-1,1-1s1,0.4,1,1v12
				C1012,1524.4,1011.5,1524.9,1011,1524.9z M1011,1500.9c-0.6,0-1-0.4-1-1v-12c0-0.6,0.4-1,1-1s1,0.4,1,1v12
				C1012,1500.4,1011.5,1500.9,1011,1500.9z M1011,1476.9c-0.6,0-1-0.4-1-1v-12c0-0.6,0.4-1,1-1s1,0.4,1,1v12
				C1012,1476.5,1011.5,1476.9,1011,1476.9z"/>
			<path class="st4" d="M1011,1452.9c-0.6,0-1-0.4-1-1v-6c0-0.6,0.4-1,1-1h6c0.6,0,1,0.4,1,1s-0.4,1-1,1h-5v5
				C1012,1452.5,1011.5,1452.9,1011,1452.9z"/>
			<path class="st4" d="M1376.7,1446.9h-12c-0.6,0-1-0.4-1-1s0.4-1,1-1h12c0.6,0,1,0.4,1,1S1377.2,1446.9,1376.7,1446.9z
				 M1352.7,1446.9h-12c-0.6,0-1-0.4-1-1s0.4-1,1-1h12c0.6,0,1,0.4,1,1S1353.2,1446.9,1352.7,1446.9z M1328.7,1446.9h-12
				c-0.6,0-1-0.4-1-1s0.4-1,1-1h12c0.6,0,1,0.4,1,1S1329.3,1446.9,1328.7,1446.9z M1304.7,1446.9h-12c-0.6,0-1-0.4-1-1s0.4-1,1-1h12
				c0.6,0,1,0.4,1,1S1305.3,1446.9,1304.7,1446.9z M1280.7,1446.9h-12c-0.6,0-1-0.4-1-1s0.4-1,1-1h12c0.6,0,1,0.4,1,1
				S1281.3,1446.9,1280.7,1446.9z M1256.8,1446.9h-12c-0.6,0-1-0.4-1-1s0.4-1,1-1h12c0.6,0,1,0.4,1,1S1257.3,1446.9,1256.8,1446.9z
				 M1232.8,1446.9h-12c-0.6,0-1-0.4-1-1s0.4-1,1-1h12c0.6,0,1,0.4,1,1S1233.3,1446.9,1232.8,1446.9z M1208.8,1446.9h-12
				c-0.6,0-1-0.4-1-1s0.4-1,1-1h12c0.6,0,1,0.4,1,1S1209.4,1446.9,1208.8,1446.9z M1184.8,1446.9h-12c-0.6,0-1-0.4-1-1s0.4-1,1-1h12
				c0.6,0,1,0.4,1,1S1185.4,1446.9,1184.8,1446.9z M1160.8,1446.9h-12c-0.6,0-1-0.4-1-1s0.4-1,1-1h12c0.6,0,1,0.4,1,1
				S1161.4,1446.9,1160.8,1446.9z M1136.9,1446.9h-12c-0.6,0-1-0.4-1-1s0.4-1,1-1h12c0.6,0,1,0.4,1,1S1137.4,1446.9,1136.9,1446.9z
				 M1112.9,1446.9h-12c-0.6,0-1-0.4-1-1s0.4-1,1-1h12c0.6,0,1,0.4,1,1S1113.4,1446.9,1112.9,1446.9z M1088.9,1446.9h-12
				c-0.6,0-1-0.4-1-1s0.4-1,1-1h12c0.6,0,1,0.4,1,1S1089.5,1446.9,1088.9,1446.9z M1064.9,1446.9h-12c-0.6,0-1-0.4-1-1s0.4-1,1-1h12
				c0.6,0,1,0.4,1,1S1065.5,1446.9,1064.9,1446.9z M1040.9,1446.9h-12c-0.6,0-1-0.4-1-1s0.4-1,1-1h12c0.6,0,1,0.4,1,1
				S1041.5,1446.9,1040.9,1446.9z"/>
			<path class="st4" d="M1394.7,1452.9c-0.6,0-1-0.4-1-1v-5h-5c-0.6,0-1-0.4-1-1s0.4-1,1-1h6c0.6,0,1,0.4,1,1v6
				C1395.7,1452.5,1395.2,1452.9,1394.7,1452.9z"/>
			<path class="st4" d="M1394.7,1812.6c-0.6,0-1-0.4-1-1v-12c0-0.6,0.4-1,1-1s1,0.4,1,1v12
				C1395.7,1812.2,1395.2,1812.6,1394.7,1812.6z M1394.7,1788.7c-0.6,0-1-0.4-1-1v-12c0-0.6,0.4-1,1-1s1,0.4,1,1v12
				C1395.7,1788.2,1395.2,1788.7,1394.7,1788.7z M1394.7,1764.7c-0.6,0-1-0.4-1-1v-12c0-0.6,0.4-1,1-1s1,0.4,1,1v12
				C1395.7,1764.2,1395.2,1764.7,1394.7,1764.7z M1394.7,1740.7c-0.6,0-1-0.4-1-1v-12c0-0.6,0.4-1,1-1s1,0.4,1,1v12
				C1395.7,1740.2,1395.2,1740.7,1394.7,1740.7z M1394.7,1716.7c-0.6,0-1-0.4-1-1v-12c0-0.6,0.4-1,1-1s1,0.4,1,1v12
				C1395.7,1716.3,1395.2,1716.7,1394.7,1716.7z M1394.7,1692.7c-0.6,0-1-0.4-1-1v-12c0-0.6,0.4-1,1-1s1,0.4,1,1v12
				C1395.7,1692.3,1395.2,1692.7,1394.7,1692.7z M1394.7,1668.7c-0.6,0-1-0.4-1-1v-12c0-0.6,0.4-1,1-1s1,0.4,1,1v12
				C1395.7,1668.3,1395.2,1668.7,1394.7,1668.7z M1394.7,1644.8c-0.6,0-1-0.4-1-1v-12c0-0.6,0.4-1,1-1s1,0.4,1,1v12
				C1395.7,1644.3,1395.2,1644.8,1394.7,1644.8z M1394.7,1620.8c-0.6,0-1-0.4-1-1v-12c0-0.6,0.4-1,1-1s1,0.4,1,1v12
				C1395.7,1620.3,1395.2,1620.8,1394.7,1620.8z M1394.7,1596.8c-0.6,0-1-0.4-1-1v-12c0-0.6,0.4-1,1-1s1,0.4,1,1v12
				C1395.7,1596.4,1395.2,1596.8,1394.7,1596.8z M1394.7,1572.8c-0.6,0-1-0.4-1-1v-12c0-0.6,0.4-1,1-1s1,0.4,1,1v12
				C1395.7,1572.4,1395.2,1572.8,1394.7,1572.8z M1394.7,1548.8c-0.6,0-1-0.4-1-1v-12c0-0.6,0.4-1,1-1s1,0.4,1,1v12
				C1395.7,1548.4,1395.2,1548.8,1394.7,1548.8z M1394.7,1524.9c-0.6,0-1-0.4-1-1v-12c0-0.6,0.4-1,1-1s1,0.4,1,1v12
				C1395.7,1524.4,1395.2,1524.9,1394.7,1524.9z M1394.7,1500.9c-0.6,0-1-0.4-1-1v-12c0-0.6,0.4-1,1-1s1,0.4,1,1v12
				C1395.7,1500.4,1395.2,1500.9,1394.7,1500.9z M1394.7,1476.9c-0.6,0-1-0.4-1-1v-12c0-0.6,0.4-1,1-1s1,0.4,1,1v12
				C1395.7,1476.5,1395.2,1476.9,1394.7,1476.9z"/>
		</g>
		<g>
			
				<rect x="970.3" y="1406.9" transform="matrix(0.9999 -1.139910e-02 1.139910e-02 0.9999 -18.1469 13.298)" class="st4" width="374.3" height="383.3"/>
			<path class="st5" d="M1022.5,1701.6c90.2-1,180.3-2.1,270.5-3.1c-41.5-132.7-67.1-166.1-83.6-164c-23.9,2.9-30.1,79.9-63,82.5
				c-19.7,1.5-28-25.5-47.9-26.2C1081.4,1590.1,1056.1,1608.9,1022.5,1701.6z"/>
			
				<ellipse transform="matrix(0.3807 -0.9247 0.9247 0.3807 -712.9439 1960.6064)" class="st5" cx="1107.3" cy="1512.6" rx="34.9" ry="34.9"/>
		</g>
	</g>
	<g>
		<g>
			<g>
				<path class="st7" d="M1507.9,1022.9c-4.2,8.6-154.5,33.6-245.7,48.1c-41.1,6.5-81.8-13.4-101.9-49.8
					c-19.9-36.1-8.3-81.5,26.4-103.6l200.9-127.9L1507.9,1022.9z"/>
				<g>
					<path class="st7" d="M1969.8,1142.7c57.9,5.6,106.2-43.7,99.3-101.5c-7.4-62-50.7-164-139.4-276.5
						c-53.6-68-143.5-96.2-226.4-71l-315.6,96l104.8,270.9h378.7L1969.8,1142.7z"/>
					<path class="st3" d="M1837.9,958c-0.4,0-0.8-0.2-0.9-0.6l-32.9-82.1c-0.2-0.5,0-1.1,0.6-1.3c0.5-0.2,1.1,0,1.3,0.6l32.9,82.1
						c0.2,0.5,0,1.1-0.6,1.3C1838.1,957.9,1838,958,1837.9,958z"/>
					<path class="st3" d="M1837.9,996.4c-0.1,0-0.3,0-0.4-0.1c-0.5-0.2-0.7-0.8-0.5-1.3c19.5-43.9,57.4-56.8,85.7-59.9
						c30.6-3.3,57.1,3.8,57.3,3.8c0.5,0.1,0.8,0.7,0.7,1.2c-0.1,0.5-0.7,0.8-1.2,0.7c-0.3-0.1-26.4-7.1-56.7-3.8
						c-27.8,3.1-65,15.7-84.1,58.7C1838.6,996.2,1838.3,996.4,1837.9,996.4z"/>
					<path class="st3" d="M1485.2,1034.3c-0.4,0-0.8-0.2-0.9-0.6l-39.4-98l-43-37.1c-0.4-0.4-0.5-1-0.1-1.4c0.4-0.4,1-0.5,1.4-0.1
						l43.2,37.3c0.1,0.1,0.2,0.2,0.3,0.4l39.5,98.2c0.2,0.5,0,1.1-0.6,1.3C1485.4,1034.3,1485.3,1034.3,1485.2,1034.3z"/>
				</g>
			</g>
			<g>
				<path class="st8" d="M1323.3,935c0,0-55-120-87.4-187.4c-34-70.7-94.6-170.2-108.4-161.5c-7.9,4.9-2.4,20.2,14.9,60.1
					c-2.9-1.1-12.5-2.4-19,3.3c-9.7,8.5-4.9,18.3-4.9,19.3c-0.9-0.5-12-5.2-19.5-0.6c-8.4,5.2-10.1,13.4-8.9,21.1
					c-2.4-1.1-13.3-4-20.2,0.8c-9,6.2-8.1,18.3-4.1,26.4c7.4,14.8,28.7,54.9,37.2,77.5c16.8,44.5,42.8,233.3,110,256.4
					C1263.6,1067.7,1335.1,1008.6,1323.3,935z"/>
				<path class="st3" d="M1097.6,736.3c-5.4,0-11.6-2.8-17.1-10c-0.3-0.4-0.3-1.1,0.2-1.4c0.4-0.3,1.1-0.3,1.4,0.2
					c8.2,10.6,17,10.6,22,7.4c5-3.3,5.2-11.3,2.9-17.3c-0.2-0.6,0-1.2,0.5-1.6c0.5-0.3,1.2-0.2,1.6,0.3c6.2,7.7,15,9.7,22.1,5
					c5.4-3.6,7.1-14.1,3.6-21.7c-0.3-0.5-0.1-1.2,0.4-1.5c0.5-0.3,1.1-0.2,1.5,0.2c6.6,7.7,18.3,10,23.2,6.5c2.8-2,4.4-4.6,5-8
					c2.1-13.2-13.2-34-21.4-45.2c-0.6-0.8-1.2-1.6-1.7-2.3c-0.3-0.4-0.2-1.1,0.2-1.4c0.4-0.3,1.1-0.2,1.4,0.2
					c0.5,0.7,1.1,1.5,1.7,2.3c8.4,11.4,24,32.6,21.8,46.7c-0.6,3.9-2.6,7-5.8,9.3c-5,3.6-15.8,2.3-23.3-4.2c2,7.9-0.2,17.2-5.5,20.7
					c-7,4.7-15.9,3.4-22.5-2.9c1.4,6.2,0.4,13.2-4.6,16.5C1103.1,735.5,1100.5,736.3,1097.6,736.3z M1108.8,714.4
					C1108.8,714.4,1108.8,714.4,1108.8,714.4C1108.8,714.4,1108.8,714.4,1108.8,714.4z M1136.6,696.3
					C1136.6,696.3,1136.6,696.4,1136.6,696.3C1136.6,696.4,1136.6,696.3,1136.6,696.3z"/>
				<path class="st8" d="M1139.8,676.9c6.2-8.7,44,8.2,51,11.4l-14.6,41.6C1173,726.8,1132.5,687.2,1139.8,676.9z"/>
				<path class="st3" d="M1176.2,730.9c-0.3,0-0.5-0.1-0.7-0.3c-7.4-7.2-44.1-43.6-36.5-54.3c6-8.4,35.3,3.3,52.3,11.1
					c0.5,0.2,0.7,0.8,0.5,1.3c-0.2,0.5-0.8,0.7-1.3,0.5c-21.2-9.7-45.4-17.8-49.8-11.7c-5.5,7.7,21.3,37.2,36.3,51.7
					c0.4,0.4,0.4,1,0,1.4C1176.8,730.8,1176.5,730.9,1176.2,730.9z"/>
			</g>
			<g>
				<g>
					
						<ellipse transform="matrix(0.7071 -0.7071 0.7071 0.7071 -508.1077 1244.0488)" class="st9" cx="1247.6" cy="1235.4" rx="273.1" ry="273.1"/>
					<g>
						<path class="st3" d="M1745.9,1361.3c-0.1,0-0.2,0-0.3,0l-58.7-15.4c-0.5-0.1-0.9-0.7-0.7-1.2c0.1-0.5,0.7-0.9,1.2-0.7
							l58.7,15.4c0.5,0.1,0.9,0.7,0.7,1.2C1746.8,1361,1746.4,1361.3,1745.9,1361.3z"/>
						<path class="st3" d="M1740.5,1381.7c-0.1,0-0.2,0-0.3,0l-58.7-15.4c-0.5-0.1-0.9-0.7-0.7-1.2c0.1-0.5,0.7-0.9,1.2-0.7
							l58.7,15.4c0.5,0.1,0.9,0.7,0.7,1.2C1741.3,1381.4,1740.9,1381.7,1740.5,1381.7z"/>
						<path class="st3" d="M1857.8,1434.7c-2.5,0-5-0.3-7.5-1l-177.3-48.5c-6.8-1.9-10.9-8.9-9-15.8l9.8-35.8
							c1.9-6.8,8.9-10.9,15.8-9l177.3,48.5c15,4.1,23.9,19.7,19.8,34.8l-1.6,6c-2,7.3-6.7,13.4-13.3,17.1
							C1867.5,1433.4,1862.7,1434.7,1857.8,1434.7z M1686.2,1326.2c-4.8,0-9.1,3.2-10.4,8l-9.8,35.8c-1.6,5.8,1.8,11.7,7.6,13.3
							l177.3,48.5c6.8,1.9,13.9,1,20-2.5c6.1-3.5,10.5-9.1,12.3-15.9l1.6-6c3.8-14-4.4-28.5-18.4-32.3l-177.3-48.5
							C1688.1,1326.3,1687.2,1326.2,1686.2,1326.2z M1885.7,1407.6L1885.7,1407.6L1885.7,1407.6z"/>
						<path class="st3" d="M1665.5,1369.5c-0.1,0-0.2,0-0.3,0l-109.2-29.7c-0.3-0.1-0.5-0.2-0.6-0.5s-0.2-0.5-0.1-0.8l9.1-33.3
							c0.1-0.5,0.7-0.8,1.2-0.7l109.2,29.7c0.3,0.1,0.5,0.2,0.6,0.5s0.2,0.5,0.1,0.8l-9.1,33.3
							C1666.4,1369.2,1666,1369.5,1665.5,1369.5z M1557.5,1338.1l107.3,29.2l8.6-31.3l-107.3-29.2L1557.5,1338.1z"/>
					</g>
					<path class="st3" d="M1248.1,1541.1c-27.2,0-54.6-3.7-81.6-11.1c-78.7-21.7-144.2-72.7-184.6-143.6
						c-40.3-71-50.6-153.4-28.9-232.1c21.7-78.7,72.7-144.2,143.6-184.6c71-40.3,153.4-50.6,232.1-28.9
						c78.7,21.7,144.2,72.7,184.6,143.6c40.3,71,50.6,153.4,28.9,232.1c-21.7,78.7-72.7,144.2-143.6,184.6
						C1352,1527.5,1300.4,1541.1,1248.1,1541.1z M1247.2,931.7c-51.9,0-103.2,13.4-149.5,39.8c-70.5,40.1-121.2,105.2-142.7,183.4
						c-21.5,78.2-11.3,160.1,28.7,230.6c40.1,70.5,105.2,121.2,183.4,142.7c26.8,7.4,54,11,81.1,11c51.9,0,103.2-13.4,149.5-39.8
						c70.5-40.1,121.2-105.2,142.7-183.4c21.5-78.2,11.3-160.1-28.7-230.6s-105.2-121.2-183.4-142.7
						C1301.4,935.3,1274.2,931.7,1247.2,931.7z"/>
					<path class="st3" d="M1248.1,1509.6c-24.4,0-49-3.3-73.2-10c-70.6-19.4-129.4-65.2-165.5-128.8c-36.2-63.7-45.4-137.6-26-208.2
						c19.4-70.6,65.2-129.4,128.8-165.5c63.7-36.2,137.6-45.4,208.2-26c70.6,19.4,129.4,65.2,165.5,128.8
						c36.2,63.7,45.4,137.6,26,208.2c-19.4,70.6-65.2,129.4-128.8,165.5C1341.2,1497.4,1294.9,1509.6,1248.1,1509.6z M1247.7,963.3
						c-119.4,0-229.2,79.3-262.4,199.9c-39.8,144.6,45.5,294.7,190.1,334.5c70.1,19.3,143.5,10.1,206.6-25.8
						c63.2-35.9,108.6-94.3,127.9-164.3s10.1-143.5-25.8-206.6s-94.3-108.6-164.3-127.9C1295.8,966.4,1271.6,963.3,1247.7,963.3z"/>
				</g>
				<g>
					<polygon class="st5" points="1233.8,1026.3 1048.9,1335.4 1418.7,1335.4 					"/>
					<path class="st3" d="M1433.8,1343.6H1064c-0.4,0-0.7-0.2-0.9-0.5c-0.2-0.3-0.2-0.7,0-1l184.9-309c0.4-0.6,1.4-0.6,1.7,0
						l184.9,309c0.2,0.3,0.2,0.7,0,1C1434.5,1343.4,1434.2,1343.6,1433.8,1343.6z M1065.8,1341.6H1432l-183.1-306.1L1065.8,1341.6z"
						/>
					<g>
						<g>
							<polygon class="st10" points="1264.4,1262.8 1229.2,1262.8 1221.4,1143.2 1272.2,1143.2 							"/>
							<rect x="1229.2" y="1279.3" class="st10" width="35.2" height="29"/>
						</g>
					</g>
				</g>
			</g>
			<g>
				<g>
					<path class="st8" d="M1645.3,1248.6c59.9-80.7,176.8-230.1,176.8-230.1s33.6-49,85.6-54c25.4-2.4,51.2,1.4,74.1,9.8
						c61.9,22.7,84.6,98.5,46.2,152.1c-62.7,87.6-191,204.7-225.9,246.3c-21,25-56.8,80.7-69.2,99.3c-6.8,10.1-22.3,12.2-33.5,6.9
						c-10.9-5.1-14.1-17.9-14.6-21.4c-8.4,6.4-20.2,9.1-32.9,2.8c-11.2-5.6-13.3-20.8-13.4-22.2c-1.3,0.7-10.4,12.2-28.1,6.6
						c-11.9-3.8-16.7-15.4-17.5-19.5c-13.2,20.4-12.2,71.2-36.6,64.4C1533.7,1483.2,1541.6,1388.5,1645.3,1248.6z"/>
					<g>
						<path class="st3" d="M1735.5,1446.1c-0.1,0-0.3,0-0.4-0.1l-18.3-8.4c-0.5-0.2-0.7-0.8-0.5-1.3c0.2-0.5,0.8-0.7,1.3-0.5
							l18.3,8.4c0.5,0.2,0.7,0.8,0.5,1.3C1736.2,1445.8,1735.8,1446.1,1735.5,1446.1z"/>
						<path class="st3" d="M1691.8,1425.1c-0.1,0-0.3,0-0.4-0.1l-20.9-8.9c-0.5-0.2-0.7-0.8-0.5-1.3c0.2-0.5,0.8-0.7,1.3-0.5
							l20.9,8.9c0.5,0.2,0.7,0.8,0.5,1.3C1692.5,1424.8,1692.2,1425.1,1691.8,1425.1z"/>
						<path class="st3" d="M1644.4,1405.9c-0.1,0-0.3,0-0.4-0.1c-3.4-1.6-6.5-3-9.6-4.4c-3.1-1.4-6.2-2.8-9.6-4.4
							c-0.5-0.2-0.7-0.8-0.5-1.3c0.2-0.5,0.8-0.7,1.3-0.5c3.4,1.6,6.5,3,9.6,4.4c3.1,1.4,6.2,2.8,9.6,4.4c0.5,0.2,0.7,0.8,0.5,1.3
							C1645.1,1405.7,1644.8,1405.9,1644.4,1405.9z"/>
						<path class="st3" d="M1606.9,1386.7c-0.2,0-0.3,0-0.5-0.1l-17.5-9.5c-0.5-0.3-0.7-0.9-0.4-1.4c0.3-0.5,0.9-0.7,1.4-0.4
							l17.5,9.5c0.5,0.3,0.7,0.9,0.4,1.4C1607.6,1386.5,1607.3,1386.7,1606.9,1386.7z"/>
					</g>
				</g>
			</g>
		</g>
		<g>
			<g>
				<path class="st8" d="M1552,752.3l75.2-26.5l-80.5-127.2c-6.9-12.6-28.5,6-41,12.9c-12.6,6.9-17.1,22.7-10.2,35.3L1552,752.3z"/>
				<polygon class="st8" points="1572.2,777.7 1646.9,716.6 1569.6,711.1 1531,754.3 				"/>
			</g>
			<g>
				<path class="st8" d="M1461.1,693.2c15.9,13.9,65.3-19.9,65.3-19.9l35.9-49.1c3.1-29.5-18.4-55.9-47.9-59
					c-29.5-3.1-55.9,18.4-59,47.9C1455.4,613.1,1444.9,679,1461.1,693.2z"/>
				<path class="st8" d="M1460.1,627.8c0,0-16.6,14.2-16.3,18.4c0.4,5,16.8,9.8,16.8,9.8S1459.7,627.8,1460.1,627.8z"/>
				<g>
					<path class="st5" d="M1506.3,619.8c0,0-8.2-3.5-17.7-2.6c-2,0.2,3.2,15.9,5.1,14.8C1501.8,627.2,1506.3,619.8,1506.3,619.8z"/>
					<g>
						<defs>
							<path id="SVGID_1_" d="M1506.3,619.8c0,0-12.1-5.2-23.8-1.4c-11.7,3.7-18.6,14.9-18.6,14.9s12.1,5.2,23.8,1.4
								C1499.4,631,1506.3,619.8,1506.3,619.8z"/>
						</defs>
						<clipPath id="SVGID_00000168832149773475546020000014615407254162533009_">
							<use xlink:href="#SVGID_1_"  style="overflow:visible;"/>
						</clipPath>
						<path style="clip-path:url(#SVGID_00000168832149773475546020000014615407254162533009_);fill:#363E44;" d="M1488.2,616.8
							c-6.8-5.7-16.9-4.8-22.6,2.1c-5.7,6.8-4.8,16.9,2.1,22.6c6.8,5.7,16.9,4.8,22.6-2.1C1496,632.6,1495.1,622.5,1488.2,616.8z"/>
					</g>
				</g>
				<g>
					<path class="st3" d="M1575.8,566.3c0,0,19.6,59.1-20.1,77.6l-9.8-9.1l-24.2,9.1l10.7-28.1c2.9-10.9-4.9-21.8-16.2-22.5
						l-49.2-3.2l3.2-26.2C1504.6,546.5,1539.7,544.7,1575.8,566.3z"/>
					<path class="st3" d="M1521.8,554.5c5.4,1.7,11.2-1.2,12.9-6.6c1.7-5.4-0.3-14-5.7-15.7c-5.4-1.7-12.1,4.1-13.8,9.4
						C1513.4,547,1516.4,552.7,1521.8,554.5z"/>
					<path class="st3" d="M1513.9,556.7c5.5-1.1,9.2-6.5,8-12c-1.1-5.5-7.1-12.1-12.6-11c-5.5,1.1-8.6,9.4-7.5,15
						C1502.9,554.2,1508.3,557.8,1513.9,556.7z"/>
					<path class="st3" d="M1497,561.8c7.1-2.8,10.7-10.8,7.9-18c-2.8-7.1-12.3-14.4-19.4-11.6c-7.1,2.8-9.2,14.6-6.4,21.7
						C1481.8,561,1489.8,564.6,1497,561.8z"/>
					<path class="st3" d="M1537.8,556.9c5.3,1.9,11.2-0.9,13.1-6.2c1.9-5.3,0.1-14-5.2-15.9c-5.3-1.9-12.2,3.7-14.1,9
						C1529.7,549.1,1532.5,555,1537.8,556.9z"/>
					<path class="st3" d="M1484,563.3c3.3-6,1.1-13.5-4.9-16.8c-6-3.3-16.6-2.8-19.9,3.2c-3.3,6,2,15.2,8,18.5
						C1473.3,571.5,1480.8,569.3,1484,563.3z"/>
					<path class="st3" d="M1550.4,561.7c6.1,3.6,13.9,1.5,17.5-4.6c3.6-6.1,3.4-17.1-2.7-20.6c-6.1-3.6-15.8,1.7-19.3,7.8
						C1542.2,550.3,1544.3,558.1,1550.4,561.7z"/>
					<path class="st3" d="M1562.9,564.6c3,4.6,9.2,5.9,13.8,2.8c4.6-3,8.3-10.8,5.2-15.4c-3-4.6-11.6-4.3-16.2-1.2
						C1561.2,553.8,1559.9,560,1562.9,564.6z"/>
					<path class="st3" d="M1479.7,578.4c1.5-8.2-3.9-16-12.1-17.6c-8.2-1.5-20.3,3.1-21.8,11.3c-1.5,8.2,8.2,16.8,16.4,18.3
						C1470.3,592,1478.2,586.6,1479.7,578.4z"/>
				</g>
				<path class="st8" d="M1572.7,625.4c3,9.8-2.5,20.2-12.3,23.2c-9.8,3-20.2-2.5-23.2-12.3c-3-9.8,2.5-20.2,12.3-23.2
					C1559.3,610.2,1569.7,615.6,1572.7,625.4z"/>
				<path class="st3" d="M1452.1,652.8l1.1,45.1c0.2,6.3,5.5,11.2,11.8,10.7c1.6-0.1,3.3-0.2,5.1-0.4c31.3-2.9,59-21.7,73.1-49.9
					c4.7-9.4,3.1-20.8-4-28.6l-2.3-2.6l-9.2,4c0,0-8.8,23.7-18.1,24.7C1500.2,657,1483.9,648.1,1452.1,652.8z"/>
				<path class="st8" d="M1473.7,667.6c-1.9,0-3.8-0.6-5.4-1.9c-0.4-0.3-0.5-1-0.2-1.4c0.3-0.4,1-0.5,1.4-0.2c2,1.6,4.8,1.9,7.1,0.7
					c2.2-1.1,3.6-3.5,3.6-5.9c0-0.6,0.4-1,1-1c0.5,0,1,0.4,1,1c0,3.2-1.8,6.3-4.6,7.8C1476.4,667.3,1475.1,667.6,1473.7,667.6z"/>
				<path class="st8" d="M1529.3,596.9c-0.3,0-0.6-0.2-0.8-0.4c-0.3-0.5-0.2-1.1,0.3-1.4l22.6-15.1c0.5-0.3,1.1-0.2,1.4,0.3
					c0.3,0.5,0.2,1.1-0.3,1.4l-22.6,15.1C1529.7,596.8,1529.5,596.9,1529.3,596.9z"/>
			</g>
		</g>
	</g>
	<path class="st12" d="M675.4,1155.5c-5.3,2.8-18.7,3.1-23.8,0C315.5,951.7,370.9,439,370.9,439l292.4-88l292.8,88
		C956.1,439,1008.4,980.2,675.4,1155.5z"/>
	<path class="st6" d="M663,1083.3c-3.8,0-7.6-0.6-9.8-2c-62.5-38.7-113.4-94.1-151.3-164.6c-30.3-56.4-52.4-122.6-65.7-196.8
		c-22.7-126.2-11.8-233.1-11.6-234.1c0-0.4,0.3-0.7,0.7-0.9l237.7-73c0.2-0.1,0.4-0.1,0.6,0l238,73c0.4,0.1,0.7,0.5,0.7,0.9
		c0.1,1.1,10.4,113.9-12.6,243c-13.5,75.9-35.7,142.4-65.9,197.9c-37.8,69.4-88.4,121.4-150.3,154.7
		C671.3,1082.5,667.1,1083.3,663,1083.3z M426.5,486.6c-0.9,9.2-10,112.2,11.7,233c20.9,116.1,75.3,272.8,216.1,360
		c3.9,2.4,14.5,2.1,18.3,0c139.5-74.9,194-232.3,215.1-351.1c22-123.7,13.4-232.4,12.6-241.9l-237.1-72.8L426.5,486.6z"/>
	<g>
		<path class="st13" d="M542.8,678v94.3c0,66.8,54.2,121,121,121c66.8,0,121-54.2,121-121V678H542.8z M673.5,778.8v51.1h-19.3v-51.1
			c-10.6-3.9-18.1-14.1-18.1-26c0-15.3,12.4-27.7,27.7-27.7c15.3,0,27.7,12.4,27.7,27.7C691.5,764.8,684,774.9,673.5,778.8z"/>
		<path class="st3" d="M771.5,653.6c-0.6,0-1-0.4-1-1c0-58.8-47.9-106.7-106.7-106.7c-58.8,0-106.7,47.9-106.7,106.7
			c0,0.6-0.4,1-1,1c-0.6,0-1-0.4-1-1c0-59.9,48.8-108.7,108.7-108.7c59.9,0,108.7,48.8,108.7,108.7
			C772.5,653.2,772,653.6,771.5,653.6z"/>
	</g>
	<g>
		<path class="st0" d="M1703.7,1694.5c8.2-3.5,17.7-4.7,27.7-4.1c29.4,2.4,53.5,25.9,55.9,55.3c2.9,37.1-28.2,68.3-65.3,65.3
			c-29.4-2.4-53.5-26.5-55.9-55.9c-1.8-21.8,8.2-41.2,24.1-53c1.8-1.2,1.8-3.5,1.2-4.7c-17.7-25.3-47.1-41.2-80.6-40
			c-50,2.4-90,44.1-89.4,94.1c0.6,51.2,42.4,92.4,93.6,92.4c15.9,0,30.6-3.5,43-10.6c2.4-1.2,2.9-4.1,0.6-5.9
			c-6.5-5.9-12.4-12.4-17.1-19.4c-1.2-1.2-2.9-1.8-4.1-1.2c-8.2,3.5-17.7,4.7-27.7,4.1c-30-2.4-53.5-27.1-55.9-56.5
			c-2.4-35.3,25.9-64.7,60.6-64.7c11.2,0,21.8,2.9,30.6,8.2c1.8,1.2,2.4,3.5,1.2,4.7c-8.8,15.3-14.1,33-12.9,52.4
			c2.4,47.1,40,85.3,87.1,88.3c56.5,3.5,103-43,99.4-99.4c-2.9-45.9-40-83-86.5-86.5c-18.2-1.2-35.3,2.4-50,10.6
			c-2.4,1.2-2.9,4.1-0.6,5.9c6.5,5.9,12.4,12.4,17.1,19.4C1700.7,1694.5,1702.5,1695.1,1703.7,1694.5"/>
		<path class="st0" d="M1948.4,1662.1v177.7c0,1.8,1.2,3.5,2.9,3.5c8.8,1.2,17.7,1.2,26.5,0c1.8,0,2.9-1.8,2.9-3.5v-177.7
			c0-1.8-1.2-3.5-2.9-3.5c-8.8-1.2-17.7-1.2-26.5,0C1949.6,1658.6,1948.4,1660.4,1948.4,1662.1"/>
		<path class="st0" d="M1867.8,1657.4c-12.9-1.2-25.3,1.2-36.5,5.9c-1.2,0.6-2.4,1.8-2.4,3.5v173c0,1.8,1.2,3.5,2.9,3.5
			c8.8,1.2,17.7,1.2,26.5,0c1.8,0,2.9-1.8,2.9-3.5v-24.7c0-1.8,1.8-3.5,3.5-3.5c42.4-1.8,75.9-38.2,73.5-81.8
			C1936.7,1691.5,1905.5,1660.4,1867.8,1657.4 M1862,1775.1v-81.2c0-2.4,1.8-3.5,4.1-3.5c22.4,1.8,40.6,21.2,40.6,44.1
			c0,22.9-17.7,42.4-40.6,44.1C1863.7,1778.6,1862,1776.9,1862,1775.1"/>
	</g>
</g>
</svg>
