<?xml version="1.0" encoding="utf-8"?>
<!-- Generator: Adobe Illustrator 27.2.0, SVG Export Plug-In . SVG Version: 6.00 Build 0)  -->
<svg version="1.1" id="Layer_2_00000018917676973909880960000017646536690268571040_"
	 xmlns="http://www.w3.org/2000/svg" xmlns:xlink="http://www.w3.org/1999/xlink" x="0px" y="0px" viewBox="0 0 141.8 141.8"
	 style="enable-background:new 0 0 141.8 141.8;" xml:space="preserve">
<style type="text/css">
	.st0{fill:#FFFFFF;}
	.st1{fill-rule:evenodd;clip-rule:evenodd;fill:#28658F;}
</style>
<g id="Camada_1">
	
		<image style="overflow:visible;opacity:0.75;" width="118" height="118" xlink:href="F4DF16F2.png"  transform="matrix(1 0 0 1 19.125 18.625)">
	</image>
	<g>
		<g>
			<circle class="st0" cx="70.9" cy="70.9" r="43.8"/>
			<path class="st1" d="M102.1,68.1c2.2,1.2,2.2,4.3,0,5.6l-16,9.2l-16,9.2c-2.2,1.2-4.8-0.3-4.8-2.8v-9.3c0-1.8-1.4-3.2-3.2-3.2
				H41.2c-1.8,0-3.2-1.4-3.2-3.2v-5.6c0-1.8,1.4-3.2,3.2-3.2H62c1.8,0,3.2-1.4,3.2-3.2v-9.3c0-2.5,2.7-4,4.8-2.8l16,9.2L102.1,68.1
				L102.1,68.1z"/>
		</g>
	</g>
</g>
</svg>
