<?xml version="1.0" encoding="UTF-8"?>
<svg id="Layer_2" data-name="Layer 2" xmlns="http://www.w3.org/2000/svg" viewBox="0 0 49.46 47.7">
  <defs>
    <style>
      .cls-1 {
        fill: #0f253e;
      }
    </style>
  </defs>
  <g id="Layer_1-2" data-name="Layer 1">
    <g>
      <path class="cls-1" d="M49.46,22.48c0,5.77-1.99,10.79-5.79,15.11-1.31,1.5-1.98,1.5-3.4,.08-4.46-4.46-8.91-8.95-13.4-13.38-.91-.9-1.3-1.86-1.29-3.14,.04-6.21,.02-12.43,.02-18.64,0-2.25,.3-2.53,2.59-2.5,9.9,.12,19.24,8.37,20.96,18.5,.22,1.32,.34,2.64,.31,3.98Zm-21.06-3.19c.1,.58-.35,1.41,.28,1.76,.54,.3,1.05-.36,1.55-.64,4.14-2.37,8.27-4.74,12.39-7.14,.66-.39,1.66-.61,.86-1.82-1.16-1.78-1.34-1.93-2.64-1.18-3.62,2.08-7.22,4.2-10.87,6.23-1.16,.64-1.91,1.36-1.57,2.8Zm17.79-1.8c-.13-.42-.31-.98-.46-1.55-.25-.93-.72-1-1.51-.54-4.38,2.57-8.78,5.1-13.17,7.65-.25,.14-.68,.28-.61,.57,.21,.92,1.09,1.34,1.66,2,.4,.46,.85,.38,1.33,.1,4.05-2.35,8.1-4.7,12.15-7.05,.4-.23,.77-.47,.62-1.18Zm.61,4.89c-.06-.22,.43-1.55-1.06-.71-3.43,1.94-6.84,3.93-10.24,5.91-.28,.16-.66,.28-.59,.74,.19,1.16,2.41,2.23,3.45,1.64,2.14-1.21,4.23-2.55,6.42-3.65,1.54-.77,2.18-1.87,2.01-3.92ZM28.37,11.98c0,.54,0,.88,0,1.23,0,.73,.24,1.04,.97,.62,3.32-1.93,6.65-3.85,9.97-5.78,.24-.14,.55-.25,.43-.65-.27-.88-2.79-1.97-3.61-1.51-2.06,1.15-4.08,2.4-6.16,3.51-1.18,.63-1.91,1.37-1.59,2.59Zm17.23,17.05c-.37,.11-.48,.12-.56,.17-1.24,.71-2.48,1.41-3.72,2.13q-2.38,1.39-.3,3.26c.07,.07,.15,.13,.21,.2,.44,.45,.83,.43,1.23-.08,1.31-1.67,2.36-3.48,3.13-5.69ZM33.86,4.09c-1.28-.73-2.4-.85-3.48-1.07-.64-.13-1.56-.54-1.84,.26-.39,1.09-.3,2.33-.01,3.47,.09,.35,.52,.1,.76-.03,1.44-.82,2.88-1.65,4.58-2.63Z"/>
      <path class="cls-1" d="M23.95,14.15c0,2.96,.04,5.92-.02,8.88-.02,1.07,.31,1.86,1.07,2.61,4.21,4.16,8.38,8.35,12.56,12.54,1.71,1.71,1.7,2.26-.12,3.79-6.91,5.8-14.7,7.3-23.08,4.04C6.16,42.8,1.45,36.49,.2,27.79-1.63,14.99,9.06,2.61,21.77,2.66c1.78,0,2.17,.36,2.18,2.17,.02,3.11,0,6.21,0,9.32Zm-2.77,1.5c0-2.76,0-5.52,0-8.28,0-1.88-.25-2.07-2.05-1.74C9.06,7.44,1.56,16.68,2.91,27.43c.93,7.41,4.88,12.75,11.64,15.76,7.01,3.12,13.73,2.15,19.97-2.33,.92-.66,.99-1.06,.15-1.89-4.12-4.03-8.16-8.15-12.27-12.2-.88-.86-1.27-1.78-1.24-3.01,.06-2.71,.02-5.42,.02-8.13Z"/>
    </g>
  </g>
</svg>