<?xml version="1.0" encoding="UTF-8"?>
<svg id="Layer_2" data-name="Layer 2" xmlns="http://www.w3.org/2000/svg" viewBox="0 0 68.98 66.56">
  <defs>
    <style>
      .cls-1 {
        fill: #0f253e;
      }
    </style>
  </defs>
  <g id="Layer_1-2" data-name="Layer 1">
    <g>
      <path class="cls-1" d="M45.94,3.38c0,1.64-.43,3-.69,4.38-.09,.48-.05,.86,.38,1.17,4.7,3.47,9.18,7.25,14.02,10.55,.1,.07,.21,.14,.31,.21,.52,.37,.7,.18,.69-.39-.03-1.42,.05-2.83,.29-4.22,.11-.63,.25-1.27,.46-1.87,.44-1.25,1.17-2.3,2.61-2.45,1.51-.16,2.87,.25,3.85,1.49,1.72,2.17,1.44,5.92-.57,7.81-.59,.56-1.26,1.04-1.91,1.54-.8,.61-1.18,1.36-1.18,2.41,.03,10.68,.02,21.36,.02,32.04,0,.32,0,.65-.02,.97-.05,.72-.44,1.2-1.16,1.23-2.03,.06-3.79,.9-5.54,1.78-1.73,.86-3.43,1.78-5.3,2.33-1.15,.34-2.31,.65-3.5,.64-2.52-.02-4.89,.7-7.28,1.34-2.63,.7-5.28,1.34-7.94,1.92-3.61,.8-6.79,.04-9.78-2.06-2.84-2-5.54-4.18-8.28-6.3-1.81-1.39-3.63-2.77-5.6-3.92-1.24-.73-2.54-1.35-3.96-1.66-.88-.2-1.23-.74-1.02-1.58,.53-2.18,.65-4.41,.77-6.63,.45-8.24,.37-16.5,.34-24.75,0-.79-.23-1.38-.79-1.9-1.1-1.04-2.2-2.08-3.26-3.15-.67-.67-1.22-1.43-1.58-2.32-.81-2,.06-3.94,2.29-5.16,1.75-.95,3.53-.51,4.74,1.25,1.29,1.87,1.75,4.03,2,6.24,.24,2.13,.13,1.83,1.95,1.41,7.47-1.72,14.88-3.62,22.04-6.39,.99-.38,1.96-.85,2.94-1.24,.55-.22,.71-.54,.64-1.14-.38-3.39,1.76-6.31,4.96-6.86,2.6-.44,4.1,.84,4.07,3.29ZM27.03,28.54h0c.05-.6-.14-1.17-.24-1.75-.28-1.73-.64-3.46-.36-5.24,.29-1.83,1.36-3.1,2.99-3.51,1.16-.29,2.32-.25,3.45,.12,1.35,.43,2.24,1.34,2.62,2.71,.3,1.07,.26,2.16,.1,3.25-.3,2.05-1.04,3.97-1.73,5.91-.3,.83-.2,.94,.64,.83,2.12-.27,4.2-.73,6.23-1.37,2.27-.71,4.41-1.78,6.74-2.32,1.83-.43,3.64-.95,5.46-1.45,2.36-.66,4.71-1.39,6.93-2.44,.42-.2,.75-.39,.12-.78-4.33-2.68-8.23-5.94-12.27-9.02-2.07-1.58-4.1-3.2-6.3-4.61-.52-.33-.94-.36-1.5-.04-.98,.57-2,1.1-3.04,1.57-4.76,2.15-9.74,3.65-14.75,5.05-4.06,1.13-8.15,2.11-12.27,3.02-.95,.21-1,.31-.47,1.07,1.5,2.16,3.47,3.59,6.15,3.85,2.3,.22,4.45,.9,6.51,1.95,1.77,.91,3.35,2.1,4.99,3.22Zm34.79,16.89c0-3.2,0-6.39,0-9.59,0-.99-.04-1.01-1.03-.77-.58,.14-1.15,.29-1.73,.43-1.43,.35-1.99-.09-2-1.58,0-2.01,0-4.01,0-6.02,0-.95-.06-.97-.99-.7-1.19,.36-2.38,.69-3.57,1.04-2.59,.75-5.27,1.22-7.78,2.25-2.62,1.08-5.31,1.91-8.11,2.37-.72,.12-.99,.41-.98,1.17,.04,2.77,0,5.55,.02,8.32,0,.81-.29,1.36-1.05,1.7-.97,.44-1.89,.98-2.87,1.41-.62,.28-.88,.67-.87,1.37,.04,2.11,.01,4.21,.01,6.32,0,3.37,.01,6.74-.01,10.11,0,.7,.22,.95,.91,.82,1.05-.2,2.1-.34,3.15-.55,4.82-.96,9.42-2.87,14.44-3.02,2.55-.07,4.76-1.43,7-2.57,1.46-.74,2.93-1.47,4.55-1.78,.69-.13,.92-.46,.91-1.16-.03-3.2-.01-6.39-.01-9.59Zm-38.07-9.28c0-2.11,0-4.21,0-6.32,0-.41-.06-.77-.44-1.03-2.02-1.33-4.14-2.45-6.55-2.9-.88-.16-1.77-.23-2.64-.39-1.07-.2-1.07-.22-1.07,.9,0,1.76,0,3.52,0,5.28,0,.59-.09,1.15-.69,1.45-.62,.31-1.09-.01-1.56-.36-.59-.45-1.18-.9-1.78-1.35-.17-.13-.34-.37-.57-.25-.24,.12-.15,.4-.15,.61-.06,2.67-.07,5.35-.16,8.02-.12,3.22-.22,6.44-.68,9.63-.09,.6,.09,.91,.66,1.13,1.75,.66,3.34,1.62,4.88,2.67,3.18,2.16,6.1,4.66,9.17,6.97,1.72,1.3,3.44,2.6,5.43,3.48,.77,.34,.92,.25,.92-.6,0-5.48,0-10.95,.01-16.43,0-.55-.21-.86-.7-1.09-.94-.44-1.84-.98-2.8-1.38-.97-.41-1.31-1.07-1.28-2.09,.05-1.98,.01-3.96,.01-5.95Zm7.19-15.93c-1.49,0-2.13,.57-2.25,2.06-.05,.62-.02,1.23,.05,1.85,.24,2.09,.82,4.12,1,6.22,.04,.42,.29,.59,.68,.65,.42,.06,.64-.14,.77-.52,.36-1.03,.74-2.05,1.1-3.08,.51-1.45,.95-2.92,1.08-4.46,.16-1.88-.6-2.73-2.43-2.72Zm-4.8,16.31c0,1.29,.1,2.58-.03,3.86-.13,1.32,.32,2.08,1.57,2.5,.78,.26,.83,.3,.83-.55,0-2.47,0-4.95,0-7.42q0-2.17-1.72-3.47s-.04-.03-.06-.05c-.14-.09-.27-.29-.44-.22-.23,.09-.15,.34-.15,.53,0,1.61,0,3.22,0,4.82Zm4.76,1.74c0,1.19,0,2.38,0,3.57,0,1.46-.02,1.41,1.32,.82,.83-.37,1.11-.88,1.08-1.77-.06-2.03-.02-4.06-.02-6.09,0-1.52,0-1.51-1.54-1.45-.65,.02-.86,.3-.85,.92,.03,1.34,0,2.68,0,4.01ZM63.02,18.28c0,.52,0,1.04,0,1.56,0,.14-.03,.32,.13,.4,.16,.08,.27-.08,.38-.16,.59-.45,1.18-.9,1.76-1.36,1.36-1.09,1.75-3.21,.89-4.75-.37-.66-.97-.89-1.68-.86-.67,.03-.8,.6-.96,1.08-.43,1.33-.53,2.71-.52,4.1ZM7.08,15.24c-.17-1.65-.45-3.28-1.12-4.82-.22-.5-.48-.98-.87-1.37-.31-.3-.66-.48-1.07-.29-1.47,.66-2.24,1.62-1.12,3.09,.33,.43,.67,.86,1.06,1.24,.84,.83,1.72,1.64,2.58,2.45,.12,.11,.24,.32,.42,.24,.22-.1,.1-.35,.13-.54Zm54.74,13.47c0-.72,0-1.43,0-2.15,.01-1.9,0-1.58-1.5-.96-.68,.28-.92,.68-.89,1.41,.05,1.48,.01,2.97,.01,4.45,0,1.57,0,1.55,1.56,1.16,.62-.16,.85-.46,.83-1.09-.04-.94,0-1.88,0-2.82ZM42.58,2.37c-1.69,.02-3.35,1.7-3.34,3.37,0,.44,.15,.62,.58,.38,.31-.18,.62-.12,.94-.08,.6,.08,1.12,.37,1.63,.67,.38,.23,.63,.21,.74-.29,.23-.99,.47-1.97,.5-2.99,.03-.82-.25-1.07-1.05-1.06ZM10.66,26.41c.47-1.49-.23-2.82-1.75-3.81-.02-.01-.03-.04-.05-.05-.13-.11-.23-.32-.41-.26-.23,.09-.15,.34-.15,.52,0,1.48,0,2.96,0,4.44,0,.33,.02,.65,.31,.87,.49,.38,.97,.76,1.46,1.13,.39,.3,.59,.16,.59-.31,0-.74,0-1.48,0-2.55Z"/>
      <path class="cls-1" d="M27.02,28.54s0,0,0,0c0,0,0,0,0,0Z"/>
      <path class="cls-1" d="M41.6,11.9c0,1.15-.02,1.17-1.23,1.17-1.13,0-1.15-.02-1.15-1.17,0-1.2,.01-1.21,1.27-1.21,1.09,0,1.12,.03,1.11,1.21Z"/>
      <path class="cls-1" d="M40.46,15.45c1.13,0,1.15,.02,1.14,1.26,0,1.11-.02,1.13-1.27,1.12-1.09,0-1.11-.03-1.11-1.29,0-1.07,.03-1.09,1.24-1.09Z"/>
      <path class="cls-1" d="M41.6,21.44c0,1.14-.02,1.15-1.25,1.15-1.12,0-1.14-.02-1.13-1.26,0-1.1,.03-1.12,1.28-1.12,1.07,0,1.1,.03,1.09,1.23Z"/>
      <path class="cls-1" d="M41.6,26.12c0,1.21-.01,1.23-1.16,1.23-1.2,0-1.21-.01-1.21-1.18,0-1.17,.02-1.19,1.13-1.2,1.23,0,1.25,.01,1.25,1.15Z"/>
    </g>
  </g>
</svg>