<?xml version="1.0" encoding="utf-8"?>
<!-- Generator: Adobe Illustrator 27.0.0, SVG Export Plug-In . SVG Version: 6.00 Build 0)  -->
<svg version="1.1" id="Layer_1" xmlns="http://www.w3.org/2000/svg" xmlns:xlink="http://www.w3.org/1999/xlink" x="0px" y="0px"
	 viewBox="0 0 393 240.84" style="enable-background:new 0 0 393 240.84;" xml:space="preserve">
<style type="text/css">
	.st0{fill:#FFFFFF;}
	.st1{fill:#00424D;}
	.st2{fill:#179DA3;}
	.st3{fill:#253370;}
	.st4{fill:#8991AD;}
</style>
<g>
	<path class="st0" d="M318.5,240.84H27.82C12.46,240.84,0,228.38,0,213.02V74.5c0-15.37,12.46-27.82,27.82-27.82H318.5
		c15.37,0,27.82,12.46,27.82,27.82v138.52C346.33,228.38,333.87,240.84,318.5,240.84z"/>
	<g>
		<g>
			<path class="st1" d="M34.05,82.2c1.18-2.13,2.81-3.79,4.92-4.98s4.49-1.78,7.15-1.78c3.26,0,6.06,0.86,8.38,2.59
				c2.32,1.72,3.88,4.07,4.66,7.05h-7.37c-0.55-1.15-1.33-2.02-2.33-2.62c-1.01-0.6-2.15-0.9-3.43-0.9c-2.06,0-3.74,0.72-5.02,2.16
				c-1.28,1.44-1.92,3.36-1.92,5.76c0,2.4,0.64,4.32,1.92,5.76c1.28,1.44,2.95,2.15,5.02,2.15c1.28,0,2.42-0.3,3.43-0.9
				c1-0.6,1.78-1.47,2.33-2.62h7.37c-0.78,2.98-2.34,5.32-4.66,7.03c-2.33,1.71-5.12,2.57-8.38,2.57c-2.66,0-5.05-0.59-7.15-1.78
				c-2.1-1.19-3.74-2.84-4.92-4.96c-1.17-2.12-1.76-4.53-1.76-7.25C32.28,86.75,32.87,84.33,34.05,82.2z"/>
			<path class="st1" d="M63.21,86.37c0.85-1.7,2-3,3.47-3.92c1.46-0.91,3.09-1.37,4.9-1.37c1.54,0,2.89,0.31,4.05,0.94
				c1.16,0.63,2.06,1.45,2.68,2.47V81.4h6.7v21.86h-6.7v-3.09c-0.65,1.02-1.56,1.84-2.72,2.47c-1.16,0.63-2.51,0.94-4.06,0.94
				c-1.78,0-3.4-0.46-4.86-1.39c-1.46-0.93-2.62-2.25-3.47-3.96s-1.27-3.69-1.27-5.94S62.37,88.07,63.21,86.37z M76.93,88.37
				c-0.93-0.97-2.06-1.45-3.39-1.45c-1.33,0-2.46,0.48-3.39,1.43s-1.39,2.27-1.39,3.94s0.46,3,1.39,3.98s2.06,1.47,3.39,1.47
				c1.33,0,2.46-0.48,3.39-1.45c0.93-0.97,1.39-2.29,1.39-3.96C78.32,90.65,77.85,89.34,76.93,88.37z"/>
			<path class="st1" d="M109.33,83.65c1.53,1.66,2.29,3.94,2.29,6.84v12.77h-6.66V91.39c0-1.46-0.38-2.6-1.14-3.41
				c-0.76-0.81-1.78-1.21-3.06-1.21c-1.28,0-2.3,0.41-3.06,1.21s-1.14,1.95-1.14,3.41v11.87h-6.7V81.4h6.7v2.9
				c0.68-0.97,1.59-1.73,2.74-2.29s2.44-0.84,3.88-0.84C105.75,81.16,107.8,81.99,109.33,83.65z"/>
			<path class="st1" d="M116.22,86.37c0.85-1.7,2-3,3.47-3.92c1.46-0.91,3.09-1.37,4.9-1.37c1.54,0,2.89,0.31,4.05,0.94
				c1.16,0.63,2.06,1.45,2.68,2.47V81.4h6.7v21.86h-6.7v-3.09c-0.65,1.02-1.56,1.84-2.72,2.47c-1.16,0.63-2.51,0.94-4.06,0.94
				c-1.78,0-3.4-0.46-4.86-1.39c-1.46-0.93-2.62-2.25-3.47-3.96s-1.27-3.69-1.27-5.94S115.37,88.07,116.22,86.37z M129.93,88.37
				c-0.93-0.97-2.06-1.45-3.39-1.45c-1.33,0-2.46,0.48-3.39,1.43s-1.39,2.27-1.39,3.94s0.46,3,1.39,3.98s2.06,1.47,3.39,1.47
				c1.33,0,2.46-0.48,3.39-1.45c0.93-0.97,1.39-2.29,1.39-3.96C131.33,90.65,130.86,89.34,129.93,88.37z"/>
			<path class="st1" d="M149.58,74.26v28.99h-6.7V74.26H149.58z"/>
			<path class="st1" d="M162.69,86.37c0.85-1.7,2-3,3.47-3.92c1.46-0.91,3.09-1.37,4.9-1.37c1.44,0,2.75,0.3,3.94,0.9
				s2.12,1.41,2.8,2.43V74.26h6.7v28.99h-6.7v-3.13c-0.63,1.05-1.52,1.88-2.68,2.51c-1.16,0.63-2.51,0.94-4.05,0.94
				c-1.8,0-3.44-0.46-4.9-1.39c-1.46-0.93-2.62-2.25-3.47-3.96s-1.27-3.69-1.27-5.94S161.84,88.07,162.69,86.37z M176.4,88.37
				c-0.93-0.97-2.06-1.45-3.39-1.45c-1.33,0-2.46,0.48-3.39,1.43s-1.39,2.27-1.39,3.94s0.46,3,1.39,3.98s2.06,1.47,3.39,1.47
				c1.33,0,2.46-0.48,3.39-1.45c0.93-0.97,1.39-2.29,1.39-3.96C177.79,90.65,177.33,89.34,176.4,88.37z"/>
			<path class="st1" d="M209.84,93.93h-15.16c0.1,1.36,0.54,2.4,1.31,3.11c0.77,0.72,1.72,1.08,2.84,1.08
				c1.67,0,2.83-0.71,3.49-2.12h7.13c-0.37,1.44-1.03,2.73-1.98,3.88s-2.15,2.05-3.58,2.7c-1.44,0.65-3.04,0.98-4.82,0.98
				c-2.14,0-4.05-0.46-5.72-1.37c-1.67-0.91-2.98-2.22-3.92-3.92c-0.94-1.7-1.41-3.68-1.41-5.96s0.46-4.26,1.39-5.96
				c0.93-1.7,2.23-3,3.9-3.92s3.59-1.37,5.76-1.37c2.12,0,4,0.44,5.64,1.33s2.93,2.15,3.86,3.8c0.93,1.65,1.39,3.57,1.39,5.76
				C209.96,92.6,209.92,93.25,209.84,93.93z M203.1,90.21c0-1.15-0.39-2.06-1.18-2.74c-0.78-0.68-1.76-1.02-2.94-1.02
				c-1.12,0-2.07,0.33-2.84,0.98c-0.77,0.65-1.25,1.58-1.43,2.78H203.1z"/>
			<path class="st1" d="M228.49,81.12v5.56h8.97v5.17h-8.97v6.03h10.15v5.37h-16.85v-27.5h16.85v5.37H228.49z M234.6,70.23
				l-9.44,3.96v-4.62l9.44-4.54V70.23z"/>
			<path class="st1" d="M255.17,97.58v5.68h-3.41c-2.43,0-4.32-0.59-5.68-1.78c-1.36-1.19-2.04-3.13-2.04-5.82v-8.7h-2.67V81.4h2.67
				v-5.33h6.7v5.33h4.39v5.56h-4.39v8.78c0,0.65,0.16,1.12,0.47,1.41c0.31,0.29,0.84,0.43,1.57,0.43H255.17z"/>
			<path class="st1" d="M259.38,78.08c-0.74-0.69-1.12-1.55-1.12-2.57c0-1.04,0.37-1.91,1.12-2.61c0.74-0.69,1.7-1.04,2.88-1.04
				c1.15,0,2.1,0.35,2.84,1.04c0.74,0.69,1.12,1.56,1.12,2.61c0,1.02-0.37,1.87-1.12,2.57s-1.69,1.04-2.84,1.04
				C261.08,79.12,260.12,78.78,259.38,78.08z M265.59,81.4v21.86h-6.7V81.4H265.59z"/>
			<path class="st1" d="M270.5,86.37c0.93-1.7,2.22-3,3.88-3.92s3.56-1.37,5.7-1.37c2.74,0,5.03,0.72,6.88,2.15
				c1.84,1.44,3.05,3.46,3.62,6.07h-7.13c-0.6-1.67-1.76-2.51-3.49-2.51c-1.23,0-2.21,0.48-2.94,1.43c-0.73,0.95-1.1,2.32-1.1,4.09
				s0.37,3.14,1.1,4.09c0.73,0.95,1.71,1.43,2.94,1.43c1.72,0,2.89-0.84,3.49-2.51h7.13c-0.57,2.56-1.79,4.57-3.64,6.03
				c-1.85,1.46-4.14,2.19-6.86,2.19c-2.14,0-4.04-0.46-5.7-1.37s-2.95-2.22-3.88-3.92c-0.93-1.7-1.39-3.68-1.39-5.96
				S269.58,88.07,270.5,86.37z"/>
			<path class="st1" d="M294.09,86.37c0.85-1.7,2-3,3.47-3.92c1.46-0.91,3.09-1.37,4.9-1.37c1.54,0,2.89,0.31,4.05,0.94
				c1.16,0.63,2.06,1.45,2.68,2.47V81.4h6.7v21.86h-6.7v-3.09c-0.65,1.02-1.56,1.84-2.72,2.47c-1.16,0.63-2.51,0.94-4.06,0.94
				c-1.78,0-3.4-0.46-4.86-1.39c-1.46-0.93-2.62-2.25-3.47-3.96s-1.27-3.69-1.27-5.94S293.24,88.07,294.09,86.37z M307.8,88.37
				c-0.93-0.97-2.06-1.45-3.39-1.45c-1.33,0-2.46,0.48-3.39,1.43s-1.39,2.27-1.39,3.94s0.46,3,1.39,3.98s2.06,1.47,3.39,1.47
				c1.33,0,2.46-0.48,3.39-1.45c0.93-0.97,1.39-2.29,1.39-3.96C309.19,90.65,308.73,89.34,307.8,88.37z"/>
		</g>
	</g>
	<path class="st2" d="M393,35.94c0,9.92-4.02,18.91-10.53,25.41c-5.72,5.73-13.39,9.54-21.91,10.36
		c-13.71,21.48-37.57,21.22-37.57,21.22l10.67-21.11c-18.95-1-34.01-16.68-34.01-35.88c0-9.92,4.02-18.91,10.53-25.41
		C316.68,4.02,325.67,0,335.59,0h21.47C376.91,0,393,16.09,393,35.94z"/>
	<path class="st0" d="M353.9,24.79c1.92-0.77,4.05-1.13,6.29-0.95c6.72,0.52,12.17,5.97,12.7,12.7c0.67,8.53-6.4,15.59-14.93,14.92
		c-6.76-0.53-12.21-6.03-12.69-12.79c-0.35-4.95,1.91-9.41,5.54-12.12c0.34-0.26,0.42-0.75,0.18-1.1
		c-4.01-5.73-10.77-9.4-18.37-9.09c-11.41,0.47-20.51,10.08-20.41,21.5c0.11,11.67,9.61,21.1,21.31,21.1c3.56,0,6.92-0.87,9.87-2.42
		c0.5-0.26,0.6-0.95,0.17-1.33c-1.47-1.3-2.77-2.78-3.87-4.41c-0.22-0.32-0.63-0.44-1-0.3c-1.92,0.77-4.05,1.13-6.28,0.95
		c-6.81-0.53-12.29-6.11-12.72-12.92c-0.5-8.05,5.88-14.74,13.82-14.74c2.53,0,4.9,0.68,6.94,1.86c0.4,0.23,0.52,0.74,0.29,1.14
		c-2.06,3.47-3.16,7.58-2.94,11.96c0.54,10.72,9.19,19.48,19.89,20.16c12.87,0.82,23.48-9.8,22.65-22.68
		c-0.68-10.56-9.21-19.12-19.76-19.84c-4.12-0.28-8.02,0.61-11.38,2.37c-0.5,0.26-0.6,0.95-0.17,1.33c1.47,1.3,2.77,2.78,3.87,4.41
		C353.13,24.81,353.54,24.93,353.9,24.79"/>
	<g>
		<path class="st3" d="M60.35,159.82c-0.02,2.1,1.24,3.78,3.28,4.35c1.94,0.54,4.16-0.25,4.98-2.13c0.6-1.38,1.46-1.57,2.74-1.55
			c4.26,0.06,8.53,0.01,12.8,0.03c0.46,0,1.13-0.23,1.32,0.38c0.14,0.45-0.43,0.74-0.74,1.05c-6.26,6.27-12.55,12.52-18.79,18.82
			c-0.94,0.95-1.52,0.93-2.44-0.01c-6.56-6.62-13.14-13.2-19.76-19.75c-0.93-0.91-0.81-1.45,0.05-2.3
			c6.66-6.6,13.28-13.22,19.88-19.87c0.77-0.77,1.27-1.02,2.15-0.1c2.8,2.91,5.67,5.75,8.57,8.57c0.78,0.76,0.82,1.26,0.01,2.03
			c-1.99,1.89-3.93,3.84-5.83,5.83c-0.72,0.76-1.35,0.86-2.36,0.52C63.25,154.68,60.38,156.77,60.35,159.82z"/>
		<path class="st3" d="M89.89,160.5c1.58,0,2.96,0,4.34,0c3.53,0,7.07,0.02,10.6-0.01c0.98-0.01,1.61,0.21,2.09,1.23
			c1.1,2.36,3.52,3.21,5.77,2.23c2.17-0.94,3.23-3.39,2.43-5.6c-0.85-2.34-3.23-3.49-5.75-2.64c-0.88,0.3-1.44,0.21-2.07-0.45
			c-1.99-2.05-4.01-4.08-6.07-6.07c-0.7-0.68-0.63-1.13,0.03-1.78c2.92-2.87,5.82-5.76,8.69-8.68c0.74-0.75,1.25-0.64,1.94,0.06
			c6.73,6.76,13.47,13.5,20.24,20.22c0.7,0.7,0.59,1.13-0.05,1.77c-6.76,6.72-13.51,13.47-20.24,20.22
			c-0.63,0.63-1.12,0.78-1.82,0.08c-6.61-6.64-13.23-13.26-19.85-19.9C90.1,161.12,90.08,160.99,89.89,160.5z"/>
		<path class="st3" d="M87.79,132.39c-3.06,0.03-5.16,2.9-4.14,5.83c0.38,1.08,0.18,1.73-0.61,2.48c-1.95,1.85-3.84,3.77-5.72,5.7
			c-0.65,0.67-1.12,0.92-1.9,0.11c-2.9-2.97-5.84-5.9-8.8-8.81c-0.66-0.65-0.71-1.1-0.03-1.78c6.8-6.76,13.59-13.54,20.35-20.34
			c0.7-0.7,1.15-0.58,1.79,0.06c6.73,6.76,13.47,13.5,20.23,20.22c0.75,0.75,0.65,1.24-0.05,1.93c-2.92,2.87-5.82,5.76-8.68,8.69
			c-0.69,0.7-1.12,0.62-1.76-0.04c-1.88-1.93-3.79-3.83-5.74-5.68c-0.82-0.78-1.06-1.46-0.67-2.63
			C93.03,135.21,90.84,132.36,87.79,132.39z"/>
		<path class="st3" d="M211.41,178c-4.92,3.47-11.29,1.95-14.2-1.51c-2.8-3.33-2.99-8.9-0.23-12.5c3.24-4.23,8.45-4.79,14.92-1.54
			c-0.29-2.25,1.2-2.1,2.65-2.03c0.62,0.03,1.23,0.03,1.85,0.01c0.83-0.03,1.27,0.33,1.25,1.18c-0.09,6.22,0.39,12.46-0.25,18.66
			c-0.41,3.99-2.69,6.72-6.67,7.77c-4.45,1.16-8.78,0.71-12.98-1.14c-1.34-0.59-1.87-1.36-0.83-2.66c0.07-0.09,0.11-0.19,0.17-0.29
			c1.22-2.22,1.22-2.21,3.58-1.18c2.28,0.99,4.67,1.23,7.09,0.81C210.42,183.11,211.87,180.9,211.41,178z M206.34,174.98
			c3.11,0.02,5.33-1.95,5.37-4.78c0.04-2.86-2.14-5-5.16-5.07c-3.14-0.07-5.39,2-5.39,4.94
			C201.16,173.09,203.13,174.95,206.34,174.98z"/>
		<path class="st3" d="M158.33,153.94c2.93-0.03,5.55,0.48,8.06,1.59c1,0.44,1.33,0.94,0.89,2.06c-1.24,3.19-1.2,3.23-4.41,2.11
			c-1.9-0.66-3.83-0.82-5.81-0.68c-0.97,0.07-1.89,0.33-2.64,0.97c-1.37,1.15-1.25,2.87,0.3,3.77c1.28,0.74,2.73,1.01,4.14,1.36
			c2.01,0.5,4.06,0.91,5.95,1.8c4.83,2.28,5.56,8.56,1.41,11.96c-2.44,2-5.36,2.53-8.37,2.57c-3.35,0.05-6.57-0.62-9.61-2.12
			c-1.17-0.58-1.55-1.14-0.91-2.46c1.42-2.93,1.35-2.97,4.33-1.69c2.49,1.07,5.09,1.35,7.75,1.06c1.45-0.16,2.88-0.57,3.15-2.26
			c0.29-1.83-1.15-2.43-2.5-2.86c-2.35-0.73-4.77-1.26-7.13-1.99c-3.7-1.15-5.46-3.2-5.61-6.31c-0.17-3.67,1.46-6.24,4.97-7.79
			C154.27,154.15,156.37,153.89,158.33,153.94z"/>
		<path class="st3" d="M161.62,144.93c-5.96-0.16-10.78-2.41-13.26-8.07c-2.3-5.25-1.66-10.36,2.15-14.79
			c4.92-5.73,15.26-6.3,20.76-1.33c1.05,0.95,1.36,1.72,0.04,2.62c-0.09,0.06-0.16,0.15-0.25,0.23c-0.76,0.66-1.44,1.63-2.32,1.88
			c-0.91,0.25-1.49-0.98-2.29-1.47c-3.6-2.22-8.62-1.48-11.16,1.7c-2.67,3.34-2.4,8.66,0.58,11.58c3.02,2.96,8.32,3.14,11.52,0.24
			c0.98-0.89,1.62-1,2.42,0.04c0.17,0.22,0.41,0.38,0.62,0.57c2.42,2.25,2.43,2.43-0.36,4.35
			C167.54,144.22,164.69,144.93,161.62,144.93z"/>
		<path class="st3" d="M184.84,172.46c-1.96,0-3.93-0.02-5.89,0.01c-0.52,0.01-1.24-0.27-1.48,0.41c-0.2,0.57,0.26,1.06,0.6,1.5
			c1.61,2.09,5.24,2.68,8.05,1.4c0.7-0.32,1.38-1.36,2-0.97c1.05,0.67,1.84,1.77,2.72,2.71c0.28,0.3,0.16,0.62-0.09,0.9
			c-0.15,0.16-0.31,0.32-0.48,0.48c-3.13,2.89-9.94,3.21-14.3,0.67c-3.89-2.26-5.71-6.84-4.59-11.5c1.28-5.32,6.36-8.52,12.3-7.74
			c5.45,0.72,9.14,4.99,9.01,10.39c-0.03,1.2-0.39,1.84-1.77,1.77C188.89,172.38,186.86,172.46,184.84,172.46z M182.03,168.84
			c1.23,0,2.47,0,3.7,0c0.76,0,1.17-0.23,0.89-1.11c-0.5-1.61-2.46-2.92-4.5-2.96c-2.06-0.03-4.06,1.17-4.63,2.76
			c-0.3,0.83-0.12,1.31,0.84,1.31C179.56,168.84,180.8,168.84,182.03,168.84z"/>
		<path class="st3" d="M263.61,170.78c0-6.24,4.58-10.57,11.21-10.61c6.51-0.04,11.24,4.44,11.24,10.62
			c0,6.09-4.67,10.47-11.17,10.48C268.22,181.28,263.61,176.99,263.61,170.78z M279.9,170.73c0-3.39-2.07-5.64-5.13-5.6
			c-3.04,0.05-5.11,2.36-5.09,5.7c0.02,3.26,2.06,5.43,5.1,5.45C277.96,176.29,279.9,174.19,279.9,170.73z"/>
		<path class="st3" d="M173.97,134.19c0-6.17,4.7-10.55,11.3-10.52c6.47,0.02,11.17,4.42,11.22,10.5c0.05,6.1-4.75,10.62-11.28,10.6
			C178.59,144.76,173.97,140.41,173.97,134.19z M180.04,134.09c-0.04,3.33,2.04,5.69,5.06,5.74c3.02,0.05,5.28-2.32,5.3-5.54
			c0.02-3.24-2.03-5.53-5.02-5.6C182.24,128.61,180.08,130.79,180.04,134.09z"/>
		<path class="st3" d="M280.75,134.29c-0.02-6.24,4.57-10.6,11.18-10.62c6.53-0.02,11.29,4.42,11.3,10.57
			c0.02,6.02-4.77,10.53-11.18,10.53C285.39,144.77,280.76,140.48,280.75,134.29z M297.07,134.27c0.01-3.38-2.02-5.6-5.13-5.59
			c-3.06,0.01-5.08,2.15-5.12,5.43c-0.04,3.35,2.02,5.68,5.05,5.72C294.95,139.87,297.06,137.61,297.07,134.27z"/>
		<path class="st3" d="M200.3,134.15c0-2.86,0.03-5.72-0.02-8.58c-0.02-1.12,0.29-1.68,1.52-1.59c1.06,0.08,2.13,0.02,3.2,0.02
			c0.56,0,1.01,0.13,1.01,0.82c0.02,1.27,0.59,0.85,1.24,0.43c2.27-1.48,4.77-1.91,7.41-1.41c3.8,0.73,6.26,3.29,6.44,7.14
			c0.19,4.08,0.07,8.18,0.1,12.28c0.01,0.83-0.32,1.27-1.19,1.23c-0.06,0-0.11,0.01-0.17,0c-5.61-0.08-4.53,0.8-4.64-4.36
			c-0.05-2.41,0.02-4.82-0.08-7.23c-0.1-2.36-1.21-3.64-3.16-3.9c-2.55-0.34-4.51,0.72-5.27,2.88c-0.28,0.8-0.38,1.63-0.38,2.48
			c0.02,2.92-0.02,5.83,0.02,8.75c0.01,0.99-0.31,1.43-1.35,1.41c-5.76-0.11-4.55,0.8-4.68-4.3
			C200.26,138.19,200.3,136.17,200.3,134.15z"/>
		<path class="st3" d="M255.27,142.58c-2.37,2.28-5.26,2.51-8.29,1.95c-3.21-0.59-5.23-2.87-5.3-5.84
			c-0.07-3.12,1.68-5.15,5.07-5.94c2.22-0.52,4.47-0.27,6.71-0.33c1.69-0.04,2-0.54,1.15-1.99c-1.02-1.74-2.75-2.02-4.53-1.96
			c-1.52,0.06-3.01,0.42-4.34,1.21c-0.88,0.52-1.36,0.34-1.86-0.54c-1.74-3.06-1.62-3.48,1.75-4.57c3.33-1.07,6.7-1.33,10.09-0.22
			c3.01,0.98,4.81,3.07,5.19,6.2c0.52,4.24,0.14,8.51,0.21,12.77c0.01,0.45-0.04,1.01-0.58,1.08c-1.5,0.19-3.04,0.25-4.52-0.02
			C255.14,144.23,255.79,143.17,255.27,142.58z M252.23,135.92c-1.06-0.02-2.13-0.02-3.15,0.32c-0.86,0.29-1.44,0.87-1.54,1.8
			c-0.11,1,0.39,1.71,1.24,2.19c1.74,0.98,4.59,0.36,5.76-1.24c0.57-0.77,0.83-1.66,0.48-2.52c-0.34-0.85-1.26-0.46-1.95-0.54
			C252.79,135.89,252.5,135.92,252.23,135.92z"/>
		<path class="st3" d="M237.97,178.82c-2.78,2.3-5.56,2.86-8.58,2.26c-3.47-0.7-5.69-2.94-6.22-6.45
			c-0.65-4.35-0.17-8.74-0.28-13.11c-0.02-0.67,0.27-1.07,0.99-1.07c0.06,0,0.11,0,0.17-0.01c4.85-0.5,4.85-0.5,4.85,4.28
			c0,2.19-0.04,4.38,0.02,6.57c0.08,3.2,1.39,4.67,4.03,4.7c2.78,0.03,4.55-1.61,4.67-4.62c0.12-3.03,0.09-6.06,0.02-9.09
			c-0.03-1.33,0.3-1.88,1.76-1.88c4.28,0.01,4.28-0.05,4.28,4.23c0,4.88-0.04,9.77,0.02,14.65c0.02,1.34-0.46,1.84-1.76,1.71
			c-0.67-0.06-1.35-0.07-2.02,0C238.59,181.14,237.73,180.78,237.97,178.82z"/>
		<path class="st3" d="M227.21,134.21c0-0.9-0.06-1.8,0.01-2.69c0.14-1.58-0.01-2.81-2.12-2.49c-0.72,0.11-0.97-0.4-0.96-1.05
			c0-0.67,0.04-1.35-0.02-2.02c-0.09-1.14,0.34-1.72,1.53-1.57c1.31,0.16,1.58-0.5,1.58-1.68c0-3.31,0.04-3.31,3.45-3.31
			c2.54,0,2.54,0,2.55,2.59c0.01,2.38,0.01,2.35,2.39,2.41c0.85,0.02,2.05-0.47,2.47,0.46c0.5,1.1,0.27,2.43,0.09,3.64
			c-0.1,0.68-0.77,0.52-1.24,0.55c-3.7,0.21-3.7,0.21-3.7,3.92c0,1.35-0.02,2.69,0.01,4.04c0.05,2.34,1.2,3.38,3.45,2.77
			c1.37-0.37,1.82,0.09,2.14,1.22c0.15,0.54,0.36,1.06,0.59,1.57c0.34,0.74,0.01,1.11-0.63,1.45c-5.46,2.9-11.54-0.66-11.57-6.79
			C227.21,136.23,227.21,135.22,227.21,134.21z"/>
		<path class="st3" d="M270.14,119.41c0.28,0,0.57,0.04,0.84-0.01c1.73-0.27,2.37,0.5,2.12,2.17c-0.06,0.44,0.02,0.9-0.01,1.34
			c-0.09,1.07,0.35,1.59,1.45,1.47c0.17-0.02,0.34,0,0.5,0c3.24,0.03,3.58,0.46,3.09,3.7c-0.09,0.58-0.27,0.95-0.91,0.96
			c-0.22,0-0.45,0.01-0.67,0.02c-3.46,0.1-3.46,0.1-3.46,3.64c0,1.4-0.02,2.8,0.01,4.2c0.04,2.41,1.22,3.45,3.56,2.87
			c2.64-0.65,1.96,1.7,2.56,2.76c0.76,1.35-0.62,1.55-1.46,1.8c-2.03,0.61-4.1,0.62-6.13-0.01c-2.48-0.77-3.94-2.47-4.37-5.04
			c-0.46-2.78-0.21-5.59-0.2-8.39c0-1.32-0.3-2.05-1.76-1.85c-1.02,0.14-1.44-0.35-1.35-1.36c0.05-0.56,0.06-1.13,0-1.68
			c-0.14-1.25,0.37-1.78,1.62-1.63c1.07,0.13,1.58-0.35,1.47-1.44c-0.02-0.17,0-0.34,0-0.5
			C267.07,119.27,266.53,119.41,270.14,119.41z"/>
		<path class="st3" d="M87.96,158.6c-0.52-0.03-0.77-0.35-1.05-0.62c-2.9-2.89-5.78-5.8-8.7-8.67c-0.75-0.74-0.65-1.25,0.05-1.94
			c2.05-1.99,4.07-4.02,6.07-6.07c0.54-0.55,1.02-0.76,1.76-0.39c1,0.49,2.14,0.57,3.11,0.13c1.08-0.5,1.71-0.2,2.46,0.58
			c1.87,1.94,3.8,3.82,5.74,5.68c0.69,0.66,0.87,1.16,0.09,1.92c-2.97,2.9-5.88,5.86-8.82,8.79
			C88.44,158.23,88.16,158.42,87.96,158.6z"/>
		<path class="st3" d="M254.77,162.76c1.92-1.51,3.65-2.32,5.67-2.51c1.03-0.09,1.5,0.2,1.43,1.25c-0.02,0.34,0,0.67,0,1.01
			c0.01,2.83,0.01,2.83-2.72,3.28c-2.42,0.4-3.93,2.18-4,4.88c-0.06,2.86-0.08,5.73,0,8.59c0.04,1.34-0.44,1.73-1.75,1.74
			c-4.3,0.02-4.3,0.07-4.3-4.2c0-4.88,0.04-9.77-0.02-14.65c-0.02-1.3,0.36-1.89,1.71-1.74c0.55,0.06,1.12,0.03,1.68,0.01
			C253.9,160.36,255.38,160.19,254.77,162.76z"/>
		<path class="st3" d="M85.79,159.26c-1.15,0-2.19,0-3.24,0c-3.92,0-7.85-0.02-11.77,0.01c-0.92,0.01-1.54-0.16-1.95-1.15
			c-0.42-1.01,0.14-1.44,0.69-1.99c1.94-1.94,3.89-3.88,5.83-5.83c0.57-0.57,1.05-0.97,1.8-0.21c2.79,2.84,5.62,5.64,8.42,8.46
			C85.66,158.65,85.66,158.84,85.79,159.26z"/>
		<path class="st3" d="M89.94,158.85c2.95-2.97,5.89-5.94,8.84-8.91c0.55-0.55,0.99-0.28,1.43,0.16c2.14,2.14,4.27,4.29,6.42,6.41
			c0.47,0.47,0.55,0.9,0.26,1.49c-0.3,0.6-0.44,1.26-1.34,1.25c-5.14-0.02-10.28-0.01-15.42-0.01
			C90.07,159.11,90.01,158.98,89.94,158.85z"/>
		<path class="st4" d="M217.93,203.4c0-1.74,0.04-3.48-0.02-5.22c-0.03-0.86,0.24-1.2,1.14-1.17c1.63,0.06,3.26-0.03,4.88,0.04
			c3.8,0.16,6.31,2.63,6.38,6.22c0.08,3.7-2.35,6.33-6.18,6.59c-1.68,0.12-3.37,0-5.05,0.06c-0.87,0.03-1.19-0.25-1.17-1.14
			C217.97,206.99,217.93,205.2,217.93,203.4z M219.87,203.37c0,1.29,0.01,2.58,0,3.87c-0.01,0.56,0.07,1.01,0.79,0.97
			c1.45-0.07,2.91,0.18,4.34-0.26c2.25-0.68,3.49-2.44,3.36-4.8c-0.12-2.27-1.68-4.01-3.95-4.32c-0.83-0.12-1.69,0.01-2.52-0.1
			c-1.56-0.21-2.3,0.25-2.05,1.96C219.98,201.56,219.87,202.48,219.87,203.37z"/>
		<path class="st4" d="M175.95,200.6c0,2.99,0,5.51,0,8.03c0,0.69,0.1,1.32-0.97,1.31c-1.08,0-0.96-0.65-0.96-1.33
			c0-3.36-0.02-6.72,0.02-10.08c0.01-0.49-0.38-1.2,0.41-1.44c0.69-0.21,1.26,0.02,1.74,0.64c1.97,2.51,3.99,4.98,6,7.47
			c0.17,0.22,0.37,0.41,0.93,1.04c0-1.87,0-3.32,0-4.77c0-1.12,0.04-2.24-0.01-3.36c-0.04-0.8,0.22-1.07,1.04-1.08
			c0.89-0.02,0.98,0.39,0.98,1.12c-0.03,3.47,0,6.95-0.03,10.42c0,0.44,0.33,1.1-0.34,1.3c-0.65,0.19-1.26,0.07-1.76-0.58
			c-1.96-2.52-3.99-4.99-5.99-7.47C176.76,201.51,176.5,201.24,175.95,200.6z"/>
		<path class="st4" d="M232.99,203.53c0-1.74,0.04-3.48-0.02-5.22c-0.03-0.88,0.14-1.33,1.17-1.3c2.3,0.07,4.6,0.03,6.91,0.02
			c0.61,0,1.08,0.03,1.07,0.87c0,0.84-0.47,0.86-1.09,0.85c-1.57-0.02-3.15,0.07-4.72-0.03c-1.16-0.07-1.49,0.38-1.36,1.44
			c0.06,0.44,0.05,0.9,0,1.35c-0.09,0.82,0.26,1.08,1.06,1.05c1.4-0.05,2.81,0,4.21-0.02c0.69-0.01,1.19,0.04,1.15,0.96
			c-0.04,0.97-0.73,0.67-1.21,0.68c-1.29,0.04-2.59,0.07-3.87,0c-0.97-0.05-1.37,0.15-1.36,1.26c0.02,2.78-0.04,2.78,2.69,2.78
			c1.29,0,2.58,0.02,3.87-0.01c0.63-0.01,0.89,0.18,0.89,0.86c0,0.67-0.26,0.87-0.89,0.86c-2.53-0.02-5.05-0.03-7.58,0
			c-0.75,0.01-0.97-0.3-0.95-1C233.01,207.12,232.99,205.33,232.99,203.53z"/>
		<path class="st4" d="M250.12,203.34c0-1.68,0.04-3.36-0.02-5.04c-0.03-0.88,0.14-1.32,1.16-1.29c2.3,0.07,4.6,0.02,6.9,0.02
			c0.56,0,1.1-0.07,1.1,0.82c-0.01,0.8-0.4,0.91-1.05,0.9c-1.35-0.02-2.7,0.11-4.03-0.04c-1.69-0.19-2.22,0.35-2.13,2.08
			c0.07,1.34,0.31,1.93,1.76,1.77c1.16-0.13,2.35-0.01,3.53-0.03c0.67-0.01,1.23,0.02,1.18,0.95c-0.05,0.95-0.72,0.68-1.22,0.69
			c-1.29,0.03-2.58,0.07-3.87-0.01c-1-0.06-1.35,0.21-1.35,1.29c0.01,2.76-0.05,2.76,2.72,2.76c1.23,0,2.47,0.02,3.7-0.01
			c0.64-0.01,1.06,0.09,1.04,0.9c-0.02,0.72-0.39,0.81-0.96,0.81c-2.52-0.01-5.05-0.03-7.57,0.01c-0.81,0.01-0.9-0.38-0.89-1.03
			C250.14,207.04,250.12,205.19,250.12,203.34z"/>
		<path class="st4" d="M289.72,209.78c1.56-3.47,3.09-6.87,4.63-10.27c0.28-0.61,0.53-1.24,0.86-1.82c0.55-0.98,2.01-0.98,2.49,0.04
			c1.84,3.94,3.62,7.91,5.46,11.96c-1.37,0.5-2.23,0.23-2.56-1.16c-0.36-1.51-1.29-2.07-2.81-1.83c-0.66,0.1-1.35,0.1-2.01,0
			c-1.9-0.28-3.24,0.2-3.7,2.28C291.79,210.26,290.79,209.93,289.72,209.78z M293.78,205.15c1.89-0.02,3.52,0.16,5.26-0.12
			c-0.88-1.98-1.68-3.8-2.61-5.9C295.5,201.26,294.68,203.12,293.78,205.15z"/>
		<path class="st4" d="M200.37,209.73c-1.47,0.47-2.29,0.09-2.59-1.22c-0.35-1.54-1.33-2.03-2.83-1.81c-0.66,0.09-1.36,0.11-2.01,0
			c-1.93-0.32-3.22,0.27-3.69,2.3c-0.3,1.29-1.28,0.9-2.35,0.8c1.87-4.14,3.66-8.16,5.52-12.15c0.46-0.98,2.01-0.9,2.49,0.12
			C196.74,201.72,198.53,205.69,200.37,209.73z M190.99,205.11c1.88,0,3.48,0,5.27,0c-0.87-1.98-1.68-3.82-2.63-5.98
			C192.69,201.25,191.89,203.07,190.99,205.11z"/>
		<path class="st4" d="M172.18,209.73c-1.57,0.57-2.32-0.04-2.64-1.35c-0.34-1.39-1.22-1.85-2.59-1.68c-0.72,0.09-1.47,0.11-2.18,0
			c-1.95-0.32-3.21,0.29-3.69,2.31c-0.31,1.31-1.34,0.82-2.4,0.88c1.89-4.19,3.68-8.21,5.53-12.2c0.47-1,2.04-0.97,2.5,0.04
			C168.55,201.69,170.34,205.67,172.18,209.73z M165.43,199.11c-0.95,2.19-1.77,4.06-2.64,6.06c1.61,0,2.96-0.01,4.31,0.01
			c0.64,0.01,0.99-0.12,0.65-0.85C167.02,202.7,166.3,201.07,165.43,199.11z"/>
		<path class="st4" d="M153.57,210.04c-2.97,0.03-5.55-1.66-6.47-4.21c-0.97-2.71-0.17-5.74,1.99-7.46c2.25-1.8,5.89-2.04,8.2-0.46
			c0.42,0.29,1.44,0.47,0.76,1.45c-0.58,0.84-1.07,0.51-1.76,0.07c-2.11-1.38-5.03-0.93-6.55,0.93c-1.48,1.81-1.43,4.61,0.12,6.35
			c1.55,1.74,4.44,2.14,6.44,0.75c0.76-0.53,1.24-0.62,1.76,0.15c0.69,1.01-0.43,1.08-0.83,1.4
			C156.18,209.85,154.88,209.98,153.57,210.04z"/>
		<path class="st4" d="M284.56,210.02c-3.13,0.01-5.55-1.61-6.49-4.36c-0.91-2.65-0.09-5.64,2-7.3c2.25-1.79,5.87-2.03,8.2-0.48
			c0.46,0.31,1.4,0.54,0.78,1.49c-0.56,0.86-1.08,0.52-1.76,0.07c-2.04-1.36-4.84-0.97-6.42,0.8c-1.55,1.73-1.6,4.53-0.11,6.34
			c1.51,1.84,4.44,2.3,6.55,0.91c0.71-0.47,1.22-0.74,1.76,0.09c0.63,0.98-0.4,1.12-0.83,1.45
			C287.15,209.82,285.87,210.01,284.56,210.02z"/>
		<path class="st4" d="M264.95,204.26c0-1.46-0.04-2.92,0.02-4.37c0.04-0.87-0.23-1.23-1.13-1.15c-0.78,0.06-1.57-0.01-2.36,0.02
			c-0.61,0.02-0.93-0.14-0.93-0.84c0-0.66,0.22-0.88,0.87-0.88c2.97,0.02,5.95,0.01,8.92,0c0.51,0,0.87,0.11,0.86,0.73
			c-0.01,0.57-0.1,1.02-0.82,0.97c-0.17-0.01-0.34,0-0.5,0c-3.06,0.08-3.06,0.08-3.06,3.11c0,2.3-0.01,4.6,0,6.9
			c0,0.66,0,1.18-0.94,1.19c-0.93,0.01-0.96-0.45-0.95-1.14C264.97,207.28,264.95,205.77,264.95,204.26z"/>
		<path class="st4" d="M202.21,203.35c0-1.74,0.02-3.48-0.01-5.21c-0.01-0.73,0.12-1.13,1-1.12c0.91,0.01,0.97,0.47,0.96,1.17
			c-0.02,2.86,0.05,5.72-0.03,8.57c-0.03,1.2,0.37,1.55,1.52,1.48c1.45-0.09,2.91-0.01,4.37-0.03c0.62-0.01,1.05,0.03,1.05,0.87
			c0,0.86-0.48,0.85-1.08,0.84c-2.24-0.01-4.49-0.05-6.73,0.02c-0.98,0.03-1.08-0.44-1.07-1.21
			C202.23,206.93,202.21,205.14,202.21,203.35z"/>
		<path class="st4" d="M273.09,203.5c0-1.8,0.04-3.59-0.02-5.39c-0.03-0.83,0.27-1.08,1.05-1.08c0.75,0.01,0.92,0.34,0.91,1.04
			c-0.03,3.59-0.03,7.19,0,10.78c0.01,0.78-0.21,1.1-1.04,1.09c-0.8-0.01-0.92-0.39-0.91-1.05
			C273.11,207.09,273.09,205.29,273.09,203.5z"/>
		<path class="st4" d="M253.43,196c2.3-2.47,2.3-2.47,4.41-2.15C256.44,194.81,255.59,196.43,253.43,196z"/>
	</g>
</g>
<path class="st2" d="M386.5,240.42L386.5,240.42c3.59,0,6.5-2.91,6.5-6.5v-149c0-3.59-2.91-6.5-6.5-6.5l0,0
	c-3.59,0-6.5,2.91-6.5,6.5v149C380,237.51,382.91,240.42,386.5,240.42z"/>
</svg>
