<?xml version="1.0" encoding="utf-8"?>
<!-- Generator: Adobe Illustrator 27.0.1, SVG Export Plug-In . SVG Version: 6.00 Build 0)  -->
<svg version="1.1" id="Layer_1" xmlns="http://www.w3.org/2000/svg" xmlns:xlink="http://www.w3.org/1999/xlink" x="0px" y="0px"
	 viewBox="0 0 1080 1080" style="enable-background:new 0 0 1080 1080;" xml:space="preserve">
<style type="text/css">
	.st0{fill:#48C4DE;}
</style>
<g>
	<path class="st0" d="M270.24,410.56c2.17,0.42,4.03,1.82,5.76,3.27c19.95,16.64,40.92,32,60.96,48.56
		c20.56,16.99,42.03,32.89,63.11,49.24c16.36,12.7,32.81,25.28,49.07,38.11c3.57,2.82,6.93,5.91,10.67,8.54
		c2.32,1.64,3.87,1.53,5.8-0.7c11.95-13.78,23.68-27.79,36.03-41.17c9.49-10.29,18.63-20.96,28.68-30.79
		c11.77-11.52,22.76-23.85,33.85-36.04c2.4-2.63,5.3-4.58,7.71-7.14c18.53-19.72,38.6-37.88,57.94-56.79
		c11.28-11.02,23.57-21,34.87-32c11.08-10.79,22.81-20.88,34.59-30.79c10.45-8.78,20.67-17.89,31.3-26.49
		c14.99-12.12,29.8-24.52,44.93-36.47c19.13-15.11,38.83-29.46,58.5-43.86c19.69-14.41,39.64-28.45,59.68-42.32
		c20.32-14.06,40.86-27.9,62.54-39.89c4.33-2.4,6.07-0.29,7.6,3.18c5.15,11.71,10.15,23.5,15.53,35.11
		c3.64,7.85,4.01,7.87-2.28,13.8c-18.03,16.99-36.4,33.64-53.47,51.59c-18.5,19.47-37.1,38.86-55.17,58.75
		c-15.33,16.87-30.47,33.91-45.33,51.18c-14.19,16.48-28.18,33.16-41.6,50.27c-14.71,18.77-29.08,37.82-43.39,56.9
		c-13.99,18.67-27.4,37.76-41.22,56.54c-9.85,13.39-19.56,27-28.51,41.09c-7.33,11.55-15.32,22.7-22.36,34.42
		c-8.76,14.59-17.82,29.01-26.92,43.36c-8.56,13.48-16.69,27.19-24.72,40.96c-8.83,15.14-16.97,30.69-25.29,46.12
		c-10.82,20.09-21.71,40.15-31.01,61c-5.72,12.82-11.17,25.77-16.65,38.7c-1.83,4.32-3.23,4.91-6.84,1.57
		c-5.54-5.12-11.08-10.3-16.06-15.95c-10.82-12.28-22.81-23.38-34.28-35.01c-15.66-15.87-30.82-32.24-46.56-48.01
		c-11.39-11.41-22.65-22.99-34.22-34.24c-9.55-9.29-18.35-19.36-27.63-28.93c-4.52-4.66-9.78-8.64-14.01-13.53
		c-9.54-11.01-20.5-20.62-30.33-31.38c-9.62-10.53-20.21-20.45-30.36-30.61c-10.26-10.26-20.44-20.68-30.37-31.3
		c-8.81-9.42-18.24-18.45-27.48-27.55c-12.98-12.79-26.25-25.34-37.85-39.48c-2.39-2.91-0.61-4.27,1.47-5.92
		c11.65-9.31,23.29-18.64,34.89-28.01c14.74-11.91,29.45-23.88,44.16-35.83C267.21,411.64,268.26,410.36,270.24,410.56z"/>
	<path class="st0" d="M156.11,592.84c0,49.95,0,99.9,0,149.85c0,34.47,0.11,68.94-0.04,103.42c-0.09,21.16,14.96,41.36,35.36,47.37
		c5,1.47,9.74,2,14.97,1.41c6.24-0.7,12.61-0.53,18.94,0.3c6.63,0.86,13.34,0.76,20,0.02c7.37-0.83,14.71-0.83,22.08,0
		c6.65,0.75,13.35,0.74,20,0.02c7.55-0.83,15.05-0.8,22.6,0.04c9.3,1.03,18.62-0.67,27.87-0.45c16.68,0.4,33.35-0.11,49.99,0.12
		c12.29,0.17,24.56-0.32,36.8-0.09c15.1,0.29,30.17-0.02,45.25,0.02c13.15,0.03,26.29,0.01,39.44,0
		c15.26-0.01,30.51,0.11,45.77,0.03c13.32-0.07,26.65-0.03,39.97,0c14.91,0.03,29.86-0.53,44.7,0.07
		c15.67,0.63,31.32-1.4,46.82-0.04c14.55,1.28,26.32-3.4,36.56-12.64c9.73-8.77,15.59-19.73,15.58-33.33
		c-0.05-64.72-0.01-129.44-0.02-194.17c-0.01-25.85,0.41-51.72-0.33-77.56c-0.31-10.78,3.04-19.43,9.21-27.65
		c13.69-18.27,27.27-36.63,40.92-54.93c0.99-1.32,1.65-3.74,3.75-3.05c2.04,0.67,1.33,3.02,1.33,4.68c0.03,32.36,0,64.72,0,97.09
		c0,63.67,0.01,127.34,0,191.01c0,21.81,0.44,43.63-0.27,65.42c-0.49,15.27-3.95,29.81-11.38,43.79
		c-11.97,22.52-29.93,37.87-52.3,48.54c-10.17,4.85-21.36,7.31-32.73,7.34c-65.6,0.17-131.21,0.15-196.81,0.17
		c-77.92,0.02-155.83,0.02-233.75,0.01c-21.63,0-43.27,0.07-64.9-0.13c-16.49-0.15-31.66-4.94-46.18-12.8
		c-13-7.04-23.95-16.67-32.43-28.13c-11.87-16.03-19.94-34.17-20.73-54.89c-0.42-10.89-1.18-21.69-0.05-32.6
		c0.68-6.61,0.03-13.31-0.71-19.98c-0.91-8.23,1.01-16.51,0.71-24.72c-0.59-16.15-0.12-32.28-0.13-48.42
		c-0.01-12.09-0.04-24.18,0.01-36.28c0.07-15.96-0.04-31.92,0-47.88c0.03-12.26-0.02-24.53,0-36.8c0.02-15.78-0.04-31.57-0.01-47.36
		c0.02-12.44-0.04-24.88,0.01-37.33c0.07-15.61-0.02-31.22,0-46.83c0.02-12.62,0-25.24,0.01-37.86c0.01-15.43,0.25-30.89-0.09-46.29
		c-0.33-14.59,0.17-29.12,0.3-43.67c0.07-7.34-1.49-14.59-0.11-22.05c2.92-15.81,6.69-31.27,15.55-44.94
		c10.11-15.6,23.02-28.3,39.89-36.48c13.2-6.4,27.06-10.45,41.85-11.58c9.85-0.75,19.59-0.88,29.44-0.08
		c6.44,0.53,12.96,0.21,19.47-0.55c8.4-0.98,16.86,0.78,25.25,0.55c17.04-0.48,34.13,0.73,51.05-0.24
		c17.94-1.03,35.8,1.95,53.68-0.4c7.3-0.96,14.75,0.8,22.09,0.63c17.21-0.4,34.4-0.08,51.6-0.08c11.04,0,22.09,0.05,33.13-0.01
		c17.55-0.1,35.1,0.06,52.65,0.04c10.52-0.01,21.02-0.1,31.55-0.06c18.07,0.07,36.22,0.74,54.22-0.11c19.33-0.91,38.6,1.67,57.9-0.4
		c5.5-0.59,11.19,0.56,16.8,0.93c1.42,0.09,2.93,0.23,3.45,1.87c0.52,1.65-0.66,2.71-1.74,3.54c-3.89,2.99-8.02,5.68-11.77,8.83
		c-14.24,11.95-28.39,24.01-42.52,36.08c-1.83,1.56-3.75,2.52-6.17,2.51c-12.09-0.04-24.12,1.94-36.3,0.23
		c-6.35-0.89-12.94-0.31-19.45,0.45c-6.43,0.75-12.97,0.59-19.47-0.22c-6.82-0.85-13.69-0.76-20.52-0.02
		c-7.54,0.82-15.08,0.88-22.61-0.01c-9.14-1.08-18.26,0.59-27.34,0.38c-16.68-0.37-33.34,0.04-50-0.12
		c-12.11-0.11-24.2,0.18-36.28,0.06c-15.62-0.16-31.23,0.04-46.83-0.05c-12.8-0.08-25.59-0.01-38.39,0.05
		c-15.43,0.07-30.86-0.14-46.3-0.05c-13.14,0.08-26.28-0.85-39.44,0.21c-4.54,0.37-9.1-0.25-13.66-0.65
		c-15-1.33-29.9,0.72-42.77,8.24c-10.98,6.41-18.78,16.53-21.88,29.74c-2.83,12.02-2.1,24.11-2.12,36.19
		c-0.08,50.3-0.04,100.6-0.04,150.9c0,27.26,0,54.52,0,81.78C156.06,592.84,156.08,592.84,156.11,592.84z"/>
</g>
</svg>
