<?xml version="1.0" encoding="utf-8"?>
<!-- Generator: Adobe Illustrator 27.0.0, SVG Export Plug-In . SVG Version: 6.00 Build 0)  -->
<svg version="1.1" id="Layer_1" xmlns="http://www.w3.org/2000/svg" xmlns:xlink="http://www.w3.org/1999/xlink" x="0px" y="0px"
	 viewBox="0 0 339.15 212.75" style="enable-background:new 0 0 339.15 212.75;" xml:space="preserve">
<style type="text/css">
	.st0{fill:none;stroke:#FFFFFF;stroke-width:2;stroke-miterlimit:10;}
</style>
<path class="st0" d="M207.21,42.83c9.49-3.83,20.03-5.58,31.08-4.72c33.24,2.59,60.19,29.54,62.78,62.78
	c3.29,42.17-31.65,77.1-73.84,73.76c-33.4-2.64-60.36-29.84-62.73-63.25c-1.75-24.5,9.43-46.51,27.37-59.92
	c1.7-1.27,2.08-3.7,0.87-5.44C172.9,17.69,139.47-0.45,101.9,1.11C45.48,3.45,0.48,50.93,1,107.4
	c0.54,57.72,47.5,104.35,105.37,104.35c17.61,0,34.21-4.32,48.8-11.97c2.5-1.3,2.96-4.72,0.86-6.58
	c-7.26-6.42-13.7-13.75-19.16-21.79c-1.1-1.61-3.12-2.19-4.93-1.48c-9.49,3.82-20.01,5.58-31.05,4.72
	c-33.65-2.62-60.76-30.19-62.87-63.87C35.55,70.96,67.1,37.9,106.37,37.9c12.51,0,24.23,3.35,34.31,9.2
	c1.97,1.14,2.59,3.67,1.43,5.63c-10.17,17.17-15.63,37.47-14.53,59.12c2.69,52.98,45.42,96.3,98.36,99.66
	c63.64,4.04,116.1-48.47,111.99-112.14c-3.37-52.19-45.53-94.54-97.69-98.12c-20.38-1.4-39.63,3-56.26,11.72
	c-2.5,1.3-2.96,4.71-0.84,6.58c7.26,6.42,13.7,13.75,19.16,21.79C203.37,42.95,205.41,43.54,207.21,42.83"/>
</svg>
