<?xml version="1.0" encoding="UTF-8"?>
<svg id="Layer_2" data-name="Layer 2" xmlns="http://www.w3.org/2000/svg" viewBox="0 0 72.81 59.45">
  <defs>
    <style>
      .cls-1 {
        fill: #0f253e;
      }
    </style>
  </defs>
  <g id="Layer_1-2" data-name="Layer 1">
    <g>
      <path class="cls-1" d="M62.44,54.04c-.49,0-1.13-.07-1.57-.51-.37-.36-.53-.89-.52-1.65,.06-4.03-1.72-7.01-5.29-8.85-3.54-1.82-7.07-1.55-10.49,.8-1.86,1.28-3.09,3.14-3.66,5.56-.34,1.44-1.11,2.07-2.6,2.03-2.35-.05-4.69-.04-7.48,0-.02,0-.05,0-.07,0-1.38,0-2.09-.54-2.44-1.86-1.21-4.55-5.08-7.61-9.62-7.62-4.61,.01-8.37,2.96-9.65,7.57-.38,1.35-1.15,1.96-2.52,1.92h-.19c-1.01-.02-2.05-.04-3.08-.27-1.92-.43-3.22-1.91-3.24-3.68-.06-6.61-.03-13.11,0-18.03,0-1.58,.95-2.85,2.58-3.47,.72-.27,.94-.61,.93-1.45-.04-3.81-.04-7.15,0-10.22,0-.52-.07-.85-.22-1-.13-.13-.39-.18-.76-.16-.92,.05-1.55-.42-1.77-1.32-.5-1.99-.22-3.8,.79-5.09,1-1.28,2.66-1.99,4.68-1.99,3.19,0,6.38,0,9.57,0h3.83s4.23,0,4.23,0c3.16,0,6.33,0,9.49,0,1.83,0,3.45,.86,4.44,2.33,1.01,1.5,1.19,3.35,.49,5.09-.41,1.02-1.31,1.01-1.9,1-.33-.01-.54,.04-.64,.15-.12,.12-.17,.36-.17,.72,.03,2.36,.03,4.29,0,6.08,0,.38,.05,.64,.17,.76,.12,.12,.34,.19,.71,.17,2.58-.04,5.16-.04,7.67,0,.33,.01,.59-.05,.71-.17,.12-.12,.17-.38,.16-.76-.04-.99-.07-2.05,.01-3.09,.11-1.38-.25-2.31-1.13-2.91-3.79-2.6-3.04-6.23-2.14-8.74,.04-.13,.08-.26,.12-.39,.04-.12,.07-.24,.12-.36C43.4,.41,43.93,.03,48.3,.03c.46,0,.91,0,1.37,.01,1.01,.01,2.05,.03,3.06-.03,1.5-.09,2.55,.51,3.29,1.89,.95,1.78,1.62,3.84,2.11,6.48,.36,1.91-.13,3.32-1.45,4.19-2.6,1.73-2.48,4.27-2.36,6.96,.01,.3,.03,.61,.04,.91,.01,.35,.07,.56,.79,.56,.04,0,.08,0,.11,0,.46,0,.92,0,1.37,.02,.97,.02,1.98,.03,2.96-.03,1.53-.1,2.81,.46,3.9,1.72,3.67,4.25,4.79,9.05,3.33,14.27-.31,1.1-.22,1.99,.31,2.97,1.57,2.95,3.25,6.19,5.14,9.92,.63,1.25,.73,2.26,.28,3s-1.38,1.12-2.79,1.13c-1.03,.01-2.07,0-3.1,0-1.36,0-2.71-.01-4.07,.02-.04,0-.09,0-.14,0Zm-12-13.21c1.68,0,3.38,.44,5.08,1.31,3.88,2,5.9,5.37,5.83,9.75,0,.46,.07,.77,.22,.92,.16,.16,.48,.23,.98,.22,1.37-.03,2.73-.03,4.1-.02,1.03,0,2.06,0,3.08,0,.71,0,1.62-.13,1.94-.65,.32-.52,0-1.39-.32-2.03-1.88-3.73-3.56-6.96-5.13-9.9-.65-1.21-.77-2.36-.39-3.71,1.36-4.87,.31-9.36-3.13-13.34-.88-1.02-1.85-1.46-3.07-1.38-1.02,.07-2.04,.05-3.04,.03-.49,0-.97-.01-1.46-.02h0c-1.44,0-1.77-.83-1.79-1.52,0-.3-.02-.6-.04-.9-.13-2.85-.26-5.8,2.81-7.84,.98-.65,1.31-1.66,1.02-3.18-.48-2.58-1.1-4.49-2.01-6.2-.55-1.03-1.24-1.44-2.34-1.37-1.05,.06-2.11,.05-3.14,.03-.45,0-.9-.01-1.36-.01-3.98,0-4.08,.07-5.38,3.9-.04,.11-.07,.22-.11,.33-.04,.14-.09,.29-.14,.43-1.28,3.58-.75,5.85,1.77,7.58,1.19,.82,1.7,2.07,1.56,3.82-.08,.98-.05,2,0,2.97,.03,.67-.12,1.16-.44,1.5-.32,.33-.76,.48-1.44,.48-2.5-.04-5.07-.04-7.64,0-.61,.01-1.11-.14-1.43-.46-.43-.43-.47-1.05-.46-1.48,.04-1.77,.04-3.69,0-6.04,0-.65,.14-1.12,.46-1.44,.31-.31,.74-.46,1.34-.44,.66,.01,.85-.03,.99-.37,.57-1.43,.43-2.95-.39-4.16-.8-1.19-2.12-1.88-3.61-1.88-3.16-.02-6.32-.01-9.48,0h-4.23s-3.83,0-3.83,0c-3.19,0-6.38,0-9.57,0-1.73,0-3.08,.56-3.89,1.6-.81,1.04-1.03,2.55-.6,4.23,.11,.44,.3,.59,.75,.57,.67-.04,1.16,.11,1.51,.44,.49,.46,.54,1.17,.53,1.73-.04,3.06-.04,6.39,0,10.2,.01,1.26-.46,1.97-1.57,2.4-.88,.33-1.92,1.04-1.93,2.54-.03,4.92-.06,11.41,0,18.01,.01,1.3,1,2.39,2.45,2.72,.93,.21,1.88,.22,2.88,.24h.19c.9,.02,1.28-.27,1.54-1.18,1.4-5.04,5.55-8.3,10.59-8.3h.02c5,0,9.26,3.37,10.59,8.36,.26,.98,.65,1.14,1.53,1.12,2.26-.03,4.89-.05,7.51,0,1.01,.04,1.37-.28,1.6-1.26,.63-2.66,2-4.73,4.07-6.15,2.11-1.45,4.26-2.18,6.43-2.18ZM13.79,26.52c-.64,0-1.1-.16-1.42-.48-.32-.33-.48-.8-.47-1.46,.03-2.46,.03-4.75,0-6.98,0-.64,.14-1.1,.46-1.42,.43-.43,1.05-.47,1.49-.47,1.34,.03,2.68,.02,4.02,.01h1.69s1.64,0,1.64,0c1.36,0,2.71,.01,4.07-.01,.65-.01,1.13,.14,1.46,.46,.33,.32,.48,.8,.47,1.46-.03,2.26-.03,4.61,0,6.98,0,.63-.14,1.1-.46,1.42-.33,.33-.8,.46-1.49,.48-3.91-.02-7.76-.02-11.45,0h-.02Zm-.02-9.81c-.35,0-.59,.06-.7,.17-.12,.12-.17,.35-.17,.7,.04,2.25,.04,4.54,0,7.01,0,.37,.05,.62,.18,.74,.12,.12,.36,.18,.73,.18,3.68-.02,7.54-.02,11.46,0,.35,0,.65-.06,.77-.19,.12-.12,.18-.36,.17-.7-.03-2.39-.03-4.75,0-7.01,0-.37-.05-.62-.18-.74-.12-.12-.34-.18-.73-.17-1.37,.03-2.73,.02-4.1,.01h-1.64s-1.69,0-1.69,0c-1.35,0-2.7,.01-4.05-.01-.02,0-.04,0-.06,0Z"/>
      <path class="cls-1" d="M18.75,59.45c-4.3,0-7.55-3.22-7.58-7.5h0c-.02-4.22,3.23-7.55,7.4-7.59,1.97,.03,3.96,.81,5.43,2.28,1.45,1.44,2.27,3.37,2.26,5.3-.02,4.13-3.38,7.5-7.49,7.51h-.02Zm-.11-14.09s-.04,0-.05,0c-3.61,.03-6.43,2.92-6.41,6.58h0c.02,3.77,2.79,6.5,6.58,6.5h.02c3.56,0,6.47-2.93,6.49-6.52,0-1.66-.71-3.33-1.96-4.58-1.27-1.26-2.97-1.99-4.66-1.99Z"/>
      <path class="cls-1" d="M50.46,59.45h0c-2.01,0-3.89-.78-5.3-2.2-1.43-1.44-2.2-3.38-2.17-5.45,.05-4.11,3.4-7.43,7.49-7.43,.03,0,.05,0,.08,0,4.03,.04,7.47,3.41,7.5,7.36,.02,2.11-.76,4.07-2.2,5.51-1.41,1.42-3.33,2.21-5.39,2.21Zm.01-14.09c-3.54,0-6.45,2.88-6.49,6.44-.02,1.8,.65,3.49,1.89,4.74,1.21,1.23,2.84,1.91,4.58,1.91h0c1.79,0,3.46-.68,4.68-1.91,1.25-1.25,1.92-2.96,1.91-4.8-.03-3.36-3.07-6.33-6.51-6.37-.02,0-.05,0-.07,0Z"/>
    </g>
  </g>
</svg>