<?xml version="1.0" encoding="UTF-8"?>
<svg id="Layer_2" data-name="Layer 2" xmlns="http://www.w3.org/2000/svg" viewBox="0 0 81.2 49.5">
  <defs>
    <style>
      .cls-1 {
        fill: #0f253e;
      }
    </style>
  </defs>
  <g id="Layer_1-2" data-name="Layer 1">
    <g>
      <path class="cls-1" d="M49.8,26.71s-.05,0-.07,0c-4.83-.04-9.75-.04-14.51-.03h-5.24s-5.08,0-5.08,0c-4.84,0-9.68,0-14.53,.02-1.3-.01-2.29-.4-3.17-1.33-1.77-1.85-3.72-3.8-5.96-5.96C.39,18.6,0,17.68,.01,16.52,.05,12.91,.08,9.66,0,6.34c-.02-.92,.15-1.52,.55-1.93,.41-.41,1-.6,1.94-.6h.03c5.84,.02,11.68,.02,17.53,.03,6.11,0,12.23,0,18.34,.03h.05c1.63,0,2.59-.4,3.29-1.37C43.07,.66,44.92-.13,47.55,.02c3.29,.19,6.57,.11,9.35,.01,1.01-.04,1.7,.17,2.12,.64,.41,.45,.55,1.12,.42,2.05-.01,.1,0,.21,0,.31,0,.09,0,.18,0,.27,0,.37,0,.69,0,.98,.02,.84,.03,1.51-.43,1.98-.45,.45-1.18,.61-2.84,.59h0c-.57,0-1.43,.5-2.26,1.32-1.04,1.03-1.77,2.28-1.78,3.05v1.57c-.03,3.77-.05,7.66,.02,11.49,.01,.89-.15,1.46-.55,1.86-.49,.49-1.22,.57-1.82,.57Zm-9.38-1.03c3.1,0,6.22,0,9.31,.03,.65,.01,.99-.08,1.17-.27,.18-.18,.27-.56,.26-1.14-.06-3.84-.04-7.74-.02-11.51v-1.57c.01-1.27,1.13-2.82,2.08-3.76,1.04-1.03,2.09-1.6,2.98-1.61,.77,0,1.84-.01,2.11-.29,.17-.17,.16-.62,.14-1.26,0-.3-.01-.64,0-1.03,0-.07,0-.14,0-.21,0-.16,0-.33,.01-.48,.08-.61,.02-1.03-.17-1.25-.21-.23-.65-.33-1.35-.31-2.8,.1-6.12,.17-9.45-.01-2.29-.13-3.82,.51-4.96,2.07-1.15,1.58-2.76,1.78-4.15,1.78-6.11-.03-12.22-.03-18.33-.03-5.84,0-11.69,0-17.53-.03-.64,0-1.05,.09-1.25,.3-.2,.2-.28,.59-.27,1.21,.08,3.33,.05,6.6,.01,10.22,0,.89,.26,1.54,.92,2.17,2.24,2.17,4.2,4.13,5.98,5.99,.68,.71,1.41,1.02,2.42,1.02h.03c4.84-.03,9.69-.03,14.53-.02h5.07s5.24,0,5.24,0c1.72,0,3.46,0,5.21,0Z"/>
      <path class="cls-1" d="M4.22,43.21s-.07,0-.11,0h-.71c-3.17-.03-3.4-.24-3.38-3.14v-.85c0-.92,0-1.83,0-2.75,0-1.69,.01-3.37-.02-5.06-.02-.78,.16-1.35,.53-1.73,.38-.39,.94-.57,1.76-.57h0c15.89,.02,31.79,.02,47.68,0h0c.77,0,1.29,.17,1.66,.54,.36,.37,.52,.9,.51,1.67-.06,3.34-.06,6.61,0,9.71,.01,.74-.15,1.28-.51,1.63-.48,.48-1.23,.53-1.71,.53-2.94-.02-5.88-.02-8.81-.02h-3.31s0-.5,0-.5v.5h-3.37c-2.81,0-5.62,0-8.43,0-1.17-.02-2.22-.23-2.46-1.92-.6-4.14-3.96-7.12-8.18-7.25-4.17-.14-7.71,2.79-8.44,6.92-.33,1.86-1.28,2.26-2.72,2.26Zm-1.92-13.09c-.52,0-.86,.09-1.04,.27-.18,.18-.26,.51-.25,1.01,.03,1.69,.03,3.39,.02,5.08,0,.91,0,1.83,0,2.74v.86c0,1.01-.01,1.73,.18,1.91,.22,.2,1.01,.21,2.2,.22h.71c1.22,.02,1.61-.17,1.83-1.42,.81-4.63,4.84-7.88,9.46-7.75,4.72,.14,8.47,3.48,9.14,8.11,.13,.92,.48,1.07,1.47,1.06,2.81,0,5.62,0,8.43,0h3.37s3.3,0,3.3,0c2.94,0,5.88,0,8.82,.02,.56,.02,.83-.07,.99-.24,.15-.15,.23-.46,.22-.91-.06-3.11-.06-6.39,0-9.74,0-.48-.06-.8-.22-.96-.16-.16-.47-.24-.94-.24h0c-15.89,.02-31.79,.02-47.68,0h0Z"/>
      <path class="cls-1" d="M56.91,43.33c-.47,0-.94-.11-1.4-.33-.98-.48-.95-1.39-.93-1.99v-.28c0-3.52,0-7.03,0-10.55v-3.96s0-3.59,0-3.59c0-3.59,0-7.17,0-10.76,0-2.32,.3-2.62,2.68-2.62h1.58c1.87-.01,3.73-.02,5.6,.02,3.52,.07,6.18,2.02,7.31,5.34,.56,1.66,1.1,3.47,1.64,5.53,.36,1.37,1.08,2.42,2.28,3.31,.62,.46,1.17,.86,1.65,1.22,3.85,2.83,3.92,2.96,3.87,7,0,.78-.02,1.71,0,2.85,.01,.86,0,1.73,0,2.59,0,.57,0,1.14,0,1.72,0,1.29-.54,2.4-1.61,3.28-.84,.69-1.53,.93-2.12,.72-.58-.21-.97-.82-1.18-1.88-.59-2.96-2.58-5.35-5.31-6.39-2.72-1.03-5.76-.57-8.15,1.24-1.71,1.3-2.73,2.97-3.12,5.13-.17,.92-.72,1.68-1.5,2.08-.39,.2-.83,.3-1.27,.3Zm4.1-33.08c-.72,0-1.44,0-2.16,0h-1.59q-1.68,0-1.68,1.63c0,3.59,0,7.17,0,10.76v3.59s0,3.96,0,3.96c0,3.52,0,7.03,0,10.55,0,.1,0,.21,0,.31-.02,.64,0,.88,.37,1.06,.6,.29,1.24,.31,1.77,.04,.51-.26,.86-.74,.97-1.36,.44-2.38,1.62-4.31,3.51-5.75,2.66-2.02,6.07-2.54,9.11-1.38,3.06,1.16,5.28,3.82,5.94,7.13,.18,.91,.43,1.09,.53,1.13,.1,.03,.41,.06,1.15-.55,.84-.69,1.25-1.51,1.25-2.5,0-.58,0-1.15,0-1.73,0-.86,.01-1.71,0-2.57-.02-1.15,0-2.1,0-2.88q.05-3.61-3.46-6.18c-.49-.36-1.04-.76-1.66-1.23-1.38-1.04-2.23-2.26-2.64-3.86-.54-2.04-1.07-3.83-1.62-5.46-1-2.95-3.27-4.6-6.38-4.67-1.14-.02-2.27-.03-3.41-.03Zm7.18,12.77s-.03,0-.05,0c-.92-.01-1.85,0-2.77,0h-1.19s-1.1,0-1.1,0c-.95,0-1.91,0-2.86,0-.55,0-1.01-.13-1.31-.44s-.45-.73-.44-1.31c.02-2.22,.01-4.45,0-6.67,0-.53,.14-.95,.43-1.24,.29-.29,.71-.43,1.24-.42,.46,0,.91,0,1.36,0,.92,0,1.86-.01,2.8,.06,2.06,.14,3.44,1.27,4,3.26l.09,.31c.41,1.47,.83,2.95,1.28,4.41,.2,.66,.17,1.16-.1,1.52-.26,.35-.71,.52-1.36,.52Zm-1.63-1.01c.53,0,1.06,0,1.6,0,.45,0,.59-.11,.6-.12,0-.01,.09-.14-.05-.62-.45-1.47-.87-2.95-1.28-4.43l-.09-.31c-.44-1.59-1.46-2.41-3.11-2.53-.9-.06-1.82-.06-2.72-.05-.46,0-.92,0-1.38,0-.17,0-.41,.02-.52,.13s-.14,.35-.14,.52c0,2.23,.01,4.45,0,6.68,0,.2,.02,.47,.15,.59,.13,.12,.39,.14,.59,.14,.96-.01,1.92,0,2.88,0h1.1s1.19,0,1.19,0c.4,0,.79,0,1.19,0Z"/>
      <path class="cls-1" d="M67.97,49.47c-1.8,0-3.59-.74-4.91-2.05-1.34-1.32-2.08-3.05-2.09-4.87,0-3.73,3.26-7.01,7-7.02h.02c3.68,0,6.93,3.21,6.96,6.87h0c.04,3.86-3.06,7.03-6.9,7.07-.02,0-.05,0-.07,0Zm.01-12.94h-.01c-3.2,0-6,2.82-6,6.02,0,1.55,.64,3.02,1.79,4.16,1.15,1.14,2.72,1.77,4.27,1.76,3.24-.04,5.95-2.81,5.92-6.06h0c-.03-3.14-2.81-5.88-5.96-5.88Z"/>
      <path class="cls-1" d="M15.22,49.5h-.03c-3.73-.02-6.89-3.2-6.9-6.94-.01-3.85,3.12-7,6.99-7.03h.05c1.77,0,3.44,.69,4.72,1.95,1.34,1.32,2.08,3.09,2.1,4.99h0c.01,1.88-.72,3.65-2.06,4.99-1.31,1.31-3.04,2.04-4.86,2.04Zm.1-12.97h-.04c-3.32,.02-6.01,2.73-6,6.03,0,3.21,2.71,5.93,5.91,5.95,1.58,0,3.05-.61,4.18-1.74,1.15-1.15,1.78-2.67,1.77-4.28-.01-1.63-.65-3.15-1.8-4.28-1.09-1.08-2.52-1.67-4.02-1.67Z"/>
    </g>
  </g>
</svg>