<svg width="70" height="70" viewBox="0 0 70 70" fill="none" xmlns="http://www.w3.org/2000/svg">
<rect x="1.5" y="1.5" width="67" height="67" rx="33.5" fill="white"/>
<rect width="32" height="32" transform="translate(19 19)" fill="white"/>
<path d="M36.7662 33.2337L26.254 43.7459M27.3884 36.1167L22.2394 34.9005C21.6729 34.7666 21.4736 34.0633 21.884 33.6515L25.9789 29.5566C26.254 29.2815 26.6272 29.1239 27.0182 29.1209L31.635 29.0808M37.4502 23.7979C40.8863 26.1412 43.8586 29.1135 46.2019 32.5497M33.8817 42.6114L35.0979 47.7605C35.2317 48.327 35.935 48.5262 36.3469 48.1158L40.4418 44.021C40.7168 43.7459 40.8745 43.3727 40.8774 42.9816L40.9176 38.3649M47.0837 30.1335L48.2851 24.3525C48.6122 22.7794 47.2205 21.3877 45.6473 21.7148L39.8663 22.9162C38.1639 23.2701 36.6026 24.1131 35.3745 25.3428L30.6313 30.0844C28.8218 31.894 27.6442 34.2403 27.2725 36.7724L27.2561 36.881C27.0212 38.4972 27.5624 40.1283 28.7162 41.2836C29.87 42.4375 31.5026 42.9787 33.1189 42.7423L33.2274 42.7259C35.7596 42.3557 38.1059 41.1766 39.9154 39.367L44.6571 34.6254C45.8867 33.3972 46.7298 31.836 47.0837 30.1335Z" stroke="#006F80" stroke-width="2.66667" stroke-linecap="round" stroke-linejoin="round"/>
<rect x="1.5" y="1.5" width="67" height="67" rx="33.5" stroke="#006F80" stroke-width="3"/>
</svg>
