<?xml version="1.0" encoding="utf-8"?>
<!-- Generator: Adobe Illustrator 27.0.0, SVG Export Plug-In . SVG Version: 6.00 Build 0)  -->
<svg version="1.1" id="Layer_1" xmlns="http://www.w3.org/2000/svg" xmlns:xlink="http://www.w3.org/1999/xlink" x="0px" y="0px"
	 viewBox="0 0 185.34 204.38" style="enable-background:new 0 0 185.34 204.38;" xml:space="preserve">
<style type="text/css">
	.st0{fill:#16AABB;}
</style>
<g>
	<g>
		<path class="st0" d="M151.74,112.92c-0.58-0.4-0.69-0.84-0.31-1.34c1.19-1.53,0.62-3.27,0.63-4.94c0-0.35,0.02-0.92-0.56-0.82
			c-1.77,0.33-3.58,1.13-4.39,2.58c-0.78,1.41-1.45,3.06-1.58,4.82c-0.16,2.12-0.11,4.39-2.17,5.83c-0.06,0.04-0.11,0.21-0.07,0.26
			c0.79,1.29-0.4,2.05-0.82,3.01c-0.4,0.94-1.3,1.68-1.36,2.73c-0.1,1.69-0.73,3.14-1.65,4.51c-0.18,0.28-0.5,0.74-0.69,0.7
			c-1.68-0.28-1.15,0.92-1.32,1.76c-0.15,0.73-0.09,1.98-1.57,1.31c-0.5-0.23-0.72,0.4-1.11,0.56c-0.44,2.25-1.78,3.94-3.33,5.54
			c-1.32,1.36-2.55,2.83-3.8,4.26c-0.35,0.41-0.78,0.78-1.21,0.32c-0.38-0.4,0.21-0.67,0.45-0.92c2.62-2.64,5.1-5.4,7.17-8.5
			c0.18-0.28,0.48-0.48,0.72-0.72c0.12-0.3,0.2-0.63,0.37-0.91c-0.38,0.16-0.77,0.31-1.12,0.53c-0.68,0.41-1.29,0.91-1.91,1.42
			c-0.6,0.5-1.23,0.97-1.86,1.41c-0.97,0.69-1.81,1.53-2.73,2.28c-1.08,0.88-1.77,2.09-2.73,3.07c-0.2,0.21-0.27,0.5-0.31,0.78
			c-0.16,1.01-0.17,2.03-0.27,3.05c-0.11,1.1,0.21,2.19,0.32,3.29c0.1,0.97,0.21,1.95,0.34,2.92c0.04,0.3,0.08,0.6,0.11,0.9
			c1.69,0.35,3.14-0.65,4.18-1.6c2.06-1.88,4.3-3.55,6.29-5.52c1.21-1.2,2.51-2.31,3.74-3.51c1.09-1.06,0.6-3.33,2.76-3.59
			c0.09-0.01,0.14-0.53,0.18-0.82c0.17-1.16,0.55-2.2,1.32-3.15c1.68-2.07,2.81-4.46,3.78-6.92c1.69-4.27,2.78-8.76,4.8-12.91
			C152.36,113.99,152.34,113.33,151.74,112.92z M125.37,118.76c0.16,0.73,0.05,1.48-0.1,2.21c-0.13,0.67-0.14,1.36-0.22,2.04
			c-0.14,1.16-0.33,2.31-0.51,3.46c-0.25,1.52-0.32,3.05-0.04,4.58c0.16,0.88,0.52,1.7,1.13,2.36c0.59,0.64,1.39,0.71,2.21,0.59
			c1.2-0.17,2.13-0.91,3.1-1.54c0.17-0.11,0.09-0.32,0.14-0.55c0.06,0.24,0.2,0.41,0.34,0.2c0.14-0.22,0.36-0.2,0.53-0.31
			c0.4-0.26,0.86-0.38,1.31-0.53c0.89-0.29,1.77-0.25,2.6,0.22c0.05,0.03,0.1,0.06,0.14,0.1c4.64-8.01,7.15-16.62,7.1-25.99
			c-0.01-1.62-0.25-3.66,2.42-3.63c0.17,0,0.35-0.16,0.51-0.28c0.71-0.5,1.05-0.36,1.06,0.54c0,0.31-0.15,0.67,0.26,0.96
			c0.45-0.74,0.97-1.44,0.06-2.18c-0.96-0.77-1.97-1.57-2.55,0.41c-0.67-0.68,0.07-1.51-0.35-1.91c-1.32-1.24-1.91-2.59-2.21-4.47
			c-0.29-1.83-0.94-3.75-1.61-5.57c-0.2-0.54-0.21-1.11-0.05-1.67c1.47,0.31,2.34,1.17,2.78,2.45c0.15,0.44,0.65,0.96-0.39,1.31
			c-0.59,0.2-0.41,1.24-0.07,1.86c0.32,0.59,0.62,0.29,1.01-0.07c0.44-0.42,0.65,0.18,0.9,0.4c0.76,0.66,0.84,1.78,1.52,2.56
			c0.45-0.59,0.34-1.05,0.13-1.6c-0.54-1.36-0.92-2.75-0.86-4.27c0.04-0.98,0.65-2.62-1.53-2.03c-0.06,0.02-0.16-0.09-0.25-0.14
			c-1.33-0.83-1.81-3.2-0.88-4.49c0.12-0.17,0.23-0.31,0.17-0.51c-0.51-1.67-0.7-3.44-2.1-4.74c-1.72-1.6-2.61-3.9-4.41-5.45
			c-0.2-0.17-0.24-0.52-0.35-0.79c-0.59-1.46-0.89-3.09-2.74-3.66c-0.63-0.2-1.11-0.78-1.42-1.43c-1.42-2.97-3.35-5.47-6.1-7.39
			c-1.43-1-3.09-1.01-4.56-1.7c-0.89-0.41-1.8-1.06-2.89-0.35c-0.31,0.2-0.66-0.09-0.94-0.28c-1.03-0.74-2.16-1.39-3.04-2.29
			c-1-1.03-2.16-1.62-3.5-1.58c-2.79,0.07-5.07-1.46-7.63-2.02c0.09-0.51,0.85,0.03,0.7-0.57c-0.1-0.4-0.28-0.87-0.8-0.95
			c-0.34-0.05-0.82-0.06-0.84,0.37c-0.08,2.08-1.49,1.58-2.53,1.17c-1.52-0.6-2.91-0.29-4.25,0.27c-0.8,0.34-1.55,0.38-2.26,0.14
			c-0.84-0.28-1.54-0.45-2.25,0.27c-0.32,0.32-0.88,0.21-1.01-0.17c-0.37-1.04-0.98-0.66-1.58-0.36c-2.36,1.18-4.87,1.06-7.39,0.9
			c-0.6-0.04-1-0.34-1.3-0.82c-0.76-1.22-1.21-2.56-1.44-3.97c-0.08-0.48-0.11-1.11,0.62-1.06c1.17,0.06,2.39,0.17,3.32,0.97
			c0.76,0.65,0.11,1.45-0.03,2.19c-0.06,0.35-0.28,0.96,0.32,0.86c0.93-0.16,2.09,0.15,2.7-0.92c0.23-0.4,0.5-0.45,0.84-0.35
			c0.96,0.28,1.37-0.16,1.77-1c0.72-1.55,1.31-1.72,3.04-1.22c0.32,0.09,0.68,0.04,1.02,0.11c2.16,0.49,4.51,0.17,6.51,1.58
			c0.09-0.19,0.15-0.37,0.24-0.53c0.96-1.68,4.5-3.18,5.56-2.15c1.4,1.36,2.77,1.11,4.31,0.66c0.86-0.25,1.75-0.3,2.57,0.16
			c0.75,0.41,1.06,0.99,0.6,1.82c-0.44,0.79-1.07,0.84-1.71,0.36c-0.82-0.62-1.65-0.56-2.98-0.13c3.24,1.09,6.07,2.13,8.7,3.62
			c0.39,0.22,1.32,0.34,0.83-0.73c-0.22-0.48,0.09-0.46,0.36-0.55c1.43-0.47,2.8-0.32,4.1,0.41c0.32,0.18,0.23,0.19,0.13,0.78
			c-0.14,0.81,0.66,1.05,1.11,1.47c0.28,0.26,0.85,0.44,0.97-0.08c0.31-1.26,1.17-0.8,1.85-0.66c0.74,0.15,1.45,0.49,2.31,0.79
			c-0.15-0.72-0.47-1.05-1.01-1.26c-1.7-0.67-3.23-1.6-4.39-3.05c-0.48-0.6-1.15-0.72-1.8-0.85c-0.64-0.13-0.26,0.82-0.92,0.91
			c-1.49,0.19-3.95-1.33-4.39-2.9c-0.08-0.28-0.25-0.39-0.45-0.52c-1.53-1.01-3.14-1.79-5.03-1.8c-1.18-0.01-2.32-0.36-3.48-0.45
			c-2.36-0.18-4.61-1.15-7.02-0.86c-0.24,0.03-0.62-0.13-0.75-0.33c-0.48-0.79-0.48-0.87-1.26-0.5c-1.04,0.48-2.1,0.55-3.13,0.15
			c-2.68-1.02-5.5-1.11-8.26-1c-1.9,0.08-3.87,0.4-5.58,1.76c-1.25,0.99-3.31,0.84-4.19,2.6c-0.08,0.16-0.42,0.24-0.66,0.28
			c-1.45,0.24-2.89,0.57-4.34,0.64c-1.3,0.06-2.49,0.37-3.37,1.22c-2.24,2.15-5.31,2.81-7.7,4.64c-0.44-0.32,0.57-1.22-0.58-1.11
			c-0.78,0.08-0.62,0.58-0.6,1.06c0.01,0.15-0.01,0.32,0.05,0.43c0.54,0.88,0.04,1.1-0.71,1.45c-1.95,0.9-3.48,2.26-4.26,4.36
			c-0.32,0.86-1.06,1.57-1.84,1.76c-0.9,0.22-1.06,0.65-1.12,1.39c-0.05,0.62-0.47,1.19-1.04,0.83c-1.06-0.66-1.11,0.15-1.35,0.72
			c-0.72,1.7-1.58,3.35-2.95,4.58c-0.95,0.86-1.9,1.67-2.61,2.74c-2.18,3.32-4.17,6.76-6.05,10.26c-0.86,1.61-1.83,3.14-2.39,4.88
			c-0.06,0.18-0.2,0.34-0.31,0.49c-1.21,1.67-1.19,1.95,0.52,3.35c0.42,0.34,0.57,0.62,0.34,1.1c-0.22,0.47-0.22,0.94-0.03,1.42
			c0.15,0.37,0.18,0.7-0.4,0.65c-0.68-0.07-0.61,0.52-0.71,0.9c-0.73,2.75,0.39,5.54-0.2,8.29c-0.01,0.04,0.01,0.11,0.04,0.14
			c1.24,1.34,0.58,2.81,0.38,4.29c-0.17,1.24-0.38,3.02,0.35,3.62c1.06,0.87,0.81,1.56,0.7,2.49c-0.07,0.58-0.28,1.31-0.02,1.73
			c0.69,1.12,0.12,1.92-0.42,2.77c-0.31,0.49-0.62,1-0.98,1.45c-0.27,0.34-0.47,0.97-0.21,1.01c1.96,0.32,0.86,1.4,0.7,2.31
			c-0.06,0.33,0.17,0.76,0.38,1.08c0.81,1.27,1.97,2.31,2.43,3.81c0.08,0.26,0.31,0.37,0.57,0.39c0.77,0.06,0.97,0.64,1.02,1.23
			c0.21,2.97,2.03,4.95,4.1,6.79c0.4,0.36,0.86,0.67,0.87,1.29c0.03,1.14,0.77,1.85,1.51,2.58c1.07,1.05,2.69,1.72,2.58,3.63
			c-0.01,0.18,0.27,0.4,0.45,0.55c1.49,1.32,2.25,3.52,4.57,3.88c0.14,0.02,0.26,0.26,0.35,0.42c0.94,1.67,2.34,2.7,4.2,3.14
			c0.4,0.09,0.8,0.16,1.09,0.62c0.96,1.55,2.28,2.73,3.76,3.68c0-0.17,0-0.34,0-0.5c-0.01-1.3-0.02-2.6,0.11-3.89
			c0.13-1.33,0.16-2.68,0.37-4c0.12-0.76,0.14-1.54,0.3-2.29c0.19-0.92,0.26-1.85,0.25-2.77c-0.01-1.08-0.05-2.17-0.15-3.25
			c-0.09-0.97-0.42-1.86-1.17-2.57c-0.39-0.37-0.68-0.85-0.99-1.29c-0.59-0.83-1.36-1.5-2.11-2.17c-0.77-0.69-1.53-1.39-2.34-2.05
			c-0.6-0.48-1.19-0.97-1.82-1.4c-0.28-0.18-0.43-0.47-0.73-0.61c-0.62-0.3-0.95-0.94-1.55-1.3c-0.62-0.37-1.29-0.63-1.93-0.95
			c-0.28-0.14-0.54-0.31-0.78-0.51c-0.25-0.2-0.24-0.65,0.03-0.9c0.69-0.64,1.53-0.9,2.44-0.71c0.59,0.12,1.18,0.26,1.74,0.54
			c0.45,0.22,0.84,0.51,1.26,0.77c0.3,0.19,0.65,0.2,0.95,0.39c-0.12,0.12-0.09,0.22,0.09,0.34c0.91,0.63,1.85,1.14,2.93,1.47
			c1.22,0.37,2.6-0.48,3.08-1.46c0.36-0.73,0.61-1.5,0.8-2.3c0.32-1.41,0.23-2.83,0.1-4.23c-0.08-0.91-0.32-1.8-0.45-2.71
			c-0.09-0.59-0.13-1.19-0.19-1.78c-0.11-1.07-0.25-2.15-0.34-3.22c-0.05-0.58-0.22-1.14-0.21-1.74c0.01-0.55,0.12-1.06,0.27-1.57
			c0.13-0.47,0.52-0.76,0.98-0.78c0.44-0.02,0.94,0.35,1.17,0.84c0.26,0.55,0.36,1.13,0.48,1.72c0.16,0.79,0.2,1.6,0.38,2.39
			c0.32,1.33,0.64,2.65,1.06,3.95c0.3,0.92,0.5,1.89,0.9,2.78c0.07,0.15,0.1,0.34,0.31,0.32c0.21-0.02,0.14-0.23,0.16-0.36
			c0.23-1.6,0.14-3.24,0.32-4.84c0.22-1.99,0.16-3.98,0.2-5.96c0.01-0.67,0.04-1.34,0.37-1.96c0.21-0.4,0.48-0.65,0.94-0.67
			c0.53-0.02,0.96,0.08,1.29,0.56c0.34,0.5,0.42,1.03,0.43,1.59c0.03,1.7-0.16,3.39-0.07,5.08c0.1,1.85,0.07,3.71,0.06,5.57
			c0,0.28,0.09,0.54,0.17,0.8c0.09,0.26,0.26,0.16,0.4,0.02c0.31-0.32,0.46-0.74,0.64-1.13c0.48-1.03,0.94-2.07,1.36-3.13
			c0.32-0.82,0.55-1.67,0.85-2.5c0.26-0.74,0.54-1.47,0.84-2.19c0.15-0.35,0.18-0.74,0.44-1.06c0.33-0.4,0.75-0.57,1.33-0.45
			c0.38,0.09,0.81,0.53,0.84,0.95c0.05,0.67,0.01,1.32-0.16,1.99c-0.35,1.39-0.99,2.67-1.33,4.06c-0.25,1-0.68,1.95-1.11,2.9
			c-0.41,0.91-0.83,1.84-0.82,2.88c0,0.49,0.23,0.7,0.67,0.49c0.38-0.18,0.79-0.27,1.17-0.48c0.85-0.47,1.59-1.07,2.29-1.74
			c1.2-1.16,2.29-2.44,3.61-3.47c0.21-0.16,0.44-0.29,0.67-0.4c0.39-0.2,0.87,0.03,1.03,0.46c0.09,0.21,0.1,0.44,0.06,0.66
			c-0.1,0.59-0.36,1.11-0.75,1.55c-0.99,1.15-2.09,2.21-3.05,3.39c-0.78,0.96-1.53,1.95-2.16,3.01c-0.62,1.03-1.23,2.09-1.39,3.3
			c-0.13,0.93-0.32,1.85-0.48,2.77c-0.16,0.86-0.52,1.67-0.83,2.49c-0.34,0.92-0.73,1.81-0.97,2.77c-0.49,2-0.39,4-0.23,6.01
			c0.13,1.72,0.34,3.44,0.5,5.16c0.1,1.09,0.12,2.19,0.28,3.27c0.26,1.7,0.17,3.4,0.22,5.1c0.03,1.18,0.01,2.38,0.16,3.54
			c0.02,0.16,0.04,0.33,0.06,0.5c0.25-0.05,0.49-0.1,0.74-0.15c0.57-0.12,0.25-0.41,0.23-0.74c-0.04-0.71,0.53-1.05,1.13-0.97
			c0.49,0.06,1.1,0.32,0.45,1.08c-0.34,0.4,0.11,0.77,0.47,0.88c1.67,0.52,3.09,1.65,4.89,1.86c0.43,0.05,0.86,0.11,1.29,0.18
			c0.05-0.34,0.07-0.68,0.12-1.02c0.25-1.62,0.27-3.27,0.45-4.9c0.3-2.72,0.21-5.44,0.3-8.17c0.07-2.07,0.16-4.13,0.38-6.18
			c0.14-1.37,0.15-2.76,0.36-4.12c0.2-1.22,0.18-2.45,0.37-3.66c0.21-1.31,0.19-2.63,0.38-3.93c0.25-1.66,0.25-3.32,0.26-4.98
			c0.01-1.38-0.24-2.73-0.52-4.06c-0.26-1.23-0.66-2.41-1.18-3.56c-0.33-0.75-0.53-1.55-0.88-2.29c-0.52-1.1-0.77-2.28-0.97-3.46
			c-0.16-0.94-0.27-1.9-0.46-2.83c-0.27-1.34-0.6-2.67-1.28-3.9c-0.53-0.95-1.07-1.88-1.65-2.8c-0.74-1.17-1.59-2.26-2.46-3.34
			c-0.92-1.14-1.92-2.22-2.88-3.32c-0.68-0.77-1.46-1.45-2.09-2.27c-0.56-0.72-1-1.51-1.15-2.43c-0.1-0.61,0.06-1.15,0.58-1.55
			c0.38-0.29,0.77-0.25,1.16-0.07c0.73,0.34,1.34,0.84,1.92,1.39c0.65,0.62,1.35,1.2,1.97,1.86c0.69,0.75,1.4,1.48,2.13,2.18
			c0.64,0.62,1.27,1.25,1.94,1.83c0.59,0.51,1.25,0.86,1.94,1.21c0.42,0.22,0.83,0.47,1.27,0.67c0.45,0.21,0.92,0.28,1.41,0.29
			c0.28,0.01,0.38-0.15,0.4-0.42c0.08-0.99-0.24-1.92-0.49-2.85c-0.21-0.75-0.53-1.47-0.85-2.18c-0.28-0.64-0.63-1.26-0.87-1.93
			c-0.17-0.5-0.38-1-0.53-1.5c-0.37-1.35-0.78-2.69-1.25-4.01c-0.39-1.08-0.82-2.15-1.14-3.26c-0.1-0.34-0.14-0.71-0.18-1.07
			c-0.06-0.57-0.13-1.13-0.04-1.73c0.26-1.6,1.45-1.96,2.78-1.5c0.46,0.16,0.66,0.67,0.85,1.09c0.27,0.59,0.44,1.21,0.69,1.81
			c0.5,1.2,0.93,2.43,1.33,3.67c0.24,0.72,0.52,1.42,0.75,2.14c0.37,1.12,0.83,2.2,1.34,3.27c0.3,0.64,0.54,1.3,0.83,1.94
			c0.31,0.7,0.61,1.41,1.08,2.02c0.09,0.11,0.18,0.2,0.29,0.28c0.26,0.2,0.35,0.16,0.48-0.16c0.15-0.38,0.17-0.77,0.17-1.17
			c0-1.86-0.05-3.71,0.02-5.57c0.09-2.42,0.16-4.83,0.11-7.25c-0.02-1.04-0.1-2.07-0.13-3.1c-0.02-0.61,0.01-1.23,0.15-1.82
			c0.18-0.81,0.51-1.57,1.3-1.99c0.64-0.34,1.36-0.34,1.98-0.03c0.38,0.18,0.64,0.63,0.8,1.05c0.16,0.4,0.28,0.83,0.34,1.26
			c0.12,0.86,0.17,1.73,0.16,2.61c-0.04,2.17-0.06,4.34,0.12,6.5c0.13,1.59,0.11,3.19,0.3,4.76c0.18,1.53,0.19,3.05,0.28,4.58
			c0.01,0.12,0.03,0.25,0.07,0.36c0.04,0.13,0.15,0.21,0.28,0.21c0.11,0,0.19-0.06,0.26-0.17c0.29-0.43,0.45-0.91,0.62-1.39
			c0.2-0.59,0.34-1.19,0.51-1.79c0.28-0.94,0.57-1.87,0.86-2.8c0.16-0.53,0.31-1.07,0.44-1.61c0.29-1.27,0.67-2.51,0.9-3.8
			c0.14-0.77,0.21-1.55,0.36-2.32c0.18-0.95,0.38-1.9,0.63-2.83c0.14-0.51,0.39-1.01,0.77-1.38c0.7-0.69,1.65-0.82,2.36-0.15
			c0.5,0.47,0.7,1.16,0.76,1.88c0.11,1.4,0.06,2.8-0.18,4.17c-0.35,1.97-0.39,3.98-0.67,5.95c-0.16,1.15-0.32,2.31-0.52,3.46
			c-0.35,2.11-0.61,4.23-0.51,6.39c0.07,1.6,0.35,3.16,0.85,4.68c0.3,0.92,0.77,1.8,1.45,2.48c0.67,0.67,1.45,1.18,2.47,1.25
			c1.4,0.09,2.65-0.29,3.88-0.94c1.33-0.71,2.51-1.62,3.73-2.48c1.15-0.81,2.35-1.54,3.74-1.85c0.52-0.11,1.03-0.26,1.58-0.28
			c0.93-0.03,1.79,0.18,2.6,0.65c0.34,0.2,0.6,0.48,0.8,0.81c0.23,0.39,0.06,0.94-0.39,1.22c-0.74,0.48-1.5,0.9-2.33,1.21
			c-0.89,0.33-1.68,0.84-2.41,1.44c-1.27,1.04-2.47,2.17-3.79,3.16c-1.21,0.9-2.4,1.84-3.54,2.83c-1.31,1.13-2.59,2.31-3.82,3.52
			c-0.73,0.72-1.36,1.53-1.93,2.4c-0.38,0.58-0.81,1.13-1.31,1.61c-0.8,0.78-1.16,1.69-1.29,2.8c-0.14,1.23-0.18,2.46-0.32,3.67
			c-0.11,0.92-0.1,1.84-0.1,2.75c-0.01,1.03,0.16,2.06,0.33,3.07c0.17,0.99,0.17,1.98,0.35,2.96c0.21,1.15,0.2,2.33,0.39,3.48
			c0.26,1.57,0.21,3.15,0.37,4.71c0.25,2.42,0.07,4.85,0.15,7.28c0.03,0.97,0.02,1.95,0.16,2.91c0.16,1.08,0.18,2.18,0.38,3.26
			c0.14,0.78,0.16,1.59,0.36,2.35c0.18,0.68,0.21,1.39,0.43,2.07c0.04,0.12,0.07,0.25,0.09,0.39c0.92,0.2,1.73-0.35,2.6-0.43
			c0.15-0.01,0.43-0.27,0.4-0.32c-0.74-1.92,1-1.43,1.74-1.65c0.76-0.21,1.51-0.43,2.26-0.65c0.06-1.15,0.09-2.31,0.08-3.46
			c-0.01-0.59-0.01-1.18,0.09-1.75c0.22-1.36,0.17-2.75,0.38-4.11c0.18-1.19,0.21-2.4,0.38-3.59c0.13-0.91,0.17-1.82,0.09-2.71
			c-0.11-1.13-0.35-2.24-0.82-3.3c-0.64-1.43-1.17-2.89-1.34-4.47c-0.09-0.83-0.35-1.63-0.75-2.39c-0.36-0.68-0.77-1.33-1.22-1.95
			c-0.32-0.45-0.63-0.94-1.04-1.3c-0.28-0.25-0.43-0.57-0.67-0.83c-0.27-0.28-0.54-0.6-0.82-0.84c-0.43-0.37-0.77-0.81-1.15-1.2
			c-0.48-0.48-0.95-1.03-0.92-1.81c0.02-0.53,0.28-0.78,0.81-0.72c0.33,0.04,0.61,0.18,0.89,0.41c0.83,0.68,1.59,1.44,2.36,2.19
			c0.57,0.56,1.14,1.14,1.8,1.59c0.56,0.38,1.15,0.69,1.8,0.85c0.49,0.13,0.58,0.05,0.57-0.45c-0.02-0.84-0.31-1.59-0.68-2.34
			c-0.33-0.66-0.64-1.34-0.84-2.06c-0.26-0.89-0.59-1.76-0.93-2.63c-0.31-0.8-0.57-1.62-0.49-2.51c0.06-0.59,0.29-0.92,0.8-1.02
			c0.61-0.11,1.1,0.11,1.29,0.67c0.4,1.14,0.89,2.23,1.27,3.37c0.32,0.94,0.72,1.87,1.16,2.77c0.25,0.52,0.49,1.06,0.78,1.56
			c0.04,0.06,0.06,0.14,0.12,0.19c0.12,0.09,0.18,0.31,0.38,0.24c0.18-0.06,0.11-0.26,0.13-0.4c0.1-0.66,0.01-1.32,0.02-1.98
			c0.02-1.48,0.1-2.96,0.11-4.45c0.01-1.02-0.13-2.04-0.06-3.06c0.04-0.54,0.21-1.01,0.66-1.35c0.68-0.51,1.55-0.23,1.78,0.64
			c0.16,0.59,0.29,1.2,0.28,1.83c-0.04,2.13,0.07,4.26,0.2,6.39c0.04,0.72,0.17,1.43,0.19,2.15c0,0.1-0.03,0.25,0.12,0.27
			c0.13,0.02,0.19-0.09,0.24-0.2c0.13-0.33,0.28-0.65,0.38-1.01c0.31-1.1,0.7-2.17,0.98-3.27c0.22-0.84,0.42-1.69,0.57-2.54
			c0.13-0.76,0.12-1.58,0.57-2.25c0.21-0.32,0.43-0.63,0.89-0.64C124.96,117.61,125.17,117.89,125.37,118.76z M136.44,77.26
			c0.23,1.1,1.21,1.72,2.21,2.17c0.78,0.35,1.44,0.79,1.75,1.65c0.33,0.92,0.06,1.49-0.88,1.79c-0.95,0.3-1.37-0.09-1.48-1.01
			c-0.08-0.61-0.33-0.97-0.89-1.43c-1.14-0.94-2.26-2.13-2.23-3.84c0.01-0.56-0.29-0.83-0.73-0.93c-0.75-0.18-1.07-0.73-1.43-1.37
			C134.88,74.33,136.05,75.41,136.44,77.26z M53.65,69.21c-1.04,0.79-2.26,1.34-2.97,2.54c-0.37,0.62-1.48,0.9-0.6,1.99
			c0.27,0.34-0.38,0.68-0.74,0.93c-0.84,0.59-1.9,0.86-2.13,2.2c-0.11,0.63-1.16,0.45-1.97,0.54c0.1-0.78,0.45-1.32,0.91-1.62
			c2.18-1.41,3.08-3.7,4-5.92c0.38-0.93,0.74-0.47,1.32-0.24c-0.18-1.62-0.35-3.11-0.5-4.6c-0.03-0.28-0.13-0.63,0.17-0.8
			c0.31-0.17,0.54,0.12,0.78,0.27c1.24,0.74,1.89,1.9,2.33,3.23C54.47,68.41,54.17,68.82,53.65,69.21z M67.77,55.42
			c-0.23,0.58-0.63,1.12-1.28,0.94c-0.6-0.16-0.33-0.84-0.31-1.28c0.08-1.27,0.53-2.45,0.97-3.64c0.47-1.25,1.68-1.11,2.86-1.87
			C69.17,51.8,68.48,53.61,67.77,55.42z M74.39,54.29c-1.31-0.27-2.43-0.07-3.32,1.03c-0.18,0.22-0.54,0.26-0.8,0.04
			c-0.28-0.23-0.17-0.54-0.04-0.8c0.34-0.71,0.77-1.37,1.38-1.87c1.11-0.93,1.52-0.82,1.85,0.56c0.13,0.53,0.31,0.69,0.78,0.39
			c0.51-0.33,0.9-0.3,1.13,0.42C75.03,54.14,74.68,54.35,74.39,54.29z"/>
		<path class="st0" d="M96.87,22.69c-1.3,1.09-1,1.81,1.33,2.95c-0.69,0.31-1.57-0.31-2.02,0.49c-0.37,0.66-0.36,1.41-0.38,2.14
			c-0.04,1.54-0.6,2.95-1.02,4.4c-0.46,1.57-2.04,1.85-3.05,2.73c-0.6,0.52-1.82-0.74-2.08-1.59c-0.96-3.17-2.42-6.29-1.47-9.78
			c0.22-0.81-0.19-1.75-0.41-2.56c-0.61-2.23-0.65-4.42-0.26-6.65c0.04-0.22,0.05-0.58-0.08-0.68c-1.22-0.96-0.65-2.21-0.62-3.39
			C86.87,8.88,86.69,7,86.87,5.1c0.1-1.06,0.67-2,0.58-3.1c-0.04-0.5,0.5-1.08,0.91-1.01c1.75,0.29,3.13-0.92,4.77-0.99
			c1.06-0.04,1.98,0.84,2.79,0.79c1.38-0.09,1.41,0.76,1.69,1.51c0.68,1.8,0.81,3.68,0.71,5.59c-0.02,0.43-0.11,0.9,0.16,1.29
			c0.9,1.31,0.35,2.69,0.21,4.06c-0.02,0.19-0.2,0.45-0.13,0.55c1.85,2.45-0.8,4.93,0.04,7.42c0.22,0.64-1.09,1.27-0.38,2.21
			c0.09,0.11,0.13,0.76-0.26,0.88c-0.28,0.08-0.69-0.02-0.96-0.18c-0.36-0.22-0.25-0.57-0.04-0.9
			C97.1,23.02,97.06,22.83,96.87,22.69z"/>
		<path class="st0" d="M20.17,139.5c-0.02,0.45,0.3,0.97-0.17,1.31c-0.28,0.21-0.94,0.17-0.53,0.7c0.27,0.36,0.72-0.03,1.03-0.24
			c1.53-0.99,6.76-2.88,8.45-3.18c1.68-0.3,2.88,0.78,4.07,1.5c0.7,0.42,0.08,1.88-0.48,2.47c-2.26,2.38-4.46,4.87-7.72,6.05
			c-1.5,0.54-2.45,1.98-3.69,2.95c-0.74,0.58-1.56,0.99-2.41,1.38c-1.02,0.47-2.5,0.41-2.65,2.05c-0.01,0.12-0.29,0.24-0.46,0.33
			c-2.35,1.26-4.67,2.57-7.07,3.74c-0.89,0.43-1.94,0.53-2.86,0.96c-0.39,0.19-1.11-0.05-1.17-0.36c-0.31-1.64-2.06-1.97-2.79-3.23
			c-0.5-0.85-0.69-1.71-0.95-2.64c-0.9-3.26,1.83-3.86,3.5-5.26c1.11-0.93,2.57-1.33,3.45-2.72c0.3-0.47,1.6-0.75,2.44-1.11
			c0.22-0.1,0.59-0.11,0.66-0.26c0.86-1.96,2.8-1.84,4.41-2.32c1.11-0.33,1.87-1.71,3.29-1.12C18.79,139.75,19.3,139.38,20.17,139.5
			z"/>
		<path class="st0" d="M160.81,148c-0.01-0.55-0.48-0.71-0.86-0.83c-2.61-0.83-4.33-2.96-6.51-4.4c-1.73-1.14-1.86-3-1.91-4.68
			c-0.03-1.08,1.58-1.33,2.31-1.16c2.68,0.61,5.61,0.58,7.9,2.34c2.03,1.56,4.61,1.51,6.77,2.63c0.73,0.38,1.49,0.74,2.17,1.2
			c0.76,0.5,1.39,1.31,2.45,0.64c0.11-0.07,0.38,0.06,0.53,0.16c2.96,2.01,6.5,3.01,9.25,5.39c0.44,0.38,0.96,0.96,0.67,1.32
			c-0.98,1.21-0.51,2.72-1.04,4.03c-0.43,1.06-1.17,1.72-1.87,2.55c-2.08,2.43-3.86,0.44-5.64-0.06c-1.53-0.43-2.83-1.52-4.58-1.61
			c-0.77-0.04-1.52-0.88-2.23-1.42c-0.31-0.23-0.52-0.65-0.97-0.53c-1.48,0.41-2.33-0.37-3.2-1.42c-0.6-0.73-1.43-1.29-2.46-1.49
			c-0.94-0.18-1.64-0.84-2.32-1.46c-0.32-0.29-0.91-0.35-0.29-1.15c0.54-0.71,0.71-0.3,1.05-0.08
			C160.29,148.14,160.51,148.31,160.81,148z"/>
		<path class="st0" d="M28.41,55.55c-0.7-0.09-1.16,0.81-1.68-0.08c-0.12-0.21-0.47-0.16-0.63,0.06c-0.19,0.26,0.05,0.44,0.22,0.61
			c0.1,0.1,0.2,0.25,0.33,0.29c2.08,0.69,2.99,2.74,4.59,4c1.79,1.41,3.1,3.16,2.69,5.7c-0.13,0.83-1.63,1.51-2.7,0.93
			c-2.87-1.56-6.12-2.39-8.49-4.95c-1.13-1.22-3.11-1.42-4.55-2.4c-0.44-0.3-0.84-0.67-1.29-0.93c-1-0.58-1.48-2.22-3.11-1.61
			c-0.09,0.03-0.27-0.1-0.37-0.2c-2.57-2.49-5.72-4.22-8.44-6.5c-0.51-0.43-0.67-0.96-0.18-1.53c0.54-0.64,0.62-1.32,0.53-2.17
			c-0.15-1.44,1.38-3.19,2.79-3.44c0.05-0.01,0.11,0.03,0.14,0c2.6-2,3.96,0.67,5.76,1.58c1.23,0.62,2.19,1.64,3.67,1.94
			c0.79,0.16,1.43,1.07,2.11,1.69c0.2,0.18,0.27,0.64,0.58,0.59c1.82-0.27,2.48,1,3.34,2.24c0.83,1.18,2.4,1.57,3.38,2.7
			C27.46,54.47,27.93,54.82,28.41,55.55z"/>
		<path class="st0" d="M160.94,62.71c-0.53-1.36-1.4-0.99-2.25-0.66c-1.55,0.6-3.13,1.12-4.78,1.36c-1.1,0.16-2.09,0.03-3.02-0.72
			c-1.35-1.1-1.24-2.27,0.14-3.4c2.97-2.42,6.45-3.89,9.75-5.72c2.03-1.12,3.93-2.37,6.19-3.03c0.89-0.26,1.06-1.58,2.28-1.78
			c2.17-0.37,3.9-1.9,6-2.53c0.96-0.29,1.88-0.74,2.78-1.19c0.47-0.24,0.92,0.01,1.04,0.23c0.73,1.41,2.44,1.78,3.22,3.15
			c0.57,0.99,0.48,1.91,0.5,2.99c0.08,3.09-2.55,3.07-4.2,4.13c-1.19,0.77-2.67,0.99-3.64,2.26c-0.43,0.56-1.51,0.56-2.27,0.89
			c-0.7,0.3-1.32,0.54-1.73,1.19c-0.78,1.23-2.19,0.51-3.24,1c-0.63,0.3-1.4,0.33-1.97,0.85c-0.27,0.24-0.62,0.38-0.95,0.21
			c-0.57-0.3-0.93-0.39-1.19,0.4c-0.15,0.45-0.75,0.46-1.16,0.38c-0.38-0.07-0.39-0.56-0.43-0.86c-0.07-0.53,0.33-0.62,0.77-0.58
			c0.22,0.02,0.39-0.12,0.39-0.35c-0.01-0.39-0.32-0.27-0.55-0.27C161.42,60.7,161.07,61.47,160.94,62.71z"/>
		<path class="st0" d="M86.16,178.97c1.74-0.04,1.67-1.17,1.65-2.22c-0.02-1.48,0.29-2.9,0.5-4.35c0.22-1.56,1.16-2.37,2.47-2.93
			c0.6-0.26,1.79,0.81,1.84,1.76c0.09,1.81,0.58,3.54,0.9,5.3c0.17,0.93,0.02,1.94-0.09,2.9c-0.19,1.55-0.06,3.01,0.44,4.53
			c0.5,1.53,0.12,3.19-0.15,4.78c-0.06,0.38-0.33,0.88-0.02,1.12c1.23,0.95,0.5,2.12,0.49,3.22c-0.01,1.84,0.01,3.67,0.07,5.51
			c0.03,0.96-0.15,1.92,0.11,2.88c0.06,0.22-0.16,0.75-0.29,0.76c-1.79,0.19-2.75,2.14-4.61,2.14c-0.15,0-0.29-0.01-0.44-0.02
			c-1.14-0.1-1.55-1.4-2.42-1.65c-1.54-0.43-0.84-1.47-0.97-2.32c-0.38-2.37,0.68-4.85-0.62-7.16c-0.17-0.3,0.16-0.91,0.23-1.38
			c0.17-1.18-0.06-2.16-0.65-3.2c-0.48-0.84,0.48-1.61,0.53-2.5c0.05-0.81,0.36-1.6,0.03-2.43c-0.16-0.41-0.16-1.1,0.19-1.21
			c0.95-0.29,0.44-0.52,0.13-0.93c-0.3-0.39-0.14-0.94,0.16-1.2c0.23-0.2,0.79-0.23,1.09-0.1c0.45,0.2,0.38,0.59,0.05,0.96
			c-0.23,0.25-0.05,0.48,0.2,0.56c0.34,0.11,0.39-0.19,0.44-0.42C87.71,180.33,87.32,179.58,86.16,178.97z"/>
		<path class="st0" d="M130.51,161.86c2.03,0.91,4.44,1.76,5.88,4.03c0.3,0.47,0.59,0.88,1.07,1.14c1.57,0.85,2.51,2.36,3.76,3.49
			c0.95,0.86,1.82,1.81,2.79,2.65c1.69,1.45,2.22,3.44,2.96,5.35c0.21,0.52,0.07,1.06-0.54,1.12c-0.86,0.09-1.3,0.64-1.63,1.3
			c-0.62,1.24-2.09,1.58-2.81,2.72c-0.23,0.35-0.73,0.14-1.09-0.02c-1.53-0.66-2.83-1.65-4.13-2.68c-1.06-0.84-2.17-1.58-2.72-2.91
			c-0.09-0.22-0.58-0.29-0.9-0.39c-0.34-0.1-0.79-0.2-0.81-0.53c-0.09-1.72-1.48-2.66-2.28-3.95c-0.25-0.41-0.63-0.85-0.2-1.31
			c0.41-0.44,0.83-0.43,1.14,0.19c0.1,0.2,0.37,0.08,0.48-0.1c0.19-0.3,0.04-0.57-0.2-0.77c-1.58-1.36-2.11-3.3-2.83-5.14
			c-0.49-1.25,0.54-2.39,0.35-3.68C128.74,161.95,129.66,161.91,130.51,161.86z"/>
		<path class="st0" d="M133.81,38.72c-1.17,0.98-0.04,1.57,0.24,2.59c-1.45-1.27-1.99-0.42-2.64,0.56
			c-0.77,1.16-1.79,2.08-3.34,2.03c-0.14,0-0.3,0.01-0.43,0.05c-1.67,0.51-2.3-0.11-2.1-1.92c0.24-2.12,0.28-4.25,1.79-6.01
			c0.3-0.35,0.39-1.05,0.4-1.66c0.01-0.6,0.22-1.24,0.49-1.8c0.46-0.96,1.74-1.6,1.07-2.97c1.29-1.75,1.87-3.97,3.62-5.41
			c0.34-0.28,0.63-0.61,0.97-0.88c0.36-0.3,0.9-0.54,1.17-0.11c1.08,1.78,3.31,1.25,4.73,2.44c0.43,0.36,0.82,0.56,0.81,1.1
			c-0.04,1.51-0.53,2.95-0.77,4.43c-0.29,1.72-1.14,3.3-1.77,4.78c-0.6,1.41-1.57,3.24-3.09,4.16
			C133.91,40.74,133.82,39.65,133.81,38.72z"/>
		<path class="st0" d="M49.87,165.88c0.04,0.28-1.05,0.35-0.18,0.74c0.45,0.2,0.72-0.25,0.7-0.68c-0.03-0.56,0.15-0.65,0.68-0.54
			c0.56,0.11,0.87-0.39,1.19-0.73c1.54-1.65,3.53-1.72,5.51-1.45c0.86,0.12,1.11,1.12,0.8,1.91c-0.8,2.04-1.05,4.39-3.26,5.68
			c-0.49,0.29-0.97,0.97-0.91,1.73c0.03,0.36-0.26,0.51-0.45,0.71c-2.09,2.25-3.24,5.28-5.97,7.01c-0.74,0.47-1.53,0.83-2.26,1.31
			c-0.52,0.35-1.09,0.16-1.24-0.53c-0.15-0.72-0.56-1.07-1.22-1.29c-1.18-0.4-1.87-1.47-2.83-2.18c-0.45-0.33-0.34-0.86-0.15-1.34
			c0.95-2.37,2.07-4.64,3.9-6.48c0.28-0.28,0.32-0.57,0.38-0.9c0.05-0.33,0-0.86,0.34-0.91c1.69-0.24,2.33-1.79,3.49-2.68
			c0.31-0.24,0.68-0.49,1.03-0.07C49.59,165.39,49.95,165.5,49.87,165.88z"/>
		<path class="st0" d="M177.43,102.71c-0.58-0.33-1.01-0.16-1.43,0.15c-0.44,0.32-0.89,0.27-1.37,0.03
			c-1.19-0.58-2.47-0.63-3.76-0.62c-1,0.01-0.84-1.08-1.4-1.54c-0.37-0.3-0.57-0.83-1.16-0.82c-2.23,0.03-3.66-1.38-4.92-2.91
			c-0.64-0.79-0.03-1.71,0.74-2.01c1.96-0.76,3.83-1.99,6.13-1.4c0.65,0.17,1.35-0.1,1.98-0.38c0.79-0.34,1.6-0.42,2.43-0.28
			c0.82,0.14,1.45,0.34,2.37-0.29c0.78-0.54,2.26-0.26,3.39-0.09c1.37,0.2,2.7,0.66,4.04,1.03c0.73,0.2,0.94,0.73,0.55,1.35
			c-0.41,0.67-0.4,1.31-0.05,1.93c0.61,1.08-0.21,2.27,0.35,3.37c0.2,0.39-0.37,0.49-0.64,0.65
			C182.41,102.21,179.8,102.11,177.43,102.71z"/>
		<path class="st0" d="M13.45,106.58c-0.45,0.03-1.28-0.68-1.22,0.51c0.01,0.26-0.29,0.24-0.44,0.11c-0.62-0.55-1.03-0.35-1.34,0.33
			c-1.09-0.56-0.86,0.87-1.55,1.04c-0.51,0.13-0.93,0.8-1.36-0.1c-0.09-0.19-0.32-0.2-0.52-0.13c-1.82,0.7-3.28-0.48-4.85-0.97
			c-1.44-0.46-1.4-2.03-1.76-3.11c-0.23-0.7-0.58-1.65-0.3-2.5c0.35-1.07,0.3-2.47,2-2.49c0.28,0,0.57-0.14,0.83-0.26
			c2.54-1.14,3.32-1.11,5.99-0.56c1.9,0.39,3.76,0.84,5.62,1.4c0.47,0.14,1.08,0.01,1.57-0.15c1.52-0.51,2.82,0.21,4.01,0.83
			c1.93,1,1.91,3.23,0.11,4.54c-0.39,0.28-0.85,0.55-1.31,0.64C17.11,106.03,15.27,106.29,13.45,106.58z"/>
		<path class="st0" d="M60.25,37.78c-0.35,0.73,0.13,1.91-0.83,2.32c-1.09,0.47-2.31,0.84-3.5,0.09c-1.87-1.17-2.93-3.1-4.37-4.67
			c-0.31-0.34-0.42-0.95-1.1-0.65c-0.08,0.04-0.19,0.02-0.28,0.02c-0.05-2.21-2.35-1.05-3.18-2.12c-0.12-0.15-0.63-0.2-0.46-0.4
			c0.88-1.1-0.28-1.31-0.74-1.81c-0.3-0.33-0.45-0.7-0.61-1.12c-1.28-3.15,0.02-5.37,2.45-7.28c0.6-0.47,1.2-0.52,1.87-0.69
			c1.26-0.34,1.55,0.95,2.32,1c2.17,0.12,2.39,2.13,3.47,3.29c0.07,0.07,0.19,0.15,0.19,0.21c-0.06,1.24,0.63,2.15,1.15,3.19
			c0.49,0.99,0.74,2.18,1.02,3.29c0.15,0.61,0.48,1.24,0.84,1.42C60.21,34.7,59.8,36.39,60.25,37.78z"/>
		<path class="st0" d="M130.47,59.07c0.27-0.7-0.5-1.07-0.39-1.76c0.58-0.08,1.25-0.14,1.41,0.55c0.24,1.08-0.22,2.02-1.05,2.72
			c-0.56,0.47-1.01,0.07-1.32-0.41c-0.59-0.89-1.87-0.55-2.46-1.44c-0.15-0.22-0.54-0.33-0.4-0.68c0.12-0.3,0.46-0.39,0.75-0.35
			c0.95,0.13,2.09-0.26,2.63,1C129.72,58.95,130.02,59.13,130.47,59.07z"/>
	</g>
</g>
</svg>
