<?xml version="1.0" encoding="utf-8"?>
<!-- Generator: Adobe Illustrator 27.0.0, SVG Export Plug-In . SVG Version: 6.00 Build 0)  -->
<svg version="1.1" id="Layer_1" xmlns="http://www.w3.org/2000/svg" xmlns:xlink="http://www.w3.org/1999/xlink" x="0px" y="0px"
	 viewBox="0 0 112.43 45.66" style="enable-background:new 0 0 112.43 45.66;" xml:space="preserve">
<style type="text/css">
	.st0{fill:#FFFFFF;}
</style>
<g>
	<path class="st0" d="M44.68,9.06c2.06-0.83,4.34-1.21,6.73-1.02c7.2,0.56,13.04,6.4,13.6,13.6c0.71,9.14-6.86,16.7-16,15.98
		c-7.24-0.57-13.08-6.46-13.59-13.7c-0.38-5.31,2.04-10.08,5.93-12.98c0.37-0.28,0.45-0.8,0.19-1.18C37.24,3.62,30-0.31,21.86,0.02
		C9.64,0.53-0.11,10.82,0,23.05c0.12,12.51,10.29,22.61,22.83,22.61c3.82,0,7.41-0.94,10.57-2.59c0.54-0.28,0.64-1.02,0.19-1.43
		c-1.57-1.39-2.97-2.98-4.15-4.72c-0.24-0.35-0.68-0.48-1.07-0.32c-2.06,0.83-4.34,1.21-6.73,1.02
		c-7.29-0.57-13.16-6.54-13.62-13.84c-0.54-8.62,6.3-15.79,14.81-15.79c2.71,0,5.25,0.73,7.43,1.99c0.43,0.25,0.56,0.8,0.31,1.22
		c-2.2,3.72-3.39,8.12-3.15,12.81c0.58,11.48,9.84,20.87,21.31,21.59c13.79,0.87,25.15-10.5,24.26-24.3
		C72.27,10.01,63.13,0.83,51.83,0.06c-4.42-0.3-8.59,0.65-12.19,2.54C39.1,2.88,39,3.61,39.46,4.02c1.57,1.39,2.97,2.98,4.15,4.72
		C43.85,9.09,44.29,9.22,44.68,9.06"/>
	<path class="st0" d="M104.44,1.1v43.45c0,0.43,0.31,0.81,0.74,0.87c2.16,0.31,4.35,0.31,6.51,0c0.43-0.06,0.74-0.44,0.74-0.87V1.1
		c0-0.43-0.31-0.81-0.74-0.87c-2.16-0.31-4.35-0.31-6.51,0C104.75,0.3,104.44,0.67,104.44,1.1"/>
	<path class="st0" d="M84.75,0.06c-3.18-0.23-6.21,0.32-8.9,1.49c-0.32,0.14-0.52,0.46-0.52,0.8v42.21c0,0.43,0.31,0.81,0.74,0.87
		c2.16,0.31,4.35,0.31,6.51,0c0.43-0.06,0.74-0.44,0.74-0.87v-6.03c0-0.48,0.38-0.85,0.85-0.87c10.4-0.46,18.61-9.36,17.94-20.02
		C101.53,8.34,94.04,0.74,84.75,0.06 M83.32,28.76V8.91c0-0.51,0.44-0.92,0.95-0.87c5.54,0.48,9.89,5.14,9.89,10.8
		c0,5.67-4.35,10.32-9.89,10.8C83.76,29.68,83.32,29.27,83.32,28.76"/>
</g>
</svg>
