<?xml version="1.0" encoding="UTF-8"?>
<svg xmlns="http://www.w3.org/2000/svg" xmlns:xlink="http://www.w3.org/1999/xlink" viewBox="0 0 195.73 471.94">
  <defs>
    <style>
      .cls-1 {
        fill: #eeebe5;
      }

      .cls-2 {
        fill: #0093a9;
      }

      .cls-3 {
        fill: #949699;
      }

      .cls-4, .cls-5 {
        fill: #fff;
      }

      .cls-6 {
        fill: #271a0e;
      }

      .cls-7 {
        fill: #35a7dd;
      }

      .cls-8 {
        fill: #dfe150;
      }

      .cls-9 {
        fill: #dd513c;
      }

      .cls-10 {
        fill: #bcbebe;
      }

      .cls-11 {
        fill: #020101;
        opacity: .15;
      }

      .cls-12 {
        fill: #5b3b14;
      }

      .cls-13, .cls-14 {
        fill: #dfdede;
      }

      .cls-15 {
        opacity: .4;
      }

      .cls-15, .cls-16, .cls-17, .cls-14, .cls-18 {
        mix-blend-mode: multiply;
      }

      .cls-15, .cls-16, .cls-19 {
        fill: #e78153;
      }

      .cls-20 {
        clip-path: url(#clippath-2);
      }

      .cls-21 {
        isolation: isolate;
      }

      .cls-22, .cls-5 {
        opacity: .2;
      }

      .cls-23 {
        fill: #1a2e46;
      }

      .cls-24 {
        fill: #ec8888;
      }

      .cls-25 {
        fill: #20264b;
      }

      .cls-26 {
        clip-path: url(#clippath-1);
      }

      .cls-27 {
        clip-path: url(#clippath-4);
      }

      .cls-28 {
        fill: #bdbec0;
      }

      .cls-16 {
        opacity: .7;
      }

      .cls-29 {
        fill: #de8f59;
        fill-rule: evenodd;
      }

      .cls-30 {
        fill: #99948e;
      }

      .cls-17, .cls-31, .cls-32 {
        fill: #f8cda9;
      }

      .cls-33 {
        clip-path: url(#clippath);
      }

      .cls-34 {
        fill: #8491aa;
      }

      .cls-35 {
        fill: #008c9a;
      }

      .cls-36 {
        fill: #1a3e8b;
      }

      .cls-37 {
        fill: #534b4d;
      }

      .cls-38 {
        fill: none;
      }

      .cls-39 {
        fill: #40403f;
      }

      .cls-40 {
        fill: #474344;
      }

      .cls-41 {
        fill: #a6a6a7;
      }

      .cls-42 {
        clip-path: url(#clippath-3);
      }

      .cls-43 {
        fill: #9b9b9b;
      }

      .cls-44 {
        fill: #f5b688;
      }

      .cls-45 {
        opacity: .57;
      }

      .cls-46 {
        fill: #f9c112;
      }

      .cls-47 {
        fill: #231e1f;
      }

      .cls-48 {
        clip-path: url(#clippath-5);
      }

      .cls-49 {
        fill: #d8dade;
      }

      .cls-50 {
        fill: #2b2f54;
      }

      .cls-32 {
        mix-blend-mode: screen;
        opacity: .5;
      }

      .cls-51 {
        fill: #f3aa52;
      }

      .cls-52 {
        fill: #c5d6ed;
      }
    </style>
    <clipPath id="clippath">
      <path class="cls-25" d="M55.58,282.34c-2.99,26.44-5.4,54.31-7.01,83.53-1.33,24.18-2.01,47.5-2.16,69.88-1.41-.02-2.12,.35-2.47,.84-.55,.77,.06,1.5,.12,3.72,.06,2.17-.48,2.95,.12,3.72,.52,.66,1.48,.78,2.19,.78,11.69,.97,23.39,1.95,35.08,2.92,.43-.09,1.05-.3,1.47-.82,.81-1.01-.03-2.07,.12-4.56,.13-2.04,.8-3.1,.12-3.84-.3-.33-.71-.43-1.02-.48,1.16-17.29,2.01-35.27,2.48-53.89,.46-18.23,.51-35.87,.24-52.86,2.27-.16,4.55-.32,6.82-.49,.95,20.73,1.69,41.84,2.19,63.34,.36,15.26,.58,30.34,.69,45.22-.51-.06-1.25-.07-1.57,.36-.37,.49,.02,1.26,.6,2.88,.27,.74,.63,1.82,1.01,3.19,6,1.75,14.77,3.51,25.34,2.92,6.29-.35,11.72-1.45,16.08-2.68,.31-.25,.73-.66,.99-1.27,.35-.82,.09-1.2,.12-2.88,.03-1.64,.3-2.31-.12-2.64-.32-.25-.82-.14-1.2,0-.74-22.71-1.87-46.04-3.44-69.94-2.21-33.5-5.16-65.78-8.66-96.78l-68.14,9.85Z"/>
    </clipPath>
    <clipPath id="clippath-1">
      <path class="cls-38" d="M55.58,282.44c-2.99,26.44-5.4,54.31-7.01,83.53-1.33,24.18-2.01,47.5-2.16,69.88-1.41-.02-2.12,.35-2.47,.84-.55,.77,.06,1.5,.12,3.72,.06,2.17-.48,2.95,.12,3.72,.52,.66,1.48,.78,2.19,.78,11.69,.97,23.39,1.95,35.08,2.92,.43-.09,1.05-.3,1.47-.82,.81-1.01-.03-2.07,.12-4.56,.13-2.04,.8-3.1,.12-3.84-.3-.33-.71-.43-1.02-.48,1.16-17.29,2.01-35.27,2.48-53.89,.46-18.23,.51-35.87,.24-52.86,2.27-.16,4.55-.32,6.82-.49,.95,20.73,1.69,41.84,2.19,63.34,.36,15.26,.58,30.34,.69,45.22-.51-.06-1.25-.07-1.57,.36-.37,.49,.02,1.26,.6,2.88,.27,.74,.63,1.82,1.01,3.19,6,1.75,14.77,3.51,25.34,2.92,6.29-.35,11.72-1.45,16.08-2.68,.31-.25,.73-.66,.99-1.27,.35-.82,.09-1.2,.12-2.88,.03-1.64,.3-2.31-.12-2.64-.32-.25-.82-.14-1.2,0-.74-22.71-1.87-46.04-3.44-69.94-2.21-33.5-5.16-65.78-8.66-96.78l-68.14,9.85Z"/>
    </clipPath>
    <clipPath id="clippath-2">
      <path class="cls-38" d="M30.49,174.83c-3.92,2.97-30.13,22.82-27.28,53.59,2.25,24.32,21.09,38.53,24.61,41.1-.38,.44-.73,.98-.6,1.5,.23,.96,1.8,.7,3.9,1.98,1.74,1.06,2.39,2.29,3.42,2.04,.38-.09,.66-.36,.83-.57,4.55-9.34,9.09-18.68,13.64-28.02,.11-.25,.22-.61,.1-.98-.25-.78-1.31-.77-2.82-1.44-2.14-.94-2.91-2.24-3.72-1.86-.33,.15-.49,.51-.58,.78-1.83-1.26-4.38-3.32-6.63-6.49-1.43-2.01-6.61-9.2-4.63-16.81,1.86-7.14,9.08-12.57,18.03-13.64,1.65,6.18,2.9,11.48,3.81,15.6,1.51,6.8,2.07,9.96,2.34,12.85,.38,4.13,.47,7.54,.6,8.52,.29,2.25-8.12,65.83-11.05,74.16,23.08,1.23,31.66,9.74,97.15,1.89-.07-8.86-13.8-70.36-13.8-70.36,0,0,2.6-37.52,2.15-46.37,3.81,10.31-23.64-43.11-24.38-44.19-.39-.57-1.17-5.84-1.46-7.8-4.32,4.07-8.64,8.14-12.96,12.21-8.53-3.62-17.06-7.23-25.59-10.85-.54,3.18-1.08,6.36-1.62,9.55-7.19,.98-20.56,3.83-33.45,13.61Z"/>
    </clipPath>
    <clipPath id="clippath-3">
      <path class="cls-38" d="M105.16,161.32c9.23,1.44,19.07,3.18,25.82,9.64,4.95,4.73,7.05,10.4,8.93,15.2,5.73,14.6,3.49,24.04,6.6,25.01,3.83,1.19,10.75-11.41,15.13-19.28,1.29-2.32,2.27-4.27,2.9-5.56,6.9,3.17,13.8,6.33,20.71,9.5-2.66,6.74-7,16.37-13.89,27.04-9.5,14.72-15.95,24.72-23.75,25.46-11.91,1.13-26.1-19.38-35.19-49.57l-7.26-37.43Z"/>
    </clipPath>
    <clipPath id="clippath-4">
      <path class="cls-38" d="M30.54,174.87c-.47,.35-1.18,.9-2.09,1.62C.76,198.77,3.26,228.46,3.26,228.46c2,24.79,21.91,39.26,25.04,41.47,2.37,1.53,4.74,3.05,7.12,4.58,4.55-9.34,9.09-18.68,13.64-28.02-2.56-.86-8.96-3.42-13.64-9.99-1.83-2.57-6.59-9.26-4.63-16.81,1.86-7.14,9.08-12.57,18.03-13.64,1.65,6.18,2.9,11.48,3.81,15.6,1.51,6.8,2.07,9.96,2.34,12.85,.38,4.13,.47,7.54,.6,8.52,.29,2.25-8.12,65.83-11.05,74.16,23.08,1.23,31.66,9.74,97.15,1.89-.07-8.86-13.8-70.36-13.8-70.36,0,0,2.6-37.52,2.15-46.37,3.81,10.31-23.64-43.11-24.38-44.19-.39-.57-1.17-5.84-1.46-7.8-4.32,4.07-8.64,8.14-12.96,12.21-8.53-3.62-17.06-7.23-25.59-10.85-.54,3.18-1.08,6.36-1.62,9.55-7.19,.98-20.56,3.83-33.45,13.61Z"/>
    </clipPath>
    <clipPath id="clippath-5">
      <rect class="cls-38" x="37.16" y="87.73" width="104.34" height="37.63"/>
    </clipPath>
  </defs>
  <g class="cls-21">
    <g id="Layer_2" data-name="Layer 2">
      <g id="Camada_1" data-name="Camada 1">
        <g>
          <g>
            <path class="cls-40" d="M113.31,437.92c-10.95,0-15.83,3.84-15.83,3.84l4.3,5.38-.78,17.88h30.88l-4.89-19.99,3.32-4.42s-3.06-2.69-17.01-2.69Z"/>
            <path class="cls-47" d="M93.52,465.02s2.16-13.55,17.7-13.55c6.62,0,22.53,4.32,22.53,4.32l2.93,2.45,1.4,6.78h-44.56Z"/>
            <path class="cls-5" d="M112.29,456.31c7.63,0,24.39,1.94,24.39,1.94l-2.93-2.45s-15.91-4.32-22.53-4.32c-11.14,0-15.39,6.96-16.91,10.9,2.58-2.8,7.77-6.06,17.98-6.06Z"/>
            <polygon class="cls-37" points="93.22 465.02 92.47 471.94 139.1 471.94 138.08 465.02 93.22 465.02"/>
            <path class="cls-11" d="M130.31,440.61l-3.32,4.42c-17.1-4.9-25.22,2.11-25.22,2.11l-4.3-5.38s4.89-3.84,15.83-3.84c13.95,0,17.01,2.69,17.01,2.69Z"/>
          </g>
          <g>
            <path class="cls-40" d="M65.5,437.44c10.95,0,15.83,3.84,15.83,3.84l-4.3,5.38c.33,1.95,.65,3.91,.98,5.86,.93,.32,3.54,1.34,5.4,4.08,2.52,3.7,1.72,7.68,1.56,8.4-2.38-.15-4.77-.31-7.15-.46h-30.88l4.89-19.99-3.32-4.42s3.06-2.69,17.01-2.69Z"/>
            <path class="cls-47" d="M85.28,464.54c-1.03-2.31-3.54-7.07-8.83-10.09-.9-.51-3.18-1.72-6.96-2.4-10.02-1.79-19.74,2.1-23.99,4.08l-3.6,2.52c-.39,1.97-.79,3.93-1.18,5.9h44.56Z"/>
            <path class="cls-5" d="M66.51,455.83c-.85,0-2.39,.02-14.25,1.62-4.3,.58-7.85,1.08-10.31,1.44,1.04-1.19,2.07-2.38,3.11-3.57,2.1-1.22,5.12-2.69,8.97-3.71,1.35-.36,5.74-1.43,11.75-1.12,6.02,.31,11.3,.59,15.11,4.48,2.28,2.33,3.2,5.09,3.61,6.92-7.65-5.03-13.88-6.02-17.98-6.06Z"/>
            <polygon class="cls-37" points="85.58 464.54 86.33 471.46 39.7 471.46 40.72 464.54 85.58 464.54"/>
            <path class="cls-11" d="M48.49,440.13l3.32,4.42c17.1-4.9,25.22,2.11,25.22,2.11l4.3-5.38s-4.89-3.84-15.83-3.84c-13.95,0-17.01,2.69-17.01,2.69Z"/>
          </g>
          <g>
            <g>
              <path class="cls-25" d="M55.58,282.34c-2.99,26.44-5.4,54.31-7.01,83.53-1.33,24.18-2.01,47.5-2.16,69.88-1.41-.02-2.12,.35-2.47,.84-.55,.77,.06,1.5,.12,3.72,.06,2.17-.48,2.95,.12,3.72,.52,.66,1.48,.78,2.19,.78,11.69,.97,23.39,1.95,35.08,2.92,.43-.09,1.05-.3,1.47-.82,.81-1.01-.03-2.07,.12-4.56,.13-2.04,.8-3.1,.12-3.84-.3-.33-.71-.43-1.02-.48,1.16-17.29,2.01-35.27,2.48-53.89,.46-18.23,.51-35.87,.24-52.86,2.27-.16,4.55-.32,6.82-.49,.95,20.73,1.69,41.84,2.19,63.34,.36,15.26,.58,30.34,.69,45.22-.51-.06-1.25-.07-1.57,.36-.37,.49,.02,1.26,.6,2.88,.27,.74,.63,1.82,1.01,3.19,6,1.75,14.77,3.51,25.34,2.92,6.29-.35,11.72-1.45,16.08-2.68,.31-.25,.73-.66,.99-1.27,.35-.82,.09-1.2,.12-2.88,.03-1.64,.3-2.31-.12-2.64-.32-.25-.82-.14-1.2,0-.74-22.71-1.87-46.04-3.44-69.94-2.21-33.5-5.16-65.78-8.66-96.78l-68.14,9.85Z"/>
              <g class="cls-33">
                <path class="cls-51" d="M148.63,391.02c-4.13,.69-8.29,1.31-12.48,1.85-7.56,.95-15.2,1.65-22.87,2.1-7.81,.46-15.66,.65-23.51,.58-4.25-.04-8.49-.15-12.73-.34-9.36-.45-18.68-1.27-27.88-2.47-2.62-.34-5.23-.72-7.84-1.12-1.83-.28-3.95,.58-4.26,1.8-.32,1.27,.82,2.45,2.78,2.75,7.49,1.16,15.07,2.07,22.7,2.73,7.88,.68,15.82,1.09,23.76,1.25,7.7,.15,15.41,.05,23.09-.3,7.68-.35,15.33-.96,22.92-1.82,5.32-.6,10.61-1.32,15.85-2.15l.46-4.85Z"/>
                <path class="cls-51" d="M153.04,381.43c-8.49,1.23-17.07,2.22-25.7,2.95-9.02,.76-18.11,1.24-27.21,1.45-4.9,.11-9.81,.14-14.72,.09-12.81-.17-25.59-.87-38.24-2.14-3.58-.36-7.15-.76-10.71-1.21-.04,0-.08,0-.12-.01l1.5,5.1c6.81,.81,13.67,1.47,20.56,1.96,7.76,.55,15.56,.9,23.36,1.04,8.04,.15,16.09,.11,24.13-.16,7.8-.26,15.58-.73,23.31-1.4,7.74-.67,15.42-1.54,23.04-2.62,.15-.02,.31-.04,.46-.07l.32-4.98Z"/>
              </g>
            </g>
            <path class="cls-36" d="M49.16,437.55c3.91-.05,7.83,.04,11.73,.27,3.91,.23,7.82,.68,11.74,.78,2.21,.05,4.43-.02,6.63-.33,.89-.13,.69-1.51-.2-1.38-3.83,.54-7.7,.33-11.55,.02-3.93-.31-7.86-.6-11.8-.7-2.25-.06-4.5-.07-6.75-.04-.38,0-.64,.45-.59,.79,.06,.41,.41,.6,.79,.59h0Z"/>
            <path class="cls-36" d="M124.47,340.6c1.15,2.93,1.71,6.04,1.63,9.19-.03,1.02,1.56,1.02,1.59,0,.08-3.27-.49-6.56-1.69-9.61-.16-.4-.53-.68-.98-.55-.38,.1-.71,.57-.55,.98h0Z"/>
            <path class="cls-36" d="M126.53,359.99c.39,1.47,.78,2.94,1.17,4.4,.11,.4,.57,.68,.98,.55,.41-.13,.67-.55,.55-.98-.39-1.47-.78-2.94-1.17-4.4-.11-.4-.57-.68-.98-.55-.41,.13-.67,.55-.55,.98h0Z"/>
            <path class="cls-36" d="M121.16,358.43c-.23,1.64-.08,3.3,.55,4.84,.16,.38,.53,.7,.98,.55,.37-.12,.72-.56,.55-.98-.14-.35-.26-.7-.36-1.07-.04-.16-.08-.31-.11-.47-.02-.11-.04-.21-.06-.32,0-.03-.04-.25-.02-.11-.04-.35-.06-.69-.07-1.04,0-.19,0-.38,.02-.56,0-.08,.01-.16,.02-.24,0-.03,.04-.33,.02-.19,.06-.41-.1-.87-.55-.98-.37-.09-.91,.11-.98,.55h0Z"/>
            <path class="cls-36" d="M125.49,375.44c.19,1.1,.39,2.21,.58,3.31,.07,.41,.59,.68,.98,.55,.44-.14,.63-.54,.55-.98-.19-1.1-.39-2.21-.58-3.31-.07-.41-.59-.68-.98-.55-.44,.14-.63,.54-.55,.98h0Z"/>
            <path class="cls-36" d="M53.08,351.43c-.38,1.47-.76,2.94-1.13,4.41-.1,.4,.13,.88,.55,.98,.41,.09,.86-.12,.98-.55,.38-1.47,.76-2.94,1.13-4.41,.1-.4-.13-.88-.55-.98-.41-.09-.86,.12-.98,.55h0Z"/>
            <path class="cls-36" d="M54.68,358.05c-.53,1.66-1.07,3.33-1.6,4.99-.13,.4,.15,.88,.55,.98,.43,.1,.84-.13,.98-.55,.53-1.66,1.07-3.33,1.6-4.99,.13-.4-.15-.88-.55-.98-.43-.1-.84,.13-.98,.55h0Z"/>
            <path class="cls-36" d="M59.62,344.44c.01,.28,.01,.56,0,.85,0,.14-.02,.28-.04,.42-.02,.17,.03-.15,0,.03-.01,.07-.02,.14-.04,.21-.1,.55-.26,1.08-.48,1.59-.07,.18-.01,.46,.08,.61,.1,.16,.28,.32,.47,.36,.2,.05,.43,.04,.61-.08,.19-.12,.28-.27,.36-.47,.46-1.1,.67-2.32,.62-3.52-.02-.41-.35-.81-.79-.79-.41,.02-.81,.35-.79,.79h0Z"/>
            <path class="cls-36" d="M56.81,366.33c-.19,1.1-.39,2.21-.58,3.31-.04,.21-.03,.42,.08,.61,.1,.16,.28,.32,.47,.36,.39,.09,.9-.12,.98-.55,.19-1.1,.39-2.21,.58-3.31,.04-.21,.03-.42-.08-.61-.1-.16-.28-.32-.47-.36-.39-.09-.9,.12-.98,.55h0Z"/>
            <path class="cls-36" d="M54.78,378.02v2.21c0,.41,.36,.81,.79,.79,.43-.02,.79-.35,.79-.79v-2.21c0-.41-.36-.81-.79-.79-.43,.02-.79,.35-.79,.79h0Z"/>
            <path class="cls-36" d="M97.94,439.93c4.42-.21,8.85-.26,13.27-.15,4.43,.1,8.86,.47,13.3,.42,2.51-.03,5.01-.19,7.48-.63,1-.18,.73-1.73-.28-1.56-4.31,.77-8.69,.67-13.05,.48-4.46-.2-8.91-.37-13.37-.33-2.54,.02-5.09,.1-7.63,.22-.43,.02-.71,.54-.64,.92,.08,.47,.49,.66,.92,.64h0Z"/>
            <path class="cls-36" d="M110.66,445.57c3.28-.37,6.57-.63,9.86-.77,3.3-.14,6.62-.09,9.91-.35,1.86-.15,3.72-.39,5.53-.84,.74-.18,.45-1.33-.28-1.14-3.17,.78-6.43,.93-9.68,1-3.32,.08-6.64,.17-9.96,.42-1.89,.14-3.78,.32-5.66,.54-.32,.04-.5,.43-.43,.71,.08,.34,.4,.47,.71,.43h0Z"/>
            <path class="cls-36" d="M45.92,441.65c3.3-.04,6.6,.04,9.89,.24,3.3,.19,6.59,.58,9.9,.66,1.87,.05,3.74-.01,5.59-.27,.75-.11,.59-1.27-.17-1.17-3.23,.46-6.5,.27-9.74,.01-3.32-.26-6.63-.51-9.95-.6-1.9-.05-3.79-.06-5.69-.04-.32,0-.54,.38-.5,.67,.05,.35,.35,.5,.67,.5h0Z"/>
          </g>
          <g class="cls-26">
            <path class="cls-14" d="M42.37,387.41c.42,26.56,13.73,44.06,23.27,43.91,9.33-.15,21.51-17.3,22.17-42.37,3.81,12.37,9.47,36.64-2.63,48.74-.42,.42-.86,.82-1.32,1.21-3.27-.98-6.87-1.86-10.76-2.52-11.75-2.02-22.11-1.44-30.08-.22-2.03-4.92-4.5-12.57-4.94-22.17-.54-11.8,2.22-21.16,4.28-26.56Z"/>
            <path class="cls-14" d="M93.16,425.32c2.01,1.96,6.25,5.49,12.15,6,9.5,.83,16.46-6.75,20.49-11.12,8.62-9.37,10.77-20.36,11.42-25.91,.63,14,1.27,28,1.9,42.01-.84,.69-2.16,1.63-3.95,2.34-3.66,1.46-6.97,1.04-8.34,.88-5.53-.64-11.13-.15-16.69-.44-4.55-.24-11.06-.25-19.17,.88-.33-2.31-.5-5.72,.44-9.66,.47-1.95,1.11-3.62,1.76-4.98Z"/>
            <path class="cls-14" d="M80.35,302.67c-3.42,3.44-10.29,11.37-12.29,23.27-4.16,24.67,16.59,42.48,17.78,43.47,.44,5.12,.88,10.25,1.32,15.37,.94-11.98-8.33-22.31-19.76-22.83-11.8-.54-22.17,9.55-21.73,21.95-3-15.05-5.43-34.93-4.17-58.18,1-18.5,4.08-34.45,7.46-47.2,6.98-12.11,22.13-14.78,30.74-8.56,8.89,6.43,10.88,22.43,.66,32.71Z"/>
            <path class="cls-14" d="M89.79,378.41c3.99-10.38,14.52-16.8,25.47-15.59,11.21,1.25,20.2,10.2,21.52,21.52,.56-8.63,.74-18.2,.22-28.54-.75-15.08-2.8-28.51-5.27-39.96-2.91,9.65-5.83,14.48-8.78,14.49-5.85,.02-11.78-18.93-17.78-56.86-5.12,.73-10.25,1.46-15.37,2.2,1.62,17,1.98,31.01,1.98,41.05,0,7.78-.3,16.24-.88,33.15-.41,11.82-.8,21.64-1.1,28.54Z"/>
          </g>
          <g>
            <g>
              <g>
                <path class="cls-31" d="M38.86,107.46s-5.1-7.45-9.68-5.81c-4.58,1.62-4.22,14.29,6.3,21.49,6.36,3.74,10-4.5,3.38-15.68Z"/>
                <g>
                  <path class="cls-19" d="M29.47,111.38s.11-.19,.37-.48c.15-.13,.3-.31,.55-.47,.22-.17,.51-.32,.85-.42,.34-.13,.75-.17,1.17-.14,.21,.03,.42,.08,.64,.13,.21,.07,.41,.17,.62,.26,.22,.08,.39,.24,.57,.36,.18,.14,.4,.26,.54,.44,.29,.33,.67,.64,.91,1.03,.24,.38,.54,.73,.73,1.13,.21,.39,.39,.78,.59,1.15,.18,.38,.3,.76,.43,1.12,.14,.35,.26,.69,.35,1.01,.34,1.28,.5,2.14,.5,2.14,0,0-.45-.77-.99-1.95-.13-.29-.32-.6-.48-.93-.17-.33-.35-.67-.53-1.03-.21-.34-.43-.69-.63-1.06-.2-.37-.48-.68-.71-1.02-.22-.37-.53-.63-.79-.94-.29-.27-.58-.55-.89-.73-.16-.09-.32-.18-.47-.26-.17-.06-.33-.1-.49-.15-.32-.05-.64-.08-.94-.03-.29,.05-.57,.12-.81,.22-.23,.09-.43,.21-.6,.3-.32,.19-.49,.34-.49,.34Z"/>
                  <path class="cls-19" d="M32.29,115.18s.08-.35,.39-.77c.15-.22,.36-.44,.63-.65,.26-.21,.61-.36,.98-.47,.19-.02,.38-.07,.58-.04,.2-.01,.38,.04,.56,.1,.18,.04,.33,.15,.46,.23,.15,.08,.24,.19,.34,.29,.2,.19,.28,.4,.35,.54,.06,.14,.09,.22,.09,.22,0,0-.09-.04-.22-.1-.06-.03-.15-.07-.23-.11-.09-.05-.19-.07-.3-.12-.43-.17-.92-.24-1.43-.12-.51,.12-1.04,.39-1.46,.61-.44,.23-.74,.39-.74,.39Z"/>
                </g>
                <g class="cls-18">
                  <path class="cls-31" d="M38.86,107.46s-5.1-7.45-9.68-5.81c-.82,.29-1.47,.94-1.95,1.84,.8-.34,1.71-.36,2.67,.22,3.82,2.31-4.12,4.56,0,12.38,2.65,5.05,8.25,6.29,9.18,7.9,3.85-.72,5.02-7.71-.21-16.54Z"/>
                </g>
                <path class="cls-15" d="M31.98,108.46c2.63,0,5.98,3.78,6.48,6.66,.24,1.38,.25,3.55-.87,4.48-2.08,1.7-5.05-1.31-6.15-3.11-.52-.86-1.03-1.89-1.33-2.95,.05,1.6,.45,3.36,.67,4.4,.04,.2-2.19-4.47-1.59-6.64,.56-2.03,1.61-2.82,2.79-2.83Z"/>
              </g>
              <g>
                <path class="cls-31" d="M142.67,106.3s5.52-7.16,10.01-5.26c4.48,1.89,3.38,14.52-7.54,21.11-6.57,3.37-9.73-5.07-2.47-15.85Z"/>
                <g>
                  <path class="cls-19" d="M151.82,110.75s-.17-.15-.47-.37c-.16-.1-.35-.23-.58-.34-.22-.11-.5-.21-.79-.27-.29-.06-.61-.06-.94-.02-.16,.04-.32,.08-.49,.12-.16,.08-.32,.16-.49,.24-.33,.16-.63,.42-.94,.67-.27,.3-.61,.54-.85,.9-.24,.34-.54,.63-.76,1-.22,.35-.47,.68-.69,1.02-.2,.34-.4,.68-.59,1-.18,.32-.38,.61-.54,.9-.61,1.15-1.1,1.9-1.1,1.9,0,0,.2-.86,.62-2.12,.11-.31,.25-.65,.4-.99,.17-.35,.3-.72,.51-1.09,.21-.36,.41-.74,.65-1.11,.22-.39,.53-.73,.8-1.09,.26-.36,.65-.65,.97-.98,.16-.17,.38-.27,.57-.4,.2-.12,.37-.26,.59-.33,.22-.08,.42-.18,.63-.23,.22-.03,.44-.06,.65-.08,.42,0,.82,.05,1.15,.21,.33,.12,.62,.29,.83,.47,.23,.17,.38,.36,.52,.5,.25,.3,.35,.51,.35,.51Z"/>
                  <path class="cls-19" d="M148.78,114.37s-.28-.17-.71-.42c-.41-.25-.93-.54-1.42-.69-.5-.14-.99-.11-1.43,.04-.1,.05-.22,.05-.3,.1-.09,.04-.17,.07-.23,.1-.14,.05-.23,.08-.23,.08,0,0,.03-.08,.1-.21,.07-.13,.17-.34,.38-.52,.1-.09,.2-.2,.35-.27,.14-.08,.29-.18,.48-.2,.18-.06,.37-.09,.56-.08,.2-.01,.38,.05,.58,.08,.35,.13,.7,.3,.95,.53,.25,.21,.45,.46,.59,.67,.29,.44,.34,.8,.34,.8Z"/>
                </g>
                <g class="cls-18">
                  <path class="cls-31" d="M142.67,106.3s5.52-7.16,10.01-5.26c.8,.34,1.42,1.03,1.84,1.95-.78-.38-1.68-.45-2.68,.07-3.95,2.09,3.85,4.79-.71,12.37-2.94,4.88-8.6,5.81-9.62,7.35-3.81-.94-4.57-7.98,1.15-16.49Z"/>
                </g>
                <path class="cls-15" d="M149.48,107.69c-2.62-.16-6.18,3.43-6.85,6.28-.32,1.37-.46,3.53,.61,4.52,1.98,1.82,5.12-1.02,6.31-2.77,.57-.83,1.14-1.83,1.5-2.87-.14,1.6-.65,3.33-.91,4.36-.06,.19,2.43-4.35,1.96-6.54-.43-2.05-1.43-2.91-2.62-2.98Z"/>
              </g>
              <path class="cls-44" d="M102.08,161.43v-13.43c-3.51-1.59-7.57-4.11-14.04-4.8-8.88-.95-15.82,2.11-18.53,3.52-.48,5.12-1.03,10.24-1.51,15.35,.63,2.11,2.65,7.93,8.28,11.19,7.53,4.37,18.69,2.41,26.49-5.44-.32-2.13-.69-4.26-.69-6.4Z"/>
              <path class="cls-31" d="M138.46,75.31c-2.24-4.52-11.9-22.74-32.86-29.51-24.96-8.06-53.65,4.06-62.61,21.83-3.46,6.86-5.99,18.69-6.24,29.75-.09,3.97,.13,7.27,.35,9.54,0,0,1.97,46.31,50.75,46.49,41.66-.2,51.94-35.34,52.23-39.31,1.35-3.85,2.77-9.33,2.94-16,.26-10.25-2.56-18.28-4.56-22.79Z"/>
              <g class="cls-18">
                <path class="cls-31" d="M142.78,95.54c.12-5.04,.19-9-1.25-14.05-1.86-6.48-5.06-10.86-7.54-14.26-.4-.55-5-6.77-11.03-11.51-9.93-7.8-28.62-15.43-48.94-10.08-17.36,4.58-27.28,16.36-30.55,20.63-1.9,4.5-3.82,10.14-5.12,16.79-1.85,9.47-1.79,17.73-1.25,23.86,.22,3.49,1.83,23.6,18.55,36.59,7.4,5.75,17.74,9.85,32.2,9.9,5.13,.02,18.33-.09,31.34-8.95,14.27-9.72,19.1-23.69,20.56-28.13,2.74-8.34,2.92-15.84,3.04-20.79Zm-47.98,55.24c-17.94,1.97-30.19-2.18-38.38-9.01-10.28-8.58-18.98-23.61-14.82-31.4,1.28-2.4,3.39-3.4,4.86-7.35,1.8-4.82,.99-9.54,.12-12.59,2.25-.78,5.09-2.03,8.04-4.08,5.09-3.53,8.1-7.73,9.72-10.43,2.36,1.98,8.42,6.51,17.51,7.68,8.23,1.05,14.66-1.2,17.51-2.4,2.63,1.48,7.79,3.91,14.75,4.32,7.22,.42,12.8-1.55,15.59-2.76-.71,2.49-2.04,8.43,.12,15.35,1.4,4.5,3.73,7.66,5.32,9.48,.11,3.42,.23,18.41-10.96,30.33-9.86,10.51-22.28,12.1-29.38,12.88Z"/>
              </g>
            </g>
            <path class="cls-32" d="M78.76,106.51s1.85,2.39,1.29,6.36c-.54,3.97,3.71,1.34,2.67-4.22-1.04-5.56-5.54-4.79-3.96-2.14Z"/>
            <path class="cls-12" d="M127.45,98.2c-.11,.04-.23,.07-.38,.09-1.69,.17-10.39-9.99-21.92-3.83-3.26,1.74-4.27,.63-4.22-.99,7.89-6.17,21.42-4.37,26.52,4.74Z"/>
            <g>
              <path class="cls-17" d="M120.89,114.72c2.91-4.7,2.6-10.49-.6-14.19-2.28-2.64-6.03-4.22-9.79-3.71-3.11,.43-5.12,2.15-5.72,2.7-2.92,2.69-4.24,7.02-3.14,10.91,.72,2.54,2.27,4.17,3.1,4.93,1.88-.34,4.07-.61,6.52-.68,3.05-.08,5.74,.17,7.96,.52-.43,.16-1.5,.62-2.32,1.76-.64,.89-.82,1.78-.88,2.24,.86-.76,2.18-1.74,4-2.48,2.79-1.13,5.29-1.09,6.64-.96-.66-.43-2-1.17-3.8-1.24-.77-.03-1.44,.07-1.96,.2Z"/>
              <path class="cls-16" d="M122.55,107.1c.45,3.89-1.58,6.87-2.22,7.74-2.08-.32-4.52-.55-7.26-.54-3.07,.01-5.78,.32-8.04,.72-.69-.8-2.97-3.64-2.74-7.5,.29-4.93,4.56-10.05,10.32-9.95,5.52,.09,9.41,4.93,9.94,9.54Z"/>
              <path class="cls-1" d="M122.11,107.32c.41,3.31-1.09,5.93-1.73,6.92-2.15-.2-4.54-.32-7.13-.28-2.98,.04-5.69,.28-8.09,.61-.57-.7-2.79-3.59-2.38-7.48,.46-4.44,4.18-8.69,9.12-8.96,5.54-.3,9.65,4.62,10.21,9.19Z"/>
              <g>
                <path class="cls-12" d="M115.86,108.29c.17,3.03-2.11,5.53-5.09,5.59-2.98,.06-5.54-2.36-5.7-5.39-.16-3.03,2.12-5.53,5.1-5.59,2.98-.05,5.53,2.36,5.69,5.39Z"/>
                <path class="cls-6" d="M114.21,108.38c.07,1.91-1.39,3.46-3.25,3.48-1.87,.02-3.45-1.51-3.51-3.41-.07-1.9,1.39-3.46,3.26-3.48,1.87-.02,3.44,1.5,3.51,3.4Z"/>
                <path class="cls-4" d="M110.52,106.3c-.23,1.08-1.28,1.87-2.35,1.75-1.07-.11-1.74-1.08-1.51-2.16,.23-1.09,1.28-1.87,2.35-1.76,1.06,.11,1.74,1.08,1.51,2.17Z"/>
                <path class="cls-4" d="M107.84,108.76c-.07,.33-.39,.57-.71,.53-.33-.03-.53-.33-.46-.65,.07-.33,.38-.56,.7-.53,.33,.04,.53,.33,.46,.65Z"/>
              </g>
              <path class="cls-19" d="M116.63,118.2s.28-.59,.98-1.28c.67-.7,1.79-1.47,3.07-1.84,.32-.1,.64-.15,.97-.21,.31-.07,.64-.04,.95-.07,.31-.02,.61,.04,.89,.06,.27,.01,.54,.09,.77,.15,.24,.06,.45,.1,.64,.19,.18,.08,.34,.15,.47,.2,.26,.12,.4,.19,.4,.19,0,0-.16-.01-.44-.04-.14-.01-.3-.03-.49-.05-.19-.03-.41-.01-.64-.03-.23-.01-.48-.03-.74-.01-.26,.03-.54,0-.82,.05-.28,.04-.57,.05-.86,.13-.3,.06-.59,.11-.88,.22-.29,.08-.57,.18-.85,.29-.28,.1-.54,.24-.8,.35-.24,.14-.5,.25-.72,.39-.23,.14-.45,.27-.64,.4-.78,.51-1.27,.93-1.27,.93Z"/>
              <g>
                <path class="cls-4" d="M122.35,116.81c.34,.54-.28,1.57-1.42,2.26-1.14,.7-2.36,.78-2.72,.23-.35-.53,.29-1.54,1.43-2.24,1.13-.69,2.36-.82,2.71-.25Z"/>
                <path class="cls-4" d="M125.08,116.18c.05,.33-.29,.69-.75,.81-.45,.11-.86-.07-.89-.4-.05-.33,.29-.7,.74-.82,.44-.11,.85,.06,.9,.41Z"/>
              </g>
            </g>
            <g>
              <path class="cls-19" d="M70.26,131.47c.85,.33,1.74,.63,2.7,.88,.11,.03,.21,.05,.32,.08,10.32-.54,20.63-1.09,30.95-1.63,.4-.24,.84-.53,1.29-.9,.6-.48,1.07-.97,1.44-1.41-.26,.54-.6,1.17-1.07,1.83-.36,.5-.72,.93-1.06,1.29-3.24,7.79-9.78,12.96-16.53,12.98-4.52,.02-8.13-2.28-8.72-2.67-3.03-2-5.3-5.05-6.73-8.94l-2.59-1.51Z"/>
              <path class="cls-9" d="M90.29,143.74c6.95-.55,11.86-6.13,13.9-12.38-10.07,1.16-20.41,1-30.55,1.58,2.67,7.41,8.72,11.43,16.65,10.81Z"/>
              <path class="cls-4" d="M87.97,136.2c-4.15-.12-8.77-.69-11.89-3.38,8.96-.42,18.05-.41,26.96-1.35-2.24,5.44-10.14,4.87-15.07,4.73Z"/>
              <path class="cls-24" d="M79.87,141.23c2.46-1.15,5.19-1.53,7.89-1.54,3.2,0,6.96-.22,9.98,1.13-2.1,1.62-4.6,2.7-7.45,2.92-4.04,.32-7.58-.57-10.45-2.5,0,0,.02,0,.03-.01Z"/>
            </g>
            <path class="cls-12" d="M35.23,103.54c.66,.63,1.77,1.86,2.48,3.76,.61,1.62,.67,3.05,.64,3.92,1.16-.51,5.35-2.54,7.52-7.36,3.13-6.95-.76-13.5-1.12-14.07,2.62-1.19,5.71-2.87,8.92-5.24,4.84-3.57,8.21-7.42,10.43-10.43,2.95,2.28,10.27,7.29,20.79,8,6.52,.44,11.8-.94,15.03-2.08,2.61,1.38,6.47,3.01,11.35,3.68,9.27,1.27,16.62-1.67,19.83-3.2-.74,2.91-3.32,14.49,3.36,24.47,1.74,2.59,3.74,4.54,5.6,6,.69-1.25,1.39-2.51,2.08-3.76,2.29-5.08,5.42-13.8,5.44-24.95,.01-7.3-1.31-13.38-2.64-17.75,0-7.62-2.45-12.55-4.08-15.11-7.46-11.75-24.86-16.81-43.42-12.23-2.89-3.81-9.12-10.7-18.71-12.71-18.3-3.85-38.07,10.34-42.94,27.35-1.76,6.14-1.27,11.6-.72,14.87-1.11,3.32-2.14,7.35-2.64,11.99-1.15,10.64,.96,19.42,2.8,24.87Z"/>
            <g class="cls-22">
              <path class="cls-4" d="M43.95,88.75c-.84,.42-2.06,.9-3.6,1.08-2.91,.35-5.21-.58-6.24-1.08,1.23-.94,2.78-2.41,3.96-4.56,3.46-6.29,.82-13.03,.36-14.15,.82,.98,3.32,4.2,3.48,9,.13,3.88-1.35,6.74-2.04,7.92,1.35-.05,3.33-.29,5.52-1.2,3.55-1.48,5.65-3.91,6.6-5.16-.25,1.03-1.06,3.72-3.6,5.88-1.69,1.43-3.43,2.02-4.44,2.28Z"/>
              <path class="cls-4" d="M126.7,80.95c1.46-.27,3.66-.87,5.88-2.4,4.7-3.23,6.03-8.17,6.36-9.6-1.4,.61-3.45,1.32-6,1.56-3.58,.34-6.48-.39-8.16-.96,1.02,.76,2.8,1.89,5.28,2.52,2.2,.55,4.08,.49,5.28,.36-1.34,1.95-3.21,4.21-5.76,6.36-.98,.83-1.95,1.54-2.88,2.16Z"/>
              <path class="cls-4" d="M92.52,80.83c1.73-.17,3.95-.58,6.36-1.56,5.15-2.1,8.26-5.63,9.72-7.56-1.09-.1-3.27-.45-5.52-1.92-2.47-1.61-3.7-3.69-4.2-4.68,.11,.91,.44,2.71,1.68,4.56,1.21,1.8,2.68,2.78,3.48,3.24-1.74,1.67-3.96,3.53-6.72,5.28-1.69,1.07-3.31,1.94-4.8,2.64Z"/>
            </g>
            <path class="cls-5" d="M97.28,55.64c-.55-1.6-.68-3.06-.56-6.64,.07-2.29,.24-5.28,.64-8.8,.84,.6,2.19,1.43,4,1.92,3.3,.89,4.8-.26,9.28-.32,2.85-.04,5.99-.08,8.8,1.76,2.39,1.56,3.58,3.85,4.16,5.28-3.35-3.52-6.31-4.53-8.4-4.8-2.52-.33-4.06,.38-9.52,.88-2.66,.24-4.83,.3-6.24,.32-.28,2.58-.41,5.63-.16,9.04,.16,2.19,.45,4.2,.8,6-.88-.96-2.07-2.5-2.8-4.64Z"/>
            <path class="cls-29" d="M78.43,123.61c-.1-.08,2.29-7.42,8.33-7.88,3.45-.26,6.91,1.8,8.83,5.23-2.36-2.27-5.68-4.67-9.22-4.16-5.01,.72-7.84,6.88-7.94,6.81Z"/>
            <g>
              <path class="cls-17" d="M55.26,114.72c-2.91-4.7-2.6-10.49,.6-14.19,2.28-2.64,6.03-4.22,9.79-3.71,3.11,.43,5.12,2.15,5.72,2.7,2.92,2.69,4.24,7.02,3.14,10.91-.72,2.54-2.27,4.17-3.1,4.93-1.88-.34-4.07-.61-6.52-.68-3.05-.08-5.74,.17-7.96,.52,.43,.16,1.5,.62,2.32,1.76,.64,.89,.82,1.78,.88,2.24-.86-.76-2.18-1.74-4-2.48-2.79-1.13-5.29-1.09-6.64-.96,.66-.43,2-1.17,3.8-1.24,.77-.03,1.44,.07,1.96,.2Z"/>
              <path class="cls-16" d="M53.6,107.1c-.45,3.89,1.58,6.87,2.22,7.74,2.08-.32,4.52-.55,7.26-.54,3.07,.01,5.78,.32,8.04,.72,.69-.8,2.97-3.64,2.74-7.5-.29-4.93-4.56-10.05-10.32-9.95-5.52,.09-9.41,4.93-9.94,9.54Z"/>
              <path class="cls-1" d="M54.04,107.32c-.41,3.31,1.09,5.93,1.73,6.92,2.15-.2,4.54-.32,7.13-.28,2.98,.04,5.69,.28,8.09,.61,.57-.7,2.79-3.59,2.38-7.48-.46-4.44-4.18-8.69-9.12-8.96-5.54-.3-9.65,4.62-10.21,9.19Z"/>
              <g>
                <path class="cls-12" d="M71.08,108.29c.17,3.03-2.11,5.53-5.09,5.59-2.98,.06-5.54-2.36-5.7-5.39-.16-3.03,2.12-5.53,5.1-5.59,2.98-.05,5.53,2.36,5.69,5.39Z"/>
                <path class="cls-6" d="M69.42,108.38c.07,1.91-1.39,3.46-3.25,3.48-1.87,.02-3.45-1.51-3.51-3.41-.07-1.9,1.39-3.46,3.26-3.48,1.87-.02,3.44,1.5,3.51,3.4Z"/>
                <path class="cls-4" d="M65.73,106.3c-.23,1.08-1.28,1.87-2.35,1.75-1.07-.11-1.74-1.08-1.51-2.16,.23-1.09,1.28-1.87,2.35-1.76,1.06,.11,1.74,1.08,1.51,2.17Z"/>
                <path class="cls-4" d="M63.06,108.76c-.07,.33-.39,.57-.71,.53-.33-.03-.53-.33-.46-.65,.07-.33,.38-.56,.7-.53,.33,.04,.53,.33,.46,.65Z"/>
              </g>
              <path class="cls-19" d="M59.51,118.2s-.28-.59-.98-1.28c-.67-.7-1.79-1.47-3.07-1.84-.32-.1-.64-.15-.97-.21-.31-.07-.64-.04-.95-.07-.31-.02-.61,.04-.89,.06-.27,.01-.54,.09-.77,.15-.24,.06-.45,.1-.64,.19-.18,.08-.34,.15-.47,.2-.26,.12-.4,.19-.4,.19,0,0,.16-.01,.44-.04,.14-.01,.3-.03,.49-.05,.19-.03,.41-.01,.64-.03,.23-.01,.48-.03,.74-.01,.26,.03,.54,0,.82,.05,.28,.04,.57,.05,.86,.13,.3,.06,.59,.11,.88,.22,.29,.08,.57,.18,.85,.29,.28,.1,.54,.24,.8,.35,.24,.14,.5,.25,.72,.39,.23,.14,.45,.27,.64,.4,.78,.51,1.27,.93,1.27,.93Z"/>
              <g>
                <path class="cls-4" d="M53.8,116.81c-.34,.54,.28,1.57,1.42,2.26,1.14,.7,2.36,.78,2.72,.23,.35-.53-.29-1.54-1.43-2.24-1.13-.69-2.36-.82-2.71-.25Z"/>
                <path class="cls-4" d="M51.07,116.18c-.05,.33,.29,.69,.75,.81,.45,.11,.86-.07,.89-.4,.05-.33-.29-.7-.74-.82-.44-.11-.85,.06-.9,.41Z"/>
              </g>
            </g>
            <path class="cls-12" d="M47.19,98.35c.1,.04,.2,.07,.33,.09,1.46,.17,8.95-9.99,18.86-3.84,2.8,1.74,3.67,.63,3.63-.99-6.79-6.17-18.43-4.36-22.82,4.75Z"/>
          </g>
          <g>
            <g>
              <g>
                <g>
                  <g>
                    <path class="cls-13" d="M27.98,78.48c8.46-6.28,30.32-14.8,60.02-16.93,29.97-2.15,50.94,6.61,59.5,13.98l7.65-2.02c-.26-19.88-7.34-64.36-51.41-70.11C48.32-3.83,20.69,28.41,23.6,78.04l4.38,.44Z"/>
                    <path class="cls-43" d="M27.98,79.16s-.04,0-.06,0l-4.38-.43c-.33-.04-.6-.31-.61-.64-1.43-24.46,4.5-44.48,17.15-57.88C51.64,7.93,68.05,1.71,88.84,1.71c4.77,0,9.82,.34,14.98,1.01,19.39,2.53,33.74,12.67,42.66,30.13,8.17,16,9.26,33.76,9.35,40.65,0,.31-.21,.59-.51,.67l-7.66,2.02c-.21,.05-.44,0-.61-.15-7.58-6.53-25.21-14.15-49.93-14.15-2.97,0-6.03,.11-9.07,.33-19.74,1.42-46.83,7.28-59.67,16.8-.12,.09-.26,.14-.41,.14Zm-3.73-1.74l3.54,.36c9.58-6.98,31.8-14.87,60.16-16.91,3.08-.23,6.17-.34,9.17-.34,11.54,0,22.29,1.59,31.94,4.72,7.64,2.47,14.23,5.85,18.61,9.53l6.79-1.79c-.14-7.14-1.35-24.17-9.19-39.52-8.7-17.04-22.7-26.93-41.62-29.4-5.11-.66-10.09-1-14.81-1-20.4,0-36.48,6.07-47.78,18.06-12.28,13.03-18.09,32.48-16.81,56.29Z"/>
                  </g>
                  <path class="cls-14" d="M146.93,35.33c-.6,.32-1.2,.62-1.8,.87-1.22,.54-2.49,.99-3.67,1.6-1.75,.89-1.99,1.68-1.58,3.69,1.25,5.97,3.68,12.39,2.66,18.55-.03,.17-.22,.28-.38,.28-3.36,.06-6.69-.83-9.76-2.13-2.57-1.07-5.35-2.26-7.46-4.11-4.3-3.78-5.04-9.59-5.94-14.94-1.98-11.92-4.5-24.14-10.19-34.89-1.64-.35-3.33-.65-5.08-.87-17.37-2.27-32.01-.66-43.83,4.15-4.2,9.37-4.55,20.25-6.26,30.34-1,5.92-2.27,11.84-5.92,16.73-2.96,3.96-7.52,7.89-12.73,7.87-.17,0-.34-.12-.38-.29-1.15-5.16,.01-10.23,.36-15.41,.17-2.61-.38-4.52-2.75-5.89-1.06-.61-2.19-1.13-3.32-1.64-4.38,11.05-6.18,24.16-5.32,38.79l4.38,.44c8.46-6.28,30.32-14.8,60.02-16.93,29.97-2.15,50.94,6.61,59.5,13.98l7.65-2.02c-.12-9.44-1.79-24.43-8.21-38.17Z"/>
                  <g>
                    <path class="cls-13" d="M104.12,2.12s-8.56-.92-15.42-1.44l-8.39,.36c-6.83,.85-15.24,2.88-15.24,2.88-9.65,25.08-6.3,62.82-6.3,62.82l28.73-.71-1.23,.03,28.73-.71s-.01-38.68-10.88-63.24Z"/>
                    <path class="cls-43" d="M58.77,67.43c-.35,0-.65-.27-.68-.62-.03-.38-3.25-38.18,6.35-63.12,.08-.21,.26-.36,.47-.42,.09-.02,8.53-2.05,15.31-2.9l8.45-.37h.08c6.79,.52,15.36,1.43,15.44,1.44,.24,.03,.45,.18,.55,.41,10.81,24.42,10.95,63.13,10.95,63.52,0,.37-.3,.67-.67,.68l-28.73,.71h-.06l-27.44,.68h-.02Zm6.81-62.92c-8.66,22.87-6.55,56.51-6.18,61.54l28.09-.69s.04,0,.07,0l26.76-.66c-.07-5.19-.89-39.53-10.66-61.95-1.75-.19-9.03-.94-14.96-1.39l-8.36,.36c-5.88,.74-13.1,2.4-14.75,2.79Z"/>
                  </g>
                  <path class="cls-14" d="M115,65.36s-.01-38.68-10.88-63.24c0,0-8.56-.92-15.42-1.44l-8.39,.36c-6.83,.85-15.24,2.88-15.24,2.88-9.65,25.08-6.3,62.82-6.3,62.82l28.73-.71-1.23,.03,28.73-.71Zm-33.58-9.88c-3.57,.29-7.14,.56-10.72,.53-1.46-.01-2.9-.04-4.37,.08-.75,.06-1.54,.17-2.28,.03-3.4-.65-3.79-5.79-3.87-8.54-.15-4.8,.5-9.63,.86-14.41,.45-5.81,1.18-11.64,2.54-17.32,.78-3.25,1.48-7.52,4.8-9.16,1.71-.85,4.02-.96,5.89-1.08,2.28-.13,4.59-.13,6.85,.19,3.85,.55,7.58,1.93,10.52,4.55,5.41,4.84,7.54,12.16,8.46,19.13,.4,3.09,2.11,15.99,1.77,19.33-.37,3.66-2.2,5.04-5.74,5.54-2.11,.29-4.25,.26-6.37,.39-2.79,.18-5.56,.5-8.34,.73Z"/>
                </g>
                <path class="cls-43" d="M150.13,75.95c-.34,0-.63-.25-.68-.59l-4.53-32.85c-.05-.35,.18-.68,.52-.76l4.25-1c.32-.07,.65,.09,.78,.39,.07,.15,6.69,15.55,7.43,33.71,.02,.37-.27,.68-.64,.71l-7.09,.38h-.03Zm-3.79-33.01l4.37,31.62,5.8-.31c-.77-15.76-5.94-29.25-7.07-32.03l-3.09,.72Z"/>
                <g>
                  <path class="cls-13" d="M147.57,43.25l2.61-.64s6.3,14.04,7.04,32.28l-5.74,.52-3.91-32.16Z"/>
                  <path class="cls-43" d="M151.48,76.08c-.34,0-.63-.25-.67-.59l-3.91-32.15c-.04-.35,.18-.66,.51-.74l2.6-.65c.32-.08,.65,.08,.78,.38,.06,.14,6.36,14.37,7.1,32.53,.01,.36-.26,.68-.62,.7l-5.73,.51s-.04,0-.06,0Zm-3.16-32.32l3.76,30.9,4.43-.39c-.75-15.66-5.63-28.21-6.73-30.87l-1.46,.36Z"/>
                </g>
                <path class="cls-14" d="M31.39,38.14s5.26-17.29,25.47-27.62l-1.85,8.32s-10.81,.48-23.62,19.3Z"/>
                <path class="cls-43" d="M29.75,79.36h-.04l-7.09-.43c-.34-.02-.61-.3-.63-.64-1.13-21.6,4.98-36.01,5.05-36.16,.09-.2,.25-.34,.46-.39,.2-.05,.43,0,.59,.13l4.04,3.25c.17,.14,.26,.35,.25,.57l-1.95,33.03c0,.18-.09,.35-.22,.47-.12,.11-.29,.17-.45,.17Zm-6.44-1.75l5.8,.35,1.89-31.99-3.05-2.45c-1.23,3.3-5.48,16.09-4.64,34.1Z"/>
                <g>
                  <path class="cls-13" d="M29.98,46.95l-2.54-3.67s-5.93,13.29-4.79,34.97l5.84,.03,1.48-31.33Z"/>
                  <path class="cls-43" d="M28.5,78.95h0l-5.85-.03c-.36,0-.65-.29-.67-.65-1.13-21.6,4.79-35.15,4.85-35.28,.1-.23,.31-.38,.56-.4,.25-.02,.48,.09,.62,.3l2.53,3.67c.09,.12,.13,.27,.12,.42l-1.48,31.32c-.01,.36-.31,.65-.68,.65Zm-5.2-1.38l4.55,.02,1.44-30.44-1.68-2.43c-1.34,3.62-5.12,15.53-4.31,32.86Z"/>
                </g>
                <g>
                  <path class="cls-13" d="M53.05,77.95c9.1-2.47,17.39-4.16,26.77-5.17,9.99-1.08,21.53-1.21,31.52,.41,8.85,1.43,17.84,5.37,26.86,4.84,4.65-.94,9.42-1.98,14.37-3.16,0,0-22.32-16.38-61.8-15.3-51.87,1.41-66.08,18.48-66.08,18.48,0,0,4.28,1.79,12.9,3.54,5.34-.23,10.29-2.23,15.48-3.64Z"/>
                  <path class="cls-43" d="M37.57,82.27s-.09,0-.14-.01c-8.58-1.75-12.84-3.5-13.02-3.58-.2-.08-.34-.25-.39-.46-.05-.21,0-.43,.14-.6,.59-.71,15.01-17.33,66.59-18.73,1.24-.03,2.49-.05,3.71-.05,36.97,0,58.3,15.33,58.51,15.48,.21,.16,.32,.43,.27,.68-.05,.26-.25,.47-.51,.53-4.75,1.13-9.46,2.17-14.4,3.16-.03,0-.06,0-.1,.02-.56,.03-1.13,.04-1.71,.04-5.34,0-10.69-1.4-15.87-2.75-3.1-.81-6.31-1.65-9.43-2.15-4.95-.8-10.48-1.21-16.46-1.21-4.9,0-9.91,.27-14.87,.81-8.78,.95-17.01,2.54-26.66,5.15-1.36,.37-2.72,.78-4.03,1.19-3.72,1.14-7.57,2.31-11.6,2.48h-.03Zm-11.68-4.49c1.69,.6,5.61,1.88,11.73,3.13,3.82-.17,7.4-1.26,11.18-2.42,1.33-.4,2.7-.82,4.07-1.19,9.73-2.63,18.02-4.23,26.87-5.19,5.01-.54,10.07-.82,15.02-.82,6.05,0,11.66,.42,16.68,1.23,3.18,.51,6.42,1.36,9.56,2.17,5.09,1.33,10.36,2.7,15.52,2.7,.53,0,1.06-.01,1.59-.04,4.37-.89,8.57-1.8,12.77-2.78-5.07-3.21-25-14.37-56.42-14.37-1.22,0-2.45,.01-3.68,.05-44.93,1.22-61.49,14.32-64.88,17.53Z"/>
                </g>
                <path class="cls-14" d="M28.7,76.91s9.56,3.74,12.88,2.2c3.32-1.56,29.71-10.7,61.91-10l.03-7.81s-47.62-1.86-74.82,15.61Z"/>
              </g>
              <g>
                <path class="cls-2" d="M81.64,40.54c.82-.33,1.73-.48,2.68-.41,2.86,.22,5.18,2.54,5.4,5.4,.29,3.63-2.73,6.64-6.36,6.35-2.88-.23-5.2-2.57-5.4-5.44-.15-2.11,.81-4,2.36-5.16,.15-.11,.18-.32,.07-.47-1.71-2.44-4.58-4-7.82-3.86-4.85,.19-8.72,4.28-8.68,9.14,.05,4.97,4.09,8.98,9.07,8.98,1.51,0,2.94-.37,4.2-1.03,.22-.11,.26-.41,.07-.57-.62-.55-1.18-1.18-1.65-1.88-.1-.14-.27-.19-.42-.13-.82,.33-1.72,.48-2.67,.41-2.9-.22-5.23-2.6-5.41-5.5-.22-3.43,2.49-6.27,5.88-6.27,1.07,0,2.09,.29,2.96,.79,.17,.1,.22,.31,.13,.49-.87,1.48-1.34,3.22-1.25,5.09,.23,4.56,3.91,8.29,8.47,8.58,5.48,.35,9.99-4.17,9.64-9.66-.3-4.5-3.92-8.14-8.42-8.45-1.76-.12-3.41,.26-4.84,1.01-.22,.11-.26,.41-.07,.57,.62,.55,1.18,1.18,1.65,1.88,.1,.14,.27,.19,.43,.13"/>
                <path class="cls-2" d="M105.39,37.38v17.27c0,.17,.13,.32,.29,.34,.86,.13,1.73,.13,2.58,0,.17-.02,.29-.17,.29-.34v-17.27c0-.17-.13-.32-.29-.34-.86-.13-1.73-.13-2.58,0-.17,.02-.29,.17-.29,.34"/>
                <path class="cls-2" d="M97.57,36.96c-1.26-.09-2.46,.13-3.54,.59-.13,.06-.21,.18-.21,.32v16.77c0,.17,.13,.32,.29,.34,.86,.13,1.73,.13,2.58,0,.17-.02,.29-.17,.29-.34v-2.4c0-.19,.15-.34,.34-.35,4.13-.18,7.39-3.72,7.13-7.95-.22-3.69-3.2-6.71-6.89-6.98m-.57,11.41v-7.89c0-.21,.18-.37,.38-.35,2.2,.19,3.93,2.04,3.93,4.29s-1.73,4.1-3.93,4.29c-.2,.02-.38-.15-.38-.35"/>
              </g>
            </g>
            <g>
              <g>
                <rect class="cls-23" x="153.54" y="45.98" width="4.06" height="8.97" transform="translate(-7.51 38.07) rotate(-13.63)"/>
                <rect class="cls-46" x="151.4" y="45.65" width="3.42" height="10.75" transform="translate(-7.71 37.51) rotate(-13.63)"/>
                <g>
                  <rect class="cls-52" x="167.32" y="60.82" width="3.42" height="19.18" transform="translate(-10.13 108.21) rotate(-34.53)"/>
                  <rect class="cls-23" x="159.3" y="51.27" width="1.23" height="12.45" transform="translate(-4.42 100.76) rotate(-34.52)"/>
                </g>
                <g>
                  <path class="cls-23" d="M151.59,87.82s.05,.01,.08,.02l-8.37,38.27s-.05,0-.08-.02c-2.64-.58-4.32-3.19-3.74-5.83l6.27-28.7c.58-2.64,3.19-4.32,5.83-3.74Z"/>
                  <path class="cls-28" d="M151.67,87.84c10.45,2.4,13.86,12.08,11.57,22.58s-9.43,17.87-19.93,15.69l8.37-38.26Z"/>
                </g>
                <path class="cls-34" d="M177.38,78.53c.23-1.78-1.04-3.41-2.82-3.64s-3.41,1.04-3.64,2.82,1.04,3.41,2.82,3.64,3.41-1.04,3.64-2.82Z"/>
                <path class="cls-34" d="M160.08,107.77c-.36-1.76-2.08-2.9-3.84-2.54s-2.9,2.08-2.54,3.84,2.08,2.9,3.84,2.54,2.9-2.08,2.54-3.84Z"/>
                <circle class="cls-23" cx="174.15" cy="78.12" r="1.95"/>
                <g>
                  <rect class="cls-52" x="151.61" y="97.63" width="21.35" height="3.42" transform="translate(-5.13 189.75) rotate(-59.84)"/>
                  <rect class="cls-23" x="164.37" y="83.6" width="13.86" height="1.23" transform="translate(12.44 190.03) rotate(-59.85)"/>
                </g>
                <path class="cls-46" d="M168.79,78.4c-.13-2.97,2.17-5.49,5.15-5.63,2.98-.13,5.49,2.17,5.63,5.15,.13,2.97-2.17,5.49-5.15,5.63-2.97,.13-5.49-2.17-5.63-5.15Z"/>
                <path class="cls-23" d="M177.11,78.02c-.07-1.62-1.44-2.87-3.06-2.8s-2.87,1.44-2.8,3.06c.07,1.62,1.44,2.87,3.06,2.8s2.87-1.44,2.8-3.06Z"/>
              </g>
              <g>
                <rect class="cls-23" x="21.97" y="51.02" width="4.06" height="8.97" transform="translate(34.26 115.1) rotate(-166.37)"/>
                <rect class="cls-46" x="24.76" y="50.69" width="3.42" height="10.75" transform="translate(38.98 116.79) rotate(-166.37)"/>
                <g>
                  <rect class="cls-52" x=".95" y="73.74" width="19.18" height="3.42" transform="translate(-57.59 41.37) rotate(-55.47)"/>
                  <rect class="cls-23" x="13.43" y="61.92" width="12.45" height="1.23" transform="translate(-43 43.29) rotate(-55.48)"/>
                </g>
                <g>
                  <path class="cls-23" d="M27.98,92.86s-.05,.01-.08,.02l8.37,38.27s.05,0,.08-.02c2.64-.58,4.32-3.19,3.74-5.83l-6.27-28.7c-.58-2.64-3.19-4.32-5.83-3.74Z"/>
                  <path class="cls-28" d="M27.9,92.88c-10.45,2.4-13.86,12.08-11.57,22.58,2.3,10.5,9.43,17.87,19.93,15.69l-8.37-38.26Z"/>
                </g>
                <path class="cls-34" d="M2.19,83.57c-.23-1.78,1.04-3.41,2.82-3.64s3.41,1.04,3.64,2.82-1.04,3.41-2.82,3.64-3.41-1.04-3.64-2.82Z"/>
                <path class="cls-34" d="M19.5,112.81c.36-1.76,2.08-2.9,3.84-2.54,1.76,.36,2.9,2.08,2.54,3.84s-2.08,2.9-3.84,2.54-2.9-2.08-2.54-3.84Z"/>
                <circle class="cls-23" cx="5.42" cy="83.16" r="1.95"/>
                <g>
                  <rect class="cls-52" x="15.57" y="93.7" width="3.42" height="21.35" transform="translate(-50.1 22.81) rotate(-30.16)"/>
                  <rect class="cls-23" x="7.66" y="82.31" width="1.23" height="13.86" transform="translate(-43.71 16.23) rotate(-30.15)"/>
                </g>
                <path class="cls-46" d="M10.78,83.43c.13-2.97-2.17-5.49-5.15-5.63S.14,79.98,0,82.95s2.17,5.49,5.15,5.63c2.97,.13,5.49-2.17,5.63-5.15Z"/>
                <path class="cls-23" d="M2.46,83.06c.07-1.62,1.44-2.87,3.06-2.8s2.87,1.44,2.8,3.06c-.07,1.62-1.44,2.87-3.06,2.8s-2.87-1.44-2.8-3.06Z"/>
              </g>
            </g>
          </g>
          <g>
            <g>
              <path class="cls-41" d="M181.15,170.28c.64-.1,1.19-.18,1.94-.11,5.22,.5,10.4,7.37,9.76,13.2-.88,8.06-12.88,14.1-20.07,10.02-3.58-2.03-5.57-6.34-5.48-10.14,.18-7.59,8.64-12.18,13.84-12.98Z"/>
              <g>
                <path class="cls-10" d="M183.71,182.79l9.33-.35c1.55-.06,2.76-1.54,2.69-3.28h0c-.07-1.75-1.38-3.13-2.93-3.07l-9.33,.35c-1.55,.06-2.76,1.54-2.69,3.28h0c.07,1.75,1.38,3.13,2.93,3.07Z"/>
                <path class="cls-10" d="M183.15,177.5l8.81-1.2c1.46-.2,2.43-2,2.16-3.99h0c-.27-2-1.69-3.47-3.15-3.27l-8.81,1.2c-1.46,.2-2.43,2-2.16,3.99h0c.27,2,1.69,3.47,3.15,3.27Z"/>
                <path class="cls-10" d="M182.28,188.26l9.75-.28c1.62-.05,2.9-1.51,2.85-3.26h0c-.05-1.75-1.41-3.14-3.03-3.09l-9.75,.28c-1.62,.05-2.9,1.51-2.85,3.26h0c.05,1.75,1.41,3.14,3.03,3.09Z"/>
                <path class="cls-10" d="M181.48,192.43l8.62,.26c1.43,.04,2.63-1.09,2.68-2.52h0c.04-1.43-1.09-2.63-2.52-2.68l-8.62-.26c-1.43-.04-2.63,1.09-2.68,2.52h0c-.04,1.43,1.09,2.63,2.52,2.68Z"/>
              </g>
              <path class="cls-10" d="M176.18,156.75c-.33-.22-1.34-.9-2.1-.54-.64,.3-.8,1.18-.96,2.16-.24,1.44-.07,2.3,0,3.9,.02,.41,.07,1.9-.06,3.3-.19,2-.74,3.47-1.32,4.98-.71,1.86-.89,1.88-2.27,4.99-.31,.71-.66,1.56-1.09,2.75-.93,2.59-1.05,3.66-1.06,4.5,0,.36,0,2.56,1.04,4.64,2.29,4.56,8.79,6.98,10.39,5.44,1.22-1.17-.25-4.75-1.12-6.32-.81-1.47-1.8-2.46-2.49-3.05,.61-.68,1.23-1.52,1.77-2.54,2.01-3.82,1.51-7.66,1.18-9.32,1.15-2.82,1.29-5.21,1.26-6.66-.02-1.08-.14-6.17-3.18-8.22Z"/>
              <path class="cls-10" d="M169.24,187.18c-1.71,.06-4.08,1.77-6.8,9.52,6,2.27,11.99,4.53,17.99,6.8,.77-3.81,1.55-7.62,2.32-11.43-1.45,.04-3.65-.08-6.08-.96-4.2-1.53-5.33-3.99-7.44-3.92Z"/>
            </g>
            <g>
              <path class="cls-3" d="M182.04,181.16c-.18-.14-.33-.3-.44-.47-.37-.56-.25-1.08-.24-1.1,.03-.1,.13-.16,.23-.14,.1,.03,.16,.13,.14,.23,0,.02-.09,.39,.2,.8,.36,.54,1.18,.91,2.36,1.08,.1,.01,.18,.11,.16,.22-.01,.1-.11,.18-.22,.16-.96-.14-1.69-.4-2.19-.79Z"/>
              <path class="cls-3" d="M180.86,186.61c-.18-.14-.33-.3-.44-.47-.37-.56-.25-1.08-.24-1.1,.03-.1,.13-.16,.23-.14,.1,.03,.16,.13,.14,.23,0,.02-.09,.39,.2,.8,.36,.54,1.18,.91,2.36,1.08,.1,.01,.18,.11,.16,.22-.01,.1-.11,.18-.22,.16-.96-.14-1.69-.4-2.19-.79Z"/>
              <path class="cls-3" d="M180.14,191.62c-.18-.14-.33-.3-.44-.47-.37-.56-.25-1.08-.24-1.1,.03-.1,.13-.16,.23-.14,.1,.03,.16,.13,.14,.23,0,.02-.09,.39,.2,.8,.36,.54,1.18,.91,2.36,1.08,.1,.01,.18,.11,.16,.22-.01,.1-.11,.18-.22,.16-.96-.14-1.69-.4-2.19-.79Z"/>
              <path class="cls-3" d="M180.7,175.34c-.12-.2-.2-.39-.24-.6-.14-.66,.16-1.09,.17-1.11,.06-.09,.18-.11,.27-.04,.08,.06,.1,.18,.04,.26-.01,.02-.22,.33-.11,.82,.14,.63,.77,1.27,1.8,1.86,.09,.05,.12,.17,.07,.26-.05,.09-.17,.12-.26,.07-.85-.48-1.43-.99-1.75-1.53Z"/>
            </g>
          </g>
          <g>
            <path class="cls-50" d="M105.16,161.32c9.23,1.44,19.07,3.18,25.82,9.64,4.95,4.73,7.05,10.4,8.93,15.2,5.69,14.5,3.39,24.05,6.6,25.01,1.97,.59,5.89-2.1,14.56-18.43-.36-.13-.82-.36-.96-.78-.24-.71,.63-1.28,1.5-2.76,1.14-1.94,1.02-3.35,1.8-3.48,.24-.04,.61,.04,1.12,.6,6.9,3.17,13.8,6.33,20.71,9.5,.36,.07,.52,.21,.6,.33,.4,.61-.7,1.41-1.32,3.42-.32,1.03-.32,1.78-.9,2.04-.29,.13-.59,.08-.81,.01-2.28,5.21-5.94,12.76-11.46,21.24-9.13,14.04-16,24.72-23.75,25.46-11.91,1.13-26.1-19.38-35.19-49.57l-7.26-37.43Z"/>
            <path class="cls-50" d="M30.54,174.87c-3.92,2.97-30.13,22.82-27.28,53.59,2.25,24.32,21.09,38.53,24.61,41.1-.38,.44-.73,.98-.6,1.5,.23,.96,1.8,.7,3.9,1.98,1.74,1.06,2.39,2.29,3.42,2.04,.38-.09,.66-.36,.83-.57,4.55-9.34,9.09-18.68,13.64-28.02,.11-.25,.22-.61,.1-.98-.25-.78-1.31-.77-2.82-1.44-2.14-.94-2.91-2.24-3.72-1.86-.33,.15-.49,.51-.58,.78-1.83-1.26-4.38-3.32-6.63-6.49-1.43-2.01-6.61-9.2-4.63-16.81,1.86-7.14,9.08-12.57,18.03-13.64,1.65,6.18,2.9,11.48,3.81,15.6,1.51,6.8,2.07,9.96,2.34,12.85,.38,4.13,.47,7.54,.6,8.52,.29,2.25-8.12,65.83-11.05,74.16,23.08,1.23,31.66,9.74,97.15,1.89-.07-8.86-13.8-70.36-13.8-70.36,0,0,2.6-37.52,2.15-46.37,3.81,10.31-23.64-43.11-24.38-44.19-.39-.57-1.17-5.84-1.46-7.8-4.32,4.07-8.64,8.14-12.96,12.21-8.53-3.62-17.06-7.23-25.59-10.85-.54,3.18-1.08,6.36-1.62,9.55-7.19,.98-20.56,3.83-33.45,13.61Z"/>
            <path class="cls-51" d="M93.62,168.8c0,.9-.73,1.62-1.62,1.62s-1.62-.73-1.62-1.62,.73-1.62,1.62-1.62,1.62,.73,1.62,1.62Z"/>
            <g>
              <path class="cls-36" d="M85.92,162.74c3.97,1.58,7.94,3.16,11.91,4.74-.19-.25-.39-.51-.58-.76,.51,13.03,1.02,26.05,1.53,39.08,.39,9.93,.82,19.86,1.07,29.8,.23,9.21,.37,18.43,.45,27.65,.08,9.78,.09,19.56,0,29.33-.08,8.4-.22,16.81-.59,25.21-.04,.87-.08,1.74-.12,2.6-.05,1.02,1.53,1.02,1.59,0,.41-8.13,.57-16.28,.68-24.42,.12-9.67,.13-19.35,.07-29.02-.06-9.38-.19-18.77-.4-28.15-.22-9.42-.59-18.84-.96-28.26-.51-12.97-1.01-25.95-1.52-38.92-.06-1.63-.13-3.26-.19-4.88-.01-.38-.24-.63-.58-.76-3.97-1.58-7.94-3.16-11.91-4.74-.95-.38-1.36,1.16-.42,1.53h0Z"/>
              <path class="cls-36" d="M88.32,170.67c-.09,12.7-.19,25.4-.28,38.1-.06,8.17-.14,16.35-.2,24.52-.06,9.65-.1,19.31-.06,28.96,.04,9.7,.15,19.39,.42,29.08,.23,8.44,.56,16.89,1.22,25.31,.07,.9,.15,1.79,.22,2.69,.09,1.01,1.68,1.02,1.59,0-.73-8.2-1.09-16.44-1.35-24.67-.3-9.57-.43-19.15-.5-28.72-.06-9.74-.04-19.47,.02-29.21,.05-8.45,.13-16.9,.2-25.35,.1-12,.18-23.99,.27-35.99,.01-1.58,.02-3.15,.03-4.73,0-1.02-1.58-1.02-1.59,0h0Z"/>
              <path class="cls-36" d="M120.63,166.57c1.54,4.63,2.83,9.34,3.88,14.11,1.03,4.72,1.83,9.49,2.4,14.28,.58,4.85,.94,9.73,1.1,14.62,.16,4.87,.12,9.75-.09,14.62-.21,4.89-.6,9.78-1.15,14.65-.07,.6-.14,1.19-.21,1.79-.05,.43,.4,.79,.79,.79,.47,0,.74-.37,.79-.79,.58-4.86,1.01-9.74,1.27-14.63,.26-4.92,.34-9.84,.22-14.76-.12-4.89-.43-9.77-.96-14.63-.53-4.87-1.28-9.73-2.26-14.53-.99-4.8-2.22-9.55-3.7-14.22-.18-.57-.37-1.14-.56-1.71-.32-.96-1.85-.55-1.53,.42h0Z"/>
              <path class="cls-36" d="M114.72,195.85c-3.09,.19-6.18,.39-9.26,.58-.38,.02-.76,.05-1.14,.07-.34,.02-.69,.01-1.02,.09-.35,.09-.65,.29-.8,.64-.14,.34-.1,.72-.08,1.08,.07,1.56,.17,3.12,.28,4.67,.23,3.15,.54,6.3,.94,9.43,.19,1.55,.41,3.09,.64,4.64,.05,.33,.09,.68,.27,.97,.19,.3,.48,.49,.82,.57,.34,.08,.7,.11,1.05,.14,.66,.07,.76,.08,1.16,.11,1.98,.14,6.2-.05,6.2-.05,.73-.03,2.08-.09,3.88-.17,.13-.24,.26-.48,.39-.72-4.49,.26-7.83,.23-8.97,.16-1.01-.06-1.42-.1-2.19-.17-.36-.03-.73-.07-1.09-.11-.2-.03-.43-.07-.52-.23-.14-.23-.14-.59-.18-.86-.06-.37-.11-.74-.16-1.11-.11-.75-.21-1.51-.31-2.26-.4-3-.72-6.01-.96-9.02-.12-1.48-.22-2.96-.3-4.44-.02-.39-.04-.77-.06-1.16,0-.17-.02-.34-.02-.51,0-.17-.03-.36,0-.53,0-.03,0-.04,.03-.08,.07-.14,.04-.05,.03-.04,0,0,.06-.04,.03-.02,.1-.05,.2-.07,.33-.09,.13-.02,.26-.02,.41-.03,.19-.01,.38-.02,.57-.04,2.97-.19,5.94-.37,8.91-.56,.37-.02,.74-.05,1.1-.07,.23-.01,.44-.16,.45-.42,.01-.22-.17-.48-.41-.47Z"/>
              <path class="cls-36" d="M103.45,198.04c.29-.29,.13-.82-.29-.84-.41-.03-.62,.43-.44,.78,.12,.23,.31,.44,.47,.65,.16,.21,.33,.42,.5,.62,.68,.82,1.43,1.58,2.24,2.26,1.67,1.4,3.66,2.4,5.8,2.73,1.22,.18,2.47,.13,3.66-.19,.22-.06,.38-.28,.33-.53-.05-.23-.29-.4-.51-.34-1.8,.49-3.69,.3-5.42-.36-1.67-.64-3.15-1.72-4.41-3-.35-.35-.68-.73-1-1.11-.16-.2-.32-.39-.48-.6-.07-.1-.15-.19-.22-.29-.04-.05-.07-.1-.11-.15-.02-.02-.07-.15-.06-.07v.24s0-.03,0-.04c-.04,.06-.08,.13-.12,.19,0,0,.01-.01,.02-.02-.1,.04-.21,.07-.31,.11,0,0,.02,0,.03,0-.07-.02-.14-.05-.21-.07-.01-.01-.03-.03-.04-.04-.03-.07-.07-.13-.1-.2,0,0,0,.01,0,.02,.04-.14,.09-.28,.13-.42,0,0-.01,.01-.02,.02-.4,.39,.17,1.06,.57,.66h0Z"/>
              <path class="cls-36" d="M41.76,181.32c2.11,3.53,3.72,7.32,4.98,11.23,1.28,3.95,2.23,7.99,3.05,12.05,.47,2.31,.9,4.63,1.32,6.95,.08,.42,.59,.66,.98,.55,.44-.12,.63-.55,.55-.98-.76-4.11-1.39-7.7-2.51-12.32-.98-4.05-2.18-8.05-3.8-11.89-.93-2.2-1.99-4.34-3.21-6.39-.52-.88-1.89-.08-1.37,.8h0Z"/>
              <path class="cls-36" d="M46.96,181.64c1.68,5.15,2.68,10.51,2.95,15.92,.08,1.55,.09,3.1,.05,4.65-.03,1.02,1.56,1.02,1.59,0,.14-5.78-.34-10.63-1.78-16.52-.37-1.5-.8-2.99-1.27-4.47-.13-.41-.55-.67-.98-.55-.4,.11-.69,.57-.55,.98h0Z"/>
              <path class="cls-36" d="M129.33,178.32c.38,4.6,.12,9.25-.82,13.78-.27,1.29-.59,2.56-.96,3.82-.29,.98,1.24,1.4,1.53,.42,1.33-4.54,2.01-9.29,2-14.02,0-1.33-.06-2.67-.17-4-.04-.43-.34-.79-.79-.79-.4,0-.83,.36-.79,.79h0Z"/>
              <path class="cls-36" d="M26.6,240.52v7.05c0,1.02,1.59,1.02,1.59,0v-7.05c0-1.02-1.59-1.02-1.59,0h0Z"/>
              <path class="cls-36" d="M30.88,244.28c-.96,1.66-1.15,3.75-.43,5.54,.15,.38,.54,.7,.98,.55,.37-.12,.72-.56,.55-.98-.15-.38-.26-.77-.33-1.17-.01-.1-.02-.11,0-.03,0-.05-.01-.11-.02-.16,0-.11-.02-.22-.02-.32,0-.19,0-.38,0-.57,0-.11,.02-.22,.03-.32-.02,.14,.02-.11,.02-.11,.04-.21,.09-.42,.15-.63,.02-.08,.05-.15,.08-.23,0-.03,.11-.3,.07-.19,.08-.2,.19-.39,.29-.58,.21-.36,.1-.88-.28-1.08-.38-.2-.86-.1-1.08,.28h0Z"/>
              <path class="cls-36" d="M144.08,232.42c.21,1.26,.42,2.51,.63,3.77,.07,.41,.6,.68,.98,.55,.44-.14,.63-.54,.55-.98-.21-1.25-.42-2.51-.63-3.76-.07-.41-.6-.68-.98-.55-.44,.14-.63,.54-.55,.98h0Z"/>
              <path class="cls-36" d="M146.83,232.64c-.22,1.84,.13,3.71,.94,5.37,.18,.37,.74,.5,1.08,.28,.38-.25,.48-.68,.28-1.08-.17-.36-.28-.63-.41-1.04-.12-.39-.22-.79-.29-1.2-.05-.28-.09-.72-.09-1.1,0-.41,.02-.82,.07-1.23,.05-.41-.4-.81-.79-.79-.47,.02-.74,.35-.79,.79h0Z"/>
              <path class="cls-36" d="M111.76,195.99c3.09-.09,6.18-.18,9.28-.27,.38-.01,.76-.02,1.14-.03,.34,0,.69-.05,1.03,0,.36,.06,.67,.23,.85,.57,.18,.32,.17,.71,.18,1.07,.07,1.56,.12,3.12,.15,4.68,.06,3.16,.04,6.32-.06,9.48-.05,1.56-.12,3.12-.21,4.68-.02,.33-.03,.68-.18,.99-.16,.32-.43,.53-.76,.65-.33,.11-.69,.17-1.03,.24-.65,.13-.71,.14-1.15,.21-3.3,.54-7.59,.64-7.59,.64-.69,.02-1.63,.03-2.76,.01-.02-.21-.04-.41-.07-.62,4.44-.17,7.72-.5,8.85-.67,1.02-.16,1.41-.23,2.16-.37,.36-.07,.72-.13,1.08-.21,.19-.04,.42-.11,.5-.27,.12-.24,.09-.6,.1-.87,.02-.37,.04-.75,.06-1.12,.04-.76,.07-1.52,.1-2.28,.12-3.02,.16-6.05,.12-9.07-.02-1.48-.05-2.97-.11-4.45-.01-.39-.03-.77-.05-1.16,0-.17-.01-.34-.02-.51,0-.17,0-.36-.05-.53-.01-.03,0-.04-.03-.08-.09-.14-.04-.04-.03-.04,0,0-.06-.03-.03-.02-.1-.04-.2-.05-.34-.06-.13,0-.26,0-.41,0-.19,0-.38,.01-.57,.02-2.97,.09-5.95,.17-8.92,.26-.37,.01-.74,.02-1.11,.03-.23,0-.45-.12-.49-.37-.03-.22,.13-.5,.36-.5Z"/>
              <path class="cls-36" d="M123.18,197.14c-.32-.26-.2-.8,.21-.87,.41-.07,.66,.37,.51,.74-.1,.24-.27,.47-.41,.69-.14,.22-.29,.45-.44,.66-.6,.88-1.28,1.7-2.02,2.46-1.54,1.55-3.42,2.73-5.52,3.25-1.19,.3-2.45,.36-3.66,.14-.23-.04-.4-.25-.38-.49,.03-.23,.25-.43,.48-.39,1.83,.32,3.7-.04,5.37-.86,1.6-.79,2.98-2,4.12-3.39,.32-.39,.61-.79,.9-1.2,.14-.21,.29-.42,.42-.64,.07-.1,.13-.21,.19-.31,.03-.05,.06-.1,.1-.16,.01-.02,.06-.15,.05-.08l.03,.23s-.01-.03-.02-.04c.05,.06,.09,.12,.14,.18,0,0-.01,0-.02-.01,.11,.03,.21,.05,.32,.08,0,0-.02,0-.03,0,.07-.03,.14-.06,.21-.09,.01-.02,.03-.03,.04-.05,.03-.07,.05-.14,.08-.21,0,0,0,.01,0,.02-.06-.14-.12-.27-.17-.41,0,0,.01,0,.02,.01,.43,.36-.07,1.07-.51,.71h0Z"/>
            </g>
            <path class="cls-51" d="M98.7,287.97c0,.9-.73,1.62-1.62,1.62s-1.62-.73-1.62-1.62,.73-1.62,1.62-1.62,1.62,.73,1.62,1.62Z"/>
            <path class="cls-51" d="M99.42,306.32c0,.9-.73,1.62-1.62,1.62s-1.62-.73-1.62-1.62,.73-1.62,1.62-1.62,1.62,.73,1.62,1.62Z"/>
            <g>
              <g>
                <path class="cls-35" d="M90.35,197.96c3.06-11.78,6.15-23.26,9.23-34.84,2.14-.1,4.29-.15,6.43-.25-4.42,11.62-8.86,23.02-13.26,34.9l-2.4,.18Z"/>
                <g>
                  <g>
                    <path class="cls-7" d="M81.57,209.02l1.11,14.55,19.14-1.46-1.15-15.13c-1.78,1.91-5.85,3.31-9.85,3.61-3.54,.27-7.22-.3-9.24-1.57Z"/>
                    <path class="cls-4" d="M80.64,196.78l.93,12.24c2.02,1.27,5.7,1.84,9.24,1.57,4-.31,8.07-1.7,9.85-3.61l-.89-11.66-19.14,1.46Z"/>
                  </g>
                  <circle class="cls-8" cx="92.07" cy="211.27" r="6.73"/>
                  <g>
                    <path class="cls-2" d="M89.8,200c.23-.11,.49-.18,.76-.18,.83,0,1.54,.62,1.67,1.43,.16,1.04-.64,1.97-1.69,1.96-.83,0-1.55-.62-1.67-1.45-.09-.6,.15-1.17,.56-1.53,.04-.03,.04-.1,.01-.14-.54-.66-1.41-1.05-2.33-.94-1.39,.16-2.41,1.42-2.29,2.82,.12,1.43,1.37,2.49,2.8,2.38,.44-.03,.84-.17,1.19-.39,.06-.04,.07-.12,0-.16-.19-.15-.36-.31-.51-.5-.03-.04-.08-.05-.12-.03-.23,.11-.48,.18-.76,.18-.84,0-1.56-.63-1.68-1.46-.14-.98,.58-1.86,1.55-1.93,.31-.02,.61,.04,.87,.16,.05,.02,.07,.09,.05,.14-.22,.44-.32,.96-.25,1.49,.17,1.31,1.31,2.3,2.62,2.28,1.58-.02,2.78-1.42,2.56-2.99-.18-1.29-1.31-2.25-2.6-2.24-.51,0-.98,.15-1.37,.4-.06,.04-.07,.12,0,.16,.19,.15,.36,.31,.51,.5,.03,.04,.08,.05,.13,.03"/>
                    <path class="cls-2" d="M96.55,198.58l.38,4.96s.04,.09,.09,.09c.25,.02,.5,0,.74-.06,.05-.01,.08-.06,.08-.1l-.38-4.96s-.04-.09-.09-.09c-.25-.02-.5,0-.74,.06-.05,.01-.08,.06-.08,.1"/>
                    <path class="cls-2" d="M94.29,198.63c-.37,0-.71,.09-1,.25-.03,.02-.06,.06-.05,.1l.37,4.82s.04,.09,.09,.09c.25,.02,.5,0,.74-.06,.05-.01,.08-.06,.08-.1l-.05-.69c0-.05,.04-.1,.09-.11,1.18-.14,2.04-1.23,1.87-2.44-.15-1.06-1.07-1.86-2.13-1.86m.09,3.29l-.17-2.27c0-.06,.04-.11,.1-.11,.64,0,1.17,.5,1.22,1.15s-.41,1.22-1.03,1.32c-.06,0-.11-.03-.12-.09"/>
                  </g>
                </g>
                <path class="cls-2" d="M92.56,197.8c-4.82-11.18-9.61-22.05-14.41-33.04-2.13,.23-4.26,.5-6.39,.73,6.13,10.82,12.25,21.41,18.4,32.49l2.4-.18Z"/>
              </g>
              <g>
                <g>
                  <g>
                    <path class="cls-31" d="M88.43,213.42s-.48-.58-.85-.4c-.37,.17-.24,1.22,.7,1.74,.56,.26,.79-.45,.15-1.33Z"/>
                    <g>
                      <path class="cls-19" d="M87.68,213.82s0-.02,.03-.04c.01-.01,.02-.03,.04-.04,.02-.02,.04-.03,.07-.04,.03-.01,.06-.02,.1-.02,.02,0,.04,0,.05,0,.02,0,.04,.01,.05,.02,.02,0,.03,.02,.05,.03,.02,.01,.04,.02,.05,.03,.03,.03,.06,.05,.08,.08,.02,.03,.05,.06,.07,.09,.02,.03,.04,.06,.06,.09,.02,.03,.03,.06,.05,.09,.01,.03,.03,.06,.04,.08,.04,.1,.06,.17,.06,.17,0,0-.04-.06-.1-.15-.01-.02-.03-.05-.05-.07-.02-.03-.03-.05-.05-.08-.02-.03-.04-.05-.06-.08-.02-.03-.05-.05-.07-.08-.02-.03-.05-.05-.07-.07-.03-.02-.05-.04-.08-.05-.01,0-.03-.01-.04-.02-.01,0-.03,0-.04,0-.03,0-.05,0-.08,0-.02,0-.05,.01-.07,.02-.02,0-.03,.02-.05,.03-.03,.02-.04,.03-.04,.03Z"/>
                      <path class="cls-19" d="M87.95,214.11s0-.03,.03-.07c.01-.02,.03-.04,.05-.06,.02-.02,.05-.03,.08-.05,.02,0,.03,0,.05,0,.02,0,.03,0,.05,0,.02,0,.03,0,.04,.02,.01,0,.02,.01,.03,.02,.02,.01,.03,.03,.03,.04,0,.01,0,.02,0,.02,0,0,0,0-.02,0,0,0-.01,0-.02,0,0,0-.02,0-.03,0-.04-.01-.08-.01-.12,0-.04,.01-.08,.04-.12,.06-.04,.02-.06,.04-.06,.04Z"/>
                    </g>
                    <g class="cls-18">
                      <path class="cls-31" d="M88.43,213.42s-.48-.58-.85-.4c-.07,.03-.11,.09-.15,.17,.06-.04,.14-.04,.22,0,.34,.16-.31,.41,.1,1.03,.26,.4,.74,.46,.83,.58,.31-.09,.35-.68-.15-1.37Z"/>
                    </g>
                    <path class="cls-15" d="M87.87,213.55c.22-.02,.53,.27,.59,.5,.03,.11,.05,.29-.04,.38-.16,.16-.43-.07-.54-.21-.05-.07-.1-.15-.13-.23,.02,.13,.06,.28,.09,.36,0,.02-.22-.35-.19-.54,.03-.17,.11-.25,.21-.26Z"/>
                  </g>
                  <g>
                    <path class="cls-31" d="M97.05,212.48s.4-.64,.79-.52c.39,.12,.4,1.18-.46,1.82-.52,.33-.85-.34-.33-1.3Z"/>
                    <g>
                      <path class="cls-19" d="M97.85,212.78s-.02-.01-.04-.03c-.01,0-.03-.02-.05-.02-.02,0-.04-.01-.07-.02-.02,0-.05,0-.08,0-.01,0-.03,0-.04,.01-.01,0-.03,.02-.04,.02-.03,.02-.05,.04-.07,.06-.02,.03-.05,.05-.06,.08-.02,.03-.04,.06-.06,.09-.02,.03-.03,.06-.05,.09-.01,.03-.03,.06-.04,.09-.01,.03-.03,.05-.04,.08-.04,.1-.08,.17-.08,.17,0,0,0-.07,.03-.18,0-.03,.02-.06,.03-.09,.01-.03,.02-.06,.03-.09,.01-.03,.03-.06,.04-.1,.02-.03,.04-.07,.06-.1,.02-.03,.05-.06,.07-.09,.01-.02,.03-.03,.04-.04,.02-.01,.03-.02,.05-.03,.02,0,.03-.02,.05-.02,.02,0,.04,0,.05-.01,.04,0,.07,0,.1,0,.03,0,.05,.02,.07,.03,.02,.01,.03,.03,.05,.04,.02,.02,.03,.04,.03,.04Z"/>
                      <path class="cls-19" d="M97.62,213.1s-.02-.01-.06-.03c-.04-.02-.08-.04-.12-.05-.04,0-.08,0-.12,.01,0,0-.02,0-.02,.01,0,0-.01,0-.02,.01-.01,0-.02,0-.02,0,0,0,0,0,0-.02,0-.01,.01-.03,.03-.05,0,0,.02-.02,.03-.03,.01,0,.02-.02,.04-.02,.01,0,.03-.01,.05-.01,.02,0,.03,0,.05,0,.03,0,.06,.02,.08,.04,.02,.02,.04,.03,.05,.05,.03,.03,.03,.06,.03,.06Z"/>
                    </g>
                    <g class="cls-18">
                      <path class="cls-31" d="M97.05,212.48s.4-.64,.79-.52c.07,.02,.13,.07,.17,.15-.07-.03-.14-.02-.22,.03-.31,.21,.36,.37,.04,1.03-.2,.43-.67,.55-.74,.69-.32-.05-.44-.63-.04-1.38Z"/>
                    </g>
                    <path class="cls-15" d="M97.63,212.54c-.22,0-.49,.34-.52,.58-.02,.12,0,.3,.09,.37,.18,.14,.42-.13,.5-.28,.04-.07,.08-.16,.1-.25,0,.13-.03,.28-.04,.37,0,.02,.17-.38,.11-.56-.05-.17-.14-.23-.24-.23Z"/>
                  </g>
                  <path class="cls-44" d="M93.72,217.43c-.21-.51-.08-.77-.11-1.12-.01-.13-.46-.3-1-.31-.75,0-1.2,.29-1.41,.43,.02,.2,.03,.41,.02,.64,0,.32-.03,.61-.07,.86,.3,.06,.66,.11,1.08,.1,.7,0,1.27-.16,1.67-.3-.05-.06-.13-.17-.19-.31Z"/>
                  <path class="cls-31" d="M96.45,209.94c-.22-.36-1.17-1.79-2.97-2.19-2.14-.47-4.43,.77-5.03,2.32-.23,.6-.35,1.6-.28,2.52,.02,.33,.07,.6,.11,.79,0,0,.54,3.83,4.59,3.45,3.46-.35,4.03-3.36,4.02-3.69,.08-.33,.16-.8,.12-1.35-.06-.85-.36-1.5-.56-1.86Z"/>
                  <g class="cls-18">
                    <path class="cls-31" d="M96.97,211.59c-.03-.42-.06-.75-.22-1.16-.21-.52-.51-.86-.74-1.12-.04-.04-.47-.52-1.01-.87-.89-.57-2.5-1.05-4.15-.44-1.41,.52-2.14,1.58-2.37,1.96-.12,.39-.24,.87-.29,1.44-.08,.8,0,1.49,.09,1.99,.05,.29,.34,1.95,1.84,2.89,.66,.42,1.55,.68,2.76,.56,.43-.04,1.52-.16,2.53-1,1.11-.92,1.4-2.12,1.48-2.5,.16-.72,.11-1.34,.08-1.75Zm-3.54,4.98c-1.47,.31-2.53,.06-3.26-.44-.92-.63-1.77-1.81-1.49-2.49,.09-.21,.25-.31,.34-.65,.11-.41,0-.8-.09-1.05,.18-.08,.41-.21,.63-.4,.39-.33,.61-.71,.72-.95,.21,.15,.75,.47,1.52,.5,.69,.02,1.21-.22,1.44-.34,.23,.1,.68,.26,1.26,.24,.6-.02,1.05-.23,1.27-.36-.04,.21-.1,.72,.13,1.28,.15,.36,.37,.61,.52,.74,.04,.28,.17,1.53-.67,2.61-.73,.95-1.75,1.19-2.34,1.31Z"/>
                  </g>
                </g>
                <path class="cls-32" d="M91.74,213.02s.17,.18,.16,.52c-.01,.33,.32,.08,.19-.37-.13-.45-.5-.35-.35-.15Z"/>
                <path class="cls-12" d="M95.73,212.08s-.02,0-.03,.01c-.14,.03-.94-.75-1.85-.14-.26,.17-.35,.09-.36-.05,.61-.58,1.75-.54,2.24,.18Z"/>
                <g>
                  <path class="cls-17" d="M95.44,213.46c.2-.41,.13-.89-.16-1.17-.21-.2-.54-.3-.84-.23-.26,.06-.41,.22-.45,.27-.22,.25-.3,.62-.17,.93,.08,.2,.22,.33,.3,.38,.15-.04,.33-.08,.54-.11,.25-.03,.48-.03,.67-.02-.03,.02-.12,.06-.18,.16-.05,.08-.05,.15-.06,.19,.07-.07,.17-.16,.31-.24,.22-.12,.43-.13,.54-.13-.06-.03-.18-.08-.33-.07-.06,0-.12,.02-.16,.03Z"/>
                  <path class="cls-16" d="M95.52,212.82c.07,.32-.08,.58-.12,.66-.18,0-.38,0-.61,.01-.25,.03-.48,.07-.66,.12-.06-.06-.28-.28-.29-.6-.02-.41,.3-.87,.78-.91,.46-.04,.82,.33,.9,.71Z"/>
                  <path class="cls-1" d="M95.48,212.84c.06,.27-.04,.5-.09,.59-.18,0-.38,.01-.59,.03-.25,.03-.47,.07-.67,.12-.05-.05-.26-.28-.26-.6,0-.37,.28-.76,.69-.82,.46-.07,.84,.31,.92,.68Z"/>
                  <g>
                    <path class="cls-12" d="M94.97,212.97c.04,.25-.13,.48-.38,.51-.25,.03-.48-.15-.52-.4-.04-.25,.13-.48,.38-.51,.25-.03,.48,.15,.52,.4Z"/>
                    <path class="cls-6" d="M94.83,212.99c.02,.16-.09,.3-.24,.32-.16,.02-.3-.1-.32-.25-.02-.16,.09-.3,.24-.32,.16-.02,.3,.1,.32,.25Z"/>
                    <path class="cls-4" d="M94.51,212.85c-.01,.09-.09,.17-.18,.16-.09,0-.15-.08-.14-.17,.01-.09,.09-.17,.18-.16,.09,0,.15,.08,.14,.17Z"/>
                    <path class="cls-4" d="M94.31,213.07s-.03,.05-.05,.05c-.03,0-.05-.02-.04-.05,0-.03,.03-.05,.05-.05,.03,0,.05,.02,.04,.05Z"/>
                  </g>
                  <path class="cls-19" d="M95.12,213.79s.02-.05,.07-.11c.05-.06,.14-.14,.24-.18,.03-.01,.05-.02,.08-.03,.03,0,.05,0,.08-.01,.03,0,.05,0,.07,0,.02,0,.05,0,.07,0,.02,0,.04,0,.05,.01,.02,0,.03,0,.04,.01,.02,0,.03,.01,.03,.01,0,0-.01,0-.04,0-.01,0-.03,0-.04,0-.02,0-.03,0-.05,0-.02,0-.04,0-.06,0-.02,0-.04,0-.07,.01-.02,0-.05,0-.07,.02-.02,0-.05,.01-.07,.03-.02,0-.05,.02-.07,.03-.02,.01-.04,.02-.06,.04-.02,.01-.04,.02-.06,.04-.02,.01-.04,.03-.05,.04-.06,.05-.1,.09-.1,.09Z"/>
                  <g>
                    <path class="cls-4" d="M95.58,213.63s-.01,.13-.1,.2c-.09,.07-.19,.08-.22,.04-.03-.04,.01-.13,.1-.2,.09-.07,.19-.09,.22-.04Z"/>
                    <path class="cls-4" d="M95.8,213.55s-.02,.06-.06,.07c-.04,.01-.07,0-.08-.03,0-.03,.02-.06,.06-.07,.04-.01,.07,0,.08,.03Z"/>
                  </g>
                </g>
                <g>
                  <path class="cls-19" d="M91.24,215.16c.07,.02,.15,.04,.23,.05,0,0,.02,0,.03,0,.85-.13,1.71-.26,2.56-.39,.03-.02,.07-.05,.1-.09,.05-.05,.08-.09,.11-.13-.02,.05-.04,.1-.07,.16-.03,.04-.05,.08-.08,.12-.21,.67-.71,1.16-1.27,1.21-.38,.04-.69-.12-.75-.15-.27-.14-.48-.38-.63-.69l-.23-.1Z"/>
                  <path class="cls-9" d="M93,216.02c.57-.1,.94-.61,1.06-1.14-.83,.18-1.69,.25-2.53,.38,.28,.59,.82,.88,1.47,.76Z"/>
                  <path class="cls-4" d="M92.75,215.41c-.35,.02-.73,.01-1.02-.18,.74-.11,1.5-.18,2.23-.33-.14,.47-.8,.49-1.21,.51Z"/>
                  <path class="cls-24" d="M92.11,215.89c.2-.12,.42-.17,.64-.19,.27-.03,.58-.07,.84,.01-.16,.15-.36,.26-.6,.3-.33,.06-.63,.01-.89-.12,0,0,0,0,0,0Z"/>
                </g>
                <path class="cls-12" d="M88.1,213.12c.06,.05,.16,.14,.24,.29,.06,.13,.08,.25,.08,.32,.09-.05,.42-.25,.57-.67,.2-.6-.17-1.12-.21-1.16,.21-.12,.45-.28,.7-.51,.37-.34,.62-.68,.78-.95,.26,.17,.91,.52,1.79,.5,.55-.02,.97-.17,1.23-.29,.23,.09,.56,.2,.97,.21,.78,.03,1.37-.27,1.62-.43-.04,.25-.16,1.23,.48,2.01,.17,.2,.35,.35,.51,.45,.05-.11,.09-.22,.14-.33,.15-.44,.34-1.19,.25-2.12-.06-.61-.22-1.1-.36-1.45-.06-.63-.3-1.02-.46-1.22-.72-.92-2.2-1.2-3.71-.67-.27-.29-.84-.82-1.66-.91-1.55-.17-3.08,1.17-3.35,2.62-.1,.52-.01,.97,.06,1.24-.07,.28-.12,.63-.12,1.02,0,.89,.24,1.61,.43,2.04Z"/>
                <g class="cls-22">
                  <path class="cls-4" d="M88.7,211.82c-.07,.04-.16,.09-.29,.12-.24,.05-.44,0-.53-.04,.09-.09,.21-.22,.29-.41,.24-.55-.04-1.09-.08-1.18,.08,.07,.31,.32,.36,.72,.04,.32-.06,.57-.11,.67,.11-.01,.27-.05,.45-.14,.28-.15,.44-.37,.51-.48-.01,.09-.06,.32-.25,.52-.13,.13-.27,.2-.35,.23Z"/>
                  <path class="cls-4" d="M95.52,210.5c.12-.03,.3-.1,.47-.25,.36-.31,.43-.73,.45-.85-.11,.06-.28,.14-.49,.18-.3,.06-.54,.02-.69-.01,.09,.05,.25,.13,.46,.17,.19,.03,.34,0,.44-.01-.1,.17-.23,.38-.43,.57-.08,.08-.15,.14-.22,.2Z"/>
                  <path class="cls-4" d="M92.68,210.77c.14-.03,.32-.08,.52-.18,.41-.22,.64-.53,.75-.71-.09,0-.28-.01-.47-.11-.22-.11-.34-.28-.39-.35,.02,.08,.06,.22,.18,.37,.11,.14,.25,.21,.32,.24-.13,.15-.3,.33-.52,.49-.13,.1-.26,.19-.38,.26Z"/>
                </g>
                <path class="cls-5" d="M92.87,208.64c-.06-.13-.08-.25-.1-.55-.01-.19-.02-.44-.02-.74,.07,.04,.19,.1,.35,.13,.28,.05,.4-.06,.77-.1,.24-.03,.5-.05,.75,.08,.21,.11,.33,.29,.39,.41-.31-.27-.56-.33-.74-.33-.21,0-.33,.06-.78,.15-.22,.04-.4,.06-.52,.08,0,.22,.01,.47,.06,.75,.03,.18,.07,.35,.11,.49-.08-.07-.19-.19-.27-.36Z"/>
                <path class="cls-29" d="M91.85,214.44s.13-.63,.63-.72c.28-.05,.59,.09,.78,.36-.21-.17-.51-.34-.8-.27-.41,.1-.6,.64-.6,.63Z"/>
                <g>
                  <path class="cls-17" d="M89.81,213.89c-.28-.37-.3-.85-.06-1.18,.17-.24,.47-.4,.78-.39,.26,.01,.44,.14,.5,.18,.26,.2,.41,.55,.35,.88-.04,.22-.16,.36-.22,.43-.16-.01-.34-.02-.55,0-.25,.02-.48,.06-.66,.11,.04,0,.13,.04,.21,.13,.06,.07,.08,.14,.09,.18-.08-.06-.2-.13-.35-.17-.24-.07-.45-.05-.56-.03,.05-.04,.16-.11,.31-.13,.06,0,.12,0,.16,0Z"/>
                  <path class="cls-16" d="M89.61,213.27c0,.33,.19,.56,.25,.63,.17-.04,.37-.08,.6-.1,.26-.02,.48-.02,.67,0,.05-.07,.22-.33,.17-.65-.06-.41-.46-.8-.94-.74-.46,.05-.74,.49-.75,.87Z"/>
                  <path class="cls-1" d="M89.65,213.29c0,.28,.14,.48,.2,.56,.18-.03,.37-.06,.59-.08,.25-.02,.48-.02,.68-.01,.04-.06,.2-.32,.14-.64-.07-.36-.42-.69-.83-.67-.46,.02-.76,.46-.77,.85Z"/>
                  <g>
                    <path class="cls-12" d="M91.07,213.23c.04,.25-.13,.48-.38,.51-.25,.03-.48-.15-.52-.4-.04-.25,.13-.48,.38-.51,.25-.03,.48,.15,.52,.4Z"/>
                    <path class="cls-6" d="M90.94,213.25c.02,.16-.09,.3-.24,.32-.16,.02-.3-.1-.32-.25-.02-.16,.09-.3,.24-.32,.16-.02,.3,.1,.32,.25Z"/>
                    <path class="cls-4" d="M90.61,213.11c-.01,.09-.09,.17-.18,.16-.09,0-.15-.08-.14-.17,.01-.09,.09-.17,.18-.16,.09,0,.15,.08,.14,.17Z"/>
                    <path class="cls-4" d="M90.41,213.33s-.03,.05-.05,.05c-.03,0-.05-.02-.04-.05,0-.03,.03-.05,.05-.05,.03,0,.05,.02,.04,.05Z"/>
                  </g>
                  <path class="cls-19" d="M90.19,214.15s-.03-.05-.09-.1c-.06-.05-.16-.11-.27-.13-.03,0-.05,0-.08-.01-.03,0-.05,0-.08,0-.03,0-.05,0-.07,.01-.02,0-.04,.01-.06,.02-.02,0-.04,.01-.05,.02-.01,0-.03,.02-.04,.02-.02,.01-.03,.02-.03,.02,0,0,.01,0,.04,0,.01,0,.02,0,.04,0,.02,0,.03,0,.05,0,.02,0,.04,0,.06,0,.02,0,.04,0,.07,0,.02,0,.05,0,.07,0,.03,0,.05,0,.07,.01,.02,0,.05,.01,.07,.02,.02,0,.05,.02,.07,.02,.02,0,.04,.02,.06,.03,.02,0,.04,.02,.06,.03,.07,.04,.11,.07,.11,.07Z"/>
                  <g>
                    <path class="cls-4" d="M89.71,214.08s.04,.13,.14,.18c.1,.05,.2,.05,.23,0,.02-.05-.04-.13-.14-.17-.1-.05-.2-.05-.23,0Z"/>
                    <path class="cls-4" d="M89.47,214.05s.03,.06,.07,.06c.04,0,.07-.01,.07-.04,0-.03-.03-.06-.07-.06-.04,0-.07,.01-.07,.04Z"/>
                  </g>
                </g>
                <path class="cls-12" d="M88.96,212.38s.02,0,.03,0c.12,0,.66-.9,1.54-.47,.25,.12,.31,.02,.29-.11-.61-.46-1.57-.21-1.86,.58Z"/>
              </g>
            </g>
            <path class="cls-36" d="M89.44,163.19c-1.18,1.25-2.45,2.79-3.68,4.64-1.97,2.97-3.21,5.8-4,8.08-1.99-.71-4.26-1.7-6.64-3.12-5.09-3.03-8.51-6.7-10.63-9.44,.53-3.6,1.07-7.2,1.6-10.79,7.78,3.54,15.57,7.09,23.35,10.63Z"/>
            <path class="cls-36" d="M91.76,162.95c4.08-3.78,8.16-7.57,12.23-11.35,.37,2.11,.75,4.21,1.12,6.32l2,4c-.41,1.78-1.16,4.15-2.56,6.72-1.52,2.79-3.28,4.81-4.64,6.16-.24-2.88-.48-5.76-.72-8.64-2.48-1.07-4.96-2.13-7.44-3.2Z"/>
            <path class="cls-36" d="M47.55,316.88c11.27,.46,22.01,3.37,33.95,3.36,1.71,0,1.71-1.92,0-1.92-11.94,.01-22.61-2.89-33.89-3.36-1.23-.05-1.3,1.87-.06,1.92h0Z"/>
            <path class="cls-36" d="M100.3,320.92c2.28,.39,4.91-.63,7.23-.8,2.74-.2,5.53-.34,8.28-.38,7.15-.11,14.31-.85,21.45-.82,1.23,0,1.24-1.92,0-1.92-6.89-.02-13.86,.59-20.76,.81-2.45,.08-4.91,.18-7.36,.29s-6.15,1.34-8.33,.97c-1.21-.21-1.73,1.64-.51,1.85h0Z"/>
            <path class="cls-36" d="M48.13,315.13c-.19-.29-.2-.03-.04,.77,.06-.09,.04-.07-.07,.07,.1-.11,.2-.24,.29-.37,.15-.22,.25-.48,.33-.74,.11-.38,.14-.79,.23-1.18,.1-.41,.28-.79,.4-1.2,.13-.48,.2-.99,.22-1.49,.02-.57-.52-1.12-1.09-1.09-.61,.03-1.07,.48-1.09,1.09,0,.11-.01,.22-.02,.34,0,.04-.03,.12-.02,.16-.02-.05,.03-.21,0-.05-.04,.22-.09,.44-.16,.66-.14,.45-.32,.87-.41,1.34-.04,.21-.06,.41-.11,.62-.02,.1-.05,.2-.08,.3-.05,.17,0-.04,.03-.05-.01,0-.07,.12-.08,.14-.06,.12,.04-.05,.06-.08-.03,.03-.05,.07-.08,.1-.14,.17-.23,.31-.31,.5-.17,.4-.14,.89,.12,1.25,.33,.47,.97,.73,1.49,.39,.46-.3,.75-1,.39-1.49h0Z"/>
            <path class="cls-36" d="M89.64,318.93c-.18,.13-.83-.05-1.02-.08-.58-.1-1.14-.25-1.73-.29-1.23-.07-1.23,1.85,0,1.92,1.11,.06,2.68,.84,3.72,.11s.04-2.37-.97-1.66h0Z"/>
            <path class="cls-36" d="M34.21,273.1c.89-4.55,4.48-9.42,6.62-13.41s3.49-8.31,6.1-11.91c.58-.8-.75-1.57-1.33-.77-2.56,3.54-3.93,7.82-5.99,11.65-2.28,4.24-5.94,9.25-6.88,14.04-.19,.97,1.29,1.38,1.48,.41h0Z"/>
            <path class="cls-36" d="M40.57,249.01c-2.75,4.44-4.58,9.07-6.84,13.75-.43,.89,1.02,1.38,1.45,.51,2.2-4.54,3.99-9.08,6.66-13.4,.52-.84-.75-1.7-1.27-.86h0Z"/>
            <path class="cls-36" d="M179.79,199.11c-1.62-1.61-5.29-2.55-7.58-3.56-1.54-.68-3-1.44-4.57-2.11-1.46-.62-3.24-.99-4.6-1.69-.83-.43-1.65,.53-.82,.95,2.71,1.39,6.01,2.24,8.83,3.61,2.25,1.1,6,1.93,7.62,3.54,.6,.6,1.72-.16,1.13-.76h0Z"/>
            <path class="cls-36" d="M182.63,197.21c-1.19-1.19-3.89-1.87-5.57-2.62-1.13-.5-2.21-1.06-3.36-1.55-1.08-.46-2.38-.73-3.38-1.24-.61-.31-1.21,.39-.61,.7,1.99,1.03,4.42,1.64,6.49,2.66,1.66,.81,4.41,1.42,5.61,2.61,.44,.44,1.27-.12,.83-.56h0Z"/>
            <g>
              <path class="cls-4" d="M112.06,207.96c.28-.13,.59-.21,.92-.2,1,.01,1.86,.77,2.01,1.76,.18,1.26-.8,2.38-2.07,2.36-1.01-.01-1.87-.78-2.01-1.77-.1-.73,.19-1.41,.7-1.85,.05-.04,.05-.12,.02-.17-.65-.81-1.69-1.29-2.81-1.17-1.68,.18-2.94,1.69-2.81,3.38,.13,1.73,1.63,3.04,3.37,2.92,.53-.03,1.02-.2,1.44-.46,.07-.04,.08-.15,.01-.2-.23-.18-.44-.39-.62-.62-.04-.05-.1-.06-.15-.03-.28,.13-.59,.21-.92,.2-1.02-.01-1.88-.79-2.01-1.79-.16-1.19,.72-2.24,1.9-2.32,.37-.02,.73,.05,1.05,.21,.06,.03,.08,.1,.05,.17-.27,.54-.39,1.15-.32,1.8,.18,1.58,1.55,2.8,3.15,2.8,1.92,0,3.39-1.68,3.14-3.59-.21-1.56-1.55-2.75-3.13-2.75-.61,0-1.18,.17-1.66,.46-.07,.04-.08,.15-.01,.2,.23,.18,.44,.39,.62,.62,.04,.05,.1,.06,.15,.04"/>
              <path class="cls-4" d="M120.26,206.32l.4,6.02c0,.06,.05,.11,.11,.11,.3,.02,.6,0,.9-.06,.06-.01,.1-.07,.09-.13l-.4-6.02c0-.06-.05-.11-.11-.11-.3-.02-.6,0-.9,.06-.06,.01-.1,.07-.09,.13"/>
              <path class="cls-4" d="M117.53,206.35c-.44,0-.86,.1-1.22,.29-.04,.02-.07,.07-.06,.12l.39,5.84c0,.06,.05,.11,.11,.11,.3,.02,.6,0,.9-.06,.06-.01,.1-.07,.09-.13l-.06-.83c0-.07,.04-.12,.11-.13,1.44-.16,2.49-1.47,2.3-2.93-.16-1.28-1.27-2.27-2.56-2.27m.06,3.99l-.18-2.75c0-.07,.05-.13,.12-.13,.77,.02,1.42,.62,1.47,1.41s-.51,1.47-1.27,1.59c-.07,.01-.13-.04-.14-.11"/>
            </g>
            <g class="cls-20">
              <path class="cls-14" d="M44.24,323.99c2.16-8.4,5.04-20.29,7.96-34.68,3.92-19.36,5.88-29.27,5.97-40.65,.07-9.2-.88-22.68-5.97-38.94,1.8-2.37,3.6-4.74,5.4-7.11,11.12,25.16,11.59,44.67,10.52,56.56-1.07,11.89-4.54,25.43-9.95,46.61-2.35,9.18-4.47,16.73-5.97,21.89-2.65-1.23-5.31-2.46-7.96-3.7Z"/>
              <path class="cls-14" d="M24.63,274.25c1.73-2.09,3.63-4.74,5.4-7.96,1.34-2.44,2.36-4.76,3.13-6.82-4.45-1.98-12.3-6.33-17.91-15.06-9.58-14.91-5.32-31.22-4.26-35.25,2.06-7.9,5.72-13.67,8.24-17.05-4.06,2.96-10.91,8.75-15.92,18.19-1.59,2.99-13.98,27.26-.85,47.47,6.63,10.2,16.68,14.63,22.17,16.49Z"/>
              <path class="cls-14" d="M108.77,314.89c2.64,.82,13.2,3.85,18.76-1.42,5.2-4.94,3.08-14.38,.57-25.58-2.44-10.88-6.38-19.29-9.38-24.73,10.68,5.04,16.09,11.26,19.04,15.92,7.16,11.3,3.12,18.56,11.65,40.08,2.49,6.27,3.66,7.75,2.84,10.23-3.99,12.07-44.69,16.22-52.3,1.71-1.04-1.97-3.21-7.64,2.56-18.76,2.08,.85,4.17,1.71,6.25,2.56Z"/>
            </g>
          </g>
          <g class="cls-42">
            <path class="cls-30" d="M143.2,195.56c-.01,.05-.03,.1-.04,.16-.15,.72-.31,1.43-.49,2.15-1.03,4.03-2.48,7.96-4.3,11.7-.71,1.45-1.31,2.53-1.54,2.96-1.69,3.03-4.03,6.57-7.27,10.25-.24,3.61-.48,7.21-.72,10.82,3.58-5.06,6.39-9.42,8.42-12.7,0,0,5.25-7.59,8.04-15.11,1.15-3.09,2.04-6.29,2.71-9.52,0-.04,.01-.09,.02-.14l-4.82-.56Z"/>
            <path class="cls-30" d="M145.87,204.56c-.32,3.45-1.07,6.85-2.16,10.14-1.55,4.46-3.67,8.7-6.12,12.73-.68,1.11-1.39,2.21-2.11,3.29-2.09,3.08-4.35,6.05-6.69,8.95-.8,.99-.83,2.59,.22,3.44,.99,.8,2.58,.84,3.44-.22,3.7-4.57,7.19-9.34,10.18-14.41,2.94-4.99,5.33-10.33,6.79-15.94,.69-2.67,1.12-5.38,1.32-8.12l-4.86,.14Z"/>
          </g>
          <g class="cls-27">
            <path class="cls-51" d="M133.72,252.42c-3.06,1.06-6.15,2.01-9.26,2.87-5.62,1.52-11.31,2.71-17.05,3.57-5.84,.87-11.73,1.41-17.62,1.59-3.19,.1-6.39,.1-9.58,0-7.06-.26-14.11-1.01-21.09-2.27-1.99-.36-3.98-.76-5.96-1.2-1.39-.31-2.93,.9-3.09,2.51-.16,1.68,.77,3.19,2.26,3.52,5.7,1.26,11.45,2.2,17.22,2.79,5.96,.61,11.95,.87,17.93,.8,5.79-.07,11.58-.47,17.33-1.21,5.75-.73,11.46-1.8,17.11-3.19,3.96-.98,7.89-2.1,11.77-3.38l.05-6.4Z"/>
            <path class="cls-30" d="M36.24,220.21c-.05,0-.11,.01-.16,.02-.72,.13-1.45,.24-2.17,.34-4.13,.53-8.31,.64-12.46,.33-1.11-.08-2.21-.2-3.32-.34-4.16-.58-8.25-1.57-12.21-2.97-1.06-.37-2.1-.78-3.14-1.21-1.95-.84-3.86-1.77-5.71-2.81-1.11-.62-2.71-.3-3.33,.87-.61,1.15-.31,2.67,.87,3.33,4.98,2.79,10.36,4.91,15.9,6.27,5.55,1.36,11.31,2.02,17.02,1.88,3.3-.08,6.59-.43,9.84-1,.04,0,.09-.02,.13-.04l-1.27-4.69Z"/>
            <path class="cls-30" d="M35.9,209.98c-3.45,.35-6.93,.26-10.37-.18-4.67-.66-9.24-1.93-13.66-3.57-1.22-.45-2.43-.94-3.64-1.44-3.43-1.46-6.77-3.11-10.07-4.85-1.12-.6-2.7-.32-3.33,.87-.6,1.13-.33,2.69,.87,3.33,5.19,2.76,10.54,5.27,16.09,7.23,5.46,1.93,11.16,3.25,16.95,3.61,2.75,.17,5.49,.07,8.22-.26l-1.07-4.75Z"/>
            <path class="cls-30" d="M134.12,246.41c-3.06,1.06-6.15,2.01-9.26,2.87-5.62,1.52-11.31,2.71-17.05,3.57-5.84,.87-11.73,1.41-17.62,1.59-3.19,.1-6.39,.1-9.58,0-7.06-.26-14.11-1.01-21.09-2.27-1.99-.36-3.98-.76-5.96-1.2-1.39-.31-2.93,.9-3.09,2.51-.16,1.68,.77,3.19,2.26,3.52,5.7,1.26,11.45,2.2,17.22,2.79,5.96,.61,11.95,.87,17.93,.8,5.79-.07,11.58-.47,17.33-1.21,5.75-.73,11.46-1.8,17.11-3.19,3.96-.98,7.89-2.1,11.77-3.38l.05-6.4Z"/>
            <path class="cls-51" d="M132.61,240.63c-3.06,1.06-6.15,2.01-9.26,2.87-5.62,1.52-11.31,2.71-17.05,3.57-5.84,.87-11.73,1.41-17.62,1.59-3.19,.1-6.39,.1-9.58,0-7.06-.26-14.11-1.01-21.09-2.27-1.99-.36-3.98-.76-5.96-1.2-1.39-.31-2.93,.9-3.09,2.51-.16,1.68,.77,3.19,2.26,3.52,5.7,1.26,11.45,2.2,17.22,2.79,5.96,.61,11.95,.87,17.93,.8,5.79-.07,11.58-.47,17.33-1.21,5.75-.73,11.46-1.8,17.11-3.19,3.96-.98,7.89-2.1,11.77-3.38l.05-6.4Z"/>
          </g>
          <g>
            <path class="cls-28" d="M47.03,247.22s-5.6,10.36-10.15,18.78,8.39,6.77,12.27,1.68c1.94-2.54,9.62-9.26,10.13-14.81,.32-3.51-9.47-10.8-12.25-5.66Z"/>
            <path class="cls-28" d="M50.11,250.37c2.02-.8,6.43-2.22,11.64-1.11,3.18,.68,5.06,1.96,7.6,3.68,.85,.57,1.99,1.43,2.24,2.8,.02,.13,.26,1.51-.48,2.08-.6,.47-1.56,.17-3.52-.64-1.36-.57-3.14-1.35-5.2-2.4-4.51,.7-9.02,1.4-13.52,2.11,0,0-5-3.48,1.24-6.52Z"/>
            <path class="cls-28" d="M48.8,245.72c1.79-1.12,6.18-3.5,11.87-3.03,0,0,4.69,.38,9.3,3.72,1.13,.82,1.91,1.63,1.86,2.58-.04,.65-.46,1.34-1.08,1.62-.95,.43-2.03-.28-3.12-.84-1.23-.63-3.08-1.37-5.7-1.74-3.82,1.31-7.65,2.62-11.47,3.93,0,0-6.56-3.35-1.66-6.23Z"/>
            <path class="cls-28" d="M47.78,254.03c1.21-.42,8.63-2.89,14.54,.94,.79,.51,3.52,2.33,4.71,5.65,.07,.18,1.28,3.65,.08,4.48-.66,.45-1.76-.09-2.4-.4h0c-.39-.39-2.12-2.04-5.2-4.96-4.56,.13-9.11,.26-13.67,.4,0,0-4.05-4.68,1.94-6.11Z"/>
            <path class="cls-28" d="M44.87,254.87c1.31,0,9.04,.06,13.81,3.96,.5,.41,2.37,2.01,3.47,4.67,.44,1.06,1.01,2.5,.32,3.52-.47,.69-1.36,.96-2,.96-1.78,0-3.59-2.23-4.45-5.54l-10.26-1.82s-6.48-4.82-.89-5.76Z"/>
          </g>
          <g>
            <g class="cls-45">
              <g class="cls-48">
                <path class="cls-49" d="M41.68,118.51c5.1,4.77,12.97,5.21,17.11,5.33,2.29,.07,6.66,.17,11.77-1.66,9.52-3.39,10.49-9.47,16.74-10.12,5.01-.52,5.98,3.24,13.79,6.62,10.03,4.35,25.36,5.5,32.74-2.39,3.63-3.88,4.29-8.83,4.48-10.42,.99-8.31-3.62-14.39-4.66-15.7-31.11,.83-62.22,1.67-93.33,2.5-.36,.99-6.55,18.43,1.37,25.82Z"/>
              </g>
            </g>
            <path class="cls-39" d="M37.94,97.33s46.12-10.82,99.01-1.62c0,0,1.41-1.56-.29-6.9,0,0-49.18-9.14-96.62,.55,0,0-3.77,3.23-2.09,7.98"/>
          </g>
        </g>
      </g>
    </g>
  </g>
</svg>