<?xml version="1.0" encoding="UTF-8"?>
<svg id="Layer_2" data-name="Layer 2" xmlns="http://www.w3.org/2000/svg" viewBox="0 0 52.63 52.63">
  <defs>
    <style>
      .cls-1 {
        fill: #fff;
      }
    </style>
  </defs>
  <g id="Camada_1" data-name="Camada 1">
    <g>
      <path class="cls-1" d="M42.11,52.63H11.23c-.34-.07-.68-.17-1.02-.21-2.77-.3-5.09-1.42-7.06-3.45-1.88-1.95-2.69-4.31-3.15-6.87V10.76c.11-.53,.21-1.06,.32-1.59C1.04,5.84,2.85,3.29,5.8,1.57c1.54-.9,3.25-1.23,4.97-1.57h31.11c2.6,.43,5.03,1.21,7.04,3.06,2.27,2.09,3.26,4.75,3.72,7.7v31.11c-.13,.65-.24,1.3-.4,1.94-1.11,4.44-3.89,7.23-8.31,8.41-.6,.16-1.21,.28-1.82,.42Zm3.43-26.4c0-2.92,0-5.84-.19-8.76-.38-5.83-4.41-9.85-10.22-10.17-5.88-.32-11.76-.3-17.64,0-5.64,.29-9.74,4.21-10.14,9.85-.42,6.03-.41,12.07-.02,18.11,.37,5.57,3.94,9.47,9.48,9.98,6.33,.58,12.7,.59,19.03-.02,5.64-.54,9.15-4.54,9.5-10.23,.18-2.92,.2-5.84,.19-8.76Z"/>
      <path class="cls-1" d="M26.33,42.13c-2.53,0-5.07,.07-7.6-.01-5.5-.18-8.09-2.7-8.22-8.18-.12-5.06-.12-10.13,0-15.19,.13-5.37,2.57-7.95,7.85-8.2,5.37-.25,10.75-.24,16.12,0,4.95,.22,7.44,2.79,7.6,7.94,.17,5.29,.16,10.6,0,15.89-.14,4.96-2.86,7.56-7.82,7.74-2.65,.1-5.3,.02-7.95,.02,0,0,0,0,0-.01Zm9.84-15.96c.05-5.11-4.49-9.61-9.79-9.7-5.23-.08-9.86,4.44-9.91,9.69-.05,5.33,4.41,9.9,9.74,9.99,5.42,.09,9.9-4.4,9.96-9.99Zm2.61-10.15c0-1.22-.92-2.13-2.14-2.15-1.26-.02-2.2,.94-2.18,2.22,.02,1.19,.97,2.11,2.19,2.1,1.18,0,2.14-.98,2.13-2.17Z"/>
      <path class="cls-1" d="M26.27,32.82c-3.67-.03-6.51-2.93-6.46-6.58,.05-3.67,2.92-6.47,6.61-6.43,3.58,.04,6.42,2.94,6.4,6.53-.02,3.69-2.87,6.51-6.55,6.48Z"/>
    </g>
  </g>
</svg>