<?xml version="1.0" encoding="UTF-8"?>
<svg id="Layer_2" data-name="Layer 2" xmlns="http://www.w3.org/2000/svg" viewBox="0 0 49.62 49.62">
  <defs>
    <style>
      .cls-1 {
        fill: #fff;
      }
    </style>
  </defs>
  <g id="Camada_1" data-name="Camada 1">
    <path class="cls-1" d="M26.46,49.6c-8.52,0-17.04-.01-25.56,.02-.75,0-.9-.15-.9-.9C.03,32.48,.02,16.25,.02,.02c16.23,0,32.46,0,48.69-.02,.75,0,.9,.15,.9,.9-.03,15.94-.03,31.87,0,47.81,0,.75-.15,.91-.9,.9-4.85-.04-9.69-.02-14.54-.02-.01-6.02-.02-12.04-.05-18.06,0-.83,.3-1.2,1.17-1.18,1.43,.04,2.86,0,4.29,0,.65,0,1.04-.22,1.12-.92,.23-1.89,.45-3.79,.73-5.68,.12-.82-.22-1.04-.96-1.03-1.73,.02-3.45-.02-5.18,0-.84,.01-1.2-.34-1.18-1.18,.03-1.32-.02-2.64,.01-3.96,.05-2.12,1.16-3.22,3.31-3.27,1.03-.03,2.06-.03,3.08,0,.79,.01,1.14-.33,1.14-1.12-.01-1.47-.03-2.94,0-4.41,.03-.97-.42-1.28-1.34-1.26-1.76,.04-3.52,0-5.29,.02-4.84,.07-8.46,3.69-8.53,8.54-.02,1.73-.05,3.45,0,5.18,.04,1.07-.29,1.56-1.43,1.5-1.24-.07-2.5,.02-3.74-.02-.97-.04-1.3,.38-1.28,1.31,.04,1.69,.04,3.38,0,5.07-.03,.98,.39,1.29,1.32,1.26,1.32-.05,2.64,.01,3.96-.02,.76-.02,1.16,.23,1.15,1.07-.03,6.06-.04,12.11-.06,18.17Z"/>
  </g>
</svg>