<?xml version="1.0" encoding="UTF-8"?>
<svg id="Layer_2" data-name="Layer 2" xmlns="http://www.w3.org/2000/svg" viewBox="0 0 50.46 50.78">
  <defs>
    <style>
      .cls-1 {
        fill: #fff;
      }
    </style>
  </defs>
  <g id="Camada_1" data-name="Camada 1">
    <path class="cls-1" d="M50.45,25.52c0,6.3,.02,12.6,0,18.9-.02,3.96-2.15,6.28-6.11,6.3-12.69,.08-25.38,.07-38.06,0-4.11-.02-6.24-2.31-6.25-6.44C0,31.69,0,19.09,.02,6.49,.02,2.37,2.16,.07,6.27,.05,18.96-.02,31.64-.02,44.33,.06c3.96,.02,6.09,2.35,6.11,6.3,.03,6.39,0,12.77,0,19.16Zm-28.3,4.4c0,2.47,.1,4.94-.03,7.4-.12,2.17,.6,2.98,2.89,3.01,2.46,.03,2.75-1.11,2.74-3.12,0-3.22-.42-6.48,.3-9.67,.47-2.1,1.86-3.18,4.04-3.15,2.16,.04,3.24,1.32,3.6,3.28,.2,1.08,.26,2.19,.28,3.3,.04,2.47,0,4.94,.04,7.4,.03,2.55,1.99,1.75,3.37,1.86,1.33,.1,2.6,.09,2.56-1.87-.07-3.91,.07-7.83-.08-11.74-.11-2.91-.89-5.72-3.88-6.95-3-1.23-6-1.1-8.6,1.19-.7,.62-1.16,1.19-1.78-.25-.81-1.88-2.68-.97-4.07-.92-1.59,.05-1.35,1.49-1.36,2.55-.04,2.55-.01,5.11-.01,7.66Zm-4.77,.06c0-2.72-.08-5.45,.03-8.17,.07-1.92-.92-2.34-2.53-2.23-1.52,.11-3.46-.51-3.46,2.12,.02,5.53,0,11.07,0,16.6,0,2.51,1.9,1.85,3.32,1.95,1.5,.1,2.72-.09,2.66-2.1-.08-2.72-.02-5.45-.02-8.17Zm-2.76-13.79c1.86-.23,3.39-2.1,3.21-3.92-.2-2.05-2.07-3.56-4.06-3.27-1.88,.27-3.35,2.16-3.1,3.98,.25,1.83,2.22,3.43,3.95,3.21Z"/>
  </g>
</svg>